G04 #@! TF.GenerationSoftware,KiCad,Pcbnew,9.0.0*
G04 #@! TF.CreationDate,2025-03-28T10:35:15+01:00*
G04 #@! TF.ProjectId,Blinkenstar,426c696e-6b65-46e7-9374-61722e6b6963,rev?*
G04 #@! TF.SameCoordinates,Original*
G04 #@! TF.FileFunction,Copper,L2,Bot*
G04 #@! TF.FilePolarity,Positive*
%FSLAX46Y46*%
G04 Gerber Fmt 4.6, Leading zero omitted, Abs format (unit mm)*
G04 Created by KiCad (PCBNEW 9.0.0) date 2025-03-28 10:35:15*
%MOMM*%
%LPD*%
G01*
G04 APERTURE LIST*
G04 #@! TA.AperFunction,SMDPad,CuDef*
%ADD10R,1.100000X1.000000*%
G04 #@! TD*
G04 #@! TA.AperFunction,SMDPad,CuDef*
%ADD11R,1.100000X0.300000*%
G04 #@! TD*
G04 #@! TA.AperFunction,SMDPad,CuDef*
%ADD12R,0.300000X1.100000*%
G04 #@! TD*
G04 #@! TA.AperFunction,ComponentPad*
%ADD13C,1.778000*%
G04 #@! TD*
G04 #@! TA.AperFunction,ComponentPad*
%ADD14C,2.184400*%
G04 #@! TD*
G04 #@! TA.AperFunction,ComponentPad*
%ADD15O,1.524000X3.048000*%
G04 #@! TD*
G04 #@! TA.AperFunction,SMDPad,CuDef*
%ADD16R,1.050000X1.080000*%
G04 #@! TD*
G04 #@! TA.AperFunction,SMDPad,CuDef*
%ADD17R,1.080000X1.050000*%
G04 #@! TD*
G04 #@! TA.AperFunction,SMDPad,CuDef*
%ADD18R,2.209800X0.609600*%
G04 #@! TD*
G04 #@! TA.AperFunction,ComponentPad*
%ADD19C,1.625600*%
G04 #@! TD*
G04 #@! TA.AperFunction,SMDPad,CuDef*
%ADD20R,1.800000X1.500000*%
G04 #@! TD*
G04 #@! TA.AperFunction,SMDPad,CuDef*
%ADD21R,1.000000X1.100000*%
G04 #@! TD*
G04 #@! TA.AperFunction,ViaPad*
%ADD22C,0.600000*%
G04 #@! TD*
G04 #@! TA.AperFunction,ViaPad*
%ADD23C,3.300000*%
G04 #@! TD*
G04 #@! TA.AperFunction,ViaPad*
%ADD24C,0.704800*%
G04 #@! TD*
G04 #@! TA.AperFunction,Conductor*
%ADD25C,0.200000*%
G04 #@! TD*
G04 #@! TA.AperFunction,Conductor*
%ADD26C,0.500000*%
G04 #@! TD*
G04 #@! TA.AperFunction,Conductor*
%ADD27C,0.400000*%
G04 #@! TD*
G04 #@! TA.AperFunction,Conductor*
%ADD28C,0.254000*%
G04 #@! TD*
G04 #@! TA.AperFunction,Conductor*
%ADD29C,0.300000*%
G04 #@! TD*
G04 APERTURE END LIST*
D10*
X119915114Y-80321302D03*
X119915114Y-82021302D03*
D11*
X110744800Y-86200000D03*
X110744800Y-87000000D03*
X110744800Y-87800000D03*
X110744800Y-88600000D03*
X110744800Y-89400000D03*
X110744800Y-90200000D03*
X110744800Y-91000000D03*
X110744800Y-91800000D03*
D12*
X112072400Y-93127600D03*
X112872400Y-93127600D03*
X113672400Y-93127600D03*
X114472400Y-93127600D03*
X115272400Y-93127600D03*
X116072400Y-93127600D03*
X116872400Y-93127600D03*
X117672400Y-93127600D03*
D11*
X119000000Y-91800000D03*
X119000000Y-91000000D03*
X119000000Y-90200000D03*
X119000000Y-89400000D03*
X119000000Y-88600000D03*
X119000000Y-87800000D03*
X119000000Y-87000000D03*
X119000000Y-86200000D03*
D12*
X117672400Y-84872400D03*
X116872400Y-84872400D03*
X116072400Y-84872400D03*
X115272400Y-84872400D03*
X114472400Y-84872400D03*
X113672400Y-84872400D03*
X112872400Y-84872400D03*
X112072400Y-84872400D03*
D13*
X122294055Y-98326459D03*
X122294055Y-95786459D03*
X122294055Y-93246459D03*
X122294055Y-90706459D03*
X122294055Y-88166459D03*
X122294055Y-85626459D03*
X122294055Y-83086459D03*
X122294055Y-80546459D03*
X107294055Y-80546459D03*
X107294055Y-83086459D03*
X107294055Y-85626459D03*
X107294055Y-88166459D03*
X107294055Y-90706459D03*
X107294055Y-93246459D03*
X107294055Y-95786459D03*
X107294055Y-98326459D03*
D14*
X114705155Y-78880577D03*
X114705155Y-99880577D03*
D15*
X135977855Y-118146559D03*
X135977855Y-124648959D03*
X140499055Y-118146559D03*
X140499055Y-124648959D03*
D16*
X116796814Y-95801699D03*
X115046814Y-95801699D03*
D10*
X108670118Y-75958318D03*
X108670118Y-74258318D03*
D17*
X109526015Y-82033599D03*
X109526015Y-80283599D03*
X111933055Y-80306459D03*
X111933055Y-82056459D03*
D18*
X111321800Y-75355000D03*
X111321800Y-74085000D03*
X111321800Y-72815000D03*
X111321800Y-71545000D03*
X118052800Y-71545000D03*
X118052800Y-72815000D03*
X118052800Y-74085000D03*
X118052800Y-75355000D03*
D10*
X121055155Y-76031980D03*
X121055155Y-74331980D03*
D19*
X133060000Y-82130000D03*
X133060000Y-84670000D03*
X135600000Y-82130000D03*
X135600000Y-84670000D03*
X138140000Y-82130000D03*
X138140000Y-84670000D03*
D14*
X119794055Y-107296459D03*
X117294055Y-107296459D03*
X114794055Y-112296459D03*
X109794055Y-107296459D03*
X112294055Y-107296459D03*
D20*
X125750000Y-100950000D03*
X125750000Y-104550000D03*
D10*
X117594055Y-80331459D03*
X117594055Y-82031459D03*
D20*
X104893000Y-100600000D03*
X104893000Y-104200000D03*
D10*
X111450000Y-101700000D03*
X111450000Y-103400000D03*
D21*
X113100000Y-96750000D03*
X111400000Y-96750000D03*
D15*
X88767255Y-117997759D03*
X88767255Y-124500159D03*
X93288455Y-117997759D03*
X93288455Y-124500159D03*
D22*
X115224036Y-82550000D03*
X109950000Y-92550000D03*
X110100000Y-93900000D03*
X110300000Y-99200000D03*
X110550000Y-104350000D03*
X117400000Y-100650000D03*
X123000000Y-101350000D03*
X118050000Y-97050000D03*
X114705155Y-97150000D03*
X115224036Y-84350000D03*
X118750000Y-81305459D03*
X137750000Y-83800000D03*
X108800000Y-87550000D03*
X108850000Y-90050000D03*
X109000000Y-78250000D03*
X124400000Y-81700000D03*
X126000000Y-93700000D03*
X120250000Y-94100000D03*
X118050000Y-94550000D03*
X113950000Y-94750000D03*
X112550000Y-95100000D03*
X112550000Y-89450000D03*
X117950000Y-89950000D03*
X114950000Y-91200000D03*
X116800000Y-91200000D03*
X116700000Y-90000000D03*
X115500000Y-90050000D03*
X114050000Y-88950000D03*
X112550000Y-90400000D03*
X114450000Y-92400000D03*
X120800000Y-99900000D03*
X111800000Y-98150000D03*
X116633989Y-83733989D03*
X118750000Y-83150000D03*
X121050000Y-84250000D03*
X116550000Y-80350000D03*
X112950000Y-82500000D03*
X116500000Y-81305459D03*
X109850000Y-89400000D03*
X120136587Y-73413413D03*
X119000000Y-92450000D03*
X120850000Y-98326459D03*
X121665030Y-89334970D03*
X120450000Y-88050000D03*
X113650000Y-83733989D03*
X115300000Y-85675000D03*
X113700000Y-86899000D03*
X116901000Y-88701000D03*
X114650000Y-89400000D03*
X120050000Y-90200000D03*
X119900000Y-91350000D03*
X117650000Y-92000000D03*
X110900000Y-80299112D03*
X116072400Y-92350000D03*
X109250000Y-99800000D03*
X109025000Y-91075000D03*
X113300000Y-81250000D03*
D23*
X114550000Y-50800000D03*
D22*
X123650000Y-84350000D03*
X110700000Y-76550000D03*
X114600000Y-72900000D03*
D24*
X105000000Y-90400000D03*
D22*
X109250000Y-101350000D03*
D25*
X110326000Y-80283599D02*
X109526015Y-80283599D01*
X110900000Y-80299112D02*
X110341513Y-80299112D01*
X110341513Y-80299112D02*
X110326000Y-80283599D01*
X109250000Y-101350000D02*
X108250000Y-102350000D01*
X108250000Y-102350000D02*
X103100000Y-102350000D01*
X103100000Y-102350000D02*
X88767255Y-116682745D01*
X88767255Y-116682745D02*
X88767255Y-117997759D01*
X109250000Y-92094800D02*
X110344800Y-91000000D01*
X109250000Y-99800000D02*
X109250000Y-92094800D01*
X110344800Y-91000000D02*
X110744800Y-91000000D01*
X105000000Y-90400000D02*
X105000000Y-76950000D01*
X105000000Y-76950000D02*
X107691682Y-74258318D01*
X107691682Y-74258318D02*
X108670118Y-74258318D01*
X106244415Y-81844399D02*
X105742324Y-82252465D01*
X105742324Y-82252465D02*
X105700000Y-82294789D01*
X108445215Y-81844399D02*
X106244415Y-81844399D01*
X105700000Y-82294789D02*
X105700000Y-99793000D01*
X109526015Y-82033599D02*
X108445215Y-81844399D01*
X105700000Y-99793000D02*
X104893000Y-100600000D01*
X109900000Y-90200000D02*
X110744800Y-90200000D01*
X109025000Y-91075000D02*
X109900000Y-90200000D01*
X107294055Y-83086459D02*
X109057596Y-84850000D01*
X112050000Y-84850000D02*
X112072400Y-84872400D01*
X109057596Y-84850000D02*
X112050000Y-84850000D01*
X116872400Y-84872400D02*
X116872400Y-84472400D01*
X116872400Y-84472400D02*
X117248400Y-84096400D01*
X123050000Y-86900000D02*
X123550000Y-87400000D01*
X117248400Y-84096400D02*
X118877147Y-84096400D01*
X118877147Y-84096400D02*
X121680747Y-86900000D01*
X121680747Y-86900000D02*
X123050000Y-86900000D01*
X123550000Y-87400000D02*
X123550000Y-94530514D01*
X123550000Y-94530514D02*
X122294055Y-95786459D01*
X119305132Y-91000000D02*
X119000000Y-91000000D01*
X119900000Y-91350000D02*
X119850558Y-91300558D01*
X119850558Y-91300558D02*
X119605690Y-91300558D01*
X119605690Y-91300558D02*
X119305132Y-91000000D01*
X122294055Y-93246459D02*
X122294055Y-92752178D01*
X119682123Y-90576000D02*
X114720801Y-90576000D01*
X122294055Y-92752178D02*
X120267877Y-90726001D01*
X120267877Y-90726000D02*
X119832123Y-90726000D01*
X119832123Y-90726000D02*
X119682123Y-90576000D01*
X120267877Y-90726001D02*
X120267877Y-90726000D01*
X111144801Y-87000000D02*
X110744800Y-87000000D01*
X114720801Y-90576000D02*
X111144801Y-87000000D01*
X115224036Y-82550000D02*
X115224036Y-84350000D01*
D26*
X114705155Y-97150000D02*
X114705155Y-99880577D01*
D25*
X115224036Y-84350000D02*
X115224036Y-84824036D01*
X118750000Y-81305459D02*
X119199271Y-81305459D01*
X116800000Y-91200000D02*
X117593877Y-91200000D01*
X118176000Y-91782123D02*
X118176000Y-94424000D01*
X118176000Y-94424000D02*
X118050000Y-94550000D01*
X117593877Y-91200000D02*
X118176000Y-91782123D01*
X112550000Y-90400000D02*
X113350000Y-91200000D01*
X113350000Y-91200000D02*
X114950000Y-91200000D01*
X116700000Y-90000000D02*
X115550000Y-90000000D01*
X115550000Y-90000000D02*
X115500000Y-90050000D01*
X117950000Y-89950000D02*
X116750000Y-89950000D01*
X116750000Y-89950000D02*
X116700000Y-90000000D01*
D26*
X121055155Y-76031980D02*
X121055155Y-78044845D01*
X121055155Y-78044845D02*
X120516673Y-78583327D01*
X133060000Y-84670000D02*
X133060000Y-89040000D01*
X133060000Y-89040000D02*
X125048541Y-97051459D01*
X125048541Y-97051459D02*
X123298541Y-97051459D01*
D25*
X120850000Y-98326459D02*
X124573541Y-98326459D01*
X124573541Y-98326459D02*
X134350000Y-88550000D01*
X134350000Y-88550000D02*
X134350000Y-83420000D01*
X134350000Y-83420000D02*
X133060000Y-82130000D01*
X113296400Y-96553600D02*
X113296400Y-92351600D01*
X113848000Y-91800000D02*
X116546400Y-91800000D01*
X116546400Y-91800000D02*
X116872400Y-92126000D01*
X113296400Y-92351600D02*
X113848000Y-91800000D01*
X113100000Y-96750000D02*
X113296400Y-96553600D01*
X116872400Y-92126000D02*
X116872400Y-93127600D01*
X116072400Y-92350000D02*
X116072400Y-93127600D01*
X114650000Y-89400000D02*
X119000000Y-89400000D01*
D26*
X114472400Y-93127600D02*
X114472400Y-95227285D01*
X114472400Y-95227285D02*
X115046814Y-95801699D01*
D25*
X111450000Y-103400000D02*
X111450000Y-103862404D01*
X111450000Y-103862404D02*
X112487596Y-104900000D01*
X112487596Y-104900000D02*
X118192596Y-104900000D01*
X119794055Y-106501459D02*
X119794055Y-107296459D01*
X118192596Y-104900000D02*
X119794055Y-106501459D01*
X125750000Y-104550000D02*
X125650000Y-104450000D01*
X125650000Y-104450000D02*
X114200000Y-104450000D01*
X114200000Y-104450000D02*
X111450000Y-101700000D01*
X104893000Y-100600000D02*
X110350000Y-100600000D01*
X110350000Y-100600000D02*
X111450000Y-101700000D01*
X138140000Y-82130000D02*
X136965855Y-83304145D01*
X123543877Y-99900000D02*
X120800000Y-99900000D01*
X136965855Y-86478022D02*
X123543877Y-99900000D01*
X136965855Y-83304145D02*
X136965855Y-86478022D01*
X111800000Y-98150000D02*
X111800000Y-97150000D01*
X111800000Y-97150000D02*
X111400000Y-96750000D01*
X110744800Y-88600000D02*
X111144800Y-88600000D01*
X111144800Y-88600000D02*
X111520800Y-88976000D01*
X111520800Y-88976000D02*
X111520800Y-96629200D01*
X111520800Y-96629200D02*
X111400000Y-96750000D01*
X135977855Y-118146559D02*
X135977855Y-110927855D01*
X127700000Y-102650000D02*
X122128115Y-102650000D01*
X135977855Y-110927855D02*
X127700000Y-102650000D01*
X115900000Y-96421885D02*
X115900000Y-94900000D01*
X122128115Y-102650000D02*
X115900000Y-96421885D01*
X115900000Y-94900000D02*
X115272400Y-94272400D01*
X115272400Y-94272400D02*
X115272400Y-93127600D01*
X112872400Y-84322400D02*
X112872400Y-84872400D01*
X113460811Y-83733989D02*
X112872400Y-84322400D01*
X113650000Y-83733989D02*
X113460811Y-83733989D01*
X116500000Y-81305459D02*
X118750000Y-81305459D01*
X119199271Y-81305459D02*
X119915114Y-82021302D01*
X115224036Y-84824036D02*
X115272400Y-84872400D01*
X116500000Y-81305459D02*
X116255454Y-81305459D01*
X116255454Y-81305459D02*
X115224036Y-82336877D01*
X115224036Y-82336877D02*
X115224036Y-82550000D01*
X116668207Y-83699771D02*
X118941552Y-83699771D01*
X118941552Y-83699771D02*
X120868240Y-85626459D01*
X116633989Y-83733989D02*
X116668207Y-83699771D01*
X120868240Y-85626459D02*
X122294055Y-85626459D01*
X121050000Y-84250000D02*
X121050000Y-81790514D01*
X121050000Y-81790514D02*
X122294055Y-80546459D01*
X121000000Y-87750000D02*
X120674000Y-87424000D01*
X109636514Y-85824000D02*
X107294055Y-88166459D01*
X120674000Y-87424000D02*
X113120800Y-87424000D01*
X121000000Y-88669940D02*
X121000000Y-87750000D01*
X113120800Y-87424000D02*
X111520800Y-85824000D01*
X121665030Y-89334970D02*
X121000000Y-88669940D01*
X111520800Y-85824000D02*
X109636514Y-85824000D01*
X116568541Y-80331459D02*
X116550000Y-80350000D01*
X117594055Y-80331459D02*
X116568541Y-80331459D01*
X111933055Y-82056459D02*
X112506459Y-82056459D01*
X112506459Y-82056459D02*
X112950000Y-82500000D01*
D26*
X110564055Y-78006459D02*
X114159055Y-78006459D01*
X114472400Y-84872400D02*
X114472400Y-79113332D01*
D25*
X114472400Y-79113332D02*
X114705155Y-78880577D01*
D26*
X115046814Y-95801699D02*
X115046814Y-96046814D01*
X115046814Y-96046814D02*
X114705155Y-96388473D01*
X114705155Y-96388473D02*
X114705155Y-97150000D01*
D25*
X120136587Y-73413413D02*
X121055155Y-74331980D01*
X109850000Y-89400000D02*
X110744800Y-89400000D01*
D27*
X123298541Y-97051459D02*
X121151459Y-97051459D01*
D26*
X119901699Y-95801699D02*
X116796814Y-95801699D01*
X121151459Y-97051459D02*
X119901699Y-95801699D01*
D25*
X119000000Y-91800000D02*
X119000000Y-92450000D01*
D26*
X116872400Y-93127600D02*
X116872400Y-95726113D01*
D25*
X116872400Y-95726113D02*
X116796814Y-95801699D01*
X119000000Y-87800000D02*
X120200000Y-87800000D01*
X120200000Y-87800000D02*
X120450000Y-88050000D01*
X117149000Y-88701000D02*
X117348000Y-88502000D01*
X116901000Y-88701000D02*
X117149000Y-88701000D01*
X117348000Y-88502000D02*
X118902000Y-88502000D01*
X118902000Y-88502000D02*
X119000000Y-88600000D01*
X115272400Y-85647400D02*
X115300000Y-85675000D01*
X115272400Y-84872400D02*
X115272400Y-85647400D01*
X115272400Y-84872400D02*
X115272400Y-84472400D01*
X116072400Y-84872400D02*
X116072400Y-83553114D01*
X116072400Y-83553114D02*
X117594055Y-82031459D01*
X117672400Y-84872400D02*
X118999996Y-84872400D01*
X118999996Y-84872400D02*
X122294055Y-88166459D01*
X119000000Y-86200000D02*
X112357834Y-86200000D01*
X112357834Y-86200000D02*
X111655834Y-85498000D01*
X108339314Y-85498000D02*
X107752455Y-86084859D01*
X111655834Y-85498000D02*
X108339314Y-85498000D01*
X119000000Y-87000000D02*
X113801000Y-87000000D01*
X113801000Y-87000000D02*
X113700000Y-86899000D01*
X119000000Y-90200000D02*
X120050000Y-90200000D01*
X117672400Y-92022400D02*
X117650000Y-92000000D01*
X117672400Y-93127600D02*
X117672400Y-92022400D01*
X110744800Y-87800000D02*
X109661230Y-87800000D01*
X109661230Y-87800000D02*
X107294055Y-90167175D01*
X110744800Y-86200000D02*
X111144800Y-86200000D01*
X111144800Y-86200000D02*
X113120800Y-88176000D01*
X113120800Y-88176000D02*
X119763596Y-88176000D01*
X119763596Y-88176000D02*
X122294055Y-90706459D01*
D26*
X114705155Y-78880577D02*
X114935732Y-78650000D01*
X114935732Y-78650000D02*
X125656123Y-78650000D01*
X125656123Y-78650000D02*
X131676123Y-84670000D01*
X131676123Y-84670000D02*
X133060000Y-84670000D01*
D25*
X107294055Y-93246459D02*
X107752455Y-92788059D01*
X107294055Y-85626459D02*
X107752455Y-86084859D01*
X107294055Y-80546459D02*
X108490514Y-79350000D01*
X108490514Y-79350000D02*
X112493596Y-79350000D01*
X113300000Y-80156404D02*
X113300000Y-81250000D01*
X112493596Y-79350000D02*
X113300000Y-80156404D01*
D28*
X107294055Y-90167175D02*
X107294055Y-90706459D01*
D26*
X118729780Y-76031980D02*
X118052800Y-75355000D01*
D25*
X114159055Y-79276459D02*
X114159055Y-78006459D01*
D26*
X121055155Y-76031980D02*
X118729780Y-76031980D01*
D29*
X114392737Y-79692996D02*
X114705155Y-78880577D01*
D26*
X110564055Y-78006459D02*
X108670118Y-75958318D01*
D25*
X116699055Y-95786459D02*
X116796814Y-95801699D01*
X114159055Y-79276459D02*
X114705155Y-78880577D01*
X115713173Y-99880577D02*
X114705155Y-99880577D01*
X115046814Y-95801699D02*
X114635334Y-95390218D01*
X108670118Y-71579882D02*
X109700000Y-70550000D01*
X117057800Y-70550000D02*
X118052800Y-71545000D01*
X109700000Y-70550000D02*
X117057800Y-70550000D01*
X108670118Y-74258318D02*
X108670118Y-71579882D01*
X121055155Y-74331980D02*
X119538175Y-72815000D01*
X120664633Y-73941459D02*
X121055155Y-74331980D01*
X119538175Y-72815000D02*
X118052800Y-72815000D01*
X122294055Y-98326459D02*
X122294055Y-97944840D01*
X109526015Y-80283599D02*
X110668921Y-80297468D01*
X119915114Y-80321302D02*
X117594055Y-80331459D01*
X109664555Y-80283599D02*
X109526015Y-80283599D01*
X110668921Y-80297468D02*
X111933055Y-80306459D01*
G04 #@! TA.AperFunction,Conductor*
G36*
X110017829Y-92418173D02*
G01*
X110087317Y-92444091D01*
X110146927Y-92450500D01*
X110796300Y-92450499D01*
X110863339Y-92470183D01*
X110909094Y-92522987D01*
X110920300Y-92574499D01*
X110920300Y-95580787D01*
X110900615Y-95647826D01*
X110847811Y-95693581D01*
X110809556Y-95704076D01*
X110792519Y-95705907D01*
X110657671Y-95756202D01*
X110657664Y-95756206D01*
X110542455Y-95842452D01*
X110542452Y-95842455D01*
X110456206Y-95957664D01*
X110456202Y-95957671D01*
X110405908Y-96092517D01*
X110399501Y-96152116D01*
X110399500Y-96152135D01*
X110399500Y-97347870D01*
X110399501Y-97347876D01*
X110405908Y-97407483D01*
X110456202Y-97542328D01*
X110456206Y-97542335D01*
X110542452Y-97657544D01*
X110542455Y-97657547D01*
X110657664Y-97743793D01*
X110657671Y-97743797D01*
X110702618Y-97760561D01*
X110792517Y-97794091D01*
X110852127Y-97800500D01*
X110902242Y-97800499D01*
X110969280Y-97820182D01*
X111015035Y-97872985D01*
X111024980Y-97942144D01*
X111023860Y-97948690D01*
X110999500Y-98071159D01*
X110999500Y-98228846D01*
X111030261Y-98383489D01*
X111030264Y-98383501D01*
X111090602Y-98529172D01*
X111090609Y-98529185D01*
X111178210Y-98660288D01*
X111178213Y-98660292D01*
X111289707Y-98771786D01*
X111289711Y-98771789D01*
X111420814Y-98859390D01*
X111420827Y-98859397D01*
X111566498Y-98919735D01*
X111566503Y-98919737D01*
X111709837Y-98948248D01*
X111721153Y-98950499D01*
X111721156Y-98950500D01*
X111721158Y-98950500D01*
X111878844Y-98950500D01*
X111878845Y-98950499D01*
X112033497Y-98919737D01*
X112146166Y-98873067D01*
X112179172Y-98859397D01*
X112179172Y-98859396D01*
X112179179Y-98859394D01*
X112310289Y-98771789D01*
X112421789Y-98660289D01*
X112509394Y-98529179D01*
X112569737Y-98383497D01*
X112600500Y-98228842D01*
X112600500Y-98071158D01*
X112600500Y-98071155D01*
X112600499Y-98071153D01*
X112576140Y-97948690D01*
X112582367Y-97879099D01*
X112625230Y-97823921D01*
X112691120Y-97800677D01*
X112697724Y-97800499D01*
X113647872Y-97800499D01*
X113707483Y-97794091D01*
X113842331Y-97743796D01*
X113957546Y-97657546D01*
X114043796Y-97542331D01*
X114094091Y-97407483D01*
X114100500Y-97347873D01*
X114100499Y-96896175D01*
X114120183Y-96829139D01*
X114172987Y-96783384D01*
X114242146Y-96773440D01*
X114271006Y-96783047D01*
X114271415Y-96781953D01*
X114414434Y-96835295D01*
X114414441Y-96835297D01*
X114473969Y-96841698D01*
X114473986Y-96841699D01*
X114796814Y-96841699D01*
X114796814Y-95925699D01*
X114816499Y-95858660D01*
X114869303Y-95812905D01*
X114920814Y-95801699D01*
X115172814Y-95801699D01*
X115239853Y-95821384D01*
X115285608Y-95874188D01*
X115296814Y-95925699D01*
X115296814Y-96841699D01*
X115419216Y-96841699D01*
X115448655Y-96850343D01*
X115478641Y-96856866D01*
X115483657Y-96860621D01*
X115486255Y-96861384D01*
X115506890Y-96878011D01*
X115531284Y-96902405D01*
X115531286Y-96902406D01*
X121759399Y-103130520D01*
X121759401Y-103130521D01*
X121759405Y-103130524D01*
X121893444Y-103207910D01*
X121896331Y-103209577D01*
X122049058Y-103250501D01*
X122049060Y-103250501D01*
X122214769Y-103250501D01*
X122214785Y-103250500D01*
X124388429Y-103250500D01*
X124455468Y-103270185D01*
X124501223Y-103322989D01*
X124511167Y-103392147D01*
X124487695Y-103448811D01*
X124406206Y-103557664D01*
X124406202Y-103557671D01*
X124355910Y-103692513D01*
X124355909Y-103692517D01*
X124350937Y-103738757D01*
X124324201Y-103803306D01*
X124266809Y-103843154D01*
X124227649Y-103849500D01*
X114500097Y-103849500D01*
X114433058Y-103829815D01*
X114412416Y-103813181D01*
X112536818Y-101937583D01*
X112503333Y-101876260D01*
X112500499Y-101849902D01*
X112500499Y-101152129D01*
X112500498Y-101152123D01*
X112494091Y-101092516D01*
X112443797Y-100957671D01*
X112443793Y-100957664D01*
X112357547Y-100842455D01*
X112357544Y-100842452D01*
X112242335Y-100756206D01*
X112242328Y-100756202D01*
X112107482Y-100705908D01*
X112107483Y-100705908D01*
X112047883Y-100699501D01*
X112047881Y-100699500D01*
X112047873Y-100699500D01*
X112047865Y-100699500D01*
X111350097Y-100699500D01*
X111283058Y-100679815D01*
X111262416Y-100663181D01*
X110837589Y-100238354D01*
X110830520Y-100231285D01*
X110830520Y-100231284D01*
X110718716Y-100119480D01*
X110631904Y-100069360D01*
X110631904Y-100069359D01*
X110631900Y-100069358D01*
X110581785Y-100040423D01*
X110429057Y-99999499D01*
X110270943Y-99999499D01*
X110263347Y-99999499D01*
X110263331Y-99999500D01*
X110174500Y-99999500D01*
X110107461Y-99979815D01*
X110061706Y-99927011D01*
X110050500Y-99875500D01*
X110050500Y-99721155D01*
X110044667Y-99691832D01*
X110044667Y-99691831D01*
X110032482Y-99630577D01*
X113132705Y-99630577D01*
X113996914Y-99630577D01*
X113983977Y-99661810D01*
X113955155Y-99806708D01*
X113955155Y-99954446D01*
X113983977Y-100099344D01*
X113996914Y-100130577D01*
X113132705Y-100130577D01*
X113152161Y-100253419D01*
X113229604Y-100491767D01*
X113343386Y-100715074D01*
X113490687Y-100917818D01*
X113490691Y-100917823D01*
X113667908Y-101095040D01*
X113667913Y-101095044D01*
X113870657Y-101242345D01*
X114093964Y-101356127D01*
X114332312Y-101433570D01*
X114455155Y-101453027D01*
X114455155Y-100588817D01*
X114486388Y-100601755D01*
X114631286Y-100630577D01*
X114779024Y-100630577D01*
X114923922Y-100601755D01*
X114955155Y-100588817D01*
X114955155Y-101453026D01*
X115077997Y-101433570D01*
X115316345Y-101356127D01*
X115539652Y-101242345D01*
X115742396Y-101095044D01*
X115742401Y-101095040D01*
X115919618Y-100917823D01*
X115919622Y-100917818D01*
X116066923Y-100715074D01*
X116180705Y-100491767D01*
X116258148Y-100253419D01*
X116277605Y-100130577D01*
X115413396Y-100130577D01*
X115426333Y-100099344D01*
X115455155Y-99954446D01*
X115455155Y-99806708D01*
X115426333Y-99661810D01*
X115413396Y-99630577D01*
X116277605Y-99630577D01*
X116258148Y-99507734D01*
X116180705Y-99269386D01*
X116066923Y-99046079D01*
X115919622Y-98843335D01*
X115919618Y-98843330D01*
X115742401Y-98666113D01*
X115742396Y-98666109D01*
X115539652Y-98518808D01*
X115316345Y-98405026D01*
X115077993Y-98327582D01*
X115077994Y-98327582D01*
X114955155Y-98308126D01*
X114955155Y-99172336D01*
X114923922Y-99159399D01*
X114779024Y-99130577D01*
X114631286Y-99130577D01*
X114486388Y-99159399D01*
X114455155Y-99172336D01*
X114455155Y-98308126D01*
X114455154Y-98308126D01*
X114332316Y-98327582D01*
X114093964Y-98405026D01*
X113870657Y-98518808D01*
X113667913Y-98666109D01*
X113667908Y-98666113D01*
X113490691Y-98843330D01*
X113490687Y-98843335D01*
X113343386Y-99046079D01*
X113229604Y-99269386D01*
X113152161Y-99507734D01*
X113132705Y-99630577D01*
X110032482Y-99630577D01*
X110027924Y-99607664D01*
X110019737Y-99566503D01*
X110016361Y-99558353D01*
X109959397Y-99420827D01*
X109959390Y-99420814D01*
X109871398Y-99289125D01*
X109850520Y-99222447D01*
X109850500Y-99220234D01*
X109850500Y-92534357D01*
X109870185Y-92467318D01*
X109922989Y-92421563D01*
X109992147Y-92411619D01*
X110017829Y-92418173D01*
G37*
G04 #@! TD.AperFunction*
G04 #@! TA.AperFunction,Conductor*
G36*
X119606508Y-96571884D02*
G01*
X119627150Y-96588518D01*
X120095091Y-97056459D01*
X120474806Y-97436173D01*
X120508291Y-97497496D01*
X120503307Y-97567187D01*
X120461435Y-97623121D01*
X120456016Y-97626956D01*
X120339711Y-97704669D01*
X120339707Y-97704672D01*
X120228213Y-97816166D01*
X120228210Y-97816170D01*
X120140609Y-97947273D01*
X120140602Y-97947286D01*
X120080264Y-98092957D01*
X120080261Y-98092969D01*
X120049500Y-98247612D01*
X120049500Y-98405305D01*
X120080261Y-98559948D01*
X120080264Y-98559960D01*
X120140602Y-98705631D01*
X120140609Y-98705644D01*
X120228210Y-98836747D01*
X120228213Y-98836751D01*
X120339708Y-98948246D01*
X120339711Y-98948248D01*
X120407319Y-98993422D01*
X120452124Y-99047033D01*
X120460831Y-99116358D01*
X120430677Y-99179386D01*
X120407320Y-99199626D01*
X120289707Y-99278213D01*
X120178213Y-99389707D01*
X120178210Y-99389711D01*
X120090609Y-99520814D01*
X120087736Y-99526191D01*
X120086711Y-99525643D01*
X120046766Y-99575204D01*
X119980470Y-99597263D01*
X119912772Y-99579978D01*
X119888374Y-99561023D01*
X117371236Y-97043886D01*
X117337751Y-96982563D01*
X117342735Y-96912871D01*
X117384607Y-96856938D01*
X117422328Y-96839305D01*
X117422029Y-96838501D01*
X117564142Y-96785496D01*
X117564141Y-96785496D01*
X117564145Y-96785495D01*
X117679360Y-96699245D01*
X117752242Y-96601887D01*
X117808175Y-96560017D01*
X117851508Y-96552199D01*
X119539469Y-96552199D01*
X119606508Y-96571884D01*
G37*
G04 #@! TD.AperFunction*
G04 #@! TA.AperFunction,Conductor*
G36*
X125360932Y-79420185D02*
G01*
X125381574Y-79436819D01*
X128293995Y-82349239D01*
X131197708Y-85252952D01*
X131232065Y-85275908D01*
X131233119Y-85276612D01*
X131233133Y-85276622D01*
X131320623Y-85335081D01*
X131320624Y-85335081D01*
X131320628Y-85335084D01*
X131363686Y-85352919D01*
X131457211Y-85391659D01*
X131573364Y-85414763D01*
X131592591Y-85418587D01*
X131602204Y-85420500D01*
X131602205Y-85420500D01*
X131602206Y-85420500D01*
X131750041Y-85420500D01*
X131918761Y-85420500D01*
X131985800Y-85440185D01*
X132019079Y-85471615D01*
X132058271Y-85525558D01*
X132204442Y-85671729D01*
X132258385Y-85710920D01*
X132301051Y-85766248D01*
X132309500Y-85811238D01*
X132309500Y-88677770D01*
X132289815Y-88744809D01*
X132273181Y-88765451D01*
X124773992Y-96264640D01*
X124712669Y-96298125D01*
X124686311Y-96300959D01*
X123758562Y-96300959D01*
X123691523Y-96281274D01*
X123645768Y-96228470D01*
X123635824Y-96159312D01*
X123640631Y-96138640D01*
X123649341Y-96111834D01*
X123673758Y-95957671D01*
X123683555Y-95895820D01*
X123683555Y-95677097D01*
X123654520Y-95493786D01*
X123649341Y-95461084D01*
X123628512Y-95396982D01*
X123626518Y-95327142D01*
X123658761Y-95270986D01*
X123908506Y-95021242D01*
X123908511Y-95021238D01*
X123918714Y-95011034D01*
X123918716Y-95011034D01*
X124030520Y-94899230D01*
X124109577Y-94762298D01*
X124150500Y-94609571D01*
X124150500Y-87489060D01*
X124150501Y-87489047D01*
X124150501Y-87320944D01*
X124150109Y-87319480D01*
X124109577Y-87168216D01*
X124109573Y-87168209D01*
X124030524Y-87031290D01*
X124030518Y-87031282D01*
X123502755Y-86503519D01*
X123469270Y-86442196D01*
X123474254Y-86372504D01*
X123480707Y-86359289D01*
X123480250Y-86359057D01*
X123501525Y-86317304D01*
X123581756Y-86159842D01*
X123649341Y-85951834D01*
X123678735Y-85766248D01*
X123683555Y-85735820D01*
X123683555Y-85517097D01*
X123658588Y-85359469D01*
X123649341Y-85301084D01*
X123604775Y-85163921D01*
X123581757Y-85093078D01*
X123581756Y-85093075D01*
X123534775Y-85000871D01*
X123482462Y-84898202D01*
X123470423Y-84881632D01*
X123353912Y-84721265D01*
X123199254Y-84566607D01*
X123168138Y-84544000D01*
X123048083Y-84456775D01*
X123005419Y-84401448D01*
X122999440Y-84331835D01*
X123032045Y-84270039D01*
X123048078Y-84256145D01*
X123199254Y-84146311D01*
X123353907Y-83991658D01*
X123353909Y-83991654D01*
X123353912Y-83991652D01*
X123435352Y-83879558D01*
X123482462Y-83814716D01*
X123581756Y-83619842D01*
X123649341Y-83411834D01*
X123673029Y-83262273D01*
X123683555Y-83195820D01*
X123683555Y-82977097D01*
X123658406Y-82818319D01*
X123649341Y-82761084D01*
X123600676Y-82611307D01*
X123581757Y-82553078D01*
X123581756Y-82553075D01*
X123522883Y-82437532D01*
X123482462Y-82358202D01*
X123444869Y-82306459D01*
X123353912Y-82181265D01*
X123199254Y-82026607D01*
X123191952Y-82021302D01*
X123048083Y-81916775D01*
X123005419Y-81861448D01*
X122999440Y-81791835D01*
X123032045Y-81730039D01*
X123048078Y-81716145D01*
X123199254Y-81606311D01*
X123353907Y-81451658D01*
X123353909Y-81451654D01*
X123353912Y-81451652D01*
X123425456Y-81353179D01*
X123482462Y-81274716D01*
X123581756Y-81079842D01*
X123649341Y-80871834D01*
X123666967Y-80760541D01*
X123683555Y-80655820D01*
X123683555Y-80437097D01*
X123654784Y-80255451D01*
X123649341Y-80221084D01*
X123581756Y-80013076D01*
X123581756Y-80013075D01*
X123547370Y-79945591D01*
X123482462Y-79818202D01*
X123470518Y-79801763D01*
X123353912Y-79641265D01*
X123324828Y-79612181D01*
X123291343Y-79550858D01*
X123296327Y-79481166D01*
X123338199Y-79425233D01*
X123403663Y-79400816D01*
X123412509Y-79400500D01*
X125293893Y-79400500D01*
X125360932Y-79420185D01*
G37*
G04 #@! TD.AperFunction*
G04 #@! TA.AperFunction,Conductor*
G36*
X112515719Y-94134692D02*
G01*
X112614917Y-94171691D01*
X112615234Y-94171809D01*
X112671167Y-94213681D01*
X112695584Y-94279145D01*
X112695900Y-94287991D01*
X112695900Y-95575500D01*
X112676215Y-95642539D01*
X112623411Y-95688294D01*
X112571905Y-95699500D01*
X112552132Y-95699500D01*
X112552123Y-95699501D01*
X112492516Y-95705908D01*
X112357671Y-95756202D01*
X112357666Y-95756205D01*
X112324307Y-95781177D01*
X112299548Y-95790410D01*
X112276351Y-95803076D01*
X112267321Y-95802429D01*
X112258843Y-95805592D01*
X112233023Y-95799974D01*
X112206660Y-95798088D01*
X112194947Y-95791691D01*
X112190570Y-95790739D01*
X112175684Y-95781171D01*
X112170985Y-95777653D01*
X112129116Y-95721718D01*
X112121300Y-95678390D01*
X112121300Y-94302099D01*
X112140985Y-94235060D01*
X112193789Y-94189305D01*
X112245300Y-94178099D01*
X112270271Y-94178099D01*
X112270272Y-94178099D01*
X112329883Y-94171691D01*
X112429069Y-94134696D01*
X112498758Y-94129713D01*
X112515719Y-94134692D01*
G37*
G04 #@! TD.AperFunction*
G04 #@! TA.AperFunction,Conductor*
G36*
X120580690Y-91903897D02*
G01*
X120625040Y-91932399D01*
X121077451Y-92384810D01*
X121110936Y-92446133D01*
X121105952Y-92515825D01*
X121100255Y-92528786D01*
X121006353Y-92713075D01*
X121006352Y-92713078D01*
X120938769Y-92921082D01*
X120904555Y-93137097D01*
X120904555Y-93355820D01*
X120938769Y-93571835D01*
X121006352Y-93779839D01*
X121006353Y-93779842D01*
X121068575Y-93901956D01*
X121077735Y-93919935D01*
X121105650Y-93974719D01*
X121234197Y-94151652D01*
X121388861Y-94306316D01*
X121540024Y-94416141D01*
X121582690Y-94471470D01*
X121588669Y-94541084D01*
X121556064Y-94602879D01*
X121540024Y-94616777D01*
X121388861Y-94726601D01*
X121234197Y-94881265D01*
X121105650Y-95058198D01*
X121006353Y-95253075D01*
X121006352Y-95253078D01*
X120938769Y-95461081D01*
X120933589Y-95493786D01*
X120903658Y-95556920D01*
X120844346Y-95593850D01*
X120774484Y-95592851D01*
X120723435Y-95562067D01*
X120380120Y-95218751D01*
X120380119Y-95218750D01*
X120301974Y-95166536D01*
X120301973Y-95166535D01*
X120257200Y-95136618D01*
X120257187Y-95136611D01*
X120120616Y-95080042D01*
X120120606Y-95080039D01*
X119975619Y-95051199D01*
X119975617Y-95051199D01*
X117851508Y-95051199D01*
X117849874Y-95050719D01*
X117848228Y-95051156D01*
X117816456Y-95040906D01*
X117784469Y-95031514D01*
X117782836Y-95030060D01*
X117781733Y-95029705D01*
X117772264Y-95020653D01*
X117755680Y-95005894D01*
X117753908Y-95003736D01*
X117679360Y-94904153D01*
X117660589Y-94890101D01*
X117651072Y-94878512D01*
X117643032Y-94859599D01*
X117630716Y-94843145D01*
X117626792Y-94821397D01*
X117623738Y-94814211D01*
X117624593Y-94809205D01*
X117622900Y-94799817D01*
X117622900Y-94302099D01*
X117642585Y-94235060D01*
X117695389Y-94189305D01*
X117746900Y-94178099D01*
X117870271Y-94178099D01*
X117870272Y-94178099D01*
X117929883Y-94171691D01*
X118064731Y-94121396D01*
X118179946Y-94035146D01*
X118266196Y-93919931D01*
X118316491Y-93785083D01*
X118322900Y-93725473D01*
X118322899Y-93192315D01*
X118342583Y-93125278D01*
X118395387Y-93079523D01*
X118464546Y-93069579D01*
X118515790Y-93089215D01*
X118620814Y-93159390D01*
X118620827Y-93159397D01*
X118766498Y-93219735D01*
X118766503Y-93219737D01*
X118883016Y-93242913D01*
X118921153Y-93250499D01*
X118921156Y-93250500D01*
X118921158Y-93250500D01*
X119078844Y-93250500D01*
X119078845Y-93250499D01*
X119233497Y-93219737D01*
X119379179Y-93159394D01*
X119510289Y-93071789D01*
X119621789Y-92960289D01*
X119709394Y-92829179D01*
X119769737Y-92683497D01*
X119800500Y-92528842D01*
X119800500Y-92449749D01*
X119820185Y-92382710D01*
X119850190Y-92350482D01*
X119907546Y-92307546D01*
X119993796Y-92192331D01*
X119993796Y-92192330D01*
X119999111Y-92185231D01*
X120000292Y-92186115D01*
X120042858Y-92143544D01*
X120078101Y-92130756D01*
X120098341Y-92126729D01*
X120133497Y-92119737D01*
X120279179Y-92059394D01*
X120410289Y-91971789D01*
X120449678Y-91932399D01*
X120510998Y-91898914D01*
X120580690Y-91903897D01*
G37*
G04 #@! TD.AperFunction*
G04 #@! TA.AperFunction,Conductor*
G36*
X114564940Y-93147285D02*
G01*
X114610695Y-93200089D01*
X114621900Y-93251598D01*
X114621901Y-93725472D01*
X114621901Y-93725480D01*
X114622079Y-93728780D01*
X114621901Y-93728789D01*
X114621901Y-93728793D01*
X114621837Y-93728793D01*
X114620723Y-93728852D01*
X114620703Y-93728962D01*
X114622400Y-93736756D01*
X114622400Y-94177600D01*
X114635580Y-94190780D01*
X114669065Y-94252103D01*
X114671899Y-94278461D01*
X114671899Y-94351454D01*
X114671898Y-94351454D01*
X114671899Y-94351457D01*
X114712823Y-94504185D01*
X114728469Y-94531284D01*
X114754113Y-94575701D01*
X114758378Y-94593283D01*
X114770585Y-94643599D01*
X114766541Y-94655282D01*
X114747732Y-94709627D01*
X114722125Y-94729764D01*
X114692811Y-94752817D01*
X114646725Y-94761699D01*
X114473969Y-94761699D01*
X114414441Y-94768100D01*
X114414434Y-94768102D01*
X114279727Y-94818344D01*
X114279720Y-94818348D01*
X114164626Y-94904508D01*
X114120166Y-94963899D01*
X114064232Y-95005769D01*
X113994540Y-95010753D01*
X113933218Y-94977267D01*
X113899733Y-94915943D01*
X113896900Y-94889587D01*
X113896900Y-94270087D01*
X113903138Y-94248841D01*
X113904718Y-94226754D01*
X113912790Y-94215970D01*
X113916585Y-94203048D01*
X113933316Y-94188549D01*
X113946589Y-94170820D01*
X113966027Y-94160205D01*
X113969389Y-94157293D01*
X113977531Y-94153919D01*
X114029786Y-94134429D01*
X114099472Y-94129446D01*
X114116448Y-94134431D01*
X114215016Y-94171195D01*
X114215027Y-94171198D01*
X114274555Y-94177599D01*
X114274572Y-94177600D01*
X114322400Y-94177600D01*
X114322400Y-93736767D01*
X114322827Y-93728788D01*
X114322722Y-93728783D01*
X114322897Y-93725498D01*
X114322900Y-93725473D01*
X114322899Y-93251597D01*
X114325449Y-93242913D01*
X114324161Y-93233953D01*
X114335138Y-93209916D01*
X114342583Y-93184561D01*
X114349425Y-93178632D01*
X114353186Y-93170397D01*
X114375417Y-93156110D01*
X114395387Y-93138806D01*
X114405902Y-93136518D01*
X114411964Y-93132623D01*
X114446899Y-93127600D01*
X114497901Y-93127600D01*
X114564940Y-93147285D01*
G37*
G04 #@! TD.AperFunction*
G04 #@! TA.AperFunction,Conductor*
G36*
X112326503Y-89031383D02*
G01*
X112332979Y-89037413D01*
X113322594Y-90027029D01*
X114283384Y-90987819D01*
X114316869Y-91049142D01*
X114311885Y-91118834D01*
X114270013Y-91174767D01*
X114204549Y-91199184D01*
X114195703Y-91199500D01*
X113927057Y-91199500D01*
X113768942Y-91199500D01*
X113616215Y-91240423D01*
X113586667Y-91257483D01*
X113532975Y-91288481D01*
X113479285Y-91319479D01*
X113479282Y-91319481D01*
X112815881Y-91982882D01*
X112815875Y-91982890D01*
X112797278Y-92015101D01*
X112746711Y-92063316D01*
X112718316Y-92073798D01*
X112704291Y-92077100D01*
X112674528Y-92077101D01*
X112614917Y-92083509D01*
X112508431Y-92123225D01*
X112500824Y-92125017D01*
X112473418Y-92123527D01*
X112446040Y-92125485D01*
X112431637Y-92121255D01*
X112431058Y-92121224D01*
X112430734Y-92120990D01*
X112429068Y-92120501D01*
X112329885Y-92083509D01*
X112329883Y-92083508D01*
X112270283Y-92077101D01*
X112270281Y-92077100D01*
X112270273Y-92077100D01*
X112270265Y-92077100D01*
X112245300Y-92077100D01*
X112178261Y-92057415D01*
X112132506Y-92004611D01*
X112121300Y-91953100D01*
X112121300Y-89125096D01*
X112140985Y-89058057D01*
X112193789Y-89012302D01*
X112262947Y-89002358D01*
X112326503Y-89031383D01*
G37*
G04 #@! TD.AperFunction*
G04 #@! TA.AperFunction,Conductor*
G36*
X108980326Y-89432651D02*
G01*
X109036259Y-89474523D01*
X109058609Y-89524641D01*
X109080261Y-89633491D01*
X109080264Y-89633501D01*
X109140602Y-89779172D01*
X109140609Y-89779185D01*
X109216640Y-89892972D01*
X109237518Y-89959649D01*
X109219034Y-90027029D01*
X109201219Y-90049544D01*
X109010339Y-90240425D01*
X108995263Y-90248825D01*
X108983946Y-90260539D01*
X108954666Y-90271448D01*
X108951093Y-90273440D01*
X108946594Y-90274500D01*
X108946158Y-90274500D01*
X108791503Y-90305263D01*
X108759165Y-90318657D01*
X108749405Y-90320957D01*
X108724122Y-90319584D01*
X108698949Y-90322290D01*
X108689826Y-90317723D01*
X108679638Y-90317170D01*
X108659110Y-90302346D01*
X108636471Y-90291013D01*
X108630545Y-90281718D01*
X108622994Y-90276266D01*
X108616461Y-90259629D01*
X108603039Y-90238578D01*
X108581758Y-90173081D01*
X108581756Y-90173075D01*
X108482461Y-89978200D01*
X108481511Y-89976893D01*
X108481302Y-89976308D01*
X108479916Y-89974046D01*
X108480391Y-89973754D01*
X108458027Y-89911089D01*
X108473847Y-89843034D01*
X108494139Y-89816324D01*
X108849313Y-89461150D01*
X108910634Y-89427667D01*
X108980326Y-89432651D01*
G37*
G04 #@! TD.AperFunction*
G04 #@! TA.AperFunction,Conductor*
G36*
X110642769Y-81059018D02*
G01*
X110666503Y-81068849D01*
X110793267Y-81094064D01*
X110821153Y-81099611D01*
X110821156Y-81099612D01*
X110821158Y-81099612D01*
X110844327Y-81099612D01*
X110911366Y-81119297D01*
X110957121Y-81172101D01*
X110967065Y-81241259D01*
X110953157Y-81283043D01*
X110949700Y-81289372D01*
X110899458Y-81424079D01*
X110899456Y-81424086D01*
X110893055Y-81483614D01*
X110893055Y-81806459D01*
X112673018Y-81806459D01*
X112740057Y-81826144D01*
X112760699Y-81842778D01*
X112789707Y-81871786D01*
X112789711Y-81871789D01*
X112920814Y-81959390D01*
X112920827Y-81959397D01*
X113066498Y-82019735D01*
X113066503Y-82019737D01*
X113221153Y-82050499D01*
X113221156Y-82050500D01*
X113221158Y-82050500D01*
X113378844Y-82050500D01*
X113378845Y-82050499D01*
X113533497Y-82019737D01*
X113542825Y-82015873D01*
X113550448Y-82012716D01*
X113619917Y-82005247D01*
X113682396Y-82036522D01*
X113718048Y-82096612D01*
X113721900Y-82127277D01*
X113721900Y-82809489D01*
X113702215Y-82876528D01*
X113649411Y-82922283D01*
X113597900Y-82933489D01*
X113571155Y-82933489D01*
X113416510Y-82964250D01*
X113416498Y-82964253D01*
X113270827Y-83024591D01*
X113270814Y-83024598D01*
X113139711Y-83112199D01*
X113139707Y-83112202D01*
X113028213Y-83223696D01*
X113028207Y-83223704D01*
X112940607Y-83354807D01*
X112940602Y-83354816D01*
X112914582Y-83417633D01*
X112887703Y-83457860D01*
X112522703Y-83822860D01*
X112461380Y-83856345D01*
X112391689Y-83851361D01*
X112329886Y-83828310D01*
X112329885Y-83828309D01*
X112329883Y-83828309D01*
X112270273Y-83821900D01*
X112270263Y-83821900D01*
X111874529Y-83821900D01*
X111874523Y-83821901D01*
X111814916Y-83828308D01*
X111680071Y-83878602D01*
X111680064Y-83878606D01*
X111564855Y-83964852D01*
X111564852Y-83964855D01*
X111478606Y-84080064D01*
X111478602Y-84080071D01*
X111445497Y-84168833D01*
X111403626Y-84224767D01*
X111338162Y-84249184D01*
X111329315Y-84249500D01*
X109357694Y-84249500D01*
X109290655Y-84229815D01*
X109270013Y-84213181D01*
X108658764Y-83601932D01*
X108625279Y-83540609D01*
X108628514Y-83475932D01*
X108629123Y-83474059D01*
X108649341Y-83411834D01*
X108668670Y-83289795D01*
X108683555Y-83195820D01*
X108683555Y-83158561D01*
X108703240Y-83091522D01*
X108756044Y-83045767D01*
X108825202Y-83035823D01*
X108850888Y-83042379D01*
X108878532Y-83052690D01*
X108878531Y-83052690D01*
X108885459Y-83053434D01*
X108938142Y-83059099D01*
X110113887Y-83059098D01*
X110173498Y-83052690D01*
X110308346Y-83002395D01*
X110423561Y-82916145D01*
X110509811Y-82800930D01*
X110560106Y-82666082D01*
X110564060Y-82629303D01*
X110893055Y-82629303D01*
X110899456Y-82688831D01*
X110899458Y-82688838D01*
X110949700Y-82823545D01*
X110949704Y-82823552D01*
X111035864Y-82938646D01*
X111035867Y-82938649D01*
X111150961Y-83024809D01*
X111150968Y-83024813D01*
X111285675Y-83075055D01*
X111285682Y-83075057D01*
X111345210Y-83081458D01*
X111345227Y-83081459D01*
X111683055Y-83081459D01*
X112183055Y-83081459D01*
X112520883Y-83081459D01*
X112520899Y-83081458D01*
X112580427Y-83075057D01*
X112580434Y-83075055D01*
X112715141Y-83024813D01*
X112715148Y-83024809D01*
X112830242Y-82938649D01*
X112830245Y-82938646D01*
X112916405Y-82823552D01*
X112916409Y-82823545D01*
X112966651Y-82688838D01*
X112966653Y-82688831D01*
X112973054Y-82629303D01*
X112973055Y-82629286D01*
X112973055Y-82306459D01*
X112183055Y-82306459D01*
X112183055Y-83081459D01*
X111683055Y-83081459D01*
X111683055Y-82306459D01*
X110893055Y-82306459D01*
X110893055Y-82629303D01*
X110564060Y-82629303D01*
X110566515Y-82606472D01*
X110566514Y-82032508D01*
X110566514Y-81460728D01*
X110566513Y-81460722D01*
X110566303Y-81458770D01*
X110560106Y-81401116D01*
X110559677Y-81399965D01*
X110509812Y-81266269D01*
X110509809Y-81266265D01*
X110496054Y-81247890D01*
X110471637Y-81182426D01*
X110486489Y-81114153D01*
X110535894Y-81064748D01*
X110604167Y-81049896D01*
X110642769Y-81059018D01*
G37*
G04 #@! TD.AperFunction*
G04 #@! TA.AperFunction,Conductor*
G36*
X120108153Y-82040987D02*
G01*
X120153908Y-82093791D01*
X120165114Y-82145302D01*
X120165114Y-83021302D01*
X120325500Y-83021302D01*
X120392539Y-83040987D01*
X120438294Y-83093791D01*
X120449500Y-83145302D01*
X120449500Y-83670234D01*
X120429815Y-83737273D01*
X120428602Y-83739125D01*
X120340609Y-83870814D01*
X120340602Y-83870827D01*
X120300685Y-83967198D01*
X120256844Y-84021602D01*
X120190550Y-84043667D01*
X120122851Y-84026388D01*
X120098443Y-84007427D01*
X119429142Y-83338126D01*
X119422073Y-83331057D01*
X119422072Y-83331055D01*
X119323997Y-83232980D01*
X119290515Y-83171660D01*
X119295499Y-83101968D01*
X119337371Y-83046035D01*
X119339771Y-83045140D01*
X119402835Y-83021618D01*
X119411681Y-83021302D01*
X119665114Y-83021302D01*
X119665114Y-82145302D01*
X119684799Y-82078263D01*
X119737603Y-82032508D01*
X119789114Y-82021302D01*
X120041114Y-82021302D01*
X120108153Y-82040987D01*
G37*
G04 #@! TD.AperFunction*
G04 #@! TA.AperFunction,Conductor*
G36*
X115686473Y-80225891D02*
G01*
X115735169Y-80275996D01*
X115749500Y-80333865D01*
X115749500Y-80428846D01*
X115780261Y-80583489D01*
X115780264Y-80583501D01*
X115840602Y-80729172D01*
X115840609Y-80729185D01*
X115928210Y-80860288D01*
X115928213Y-80860292D01*
X116039707Y-80971786D01*
X116039711Y-80971789D01*
X116170814Y-81059390D01*
X116170827Y-81059397D01*
X116310511Y-81117255D01*
X116316503Y-81119737D01*
X116427692Y-81141854D01*
X116471153Y-81150499D01*
X116471156Y-81150500D01*
X116473370Y-81150500D01*
X116474487Y-81150828D01*
X116477218Y-81151097D01*
X116477166Y-81151614D01*
X116540409Y-81170185D01*
X116586164Y-81222989D01*
X116596108Y-81292147D01*
X116589552Y-81317833D01*
X116549963Y-81423976D01*
X116543556Y-81483575D01*
X116543555Y-81483594D01*
X116543555Y-82181361D01*
X116523870Y-82248400D01*
X116507236Y-82269042D01*
X115591881Y-83184396D01*
X115591875Y-83184404D01*
X115552002Y-83253468D01*
X115552002Y-83253469D01*
X115512823Y-83321329D01*
X115471899Y-83474057D01*
X115471899Y-83474059D01*
X115471899Y-83642160D01*
X115471900Y-83642173D01*
X115471900Y-83721538D01*
X115452215Y-83788577D01*
X115435581Y-83809219D01*
X115434581Y-83810219D01*
X115414728Y-83821059D01*
X115399411Y-83834332D01*
X115387208Y-83836086D01*
X115373258Y-83843704D01*
X115347194Y-83841840D01*
X115330253Y-83844276D01*
X115320783Y-83839951D01*
X115303566Y-83838720D01*
X115280849Y-83821714D01*
X115266697Y-83815251D01*
X115261580Y-83807288D01*
X115247633Y-83796848D01*
X115237623Y-83770010D01*
X115228923Y-83756473D01*
X115226632Y-83740544D01*
X115223216Y-83731384D01*
X115222900Y-83722538D01*
X115222900Y-80477106D01*
X115242585Y-80410067D01*
X115295389Y-80364312D01*
X115308579Y-80359176D01*
X115316540Y-80356590D01*
X115539912Y-80242776D01*
X115552613Y-80233547D01*
X115618419Y-80210067D01*
X115686473Y-80225891D01*
G37*
G04 #@! TD.AperFunction*
G04 #@! TA.AperFunction,Conductor*
G36*
X118773720Y-82557726D02*
G01*
X118800079Y-82559612D01*
X118807325Y-82565036D01*
X118816171Y-82566961D01*
X118834857Y-82585646D01*
X118856013Y-82601484D01*
X118862409Y-82613198D01*
X118865577Y-82616366D01*
X118872927Y-82632461D01*
X118921759Y-82763388D01*
X118921763Y-82763395D01*
X119007923Y-82878489D01*
X119014196Y-82884762D01*
X119012459Y-82886498D01*
X119022991Y-82900568D01*
X119043085Y-82923757D01*
X119043735Y-82928283D01*
X119046475Y-82931943D01*
X119048662Y-82962544D01*
X119053029Y-82992915D01*
X119051129Y-82997073D01*
X119051456Y-83001635D01*
X119036748Y-83028565D01*
X119024005Y-83056471D01*
X119020158Y-83058943D01*
X119017967Y-83062956D01*
X118991037Y-83077658D01*
X118965227Y-83094247D01*
X118959020Y-83095139D01*
X118956642Y-83096438D01*
X118930293Y-83099270D01*
X118862495Y-83099270D01*
X118862491Y-83099270D01*
X118854885Y-83099271D01*
X118854884Y-83099270D01*
X118854883Y-83099271D01*
X118590697Y-83099271D01*
X118523658Y-83079586D01*
X118477903Y-83026782D01*
X118467959Y-82957624D01*
X118496984Y-82894068D01*
X118501203Y-82889536D01*
X118502511Y-82887790D01*
X118587851Y-82773790D01*
X118638146Y-82638942D01*
X118638146Y-82638941D01*
X118640563Y-82632461D01*
X118656398Y-82611307D01*
X118669064Y-82588112D01*
X118677010Y-82583773D01*
X118682434Y-82576528D01*
X118707192Y-82567292D01*
X118730388Y-82554628D01*
X118739416Y-82555273D01*
X118747898Y-82552110D01*
X118773720Y-82557726D01*
G37*
G04 #@! TD.AperFunction*
G04 #@! TA.AperFunction,Conductor*
G36*
X118797919Y-80930886D02*
G01*
X118812773Y-80930101D01*
X118830806Y-80940386D01*
X118850753Y-80946149D01*
X118860542Y-80957347D01*
X118873465Y-80964718D01*
X118894087Y-80993360D01*
X118897659Y-81000202D01*
X118921318Y-81063633D01*
X118952610Y-81105434D01*
X118957251Y-81114321D01*
X118970834Y-81182858D01*
X118946602Y-81246028D01*
X118921763Y-81279208D01*
X118921760Y-81279213D01*
X118869138Y-81420300D01*
X118856100Y-81437716D01*
X118847190Y-81457564D01*
X118835573Y-81465135D01*
X118827266Y-81476233D01*
X118806883Y-81483835D01*
X118788656Y-81495716D01*
X118774791Y-81495805D01*
X118761802Y-81500650D01*
X118740545Y-81496025D01*
X118718788Y-81496166D01*
X118707075Y-81488744D01*
X118693529Y-81485798D01*
X118678144Y-81470413D01*
X118659768Y-81458770D01*
X118649765Y-81442034D01*
X118644124Y-81436393D01*
X118640496Y-81429203D01*
X118638169Y-81424194D01*
X118638146Y-81423976D01*
X118587851Y-81289128D01*
X118555130Y-81245419D01*
X118549685Y-81233696D01*
X118546335Y-81211418D01*
X118538461Y-81190308D01*
X118541240Y-81177532D01*
X118539296Y-81164603D01*
X118548523Y-81144048D01*
X118553312Y-81122034D01*
X118562875Y-81107153D01*
X118587851Y-81073790D01*
X118587852Y-81073786D01*
X118587853Y-81073786D01*
X118612513Y-81007668D01*
X118654383Y-80951734D01*
X118719847Y-80927316D01*
X118728140Y-80927001D01*
X118783629Y-80926758D01*
X118797919Y-80930886D01*
G37*
G04 #@! TD.AperFunction*
G04 #@! TA.AperFunction,Conductor*
G36*
X107538952Y-75362796D02*
G01*
X107594885Y-75404668D01*
X107619302Y-75470132D01*
X107619618Y-75478978D01*
X107619618Y-76506188D01*
X107619619Y-76506194D01*
X107626026Y-76565801D01*
X107676320Y-76700646D01*
X107676324Y-76700653D01*
X107762570Y-76815862D01*
X107762573Y-76815865D01*
X107877782Y-76902111D01*
X107877789Y-76902115D01*
X107889439Y-76906460D01*
X108012635Y-76952409D01*
X108072245Y-76958818D01*
X108518870Y-76958817D01*
X108585909Y-76978501D01*
X108609911Y-76998630D01*
X109597888Y-78067048D01*
X109972888Y-78472580D01*
X109981104Y-78484875D01*
X110022995Y-78526766D01*
X110036448Y-78541314D01*
X110067510Y-78603897D01*
X110059806Y-78673341D01*
X110015780Y-78727595D01*
X109949412Y-78749435D01*
X109945406Y-78749500D01*
X108577184Y-78749500D01*
X108577168Y-78749499D01*
X108569572Y-78749499D01*
X108411457Y-78749499D01*
X108335093Y-78769961D01*
X108258728Y-78790423D01*
X108258723Y-78790426D01*
X108121804Y-78869475D01*
X108121800Y-78869478D01*
X107809527Y-79181750D01*
X107748204Y-79215234D01*
X107683528Y-79211999D01*
X107619431Y-79191173D01*
X107403416Y-79156959D01*
X107403411Y-79156959D01*
X107184699Y-79156959D01*
X107184694Y-79156959D01*
X106968678Y-79191173D01*
X106760674Y-79258756D01*
X106760671Y-79258757D01*
X106565794Y-79358054D01*
X106388861Y-79486601D01*
X106234197Y-79641265D01*
X106105650Y-79818198D01*
X106006353Y-80013075D01*
X106006352Y-80013078D01*
X105938769Y-80221082D01*
X105904555Y-80437097D01*
X105904555Y-80655820D01*
X105938769Y-80871835D01*
X106006352Y-81079839D01*
X106006356Y-81079848D01*
X106035060Y-81136183D01*
X106036125Y-81141854D01*
X106039693Y-81146391D01*
X106042501Y-81175809D01*
X106047956Y-81204852D01*
X106045785Y-81210199D01*
X106046334Y-81215945D01*
X106032791Y-81242213D01*
X106021679Y-81269592D01*
X106016273Y-81274253D01*
X106014318Y-81278047D01*
X105986575Y-81299864D01*
X105976484Y-81305690D01*
X105965125Y-81311491D01*
X105927028Y-81328535D01*
X105927026Y-81328536D01*
X105910430Y-81342024D01*
X105894230Y-81353179D01*
X105875699Y-81363878D01*
X105846176Y-81393400D01*
X105836705Y-81401942D01*
X105802708Y-81429573D01*
X105738269Y-81456580D01*
X105669458Y-81444461D01*
X105618123Y-81397064D01*
X105600500Y-81333347D01*
X105600500Y-77250096D01*
X105620185Y-77183057D01*
X105636814Y-77162420D01*
X107407937Y-75391296D01*
X107469260Y-75357812D01*
X107538952Y-75362796D01*
G37*
G04 #@! TD.AperFunction*
G04 #@! TA.AperFunction,Conductor*
G36*
X116390439Y-71170185D02*
G01*
X116436194Y-71222989D01*
X116447400Y-71274500D01*
X116447400Y-71897670D01*
X116447401Y-71897676D01*
X116453808Y-71957283D01*
X116504102Y-72092128D01*
X116504105Y-72092134D01*
X116514254Y-72105691D01*
X116538670Y-72171155D01*
X116523817Y-72239428D01*
X116514254Y-72254309D01*
X116504105Y-72267865D01*
X116504102Y-72267871D01*
X116453810Y-72402713D01*
X116453809Y-72402717D01*
X116447400Y-72462327D01*
X116447400Y-72462334D01*
X116447400Y-72462335D01*
X116447400Y-73167670D01*
X116447401Y-73167676D01*
X116453808Y-73227283D01*
X116504102Y-73362128D01*
X116504106Y-73362134D01*
X116514566Y-73376108D01*
X116538982Y-73441573D01*
X116524129Y-73509846D01*
X116514568Y-73524724D01*
X116504545Y-73538112D01*
X116504545Y-73538113D01*
X116454303Y-73672820D01*
X116454301Y-73672827D01*
X116447900Y-73732355D01*
X116447900Y-73835000D01*
X117928800Y-73835000D01*
X117995839Y-73854685D01*
X118041594Y-73907489D01*
X118052800Y-73959000D01*
X118052800Y-74211000D01*
X118033115Y-74278039D01*
X117980311Y-74323794D01*
X117928800Y-74335000D01*
X116447900Y-74335000D01*
X116447900Y-74437644D01*
X116454301Y-74497172D01*
X116454303Y-74497179D01*
X116504545Y-74631886D01*
X116504548Y-74631892D01*
X116514566Y-74645274D01*
X116538982Y-74710738D01*
X116524129Y-74779011D01*
X116514566Y-74793892D01*
X116504106Y-74807865D01*
X116504102Y-74807871D01*
X116453810Y-74942713D01*
X116453809Y-74942717D01*
X116447400Y-75002327D01*
X116447400Y-75002334D01*
X116447400Y-75002335D01*
X116447400Y-75707670D01*
X116447401Y-75707676D01*
X116453808Y-75767283D01*
X116504102Y-75902128D01*
X116504106Y-75902135D01*
X116590352Y-76017344D01*
X116590355Y-76017347D01*
X116705564Y-76103593D01*
X116705571Y-76103597D01*
X116840417Y-76153891D01*
X116840416Y-76153891D01*
X116847344Y-76154635D01*
X116900027Y-76160300D01*
X117745370Y-76160299D01*
X117812409Y-76179983D01*
X117833051Y-76196618D01*
X118146829Y-76510396D01*
X118202234Y-76565801D01*
X118251365Y-76614932D01*
X118374278Y-76697060D01*
X118374291Y-76697067D01*
X118510862Y-76753636D01*
X118510867Y-76753638D01*
X118510871Y-76753638D01*
X118510872Y-76753639D01*
X118655859Y-76782480D01*
X118655862Y-76782480D01*
X120005404Y-76782480D01*
X120072443Y-76802165D01*
X120089765Y-76815600D01*
X120097968Y-76823214D01*
X120147609Y-76889526D01*
X120260212Y-76973820D01*
X120265016Y-76978280D01*
X120279669Y-77002893D01*
X120296837Y-77025827D01*
X120298365Y-77034296D01*
X120300758Y-77038316D01*
X120300491Y-77046085D01*
X120304655Y-77069160D01*
X120304655Y-77682615D01*
X120284970Y-77749654D01*
X120268336Y-77770296D01*
X120175451Y-77863181D01*
X120114128Y-77896666D01*
X120087770Y-77899500D01*
X116024228Y-77899500D01*
X115957189Y-77879815D01*
X115923912Y-77848388D01*
X115920002Y-77843007D01*
X115919997Y-77843001D01*
X115742731Y-77665735D01*
X115742729Y-77665733D01*
X115539912Y-77518378D01*
X115316540Y-77404563D01*
X115316537Y-77404562D01*
X115078114Y-77327095D01*
X114886644Y-77296769D01*
X114830503Y-77287877D01*
X114579807Y-77287877D01*
X114579803Y-77287877D01*
X114473712Y-77304680D01*
X114406863Y-77296769D01*
X114377968Y-77284801D01*
X114377966Y-77284800D01*
X114232975Y-77255959D01*
X114232973Y-77255959D01*
X110946478Y-77255959D01*
X110879439Y-77236274D01*
X110855437Y-77216146D01*
X110824839Y-77183057D01*
X110070948Y-76367784D01*
X110039886Y-76305200D01*
X110047591Y-76235756D01*
X110091616Y-76181502D01*
X110157985Y-76159663D01*
X110168640Y-76159776D01*
X110169087Y-76159800D01*
X111071800Y-76159800D01*
X111571800Y-76159800D01*
X112474528Y-76159800D01*
X112474544Y-76159799D01*
X112534072Y-76153398D01*
X112534079Y-76153396D01*
X112668786Y-76103154D01*
X112668793Y-76103150D01*
X112783887Y-76016990D01*
X112783890Y-76016987D01*
X112870050Y-75901893D01*
X112870054Y-75901886D01*
X112920296Y-75767179D01*
X112920298Y-75767172D01*
X112926699Y-75707644D01*
X112926700Y-75707627D01*
X112926700Y-75605000D01*
X111571800Y-75605000D01*
X111571800Y-76159800D01*
X111071800Y-76159800D01*
X111071800Y-75105000D01*
X111571800Y-75105000D01*
X112926700Y-75105000D01*
X112926700Y-75002372D01*
X112926699Y-75002355D01*
X112920298Y-74942827D01*
X112920297Y-74942823D01*
X112870051Y-74808108D01*
X112859724Y-74794314D01*
X112835304Y-74728851D01*
X112850154Y-74660577D01*
X112859724Y-74645686D01*
X112870051Y-74631891D01*
X112920297Y-74497176D01*
X112920298Y-74497172D01*
X112926699Y-74437644D01*
X112926700Y-74437627D01*
X112926700Y-74335000D01*
X111571800Y-74335000D01*
X111571800Y-75105000D01*
X111071800Y-75105000D01*
X111071800Y-73835000D01*
X111571800Y-73835000D01*
X112926700Y-73835000D01*
X112926700Y-73732372D01*
X112926699Y-73732355D01*
X112920298Y-73672827D01*
X112920297Y-73672823D01*
X112870051Y-73538108D01*
X112859724Y-73524314D01*
X112835304Y-73458851D01*
X112850154Y-73390577D01*
X112859724Y-73375686D01*
X112870051Y-73361891D01*
X112920297Y-73227176D01*
X112920298Y-73227172D01*
X112926699Y-73167644D01*
X112926700Y-73167627D01*
X112926700Y-73065000D01*
X111571800Y-73065000D01*
X111571800Y-73835000D01*
X111071800Y-73835000D01*
X111071800Y-73065000D01*
X109716900Y-73065000D01*
X109716900Y-73167644D01*
X109723301Y-73227172D01*
X109725087Y-73234730D01*
X109722802Y-73235269D01*
X109726946Y-73293297D01*
X109693455Y-73354616D01*
X109632129Y-73388095D01*
X109562437Y-73383103D01*
X109548476Y-73376889D01*
X109539538Y-73372231D01*
X109462449Y-73314522D01*
X109344117Y-73270387D01*
X109337311Y-73266840D01*
X109317432Y-73247717D01*
X109295351Y-73231187D01*
X109292610Y-73223839D01*
X109286957Y-73218401D01*
X109280572Y-73191564D01*
X109270934Y-73165723D01*
X109270618Y-73156877D01*
X109270618Y-71897644D01*
X109716900Y-71897644D01*
X109723301Y-71957172D01*
X109723303Y-71957179D01*
X109773545Y-72091886D01*
X109773549Y-72091892D01*
X109783878Y-72105691D01*
X109808294Y-72171156D01*
X109793441Y-72239429D01*
X109783878Y-72254309D01*
X109773549Y-72268107D01*
X109773545Y-72268113D01*
X109723303Y-72402820D01*
X109723301Y-72402827D01*
X109716900Y-72462355D01*
X109716900Y-72565000D01*
X111071800Y-72565000D01*
X111571800Y-72565000D01*
X112926700Y-72565000D01*
X112926700Y-72462372D01*
X112926699Y-72462355D01*
X112920298Y-72402827D01*
X112920297Y-72402823D01*
X112870051Y-72268108D01*
X112859724Y-72254314D01*
X112835304Y-72188851D01*
X112850154Y-72120577D01*
X112859724Y-72105686D01*
X112870051Y-72091891D01*
X112920297Y-71957176D01*
X112920298Y-71957172D01*
X112926699Y-71897644D01*
X112926700Y-71897627D01*
X112926700Y-71795000D01*
X111571800Y-71795000D01*
X111571800Y-72565000D01*
X111071800Y-72565000D01*
X111071800Y-71795000D01*
X109716900Y-71795000D01*
X109716900Y-71897644D01*
X109270618Y-71897644D01*
X109270618Y-71879979D01*
X109290303Y-71812940D01*
X109306937Y-71792298D01*
X109767916Y-71331319D01*
X109829239Y-71297834D01*
X109855597Y-71295000D01*
X112926700Y-71295000D01*
X112926700Y-71274500D01*
X112946385Y-71207461D01*
X112999189Y-71161706D01*
X113050700Y-71150500D01*
X116323400Y-71150500D01*
X116390439Y-71170185D01*
G37*
G04 #@! TD.AperFunction*
G04 #@! TA.AperFunction,Conductor*
G36*
X114940070Y-47471445D02*
G01*
X115123295Y-47474008D01*
X115125943Y-47474074D01*
X115309759Y-47480734D01*
X115312456Y-47480862D01*
X115496546Y-47491630D01*
X115499259Y-47491819D01*
X115683858Y-47506733D01*
X115686474Y-47506974D01*
X115871279Y-47526041D01*
X115873944Y-47526346D01*
X116059021Y-47549601D01*
X116061637Y-47549959D01*
X116246894Y-47577422D01*
X116249470Y-47577833D01*
X116434751Y-47609514D01*
X116437300Y-47609979D01*
X116612960Y-47644039D01*
X116622567Y-47645902D01*
X116625262Y-47646456D01*
X116791599Y-47682556D01*
X116810339Y-47686623D01*
X116813013Y-47687234D01*
X116997965Y-47731692D01*
X117000622Y-47732363D01*
X117041578Y-47743175D01*
X117185373Y-47781135D01*
X117187914Y-47781837D01*
X117372420Y-47834955D01*
X117374956Y-47835715D01*
X117559063Y-47893176D01*
X117561675Y-47894023D01*
X117713436Y-47945118D01*
X117721001Y-47949810D01*
X117721604Y-47948357D01*
X117744390Y-47957795D01*
X117744391Y-47957796D01*
X117744392Y-47957796D01*
X117756920Y-47962985D01*
X117771272Y-47965567D01*
X118024756Y-48059794D01*
X118029369Y-48061614D01*
X118296132Y-48173111D01*
X118300619Y-48175093D01*
X118558272Y-48295070D01*
X118562629Y-48297204D01*
X118811539Y-48425359D01*
X118815786Y-48427652D01*
X119056066Y-48563568D01*
X119060145Y-48565981D01*
X119291958Y-48709260D01*
X119295931Y-48711822D01*
X119355346Y-48751760D01*
X119519484Y-48862094D01*
X119523295Y-48864761D01*
X119635813Y-48946684D01*
X119737750Y-49020904D01*
X119743074Y-49025008D01*
X120151803Y-49358144D01*
X120158302Y-49363830D01*
X120500470Y-49684857D01*
X120535953Y-49718148D01*
X120541690Y-49723895D01*
X120890729Y-50097242D01*
X120895727Y-50102926D01*
X120945957Y-50163697D01*
X121200146Y-50471232D01*
X121217580Y-50492324D01*
X121221887Y-50497845D01*
X121517879Y-50900212D01*
X121521556Y-50905492D01*
X121793019Y-51317720D01*
X121796135Y-51322706D01*
X122044409Y-51741698D01*
X122047033Y-51746351D01*
X122273465Y-52168990D01*
X122275660Y-52173286D01*
X122481590Y-52596423D01*
X122483416Y-52600348D01*
X122670181Y-53020805D01*
X122671690Y-53024349D01*
X122840665Y-53439006D01*
X122841898Y-53442156D01*
X122994592Y-53848224D01*
X122995312Y-53850188D01*
X122999806Y-53862780D01*
X123000140Y-53863728D01*
X123004681Y-53876785D01*
X123005017Y-53877765D01*
X123009477Y-53890943D01*
X123009805Y-53891925D01*
X123014222Y-53905344D01*
X123014374Y-53905809D01*
X128284656Y-70132135D01*
X128291874Y-70154359D01*
X128291708Y-70154710D01*
X128295119Y-70164351D01*
X128295629Y-70165919D01*
X128304303Y-70192621D01*
X128306429Y-70196305D01*
X128870163Y-71789070D01*
X128870163Y-71795252D01*
X128873549Y-71798638D01*
X128875148Y-71803155D01*
X128879328Y-71807798D01*
X128885101Y-71810190D01*
X128889891Y-71810190D01*
X128894215Y-71812253D01*
X128900044Y-71810190D01*
X149535788Y-71810190D01*
X149539288Y-71810239D01*
X149910644Y-71820725D01*
X149917604Y-71821119D01*
X150280757Y-71852019D01*
X150287702Y-71852809D01*
X150644364Y-71903607D01*
X150651245Y-71904786D01*
X151001129Y-71974922D01*
X151007844Y-71976464D01*
X151350667Y-72065396D01*
X151357235Y-72067296D01*
X151647957Y-72160198D01*
X151692572Y-72174455D01*
X151698993Y-72176703D01*
X152026523Y-72301551D01*
X152032727Y-72304111D01*
X152352060Y-72446085D01*
X152358006Y-72448920D01*
X152528673Y-72535993D01*
X152668839Y-72607505D01*
X152674569Y-72610621D01*
X152976490Y-72785248D01*
X152981945Y-72788594D01*
X153274605Y-72978733D01*
X153279795Y-72982296D01*
X153552484Y-73179916D01*
X153562803Y-73187394D01*
X153567737Y-73191163D01*
X153622588Y-73235269D01*
X153840694Y-73410653D01*
X153845365Y-73414603D01*
X154107895Y-73647939D01*
X154112290Y-73652039D01*
X154194262Y-73732355D01*
X154364066Y-73898727D01*
X154368196Y-73902972D01*
X154601252Y-74154291D01*
X154608735Y-74162360D01*
X154612615Y-74166748D01*
X154671911Y-74237080D01*
X154841599Y-74438352D01*
X154845185Y-74442811D01*
X155062206Y-74726055D01*
X155065549Y-74730634D01*
X155252224Y-74999079D01*
X155270186Y-75024909D01*
X155273315Y-75029636D01*
X155465192Y-75334394D01*
X155468080Y-75339220D01*
X155646810Y-75653895D01*
X155649450Y-75658799D01*
X155814667Y-75982862D01*
X155817059Y-75987827D01*
X155892320Y-76153396D01*
X155968361Y-76320684D01*
X155970541Y-76325780D01*
X156107511Y-76666795D01*
X156109458Y-76671971D01*
X156231758Y-77020667D01*
X156233471Y-77025924D01*
X156340698Y-77381696D01*
X156342176Y-77387030D01*
X156433942Y-77749290D01*
X156435183Y-77754693D01*
X156511117Y-78122892D01*
X156512118Y-78128363D01*
X156571844Y-78501960D01*
X156572601Y-78507493D01*
X156615728Y-78885874D01*
X156616237Y-78891460D01*
X156642390Y-79274067D01*
X156642647Y-79279698D01*
X156651455Y-79666255D01*
X156651462Y-79671550D01*
X156645606Y-79965506D01*
X156645409Y-79970459D01*
X156628109Y-80258937D01*
X156627714Y-80263867D01*
X156599409Y-80546571D01*
X156598822Y-80551454D01*
X156559931Y-80828536D01*
X156559159Y-80833347D01*
X156510107Y-81104836D01*
X156509160Y-81109555D01*
X156450357Y-81375554D01*
X156449246Y-81380160D01*
X156381114Y-81640691D01*
X156379853Y-81645168D01*
X156302804Y-81900299D01*
X156301408Y-81904631D01*
X156215862Y-82154386D01*
X156214349Y-82158560D01*
X156120699Y-82403048D01*
X156119082Y-82407057D01*
X156017752Y-82646281D01*
X156016051Y-82650116D01*
X155907449Y-82884132D01*
X155905684Y-82887775D01*
X155891371Y-82916146D01*
X155790224Y-83116618D01*
X155788399Y-83120096D01*
X155667020Y-83342832D01*
X155664229Y-83347689D01*
X155427371Y-83739125D01*
X155402124Y-83780848D01*
X155398327Y-83786739D01*
X155340712Y-83870827D01*
X155116030Y-84198743D01*
X155112250Y-84203963D01*
X154812492Y-84596076D01*
X154808803Y-84600671D01*
X154494951Y-84973121D01*
X154491411Y-84977142D01*
X154166874Y-85330135D01*
X154163528Y-85333635D01*
X153831660Y-85667446D01*
X153828540Y-85670476D01*
X153492797Y-85985292D01*
X153489930Y-85987897D01*
X153153707Y-86283978D01*
X153151116Y-86286197D01*
X152817473Y-86564092D01*
X152815903Y-86565378D01*
X152806039Y-86573324D01*
X152805301Y-86573915D01*
X152794776Y-86582262D01*
X152794000Y-86582872D01*
X152783569Y-86591010D01*
X152782782Y-86591619D01*
X152772062Y-86599845D01*
X152771641Y-86600166D01*
X142495495Y-94416141D01*
X139212890Y-96912871D01*
X139165348Y-96949031D01*
X139165082Y-96949233D01*
X137893421Y-97911039D01*
X137893422Y-97911040D01*
X137876982Y-97923474D01*
X137876498Y-97923841D01*
X137870592Y-97925724D01*
X137868401Y-97929965D01*
X137864594Y-97932845D01*
X137863742Y-97938985D01*
X137860897Y-97944494D01*
X137862346Y-97949042D01*
X137861691Y-97953771D01*
X137861692Y-97953772D01*
X137861692Y-97953775D01*
X137864580Y-97964856D01*
X137871875Y-97978932D01*
X144890977Y-119997892D01*
X144990454Y-120309950D01*
X144990903Y-120311391D01*
X144996311Y-120329098D01*
X144996311Y-120334919D01*
X144998870Y-120337478D01*
X145004824Y-120356972D01*
X145004827Y-120357256D01*
X145005364Y-120358789D01*
X145104467Y-120701971D01*
X145106146Y-120708433D01*
X145191266Y-121076472D01*
X145192591Y-121082995D01*
X145257183Y-121451332D01*
X145258153Y-121457887D01*
X145302598Y-121826010D01*
X145303213Y-121832563D01*
X145327883Y-122199861D01*
X145328149Y-122206386D01*
X145333418Y-122572314D01*
X145333342Y-122578784D01*
X145319577Y-122942816D01*
X145319170Y-122949210D01*
X145286739Y-123310752D01*
X145286012Y-123317047D01*
X145235284Y-123675519D01*
X145234249Y-123681702D01*
X145165581Y-124036570D01*
X145164251Y-124042626D01*
X145078011Y-124393290D01*
X145076400Y-124399208D01*
X144972951Y-124745100D01*
X144971070Y-124750870D01*
X144850779Y-125091400D01*
X144848640Y-125097017D01*
X144711870Y-125431615D01*
X144709484Y-125437073D01*
X144556623Y-125765102D01*
X144554001Y-125770397D01*
X144385378Y-126091361D01*
X144382527Y-126096489D01*
X144198533Y-126409755D01*
X144195460Y-126414715D01*
X143996481Y-126719674D01*
X143993194Y-126724464D01*
X143779571Y-127020573D01*
X143776075Y-127025187D01*
X143548238Y-127311792D01*
X143544538Y-127316231D01*
X143302769Y-127592855D01*
X143298868Y-127597113D01*
X143043639Y-127863059D01*
X143039542Y-127867134D01*
X142771147Y-128121900D01*
X142766858Y-128125785D01*
X142485734Y-128368730D01*
X142481256Y-128372421D01*
X142187749Y-128602989D01*
X142183087Y-128606477D01*
X141877581Y-128824081D01*
X141872740Y-128827360D01*
X141555584Y-129031434D01*
X141550569Y-129034495D01*
X141222152Y-129224446D01*
X141216973Y-129227279D01*
X140877711Y-129402507D01*
X140872375Y-129405104D01*
X140522530Y-129565085D01*
X140517048Y-129567434D01*
X140157059Y-129711550D01*
X140151445Y-129713641D01*
X139810445Y-129831387D01*
X139810396Y-129831404D01*
X139787968Y-129839137D01*
X139787732Y-129839028D01*
X139778732Y-129842322D01*
X139777574Y-129842722D01*
X139777373Y-129842731D01*
X139772102Y-129844468D01*
X139487303Y-129928135D01*
X139482254Y-129929504D01*
X139197891Y-130000163D01*
X139192797Y-130001315D01*
X138910629Y-130058932D01*
X138905518Y-130059865D01*
X138625544Y-130104910D01*
X138620445Y-130105622D01*
X138342800Y-130138538D01*
X138337774Y-130139029D01*
X138062491Y-130160271D01*
X138057505Y-130160555D01*
X137784637Y-130170571D01*
X137779735Y-130170653D01*
X137509397Y-130169884D01*
X137504609Y-130169778D01*
X137236840Y-130158666D01*
X137232183Y-130158385D01*
X136967046Y-130137370D01*
X136962536Y-130136930D01*
X136700101Y-130106445D01*
X136695750Y-130105861D01*
X136437365Y-130066532D01*
X136431184Y-130065431D01*
X135919408Y-129960790D01*
X135911758Y-129958971D01*
X135413568Y-129823713D01*
X135406646Y-129821615D01*
X134921504Y-129658985D01*
X134915296Y-129656718D01*
X134549005Y-129511793D01*
X134443995Y-129470245D01*
X134438493Y-129467912D01*
X134249809Y-129382478D01*
X133981823Y-129261136D01*
X133976935Y-129258793D01*
X133535752Y-129035303D01*
X133531456Y-129033019D01*
X133106545Y-128796385D01*
X133102794Y-128794210D01*
X132694996Y-128548044D01*
X132691784Y-128546036D01*
X132301873Y-128293926D01*
X132299097Y-128292078D01*
X131927419Y-128037323D01*
X131925890Y-128036256D01*
X131915681Y-128029018D01*
X131914912Y-128028468D01*
X131904322Y-128020830D01*
X131903537Y-128020259D01*
X131892903Y-128012462D01*
X131892115Y-128011879D01*
X131881383Y-128003879D01*
X131881004Y-128003596D01*
X131764345Y-127915941D01*
X129372502Y-126118755D01*
X126395457Y-123881860D01*
X126270005Y-123787598D01*
X134715355Y-123787598D01*
X134715355Y-125510320D01*
X134730898Y-125608457D01*
X134746442Y-125706596D01*
X134807848Y-125895588D01*
X134807849Y-125895591D01*
X134870731Y-126019002D01*
X134898068Y-126072653D01*
X135014874Y-126233423D01*
X135155391Y-126373940D01*
X135316161Y-126490746D01*
X135388012Y-126527356D01*
X135493222Y-126580964D01*
X135493225Y-126580965D01*
X135587721Y-126611668D01*
X135682219Y-126642372D01*
X135878494Y-126673459D01*
X135878495Y-126673459D01*
X136077215Y-126673459D01*
X136077216Y-126673459D01*
X136273491Y-126642372D01*
X136462487Y-126580964D01*
X136639549Y-126490746D01*
X136800319Y-126373940D01*
X136940836Y-126233423D01*
X137057642Y-126072653D01*
X137147860Y-125895591D01*
X137209268Y-125706595D01*
X137240355Y-125510320D01*
X137240355Y-123787598D01*
X139236555Y-123787598D01*
X139236555Y-125510320D01*
X139252098Y-125608457D01*
X139267642Y-125706596D01*
X139329048Y-125895588D01*
X139329049Y-125895591D01*
X139391931Y-126019002D01*
X139419268Y-126072653D01*
X139536074Y-126233423D01*
X139676591Y-126373940D01*
X139837361Y-126490746D01*
X139909212Y-126527356D01*
X140014422Y-126580964D01*
X140014425Y-126580965D01*
X140108921Y-126611668D01*
X140203419Y-126642372D01*
X140399694Y-126673459D01*
X140399695Y-126673459D01*
X140598415Y-126673459D01*
X140598416Y-126673459D01*
X140794691Y-126642372D01*
X140983687Y-126580964D01*
X141160749Y-126490746D01*
X141321519Y-126373940D01*
X141462036Y-126233423D01*
X141578842Y-126072653D01*
X141669060Y-125895591D01*
X141730468Y-125706595D01*
X141761555Y-125510320D01*
X141761555Y-123787598D01*
X141730468Y-123591323D01*
X141699764Y-123496825D01*
X141669061Y-123402329D01*
X141669060Y-123402326D01*
X141593242Y-123253527D01*
X141578842Y-123225265D01*
X141462036Y-123064495D01*
X141321519Y-122923978D01*
X141160749Y-122807172D01*
X140983687Y-122716953D01*
X140983684Y-122716952D01*
X140794692Y-122655546D01*
X140696553Y-122640002D01*
X140598416Y-122624459D01*
X140399694Y-122624459D01*
X140334269Y-122634821D01*
X140203417Y-122655546D01*
X140014425Y-122716952D01*
X140014422Y-122716953D01*
X139837360Y-122807172D01*
X139676588Y-122923980D01*
X139536076Y-123064492D01*
X139419268Y-123225264D01*
X139329049Y-123402326D01*
X139329048Y-123402329D01*
X139267642Y-123591321D01*
X139250924Y-123696874D01*
X139236555Y-123787598D01*
X137240355Y-123787598D01*
X137209268Y-123591323D01*
X137178564Y-123496825D01*
X137147861Y-123402329D01*
X137147860Y-123402326D01*
X137072042Y-123253527D01*
X137057642Y-123225265D01*
X136940836Y-123064495D01*
X136800319Y-122923978D01*
X136639549Y-122807172D01*
X136462487Y-122716953D01*
X136462484Y-122716952D01*
X136273492Y-122655546D01*
X136175353Y-122640002D01*
X136077216Y-122624459D01*
X135878494Y-122624459D01*
X135813069Y-122634821D01*
X135682217Y-122655546D01*
X135493225Y-122716952D01*
X135493222Y-122716953D01*
X135316160Y-122807172D01*
X135155388Y-122923980D01*
X135014876Y-123064492D01*
X134898068Y-123225264D01*
X134807849Y-123402326D01*
X134807848Y-123402329D01*
X134746442Y-123591321D01*
X134729724Y-123696874D01*
X134715355Y-123787598D01*
X126270005Y-123787598D01*
X116115464Y-116157668D01*
X116114145Y-116156663D01*
X114659546Y-115032939D01*
X114659541Y-115032935D01*
X114646387Y-115022772D01*
X114642087Y-115017074D01*
X114638333Y-115016549D01*
X114635331Y-115014230D01*
X114630606Y-115012947D01*
X114625898Y-115012921D01*
X114617584Y-115015078D01*
X114610120Y-115019355D01*
X114596740Y-115032586D01*
X96429797Y-128745381D01*
X96428173Y-128746587D01*
X96413542Y-128757261D01*
X96411505Y-128757261D01*
X96406008Y-128762757D01*
X96398225Y-128768435D01*
X96397947Y-128768534D01*
X96397146Y-128769213D01*
X96091325Y-128987330D01*
X96085826Y-128991034D01*
X95765355Y-129194672D01*
X95759683Y-129198067D01*
X95432117Y-129382478D01*
X95426301Y-129385552D01*
X95092192Y-129550958D01*
X95086261Y-129553703D01*
X94746347Y-129700222D01*
X94740327Y-129702632D01*
X94395230Y-129830435D01*
X94389146Y-129832510D01*
X94039535Y-129941744D01*
X94033413Y-129943486D01*
X93679968Y-130034298D01*
X93673827Y-130035711D01*
X93317139Y-130108266D01*
X93310999Y-130109355D01*
X92951785Y-130163784D01*
X92945663Y-130164556D01*
X92584615Y-130201004D01*
X92578523Y-130201468D01*
X92216284Y-130220080D01*
X92210236Y-130220243D01*
X91847443Y-130221165D01*
X91841448Y-130221035D01*
X91478855Y-130204409D01*
X91472922Y-130203994D01*
X91111151Y-130169963D01*
X91105287Y-130169270D01*
X90745023Y-130117980D01*
X90739233Y-130117015D01*
X90381217Y-130048622D01*
X90375506Y-130047392D01*
X90020305Y-129962021D01*
X90014680Y-129960528D01*
X89663064Y-129858347D01*
X89657527Y-129856596D01*
X89310167Y-129737752D01*
X89304724Y-129735747D01*
X89057267Y-129637931D01*
X88962245Y-129600370D01*
X88956904Y-129598113D01*
X88947935Y-129594073D01*
X88751153Y-129505431D01*
X88620052Y-129446377D01*
X88614828Y-129443875D01*
X88284274Y-129275933D01*
X88279147Y-129273175D01*
X87955524Y-129089152D01*
X87950516Y-129086146D01*
X87794344Y-128987330D01*
X87634546Y-128886219D01*
X87629686Y-128882981D01*
X87322008Y-128667277D01*
X87317301Y-128663807D01*
X87018600Y-128432479D01*
X87014016Y-128428751D01*
X86999622Y-128416461D01*
X86831293Y-128272734D01*
X86725031Y-128182004D01*
X86720614Y-128178046D01*
X86441907Y-127915931D01*
X86437661Y-127911738D01*
X86170019Y-127634514D01*
X86165948Y-127630088D01*
X85936583Y-127368213D01*
X85909952Y-127337807D01*
X85906086Y-127333169D01*
X85691463Y-127062595D01*
X85662230Y-127025741D01*
X85658911Y-127021359D01*
X85483670Y-126778937D01*
X85480662Y-126774582D01*
X85319003Y-126529567D01*
X85316187Y-126525095D01*
X85181536Y-126300771D01*
X85167693Y-126277710D01*
X85165086Y-126273150D01*
X85143478Y-126233425D01*
X85029352Y-126023616D01*
X85026967Y-126019002D01*
X84966413Y-125895591D01*
X84903625Y-125767627D01*
X84901460Y-125762972D01*
X84790049Y-125509867D01*
X84788105Y-125505194D01*
X84772051Y-125464270D01*
X84688235Y-125250607D01*
X84686523Y-125245970D01*
X84598254Y-124991445D01*
X84596109Y-124984625D01*
X84450060Y-124468543D01*
X84447895Y-124459652D01*
X84439716Y-124419697D01*
X84342048Y-123942550D01*
X84340623Y-123934116D01*
X84307610Y-123687042D01*
X84301164Y-123638798D01*
X87504755Y-123638798D01*
X87504755Y-125361519D01*
X87535842Y-125557796D01*
X87597248Y-125746788D01*
X87597249Y-125746791D01*
X87673066Y-125895588D01*
X87687468Y-125923853D01*
X87804274Y-126084623D01*
X87944791Y-126225140D01*
X88105561Y-126341946D01*
X88192404Y-126386194D01*
X88282622Y-126432164D01*
X88282625Y-126432165D01*
X88330484Y-126447715D01*
X88471619Y-126493572D01*
X88667894Y-126524659D01*
X88667895Y-126524659D01*
X88866615Y-126524659D01*
X88866616Y-126524659D01*
X89062891Y-126493572D01*
X89251887Y-126432164D01*
X89428949Y-126341946D01*
X89589719Y-126225140D01*
X89730236Y-126084623D01*
X89847042Y-125923853D01*
X89937260Y-125746791D01*
X89998668Y-125557795D01*
X90029755Y-125361520D01*
X90029755Y-123638798D01*
X92025955Y-123638798D01*
X92025955Y-125361519D01*
X92057042Y-125557796D01*
X92118448Y-125746788D01*
X92118449Y-125746791D01*
X92194266Y-125895588D01*
X92208668Y-125923853D01*
X92325474Y-126084623D01*
X92465991Y-126225140D01*
X92626761Y-126341946D01*
X92713604Y-126386194D01*
X92803822Y-126432164D01*
X92803825Y-126432165D01*
X92851684Y-126447715D01*
X92992819Y-126493572D01*
X93189094Y-126524659D01*
X93189095Y-126524659D01*
X93387815Y-126524659D01*
X93387816Y-126524659D01*
X93584091Y-126493572D01*
X93773087Y-126432164D01*
X93950149Y-126341946D01*
X94110919Y-126225140D01*
X94251436Y-126084623D01*
X94368242Y-125923853D01*
X94458460Y-125746791D01*
X94519868Y-125557795D01*
X94550955Y-125361520D01*
X94550955Y-123638798D01*
X94519868Y-123442523D01*
X94489164Y-123348025D01*
X94458461Y-123253529D01*
X94458460Y-123253526D01*
X94368241Y-123076464D01*
X94359543Y-123064492D01*
X94251436Y-122915695D01*
X94110919Y-122775178D01*
X93950149Y-122658372D01*
X93944603Y-122655546D01*
X93773087Y-122568153D01*
X93773084Y-122568152D01*
X93584092Y-122506746D01*
X93485953Y-122491202D01*
X93387816Y-122475659D01*
X93189094Y-122475659D01*
X93123669Y-122486021D01*
X92992817Y-122506746D01*
X92803825Y-122568152D01*
X92803822Y-122568153D01*
X92626760Y-122658372D01*
X92465988Y-122775180D01*
X92325476Y-122915692D01*
X92208668Y-123076464D01*
X92118449Y-123253526D01*
X92118448Y-123253529D01*
X92057042Y-123442521D01*
X92025955Y-123638798D01*
X90029755Y-123638798D01*
X89998668Y-123442523D01*
X89967964Y-123348025D01*
X89937261Y-123253529D01*
X89937260Y-123253526D01*
X89847041Y-123076464D01*
X89838343Y-123064492D01*
X89730236Y-122915695D01*
X89589719Y-122775178D01*
X89428949Y-122658372D01*
X89423403Y-122655546D01*
X89251887Y-122568153D01*
X89251884Y-122568152D01*
X89062892Y-122506746D01*
X88964753Y-122491202D01*
X88866616Y-122475659D01*
X88667894Y-122475659D01*
X88602469Y-122486021D01*
X88471617Y-122506746D01*
X88282625Y-122568152D01*
X88282622Y-122568153D01*
X88105560Y-122658372D01*
X87944788Y-122775180D01*
X87804276Y-122915692D01*
X87687468Y-123076464D01*
X87597249Y-123253526D01*
X87597248Y-123253529D01*
X87535842Y-123442521D01*
X87504755Y-123638798D01*
X84301164Y-123638798D01*
X84271437Y-123416322D01*
X84270643Y-123408471D01*
X84235014Y-122891901D01*
X84234727Y-122884629D01*
X84229537Y-122371154D01*
X84229647Y-122364554D01*
X84251773Y-121856107D01*
X84252181Y-121850100D01*
X84254104Y-121829275D01*
X84298484Y-121348644D01*
X84299101Y-121343261D01*
X84300886Y-121330206D01*
X84366426Y-120850782D01*
X84367172Y-120846022D01*
X84452344Y-120364516D01*
X84453157Y-120360340D01*
X84553005Y-119891721D01*
X84553838Y-119888089D01*
X84665160Y-119434369D01*
X84665955Y-119431305D01*
X84785686Y-118993961D01*
X84786191Y-118992174D01*
X84790444Y-118977583D01*
X84790646Y-118976900D01*
X84795241Y-118961661D01*
X84795398Y-118961148D01*
X84800175Y-118945815D01*
X84800446Y-118944964D01*
X84805255Y-118930018D01*
X84805368Y-118929667D01*
X85392017Y-117136398D01*
X87504755Y-117136398D01*
X87504755Y-118859119D01*
X87535842Y-119055396D01*
X87597248Y-119244388D01*
X87597249Y-119244391D01*
X87672968Y-119392996D01*
X87687468Y-119421453D01*
X87804274Y-119582223D01*
X87944791Y-119722740D01*
X88105561Y-119839546D01*
X88182014Y-119878501D01*
X88282622Y-119929764D01*
X88282625Y-119929765D01*
X88377121Y-119960468D01*
X88471619Y-119991172D01*
X88667894Y-120022259D01*
X88667895Y-120022259D01*
X88866615Y-120022259D01*
X88866616Y-120022259D01*
X89062891Y-119991172D01*
X89251887Y-119929764D01*
X89428949Y-119839546D01*
X89589719Y-119722740D01*
X89730236Y-119582223D01*
X89847042Y-119421453D01*
X89937260Y-119244391D01*
X89998668Y-119055395D01*
X90029755Y-118859120D01*
X90029755Y-117136437D01*
X92026455Y-117136437D01*
X92026455Y-117747759D01*
X92846204Y-117747759D01*
X92815074Y-117801678D01*
X92780455Y-117930879D01*
X92780455Y-118064639D01*
X92815074Y-118193840D01*
X92846204Y-118247759D01*
X92026455Y-118247759D01*
X92026455Y-118859080D01*
X92057530Y-119055279D01*
X92057530Y-119055282D01*
X92118912Y-119244196D01*
X92209096Y-119421191D01*
X92325858Y-119581898D01*
X92325858Y-119581899D01*
X92466314Y-119722355D01*
X92627022Y-119839117D01*
X92804017Y-119929301D01*
X92992928Y-119990681D01*
X93038455Y-119997892D01*
X93038455Y-118440010D01*
X93092374Y-118471140D01*
X93221575Y-118505759D01*
X93355335Y-118505759D01*
X93484536Y-118471140D01*
X93538455Y-118440010D01*
X93538455Y-119997891D01*
X93583981Y-119990681D01*
X93772892Y-119929301D01*
X93949887Y-119839117D01*
X94110594Y-119722355D01*
X94110595Y-119722355D01*
X94251051Y-119581899D01*
X94251051Y-119581898D01*
X94367813Y-119421191D01*
X94457997Y-119244196D01*
X94519379Y-119055282D01*
X94519379Y-119055279D01*
X94550455Y-118859080D01*
X94550455Y-118247759D01*
X93730706Y-118247759D01*
X93761836Y-118193840D01*
X93796455Y-118064639D01*
X93796455Y-117930879D01*
X93761836Y-117801678D01*
X93730706Y-117747759D01*
X94550455Y-117747759D01*
X94550455Y-117136437D01*
X94519379Y-116940238D01*
X94519379Y-116940235D01*
X94457997Y-116751321D01*
X94367813Y-116574326D01*
X94251051Y-116413619D01*
X94251051Y-116413618D01*
X94110595Y-116273162D01*
X93949887Y-116156400D01*
X93772889Y-116066215D01*
X93772891Y-116066215D01*
X93583972Y-116004833D01*
X93538455Y-115997624D01*
X93538455Y-117555507D01*
X93484536Y-117524378D01*
X93355335Y-117489759D01*
X93221575Y-117489759D01*
X93092374Y-117524378D01*
X93038455Y-117555507D01*
X93038455Y-115997624D01*
X93038454Y-115997624D01*
X92992937Y-116004833D01*
X92804019Y-116066215D01*
X92627022Y-116156400D01*
X92466315Y-116273162D01*
X92466314Y-116273162D01*
X92325858Y-116413618D01*
X92325858Y-116413619D01*
X92209096Y-116574326D01*
X92118912Y-116751321D01*
X92057530Y-116940235D01*
X92057530Y-116940238D01*
X92026455Y-117136437D01*
X90029755Y-117136437D01*
X90029755Y-117136398D01*
X89998668Y-116940123D01*
X89937260Y-116751127D01*
X89937260Y-116751126D01*
X89846805Y-116573600D01*
X89833909Y-116504931D01*
X89860185Y-116440190D01*
X89869600Y-116429633D01*
X91586546Y-114712687D01*
X108943555Y-114712687D01*
X108943555Y-114880230D01*
X108976237Y-115044533D01*
X108976239Y-115044541D01*
X109040350Y-115199319D01*
X109133428Y-115338621D01*
X109251892Y-115457085D01*
X109344549Y-115518996D01*
X109391192Y-115550162D01*
X109545973Y-115614275D01*
X109710283Y-115646958D01*
X109710287Y-115646959D01*
X109710288Y-115646959D01*
X109877823Y-115646959D01*
X109877824Y-115646958D01*
X110042137Y-115614275D01*
X110196918Y-115550162D01*
X110336217Y-115457085D01*
X110454681Y-115338621D01*
X110547758Y-115199322D01*
X110611871Y-115044541D01*
X110644555Y-114880226D01*
X110644555Y-114712692D01*
X110644554Y-114712687D01*
X118943555Y-114712687D01*
X118943555Y-114880230D01*
X118976237Y-115044533D01*
X118976239Y-115044541D01*
X119040350Y-115199319D01*
X119133428Y-115338621D01*
X119251892Y-115457085D01*
X119344549Y-115518996D01*
X119391192Y-115550162D01*
X119545973Y-115614275D01*
X119710283Y-115646958D01*
X119710287Y-115646959D01*
X119710288Y-115646959D01*
X119877823Y-115646959D01*
X119877824Y-115646958D01*
X120042137Y-115614275D01*
X120196918Y-115550162D01*
X120336217Y-115457085D01*
X120454681Y-115338621D01*
X120547758Y-115199322D01*
X120611871Y-115044541D01*
X120644555Y-114880226D01*
X120644555Y-114712692D01*
X120611871Y-114548377D01*
X120547758Y-114393596D01*
X120516592Y-114346953D01*
X120454681Y-114254296D01*
X120336217Y-114135832D01*
X120196915Y-114042754D01*
X120042137Y-113978643D01*
X120042129Y-113978641D01*
X119877826Y-113945959D01*
X119877822Y-113945959D01*
X119710288Y-113945959D01*
X119710283Y-113945959D01*
X119545980Y-113978641D01*
X119545972Y-113978643D01*
X119391194Y-114042754D01*
X119251892Y-114135832D01*
X119133428Y-114254296D01*
X119040350Y-114393598D01*
X118976239Y-114548376D01*
X118976237Y-114548384D01*
X118943555Y-114712687D01*
X110644554Y-114712687D01*
X110611871Y-114548377D01*
X110547758Y-114393596D01*
X110516592Y-114346953D01*
X110454681Y-114254296D01*
X110336217Y-114135832D01*
X110196915Y-114042754D01*
X110042137Y-113978643D01*
X110042129Y-113978641D01*
X109877826Y-113945959D01*
X109877822Y-113945959D01*
X109710288Y-113945959D01*
X109710283Y-113945959D01*
X109545980Y-113978641D01*
X109545972Y-113978643D01*
X109391194Y-114042754D01*
X109251892Y-114135832D01*
X109133428Y-114254296D01*
X109040350Y-114393598D01*
X108976239Y-114548376D01*
X108976237Y-114548384D01*
X108943555Y-114712687D01*
X91586546Y-114712687D01*
X94086547Y-112212687D01*
X108943555Y-112212687D01*
X108943555Y-112380230D01*
X108976237Y-112544533D01*
X108976239Y-112544541D01*
X109040350Y-112699319D01*
X109133428Y-112838621D01*
X109251892Y-112957085D01*
X109344549Y-113018996D01*
X109391192Y-113050162D01*
X109545973Y-113114275D01*
X109710283Y-113146958D01*
X109710287Y-113146959D01*
X109710288Y-113146959D01*
X109877823Y-113146959D01*
X109877824Y-113146958D01*
X110042137Y-113114275D01*
X110196918Y-113050162D01*
X110336217Y-112957085D01*
X110454681Y-112838621D01*
X110547758Y-112699322D01*
X110611871Y-112544541D01*
X110618645Y-112510481D01*
X110623674Y-112485205D01*
X110644554Y-112380230D01*
X110644555Y-112380227D01*
X110644555Y-112218218D01*
X110644555Y-112212692D01*
X110611871Y-112048377D01*
X110611077Y-112046459D01*
X113221605Y-112046459D01*
X114194054Y-112046459D01*
X114169034Y-112106861D01*
X114144055Y-112232440D01*
X114144055Y-112360478D01*
X114169034Y-112486057D01*
X114194054Y-112546459D01*
X113221605Y-112546459D01*
X113241061Y-112669301D01*
X113318504Y-112907649D01*
X113432286Y-113130956D01*
X113579587Y-113333700D01*
X113579591Y-113333705D01*
X113756808Y-113510922D01*
X113756813Y-113510926D01*
X113959557Y-113658227D01*
X114182864Y-113772009D01*
X114421212Y-113849452D01*
X114544055Y-113868909D01*
X114544055Y-112896460D01*
X114604457Y-112921480D01*
X114730036Y-112946459D01*
X114858074Y-112946459D01*
X114983653Y-112921480D01*
X115044055Y-112896460D01*
X115044055Y-113868908D01*
X115166897Y-113849452D01*
X115405245Y-113772009D01*
X115628552Y-113658227D01*
X115831296Y-113510926D01*
X115831301Y-113510922D01*
X116008518Y-113333705D01*
X116008522Y-113333700D01*
X116155823Y-113130956D01*
X116269605Y-112907649D01*
X116347048Y-112669301D01*
X116366505Y-112546459D01*
X115394056Y-112546459D01*
X115419076Y-112486057D01*
X115444055Y-112360478D01*
X115444055Y-112232440D01*
X115440126Y-112212687D01*
X118943555Y-112212687D01*
X118943555Y-112380230D01*
X118976237Y-112544533D01*
X118976239Y-112544541D01*
X119040350Y-112699319D01*
X119133428Y-112838621D01*
X119251892Y-112957085D01*
X119344549Y-113018996D01*
X119391192Y-113050162D01*
X119545973Y-113114275D01*
X119710283Y-113146958D01*
X119710287Y-113146959D01*
X119710288Y-113146959D01*
X119877823Y-113146959D01*
X119877824Y-113146958D01*
X120042137Y-113114275D01*
X120196918Y-113050162D01*
X120336217Y-112957085D01*
X120454681Y-112838621D01*
X120547758Y-112699322D01*
X120611871Y-112544541D01*
X120644555Y-112380226D01*
X120644555Y-112212692D01*
X120611871Y-112048377D01*
X120547758Y-111893596D01*
X120479587Y-111791571D01*
X120454681Y-111754296D01*
X120336217Y-111635832D01*
X120196915Y-111542754D01*
X120042137Y-111478643D01*
X120042129Y-111478641D01*
X119877826Y-111445959D01*
X119877822Y-111445959D01*
X119710288Y-111445959D01*
X119710283Y-111445959D01*
X119545980Y-111478641D01*
X119545972Y-111478643D01*
X119391194Y-111542754D01*
X119251892Y-111635832D01*
X119133428Y-111754296D01*
X119040350Y-111893598D01*
X118976239Y-112048376D01*
X118976237Y-112048384D01*
X118943555Y-112212687D01*
X115440126Y-112212687D01*
X115419076Y-112106861D01*
X115394056Y-112046459D01*
X116366505Y-112046459D01*
X116347048Y-111923616D01*
X116269605Y-111685268D01*
X116155823Y-111461961D01*
X116008522Y-111259217D01*
X116008518Y-111259212D01*
X115831301Y-111081995D01*
X115831296Y-111081991D01*
X115628552Y-110934690D01*
X115405245Y-110820908D01*
X115166893Y-110743464D01*
X115166894Y-110743464D01*
X115044055Y-110724008D01*
X115044055Y-111696457D01*
X114983653Y-111671438D01*
X114858074Y-111646459D01*
X114730036Y-111646459D01*
X114604457Y-111671438D01*
X114544055Y-111696457D01*
X114544055Y-110724008D01*
X114544054Y-110724008D01*
X114421216Y-110743464D01*
X114182864Y-110820908D01*
X113959557Y-110934690D01*
X113756813Y-111081991D01*
X113756808Y-111081995D01*
X113579591Y-111259212D01*
X113579587Y-111259217D01*
X113432286Y-111461961D01*
X113318504Y-111685268D01*
X113241061Y-111923616D01*
X113221605Y-112046459D01*
X110611077Y-112046459D01*
X110547758Y-111893596D01*
X110479587Y-111791571D01*
X110454681Y-111754296D01*
X110336217Y-111635832D01*
X110196915Y-111542754D01*
X110042137Y-111478643D01*
X110042129Y-111478641D01*
X109877826Y-111445959D01*
X109877822Y-111445959D01*
X109710288Y-111445959D01*
X109710283Y-111445959D01*
X109545980Y-111478641D01*
X109545972Y-111478643D01*
X109391194Y-111542754D01*
X109251892Y-111635832D01*
X109133428Y-111754296D01*
X109040350Y-111893598D01*
X108976239Y-112048376D01*
X108976237Y-112048384D01*
X108943555Y-112212687D01*
X94086547Y-112212687D01*
X101301391Y-104997844D01*
X103493000Y-104997844D01*
X103499401Y-105057372D01*
X103499403Y-105057379D01*
X103549645Y-105192086D01*
X103549649Y-105192093D01*
X103635809Y-105307187D01*
X103635812Y-105307190D01*
X103750906Y-105393350D01*
X103750913Y-105393354D01*
X103885620Y-105443596D01*
X103885627Y-105443598D01*
X103945155Y-105449999D01*
X103945172Y-105450000D01*
X104643000Y-105450000D01*
X105143000Y-105450000D01*
X105840828Y-105450000D01*
X105840844Y-105449999D01*
X105900372Y-105443598D01*
X105900379Y-105443596D01*
X106035086Y-105393354D01*
X106035093Y-105393350D01*
X106150187Y-105307190D01*
X106150190Y-105307187D01*
X106236350Y-105192093D01*
X106236354Y-105192086D01*
X106286596Y-105057379D01*
X106286598Y-105057372D01*
X106292999Y-104997844D01*
X106293000Y-104997827D01*
X106293000Y-104450000D01*
X105143000Y-104450000D01*
X105143000Y-105450000D01*
X104643000Y-105450000D01*
X104643000Y-104450000D01*
X103493000Y-104450000D01*
X103493000Y-104997844D01*
X101301391Y-104997844D01*
X103312416Y-102986819D01*
X103339343Y-102972115D01*
X103365162Y-102955523D01*
X103371362Y-102954631D01*
X103373739Y-102953334D01*
X103400097Y-102950500D01*
X103494623Y-102950500D01*
X103561662Y-102970185D01*
X103607417Y-103022989D01*
X103617361Y-103092147D01*
X103593889Y-103148812D01*
X103549647Y-103207910D01*
X103549645Y-103207913D01*
X103499403Y-103342620D01*
X103499401Y-103342627D01*
X103493000Y-103402155D01*
X103493000Y-103950000D01*
X106293000Y-103950000D01*
X106293000Y-103402172D01*
X106292999Y-103402155D01*
X106286598Y-103342627D01*
X106286596Y-103342620D01*
X106236354Y-103207913D01*
X106236352Y-103207910D01*
X106192111Y-103148812D01*
X106167693Y-103083348D01*
X106182544Y-103015074D01*
X106231949Y-102965669D01*
X106291377Y-102950500D01*
X108163331Y-102950500D01*
X108163347Y-102950501D01*
X108170943Y-102950501D01*
X108329054Y-102950501D01*
X108329057Y-102950501D01*
X108481785Y-102909577D01*
X108531904Y-102880639D01*
X108618716Y-102830520D01*
X108730520Y-102718716D01*
X108730520Y-102718714D01*
X108740728Y-102708507D01*
X108740729Y-102708504D01*
X109264665Y-102184570D01*
X109325984Y-102151088D01*
X109328151Y-102150637D01*
X109328840Y-102150500D01*
X109328842Y-102150500D01*
X109483497Y-102119737D01*
X109629179Y-102059394D01*
X109760289Y-101971789D01*
X109871789Y-101860289D01*
X109959394Y-101729179D01*
X110019737Y-101583497D01*
X110050500Y-101428842D01*
X110050500Y-101428839D01*
X110051548Y-101423571D01*
X110056257Y-101414566D01*
X110056983Y-101404428D01*
X110072179Y-101384128D01*
X110083932Y-101361660D01*
X110092764Y-101356630D01*
X110098855Y-101348495D01*
X110122612Y-101339633D01*
X110144648Y-101327086D01*
X110154796Y-101327629D01*
X110164319Y-101324078D01*
X110189096Y-101329468D01*
X110214417Y-101330825D01*
X110224478Y-101337165D01*
X110232592Y-101338930D01*
X110260846Y-101360081D01*
X110363181Y-101462416D01*
X110396666Y-101523739D01*
X110399500Y-101550097D01*
X110399500Y-102247870D01*
X110399501Y-102247876D01*
X110405908Y-102307483D01*
X110456202Y-102442328D01*
X110456203Y-102442330D01*
X110481176Y-102475690D01*
X110505592Y-102541155D01*
X110490740Y-102609428D01*
X110481176Y-102624310D01*
X110456203Y-102657669D01*
X110456202Y-102657671D01*
X110405908Y-102792517D01*
X110399501Y-102852116D01*
X110399500Y-102852135D01*
X110399500Y-103947870D01*
X110399501Y-103947876D01*
X110405908Y-104007483D01*
X110456202Y-104142328D01*
X110456206Y-104142335D01*
X110542452Y-104257544D01*
X110542455Y-104257547D01*
X110657664Y-104343793D01*
X110657671Y-104343797D01*
X110702618Y-104360561D01*
X110792517Y-104394091D01*
X110852127Y-104400500D01*
X111087497Y-104400499D01*
X111154537Y-104420183D01*
X111175179Y-104436818D01*
X112002735Y-105264374D01*
X112002745Y-105264385D01*
X112007075Y-105268715D01*
X112007076Y-105268716D01*
X112118880Y-105380520D01*
X112118882Y-105380521D01*
X112118886Y-105380524D01*
X112228132Y-105443596D01*
X112255812Y-105459577D01*
X112257334Y-105459984D01*
X112258472Y-105460678D01*
X112263319Y-105462686D01*
X112263005Y-105463441D01*
X112316993Y-105496350D01*
X112347522Y-105559197D01*
X112339227Y-105628572D01*
X112294741Y-105682450D01*
X112228189Y-105703724D01*
X112225239Y-105703759D01*
X112168707Y-105703759D01*
X112086170Y-105716831D01*
X111921095Y-105742977D01*
X111682672Y-105820444D01*
X111682669Y-105820445D01*
X111459297Y-105934260D01*
X111256478Y-106081617D01*
X111131736Y-106206360D01*
X111070413Y-106239845D01*
X111000721Y-106234861D01*
X110956374Y-106206360D01*
X110831631Y-106081617D01*
X110831629Y-106081615D01*
X110628812Y-105934260D01*
X110405440Y-105820445D01*
X110405437Y-105820444D01*
X110167014Y-105742977D01*
X110043208Y-105723368D01*
X109919403Y-105703759D01*
X109668707Y-105703759D01*
X109586170Y-105716831D01*
X109421095Y-105742977D01*
X109182672Y-105820444D01*
X109182669Y-105820445D01*
X108959297Y-105934260D01*
X108756478Y-106081617D01*
X108579213Y-106258882D01*
X108431856Y-106461701D01*
X108318041Y-106685073D01*
X108318040Y-106685076D01*
X108240573Y-106923499D01*
X108201355Y-107171111D01*
X108201355Y-107421806D01*
X108240573Y-107669418D01*
X108318040Y-107907841D01*
X108318041Y-107907844D01*
X108390557Y-108050163D01*
X108431856Y-108131216D01*
X108579211Y-108334033D01*
X108756481Y-108511303D01*
X108959298Y-108658658D01*
X109068855Y-108714480D01*
X109182669Y-108772472D01*
X109182672Y-108772473D01*
X109301883Y-108811206D01*
X109421097Y-108849941D01*
X109668707Y-108889159D01*
X109668708Y-108889159D01*
X109919402Y-108889159D01*
X109919403Y-108889159D01*
X110167013Y-108849941D01*
X110405440Y-108772472D01*
X110628812Y-108658658D01*
X110831629Y-108511303D01*
X110956374Y-108386558D01*
X111017697Y-108353073D01*
X111087389Y-108358057D01*
X111131736Y-108386558D01*
X111256481Y-108511303D01*
X111459298Y-108658658D01*
X111568855Y-108714480D01*
X111682669Y-108772472D01*
X111682672Y-108772473D01*
X111801883Y-108811206D01*
X111921097Y-108849941D01*
X112168707Y-108889159D01*
X112168708Y-108889159D01*
X112419402Y-108889159D01*
X112419403Y-108889159D01*
X112667013Y-108849941D01*
X112905440Y-108772472D01*
X113128812Y-108658658D01*
X113331629Y-108511303D01*
X113508899Y-108334033D01*
X113656254Y-108131216D01*
X113770068Y-107907844D01*
X113825083Y-107738522D01*
X113864520Y-107680847D01*
X113928878Y-107653648D01*
X113997725Y-107665562D01*
X114046116Y-107707949D01*
X114133428Y-107838620D01*
X114133431Y-107838624D01*
X114251892Y-107957085D01*
X114344549Y-108018996D01*
X114391192Y-108050162D01*
X114545973Y-108114275D01*
X114710283Y-108146958D01*
X114710287Y-108146959D01*
X114710288Y-108146959D01*
X114877823Y-108146959D01*
X114877824Y-108146958D01*
X115042137Y-108114275D01*
X115196918Y-108050162D01*
X115336217Y-107957085D01*
X115454681Y-107838621D01*
X115541994Y-107707949D01*
X115595605Y-107663144D01*
X115664930Y-107654437D01*
X115727957Y-107684591D01*
X115763026Y-107738522D01*
X115818040Y-107907841D01*
X115818041Y-107907844D01*
X115890557Y-108050163D01*
X115931856Y-108131216D01*
X116079211Y-108334033D01*
X116256481Y-108511303D01*
X116459298Y-108658658D01*
X116568855Y-108714480D01*
X116682669Y-108772472D01*
X116682672Y-108772473D01*
X116801883Y-108811206D01*
X116921097Y-108849941D01*
X117168707Y-108889159D01*
X117168708Y-108889159D01*
X117419402Y-108889159D01*
X117419403Y-108889159D01*
X117667013Y-108849941D01*
X117905440Y-108772472D01*
X118128812Y-108658658D01*
X118331629Y-108511303D01*
X118456374Y-108386558D01*
X118517697Y-108353073D01*
X118587389Y-108358057D01*
X118631736Y-108386558D01*
X118756481Y-108511303D01*
X118959298Y-108658658D01*
X119068855Y-108714480D01*
X119182669Y-108772472D01*
X119182672Y-108772473D01*
X119301883Y-108811206D01*
X119421097Y-108849941D01*
X119668707Y-108889159D01*
X119668708Y-108889159D01*
X119919402Y-108889159D01*
X119919403Y-108889159D01*
X120167013Y-108849941D01*
X120405440Y-108772472D01*
X120628812Y-108658658D01*
X120831629Y-108511303D01*
X121008899Y-108334033D01*
X121156254Y-108131216D01*
X121270068Y-107907844D01*
X121347537Y-107669417D01*
X121386755Y-107421807D01*
X121386755Y-107171111D01*
X121347537Y-106923501D01*
X121292560Y-106754297D01*
X121270069Y-106685076D01*
X121270068Y-106685073D01*
X121197552Y-106542754D01*
X121156254Y-106461702D01*
X121008899Y-106258885D01*
X120831629Y-106081615D01*
X120628812Y-105934260D01*
X120405440Y-105820445D01*
X120405437Y-105820444D01*
X120167014Y-105742977D01*
X120043208Y-105723368D01*
X119919403Y-105703759D01*
X119919402Y-105703759D01*
X119896952Y-105703759D01*
X119829913Y-105684074D01*
X119809271Y-105667440D01*
X119404012Y-105262181D01*
X119370527Y-105200858D01*
X119375511Y-105131166D01*
X119417383Y-105075233D01*
X119482847Y-105050816D01*
X119491693Y-105050500D01*
X124225501Y-105050500D01*
X124292540Y-105070185D01*
X124338295Y-105122989D01*
X124349501Y-105174500D01*
X124349501Y-105347876D01*
X124355908Y-105407483D01*
X124406202Y-105542328D01*
X124406206Y-105542335D01*
X124492452Y-105657544D01*
X124492455Y-105657547D01*
X124607664Y-105743793D01*
X124607671Y-105743797D01*
X124742517Y-105794091D01*
X124742516Y-105794091D01*
X124749444Y-105794835D01*
X124802127Y-105800500D01*
X126697872Y-105800499D01*
X126757483Y-105794091D01*
X126892331Y-105743796D01*
X127007546Y-105657546D01*
X127093796Y-105542331D01*
X127144091Y-105407483D01*
X127150500Y-105347873D01*
X127150499Y-103752128D01*
X127144091Y-103692517D01*
X127109485Y-103599734D01*
X127093797Y-103557671D01*
X127093793Y-103557664D01*
X127012305Y-103448811D01*
X126987887Y-103383347D01*
X127002738Y-103315074D01*
X127052143Y-103265668D01*
X127111571Y-103250500D01*
X127399903Y-103250500D01*
X127466942Y-103270185D01*
X127487584Y-103286819D01*
X135341036Y-111140271D01*
X135374521Y-111201594D01*
X135377355Y-111227952D01*
X135377355Y-116197829D01*
X135357670Y-116264868D01*
X135319988Y-116301750D01*
X135320103Y-116301908D01*
X135319031Y-116302686D01*
X135318140Y-116303559D01*
X135316164Y-116304769D01*
X135155388Y-116421580D01*
X135014876Y-116562092D01*
X134898068Y-116722864D01*
X134807849Y-116899926D01*
X134807848Y-116899929D01*
X134746442Y-117088921D01*
X134738916Y-117136437D01*
X134715355Y-117285198D01*
X134715355Y-119007920D01*
X134730898Y-119106057D01*
X134746442Y-119204196D01*
X134807848Y-119393188D01*
X134807849Y-119393191D01*
X134828864Y-119434434D01*
X134898068Y-119570253D01*
X135014874Y-119731023D01*
X135155391Y-119871540D01*
X135316161Y-119988346D01*
X135382719Y-120022259D01*
X135493222Y-120078564D01*
X135493225Y-120078565D01*
X135587721Y-120109268D01*
X135682219Y-120139972D01*
X135878494Y-120171059D01*
X135878495Y-120171059D01*
X136077215Y-120171059D01*
X136077216Y-120171059D01*
X136273491Y-120139972D01*
X136462487Y-120078564D01*
X136639549Y-119988346D01*
X136800319Y-119871540D01*
X136940836Y-119731023D01*
X137057642Y-119570253D01*
X137147860Y-119393191D01*
X137209268Y-119204195D01*
X137240355Y-119007920D01*
X137240355Y-117285237D01*
X139237055Y-117285237D01*
X139237055Y-117896559D01*
X140056804Y-117896559D01*
X140025674Y-117950478D01*
X139991055Y-118079679D01*
X139991055Y-118213439D01*
X140025674Y-118342640D01*
X140056804Y-118396559D01*
X139237055Y-118396559D01*
X139237055Y-119007880D01*
X139268130Y-119204079D01*
X139268130Y-119204082D01*
X139329512Y-119392996D01*
X139419696Y-119569991D01*
X139536458Y-119730698D01*
X139536458Y-119730699D01*
X139676914Y-119871155D01*
X139837622Y-119987917D01*
X140014617Y-120078101D01*
X140203528Y-120139481D01*
X140249055Y-120146692D01*
X140249055Y-118588810D01*
X140302974Y-118619940D01*
X140432175Y-118654559D01*
X140565935Y-118654559D01*
X140695136Y-118619940D01*
X140749055Y-118588810D01*
X140749055Y-120146691D01*
X140794581Y-120139481D01*
X140983492Y-120078101D01*
X141160487Y-119987917D01*
X141321194Y-119871155D01*
X141321195Y-119871155D01*
X141461651Y-119730699D01*
X141461651Y-119730698D01*
X141578413Y-119569991D01*
X141668597Y-119392996D01*
X141729979Y-119204082D01*
X141729979Y-119204079D01*
X141761055Y-119007880D01*
X141761055Y-118396559D01*
X140941306Y-118396559D01*
X140972436Y-118342640D01*
X141007055Y-118213439D01*
X141007055Y-118079679D01*
X140972436Y-117950478D01*
X140941306Y-117896559D01*
X141761055Y-117896559D01*
X141761055Y-117285237D01*
X141729979Y-117089038D01*
X141729979Y-117089035D01*
X141668597Y-116900121D01*
X141578413Y-116723126D01*
X141461651Y-116562419D01*
X141461651Y-116562418D01*
X141321195Y-116421962D01*
X141160487Y-116305200D01*
X140983489Y-116215015D01*
X140983491Y-116215015D01*
X140794572Y-116153633D01*
X140749055Y-116146424D01*
X140749055Y-117704307D01*
X140695136Y-117673178D01*
X140565935Y-117638559D01*
X140432175Y-117638559D01*
X140302974Y-117673178D01*
X140249055Y-117704307D01*
X140249055Y-116146424D01*
X140249054Y-116146424D01*
X140203537Y-116153633D01*
X140014619Y-116215015D01*
X139837622Y-116305200D01*
X139676915Y-116421962D01*
X139676914Y-116421962D01*
X139536458Y-116562418D01*
X139536458Y-116562419D01*
X139419696Y-116723126D01*
X139329512Y-116900121D01*
X139268130Y-117089035D01*
X139268130Y-117089038D01*
X139237055Y-117285237D01*
X137240355Y-117285237D01*
X137240355Y-117285198D01*
X137209268Y-117088923D01*
X137160957Y-116940235D01*
X137147861Y-116899929D01*
X137147860Y-116899926D01*
X137072042Y-116751127D01*
X137057642Y-116722865D01*
X136940836Y-116562095D01*
X136800319Y-116421578D01*
X136639549Y-116304772D01*
X136639545Y-116304769D01*
X136637570Y-116303559D01*
X136636976Y-116302902D01*
X136635607Y-116301908D01*
X136635815Y-116301620D01*
X136590692Y-116251749D01*
X136578355Y-116197829D01*
X136578355Y-111016915D01*
X136578356Y-111016902D01*
X136578356Y-110848800D01*
X136578356Y-110848798D01*
X136537432Y-110696070D01*
X136508494Y-110645950D01*
X136458375Y-110559139D01*
X136346571Y-110447335D01*
X136346570Y-110447334D01*
X136342240Y-110443004D01*
X136342229Y-110442994D01*
X128187590Y-102288355D01*
X128187588Y-102288352D01*
X128068717Y-102169481D01*
X128068709Y-102169475D01*
X127979923Y-102118215D01*
X127979922Y-102118215D01*
X127931785Y-102090423D01*
X127779057Y-102049499D01*
X127620943Y-102049499D01*
X127613347Y-102049499D01*
X127613331Y-102049500D01*
X127231885Y-102049500D01*
X127164846Y-102029815D01*
X127119091Y-101977011D01*
X127109147Y-101907853D01*
X127115703Y-101882167D01*
X127143596Y-101807379D01*
X127143598Y-101807372D01*
X127149999Y-101747844D01*
X127150000Y-101747827D01*
X127150000Y-101200000D01*
X124350000Y-101200000D01*
X124350000Y-101747844D01*
X124356401Y-101807372D01*
X124356403Y-101807379D01*
X124384297Y-101882167D01*
X124389281Y-101951859D01*
X124355796Y-102013182D01*
X124294473Y-102046666D01*
X124268115Y-102049500D01*
X122428213Y-102049500D01*
X122361174Y-102029815D01*
X122340532Y-102013181D01*
X121138976Y-100811625D01*
X121105491Y-100750302D01*
X121110475Y-100680610D01*
X121152347Y-100624677D01*
X121159115Y-100619953D01*
X121168670Y-100613746D01*
X121179179Y-100609394D01*
X121310289Y-100521789D01*
X121310355Y-100521722D01*
X121312224Y-100520509D01*
X121344991Y-100510715D01*
X121377553Y-100500520D01*
X121379152Y-100500505D01*
X121379168Y-100500501D01*
X121379182Y-100500505D01*
X121379766Y-100500500D01*
X123457208Y-100500500D01*
X123457224Y-100500501D01*
X123464820Y-100500501D01*
X123622931Y-100500501D01*
X123622934Y-100500501D01*
X123775662Y-100459577D01*
X123841112Y-100421789D01*
X123912593Y-100380520D01*
X124024397Y-100268716D01*
X124024397Y-100268714D01*
X124034597Y-100258515D01*
X124034601Y-100258510D01*
X124138321Y-100154789D01*
X124199642Y-100121307D01*
X124269334Y-100126291D01*
X124325267Y-100168163D01*
X124349684Y-100233628D01*
X124350000Y-100242473D01*
X124350000Y-100700000D01*
X125500000Y-100700000D01*
X126000000Y-100700000D01*
X127150000Y-100700000D01*
X127150000Y-100152172D01*
X127149999Y-100152155D01*
X127143598Y-100092627D01*
X127143596Y-100092620D01*
X127093354Y-99957913D01*
X127093350Y-99957906D01*
X127007190Y-99842812D01*
X127007187Y-99842809D01*
X126892093Y-99756649D01*
X126892086Y-99756645D01*
X126757379Y-99706403D01*
X126757372Y-99706401D01*
X126697844Y-99700000D01*
X126000000Y-99700000D01*
X126000000Y-100700000D01*
X125500000Y-100700000D01*
X125500000Y-99700000D01*
X124892473Y-99700000D01*
X124825434Y-99680315D01*
X124779679Y-99627511D01*
X124769735Y-99558353D01*
X124798760Y-99494797D01*
X124804792Y-99488319D01*
X131059158Y-93233953D01*
X137324361Y-86968750D01*
X137324366Y-86968746D01*
X137334569Y-86958542D01*
X137334571Y-86958542D01*
X137446375Y-86846738D01*
X137496697Y-86759577D01*
X137525432Y-86709807D01*
X137566355Y-86557080D01*
X137566355Y-86398965D01*
X137566355Y-86034641D01*
X137586040Y-85967602D01*
X137638844Y-85921847D01*
X137708002Y-85911903D01*
X137728674Y-85916710D01*
X137832579Y-85950472D01*
X137890000Y-85959566D01*
X137890000Y-85045277D01*
X137966306Y-85089333D01*
X138080756Y-85120000D01*
X138199244Y-85120000D01*
X138313694Y-85089333D01*
X138390000Y-85045277D01*
X138390000Y-85959565D01*
X138447420Y-85950472D01*
X138643944Y-85886616D01*
X138828057Y-85792806D01*
X138995233Y-85671344D01*
X138995234Y-85671344D01*
X139141344Y-85525234D01*
X139141344Y-85525233D01*
X139262806Y-85358057D01*
X139356617Y-85173942D01*
X139420474Y-84977412D01*
X139429568Y-84920000D01*
X138515278Y-84920000D01*
X138559333Y-84843694D01*
X138590000Y-84729244D01*
X138590000Y-84610756D01*
X138559333Y-84496306D01*
X138515278Y-84420000D01*
X139429568Y-84420000D01*
X139420474Y-84362587D01*
X139356617Y-84166057D01*
X139262806Y-83981942D01*
X139141344Y-83814766D01*
X139141344Y-83814765D01*
X138995234Y-83668655D01*
X138828055Y-83547191D01*
X138756563Y-83510764D01*
X138705768Y-83462790D01*
X138688973Y-83394969D01*
X138711511Y-83328834D01*
X138756563Y-83289796D01*
X138828319Y-83253235D01*
X138995558Y-83131729D01*
X139141729Y-82985558D01*
X139263235Y-82818319D01*
X139357083Y-82634132D01*
X139383420Y-82553075D01*
X139420961Y-82437536D01*
X139420961Y-82437535D01*
X139420962Y-82437532D01*
X139453300Y-82233359D01*
X139453300Y-82026641D01*
X139420962Y-81822468D01*
X139420961Y-81822464D01*
X139420961Y-81822463D01*
X139357084Y-81625870D01*
X139333954Y-81580475D01*
X139263235Y-81441681D01*
X139141729Y-81274442D01*
X138995558Y-81128271D01*
X138828319Y-81006765D01*
X138759669Y-80971786D01*
X138644129Y-80912915D01*
X138447535Y-80849038D01*
X138294402Y-80824784D01*
X138243359Y-80816700D01*
X138036641Y-80816700D01*
X137968583Y-80827479D01*
X137832466Y-80849038D01*
X137832463Y-80849038D01*
X137635870Y-80912915D01*
X137451680Y-81006765D01*
X137284439Y-81128273D01*
X137138273Y-81274439D01*
X137016765Y-81441680D01*
X136980485Y-81512884D01*
X136932510Y-81563680D01*
X136864689Y-81580475D01*
X136798554Y-81557937D01*
X136759515Y-81512884D01*
X136745714Y-81485798D01*
X136723235Y-81441681D01*
X136601729Y-81274442D01*
X136455558Y-81128271D01*
X136288319Y-81006765D01*
X136219669Y-80971786D01*
X136104129Y-80912915D01*
X135907535Y-80849038D01*
X135754402Y-80824784D01*
X135703359Y-80816700D01*
X135496641Y-80816700D01*
X135428583Y-80827479D01*
X135292466Y-80849038D01*
X135292463Y-80849038D01*
X135095870Y-80912915D01*
X134911680Y-81006765D01*
X134744439Y-81128273D01*
X134598273Y-81274439D01*
X134476765Y-81441680D01*
X134440485Y-81512884D01*
X134392510Y-81563680D01*
X134324689Y-81580475D01*
X134258554Y-81557937D01*
X134219515Y-81512884D01*
X134205714Y-81485798D01*
X134183235Y-81441681D01*
X134061729Y-81274442D01*
X133915558Y-81128271D01*
X133748319Y-81006765D01*
X133679669Y-80971786D01*
X133564129Y-80912915D01*
X133367535Y-80849038D01*
X133214402Y-80824784D01*
X133163359Y-80816700D01*
X132956641Y-80816700D01*
X132888583Y-80827479D01*
X132752466Y-80849038D01*
X132752463Y-80849038D01*
X132555870Y-80912915D01*
X132371680Y-81006765D01*
X132204439Y-81128273D01*
X132058273Y-81274439D01*
X131936765Y-81441680D01*
X131842915Y-81625870D01*
X131779038Y-81822463D01*
X131779038Y-81822466D01*
X131746700Y-82026641D01*
X131746700Y-82233358D01*
X131779038Y-82437533D01*
X131779038Y-82437536D01*
X131842915Y-82634129D01*
X131870791Y-82688838D01*
X131936765Y-82818319D01*
X132058271Y-82985558D01*
X132204442Y-83131729D01*
X132371681Y-83253235D01*
X132419133Y-83277413D01*
X132442884Y-83289515D01*
X132493680Y-83337490D01*
X132510475Y-83405311D01*
X132487937Y-83471446D01*
X132442884Y-83510485D01*
X132371680Y-83546765D01*
X132204443Y-83668270D01*
X132057782Y-83814931D01*
X131996459Y-83848415D01*
X131926767Y-83843431D01*
X131882420Y-83814930D01*
X126134544Y-78067052D01*
X126134537Y-78067046D01*
X126060852Y-78017812D01*
X126060852Y-78017813D01*
X126011614Y-77984913D01*
X125875040Y-77928343D01*
X125875030Y-77928340D01*
X125730043Y-77899500D01*
X125730041Y-77899500D01*
X121929655Y-77899500D01*
X121862616Y-77879815D01*
X121816861Y-77827011D01*
X121805655Y-77775500D01*
X121805655Y-77069160D01*
X121825340Y-77002121D01*
X121855342Y-76969894D01*
X121962701Y-76889526D01*
X122048951Y-76774311D01*
X122099246Y-76639463D01*
X122105655Y-76579853D01*
X122105654Y-75484108D01*
X122099246Y-75424497D01*
X122099246Y-75424496D01*
X122048952Y-75289650D01*
X122034240Y-75269998D01*
X122023978Y-75256290D01*
X121999561Y-75190829D01*
X122014412Y-75122555D01*
X122023975Y-75107674D01*
X122048951Y-75074311D01*
X122050347Y-75070570D01*
X122074228Y-75006540D01*
X122099246Y-74939463D01*
X122105655Y-74879853D01*
X122105654Y-73784108D01*
X122099246Y-73724497D01*
X122094005Y-73710446D01*
X122048952Y-73589651D01*
X122048948Y-73589644D01*
X121962702Y-73474435D01*
X121962699Y-73474432D01*
X121847490Y-73388186D01*
X121847483Y-73388182D01*
X121712637Y-73337888D01*
X121712638Y-73337888D01*
X121653038Y-73331481D01*
X121653036Y-73331480D01*
X121653028Y-73331480D01*
X121653020Y-73331480D01*
X121038236Y-73331480D01*
X120971197Y-73311795D01*
X120925442Y-73258991D01*
X120916619Y-73231671D01*
X120906326Y-73179923D01*
X120906323Y-73179914D01*
X120901251Y-73167670D01*
X120876689Y-73108371D01*
X120845984Y-73034240D01*
X120845977Y-73034227D01*
X120758376Y-72903124D01*
X120758373Y-72903120D01*
X120646879Y-72791626D01*
X120646875Y-72791623D01*
X120515772Y-72704022D01*
X120515759Y-72704015D01*
X120370088Y-72643677D01*
X120370078Y-72643674D01*
X120214738Y-72612775D01*
X120197981Y-72604009D01*
X120179503Y-72599990D01*
X120154464Y-72581245D01*
X120152828Y-72580390D01*
X120151249Y-72578839D01*
X120025765Y-72453355D01*
X120025763Y-72453352D01*
X119906892Y-72334481D01*
X119906884Y-72334475D01*
X119811170Y-72279215D01*
X119811166Y-72279213D01*
X119802110Y-72273985D01*
X119769960Y-72255423D01*
X119687577Y-72233348D01*
X119682139Y-72231330D01*
X119658603Y-72213771D01*
X119633528Y-72198487D01*
X119630920Y-72193118D01*
X119626137Y-72189550D01*
X119615829Y-72162052D01*
X119602999Y-72135639D01*
X119603593Y-72129410D01*
X119601613Y-72124126D01*
X119606070Y-72103473D01*
X119609100Y-72071744D01*
X119618839Y-72045633D01*
X119651791Y-71957283D01*
X119658200Y-71897673D01*
X119658199Y-71192328D01*
X119651791Y-71132717D01*
X119639350Y-71099362D01*
X119601497Y-70997871D01*
X119601493Y-70997864D01*
X119515247Y-70882655D01*
X119515244Y-70882652D01*
X119400035Y-70796406D01*
X119400028Y-70796402D01*
X119265182Y-70746108D01*
X119265183Y-70746108D01*
X119205583Y-70739701D01*
X119205581Y-70739700D01*
X119205573Y-70739700D01*
X119205565Y-70739700D01*
X118148097Y-70739700D01*
X118081058Y-70720015D01*
X118060416Y-70703381D01*
X117545390Y-70188355D01*
X117545388Y-70188352D01*
X117426517Y-70069481D01*
X117426516Y-70069480D01*
X117339704Y-70019360D01*
X117339704Y-70019359D01*
X117339700Y-70019358D01*
X117289585Y-69990423D01*
X117136857Y-69949499D01*
X116978743Y-69949499D01*
X116971147Y-69949499D01*
X116971131Y-69949500D01*
X109779057Y-69949500D01*
X109620943Y-69949500D01*
X109468215Y-69990423D01*
X109468214Y-69990423D01*
X109468212Y-69990424D01*
X109468209Y-69990425D01*
X109418096Y-70019359D01*
X109418095Y-70019360D01*
X109374689Y-70044420D01*
X109331285Y-70069479D01*
X109331282Y-70069481D01*
X108189599Y-71211164D01*
X108189598Y-71211166D01*
X108153033Y-71274500D01*
X108139479Y-71297976D01*
X108139477Y-71297978D01*
X108110543Y-71348091D01*
X108110542Y-71348092D01*
X108110541Y-71348097D01*
X108069617Y-71500825D01*
X108069617Y-71500827D01*
X108069617Y-71668928D01*
X108069618Y-71668941D01*
X108069618Y-73156878D01*
X108049933Y-73223917D01*
X107997129Y-73269672D01*
X107988951Y-73273060D01*
X107877789Y-73314520D01*
X107877782Y-73314524D01*
X107762573Y-73400770D01*
X107762570Y-73400773D01*
X107676324Y-73515982D01*
X107676320Y-73515989D01*
X107646961Y-73594707D01*
X107646872Y-73594825D01*
X107646861Y-73594975D01*
X107625899Y-73622841D01*
X107605090Y-73650641D01*
X107604919Y-73650733D01*
X107604861Y-73650812D01*
X107604091Y-73651184D01*
X107573845Y-73667655D01*
X107568437Y-73669657D01*
X107459897Y-73698741D01*
X107415287Y-73724497D01*
X107406200Y-73729742D01*
X107406195Y-73729745D01*
X107322969Y-73777795D01*
X107322964Y-73777799D01*
X104519481Y-76581282D01*
X104519475Y-76581290D01*
X104485891Y-76639461D01*
X104485891Y-76639463D01*
X104440423Y-76718214D01*
X104440423Y-76718215D01*
X104399499Y-76870943D01*
X104399499Y-76870945D01*
X104399499Y-77039046D01*
X104399500Y-77039059D01*
X104399500Y-89742954D01*
X104379815Y-89809993D01*
X104363181Y-89830635D01*
X104337511Y-89856304D01*
X104337508Y-89856308D01*
X104244173Y-89995993D01*
X104244168Y-89996003D01*
X104179876Y-90151217D01*
X104179874Y-90151225D01*
X104147100Y-90315992D01*
X104147100Y-90484007D01*
X104179874Y-90648774D01*
X104179876Y-90648782D01*
X104244168Y-90803996D01*
X104244173Y-90804006D01*
X104337508Y-90943691D01*
X104337511Y-90943695D01*
X104456304Y-91062488D01*
X104456308Y-91062491D01*
X104595993Y-91155826D01*
X104595997Y-91155828D01*
X104596000Y-91155830D01*
X104751218Y-91220124D01*
X104915992Y-91252899D01*
X104915996Y-91252900D01*
X104975500Y-91252900D01*
X105042539Y-91272585D01*
X105088294Y-91325389D01*
X105099500Y-91376900D01*
X105099500Y-99225500D01*
X105079815Y-99292539D01*
X105027011Y-99338294D01*
X104975500Y-99349500D01*
X103945129Y-99349500D01*
X103945123Y-99349501D01*
X103885516Y-99355908D01*
X103750671Y-99406202D01*
X103750664Y-99406206D01*
X103635455Y-99492452D01*
X103635452Y-99492455D01*
X103549206Y-99607664D01*
X103549202Y-99607671D01*
X103498908Y-99742517D01*
X103492501Y-99802116D01*
X103492500Y-99802135D01*
X103492500Y-101397870D01*
X103492501Y-101397876D01*
X103498908Y-101457483D01*
X103545413Y-101582167D01*
X103550397Y-101651859D01*
X103516912Y-101713182D01*
X103455589Y-101746666D01*
X103429231Y-101749500D01*
X103020940Y-101749500D01*
X102980019Y-101760464D01*
X102980019Y-101760465D01*
X102942751Y-101770451D01*
X102868214Y-101790423D01*
X102868209Y-101790426D01*
X102731290Y-101869475D01*
X102731282Y-101869481D01*
X102619478Y-101981286D01*
X88648394Y-115952369D01*
X88587071Y-115985854D01*
X88580112Y-115987161D01*
X88471616Y-116004346D01*
X88471614Y-116004346D01*
X88282625Y-116065752D01*
X88282622Y-116065753D01*
X88105560Y-116155972D01*
X87944788Y-116272780D01*
X87804276Y-116413292D01*
X87687468Y-116574064D01*
X87597249Y-116751126D01*
X87597248Y-116751129D01*
X87535842Y-116940121D01*
X87504755Y-117136398D01*
X85392017Y-117136398D01*
X91062777Y-99802018D01*
X91592052Y-98201823D01*
X91595898Y-98196659D01*
X91595242Y-98192180D01*
X91596664Y-98187882D01*
X91593770Y-98182128D01*
X91592837Y-98175756D01*
X91589206Y-98173052D01*
X91587173Y-98169010D01*
X91580046Y-98162856D01*
X91564987Y-98155020D01*
X91452352Y-98071159D01*
X75071596Y-85875089D01*
X75068811Y-85872954D01*
X75068440Y-85872661D01*
X75057612Y-85863030D01*
X75051295Y-85856713D01*
X75039285Y-85849673D01*
X75035956Y-85847048D01*
X74764948Y-85633354D01*
X74759661Y-85628942D01*
X74483181Y-85384769D01*
X74478141Y-85380062D01*
X74218532Y-85123728D01*
X74213781Y-85118769D01*
X73971030Y-84850959D01*
X73966589Y-84845781D01*
X73865618Y-84721260D01*
X73740605Y-84567089D01*
X73736494Y-84561727D01*
X73660489Y-84456778D01*
X73527282Y-84272842D01*
X73523510Y-84267325D01*
X73331049Y-83968910D01*
X73327629Y-83963282D01*
X73279750Y-83879558D01*
X73256397Y-83838720D01*
X73151900Y-83655989D01*
X73148810Y-83650240D01*
X72989822Y-83334776D01*
X72987074Y-83328953D01*
X72844782Y-83005905D01*
X72842373Y-83000033D01*
X72716787Y-82670097D01*
X72714710Y-82664195D01*
X72641293Y-82437536D01*
X72605834Y-82328062D01*
X72604084Y-82322162D01*
X72580127Y-82233358D01*
X72511915Y-81980505D01*
X72510477Y-81974603D01*
X72435006Y-81628073D01*
X72433871Y-81622179D01*
X72426883Y-81580475D01*
X72375103Y-81271465D01*
X72374268Y-81265635D01*
X72332198Y-80911377D01*
X72331647Y-80905552D01*
X72331496Y-80903433D01*
X72306289Y-80548587D01*
X72306014Y-80542801D01*
X72305902Y-80538171D01*
X72297351Y-80183645D01*
X72297347Y-80177902D01*
X72299186Y-80095421D01*
X72305383Y-79817376D01*
X72305641Y-79811676D01*
X72306287Y-79802234D01*
X72330373Y-79450323D01*
X72330887Y-79444713D01*
X72372302Y-79083377D01*
X72373073Y-79077787D01*
X72431170Y-78717071D01*
X72432174Y-78711620D01*
X72506965Y-78352128D01*
X72508221Y-78346715D01*
X72599657Y-77989335D01*
X72601149Y-77984006D01*
X72709250Y-77629297D01*
X72710987Y-77624032D01*
X72835732Y-77272725D01*
X72837724Y-77267497D01*
X72979097Y-76920289D01*
X72981325Y-76915157D01*
X73139314Y-76572737D01*
X73141774Y-76567710D01*
X73316388Y-76230717D01*
X73319100Y-76225766D01*
X73510321Y-75894906D01*
X73513242Y-75890112D01*
X73721056Y-75566071D01*
X73724248Y-75561340D01*
X73782636Y-75478978D01*
X73908169Y-75301899D01*
X73948746Y-75244660D01*
X73951939Y-75240355D01*
X74133488Y-75006507D01*
X74136601Y-75002660D01*
X74324189Y-74780394D01*
X74327456Y-74776680D01*
X74520667Y-74565817D01*
X74524022Y-74562302D01*
X74722431Y-74362647D01*
X74725953Y-74359241D01*
X74929332Y-74170395D01*
X74932949Y-74167168D01*
X75139852Y-73989794D01*
X75145414Y-73985299D01*
X75575269Y-73658096D01*
X75582837Y-73652771D01*
X76026419Y-73364834D01*
X76033944Y-73360321D01*
X76490008Y-73108349D01*
X76497298Y-73104633D01*
X76963305Y-72886313D01*
X76970336Y-72883282D01*
X77443715Y-72696313D01*
X77450358Y-72693907D01*
X77928539Y-72535988D01*
X77934730Y-72534121D01*
X78415161Y-72402939D01*
X78420868Y-72401527D01*
X78900883Y-72294795D01*
X78906066Y-72293759D01*
X79383035Y-72209167D01*
X79387699Y-72208434D01*
X79858845Y-72143681D01*
X79863108Y-72143171D01*
X80325808Y-72095920D01*
X80329538Y-72095597D01*
X80781221Y-72063498D01*
X80784439Y-72063313D01*
X81222956Y-72044001D01*
X81224789Y-72043935D01*
X81238165Y-72043555D01*
X81239000Y-72043535D01*
X81253106Y-72043261D01*
X81254006Y-72043248D01*
X81268095Y-72043095D01*
X81268749Y-72043091D01*
X81283507Y-72043050D01*
X98600121Y-72067186D01*
X98633731Y-72071877D01*
X98640901Y-72073907D01*
X98640948Y-72073954D01*
X98641066Y-72073954D01*
X98648775Y-72076137D01*
X98652245Y-72076044D01*
X98652248Y-72076045D01*
X98652250Y-72076044D01*
X98676567Y-72075394D01*
X98683332Y-72073954D01*
X100980060Y-72073954D01*
X100985949Y-72076010D01*
X100990212Y-72073954D01*
X100994946Y-72073954D01*
X100994946Y-72073953D01*
X101000777Y-72071537D01*
X101004975Y-72066832D01*
X101004977Y-72066832D01*
X101004977Y-72066830D01*
X101004980Y-72066828D01*
X101006540Y-72062358D01*
X101009884Y-72059016D01*
X101009884Y-72052781D01*
X101016813Y-72032935D01*
X101016815Y-72032931D01*
X101016816Y-72032927D01*
X101031049Y-71992166D01*
X107982193Y-52085403D01*
X107983056Y-52083014D01*
X108080685Y-51821400D01*
X108082632Y-51816510D01*
X108189779Y-51563336D01*
X108191930Y-51558544D01*
X108308858Y-51312356D01*
X108311237Y-51307613D01*
X108314129Y-51302142D01*
X108437676Y-51068430D01*
X108440211Y-51063873D01*
X108575897Y-50831710D01*
X108578599Y-50827305D01*
X108686740Y-50659041D01*
X112399500Y-50659041D01*
X112399500Y-50940958D01*
X112436295Y-51220439D01*
X112509259Y-51492743D01*
X112617135Y-51753179D01*
X112617140Y-51753190D01*
X112758083Y-51997309D01*
X112758088Y-51997317D01*
X112929700Y-52220965D01*
X112929704Y-52220970D01*
X113129029Y-52420295D01*
X113129033Y-52420298D01*
X113129035Y-52420300D01*
X113352683Y-52591912D01*
X113352690Y-52591916D01*
X113596809Y-52732859D01*
X113596814Y-52732861D01*
X113596817Y-52732863D01*
X113857261Y-52840742D01*
X114129558Y-52913704D01*
X114409049Y-52950500D01*
X114409056Y-52950500D01*
X114690944Y-52950500D01*
X114690951Y-52950500D01*
X114970442Y-52913704D01*
X115242739Y-52840742D01*
X115503183Y-52732863D01*
X115747317Y-52591912D01*
X115970965Y-52420300D01*
X116170300Y-52220965D01*
X116341912Y-51997317D01*
X116482863Y-51753183D01*
X116590742Y-51492739D01*
X116663704Y-51220442D01*
X116700500Y-50940951D01*
X116700500Y-50659049D01*
X116663704Y-50379558D01*
X116590742Y-50107261D01*
X116482863Y-49846817D01*
X116482861Y-49846814D01*
X116482859Y-49846809D01*
X116341916Y-49602690D01*
X116341912Y-49602683D01*
X116170300Y-49379035D01*
X116170298Y-49379033D01*
X116170295Y-49379029D01*
X115970970Y-49179704D01*
X115970965Y-49179700D01*
X115747317Y-49008088D01*
X115747311Y-49008084D01*
X115747309Y-49008083D01*
X115503190Y-48867140D01*
X115503179Y-48867135D01*
X115242743Y-48759259D01*
X114970439Y-48686295D01*
X114690958Y-48649500D01*
X114690951Y-48649500D01*
X114409049Y-48649500D01*
X114409041Y-48649500D01*
X114129560Y-48686295D01*
X113857256Y-48759259D01*
X113596820Y-48867135D01*
X113596809Y-48867140D01*
X113352690Y-49008083D01*
X113352684Y-49008087D01*
X113352683Y-49008088D01*
X113309734Y-49041044D01*
X113129029Y-49179704D01*
X112929704Y-49379029D01*
X112758089Y-49602682D01*
X112758083Y-49602690D01*
X112617140Y-49846809D01*
X112617135Y-49846820D01*
X112509259Y-50107256D01*
X112436295Y-50379560D01*
X112399500Y-50659041D01*
X108686740Y-50659041D01*
X108722346Y-50603640D01*
X108726737Y-50597258D01*
X109042443Y-50167797D01*
X109048798Y-50159858D01*
X109395779Y-49761157D01*
X109402581Y-49753948D01*
X109779463Y-49385353D01*
X109786635Y-49378867D01*
X110191096Y-49041033D01*
X110198570Y-49035261D01*
X110628167Y-48728943D01*
X110635870Y-48723872D01*
X111088316Y-48449706D01*
X111096189Y-48445320D01*
X111569071Y-48204025D01*
X111577068Y-48200299D01*
X112067944Y-47992601D01*
X112076065Y-47989496D01*
X112582548Y-47816081D01*
X112590748Y-47813589D01*
X113110366Y-47675168D01*
X113118663Y-47673261D01*
X113649026Y-47570514D01*
X113657432Y-47569183D01*
X114196022Y-47502802D01*
X114204503Y-47502052D01*
X114726004Y-47473935D01*
X114729658Y-47473793D01*
X114746370Y-47473386D01*
X114748562Y-47474728D01*
X114755010Y-47473175D01*
X114768193Y-47472855D01*
X114768735Y-47472999D01*
X114770178Y-47472822D01*
X114937378Y-47471438D01*
X114940070Y-47471445D01*
G37*
G04 #@! TD.AperFunction*
M02*
