G04 #@! TF.GenerationSoftware,KiCad,Pcbnew,9.0.0*
G04 #@! TF.CreationDate,2025-03-28T10:35:15+01:00*
G04 #@! TF.ProjectId,Blinkenstar,426c696e-6b65-46e7-9374-61722e6b6963,rev?*
G04 #@! TF.SameCoordinates,Original*
G04 #@! TF.FileFunction,Legend,Bot*
G04 #@! TF.FilePolarity,Positive*
%FSLAX46Y46*%
G04 Gerber Fmt 4.6, Leading zero omitted, Abs format (unit mm)*
G04 Created by KiCad (PCBNEW 9.0.0) date 2025-03-28 10:35:15*
%MOMM*%
%LPD*%
G01*
G04 APERTURE LIST*
%ADD10C,0.406400*%
%ADD11C,0.081280*%
%ADD12C,0.115000*%
%ADD13C,0.152400*%
%ADD14C,0.200000*%
%ADD15C,0.127000*%
%ADD16C,0.050800*%
%ADD17C,0.203200*%
%ADD18C,0.250000*%
%ADD19R,1.100000X1.000000*%
%ADD20R,1.100000X0.300000*%
%ADD21R,0.300000X1.100000*%
%ADD22C,1.778000*%
%ADD23C,2.184400*%
%ADD24O,1.524000X3.048000*%
%ADD25R,1.050000X1.080000*%
%ADD26R,1.080000X1.050000*%
%ADD27R,2.209800X0.609600*%
%ADD28C,1.625600*%
%ADD29C,1.200000*%
%ADD30R,1.800000X1.500000*%
%ADD31R,1.000000X1.100000*%
G04 APERTURE END LIST*
D10*
X139370000Y-80850000D02*
X137465000Y-80850000D01*
X139370000Y-85930000D02*
X139370000Y-80850000D01*
X133655000Y-79580000D02*
X133655000Y-80850000D01*
X133655000Y-80850000D02*
X131750000Y-80850000D01*
X137465000Y-79580000D02*
X133655000Y-79580000D01*
X131750000Y-85930000D02*
X131750000Y-80850000D01*
X137465000Y-80850000D02*
X137465000Y-79580000D01*
D11*
X148418485Y-74886871D02*
X148284953Y-74931381D01*
X148284953Y-74931381D02*
X148062401Y-74931381D01*
X148062401Y-74931381D02*
X147973380Y-74886871D01*
X147973380Y-74886871D02*
X147928869Y-74842360D01*
X147928869Y-74842360D02*
X147884359Y-74753339D01*
X147884359Y-74753339D02*
X147884359Y-74664318D01*
X147884359Y-74664318D02*
X147928869Y-74575297D01*
X147928869Y-74575297D02*
X147973380Y-74530787D01*
X147973380Y-74530787D02*
X148062401Y-74486276D01*
X148062401Y-74486276D02*
X148240443Y-74441766D01*
X148240443Y-74441766D02*
X148329464Y-74397255D01*
X148329464Y-74397255D02*
X148373974Y-74352745D01*
X148373974Y-74352745D02*
X148418485Y-74263724D01*
X148418485Y-74263724D02*
X148418485Y-74174703D01*
X148418485Y-74174703D02*
X148373974Y-74085682D01*
X148373974Y-74085682D02*
X148329464Y-74041171D01*
X148329464Y-74041171D02*
X148240443Y-73996661D01*
X148240443Y-73996661D02*
X148017890Y-73996661D01*
X148017890Y-73996661D02*
X147884359Y-74041171D01*
X147617296Y-73996661D02*
X147083170Y-73996661D01*
X147350233Y-74931381D02*
X147350233Y-73996661D01*
X146771596Y-74441766D02*
X146460023Y-74441766D01*
X146326491Y-74931381D02*
X146771596Y-74931381D01*
X146771596Y-74931381D02*
X146771596Y-73996661D01*
X146771596Y-73996661D02*
X146326491Y-73996661D01*
X145391771Y-74931381D02*
X145703345Y-74486276D01*
X145925897Y-74931381D02*
X145925897Y-73996661D01*
X145925897Y-73996661D02*
X145569813Y-73996661D01*
X145569813Y-73996661D02*
X145480792Y-74041171D01*
X145480792Y-74041171D02*
X145436282Y-74085682D01*
X145436282Y-74085682D02*
X145391771Y-74174703D01*
X145391771Y-74174703D02*
X145391771Y-74308234D01*
X145391771Y-74308234D02*
X145436282Y-74397255D01*
X145436282Y-74397255D02*
X145480792Y-74441766D01*
X145480792Y-74441766D02*
X145569813Y-74486276D01*
X145569813Y-74486276D02*
X145925897Y-74486276D01*
X144991177Y-74931381D02*
X144991177Y-73996661D01*
X144991177Y-73996661D02*
X144457051Y-74931381D01*
X144457051Y-74931381D02*
X144457051Y-73996661D01*
X144011947Y-74441766D02*
X143700374Y-74441766D01*
X143566842Y-74931381D02*
X144011947Y-74931381D01*
X144011947Y-74931381D02*
X144011947Y-73996661D01*
X144011947Y-73996661D02*
X143566842Y-73996661D01*
X143166248Y-74931381D02*
X143166248Y-73996661D01*
X143166248Y-73996661D02*
X142632122Y-74931381D01*
X142632122Y-74931381D02*
X142632122Y-73996661D01*
X141741913Y-74931381D02*
X142187018Y-74931381D01*
X142187018Y-74931381D02*
X142187018Y-73996661D01*
X141474851Y-74664318D02*
X141029746Y-74664318D01*
X141563872Y-74931381D02*
X141252298Y-73996661D01*
X141252298Y-73996661D02*
X140940725Y-74931381D01*
X140317578Y-74441766D02*
X140184046Y-74486276D01*
X140184046Y-74486276D02*
X140139536Y-74530787D01*
X140139536Y-74530787D02*
X140095025Y-74619808D01*
X140095025Y-74619808D02*
X140095025Y-74753339D01*
X140095025Y-74753339D02*
X140139536Y-74842360D01*
X140139536Y-74842360D02*
X140184046Y-74886871D01*
X140184046Y-74886871D02*
X140273067Y-74931381D01*
X140273067Y-74931381D02*
X140629151Y-74931381D01*
X140629151Y-74931381D02*
X140629151Y-73996661D01*
X140629151Y-73996661D02*
X140317578Y-73996661D01*
X140317578Y-73996661D02*
X140228557Y-74041171D01*
X140228557Y-74041171D02*
X140184046Y-74085682D01*
X140184046Y-74085682D02*
X140139536Y-74174703D01*
X140139536Y-74174703D02*
X140139536Y-74263724D01*
X140139536Y-74263724D02*
X140184046Y-74352745D01*
X140184046Y-74352745D02*
X140228557Y-74397255D01*
X140228557Y-74397255D02*
X140317578Y-74441766D01*
X140317578Y-74441766D02*
X140629151Y-74441766D01*
X139516389Y-73996661D02*
X139338347Y-73996661D01*
X139338347Y-73996661D02*
X139249326Y-74041171D01*
X139249326Y-74041171D02*
X139160305Y-74130192D01*
X139160305Y-74130192D02*
X139115795Y-74308234D01*
X139115795Y-74308234D02*
X139115795Y-74619808D01*
X139115795Y-74619808D02*
X139160305Y-74797850D01*
X139160305Y-74797850D02*
X139249326Y-74886871D01*
X139249326Y-74886871D02*
X139338347Y-74931381D01*
X139338347Y-74931381D02*
X139516389Y-74931381D01*
X139516389Y-74931381D02*
X139605410Y-74886871D01*
X139605410Y-74886871D02*
X139694431Y-74797850D01*
X139694431Y-74797850D02*
X139738942Y-74619808D01*
X139738942Y-74619808D02*
X139738942Y-74308234D01*
X139738942Y-74308234D02*
X139694431Y-74130192D01*
X139694431Y-74130192D02*
X139605410Y-74041171D01*
X139605410Y-74041171D02*
X139516389Y-73996661D01*
X138181075Y-74931381D02*
X138492649Y-74486276D01*
X138715201Y-74931381D02*
X138715201Y-73996661D01*
X138715201Y-73996661D02*
X138359117Y-73996661D01*
X138359117Y-73996661D02*
X138270096Y-74041171D01*
X138270096Y-74041171D02*
X138225586Y-74085682D01*
X138225586Y-74085682D02*
X138181075Y-74174703D01*
X138181075Y-74174703D02*
X138181075Y-74308234D01*
X138181075Y-74308234D02*
X138225586Y-74397255D01*
X138225586Y-74397255D02*
X138270096Y-74441766D01*
X138270096Y-74441766D02*
X138359117Y-74486276D01*
X138359117Y-74486276D02*
X138715201Y-74486276D01*
X137780481Y-74842360D02*
X137735971Y-74886871D01*
X137735971Y-74886871D02*
X137780481Y-74931381D01*
X137780481Y-74931381D02*
X137824992Y-74886871D01*
X137824992Y-74886871D02*
X137780481Y-74842360D01*
X137780481Y-74842360D02*
X137780481Y-74931381D01*
X137335376Y-74931381D02*
X137335376Y-73996661D01*
X137335376Y-73996661D02*
X137112824Y-73996661D01*
X137112824Y-73996661D02*
X136979292Y-74041171D01*
X136979292Y-74041171D02*
X136890271Y-74130192D01*
X136890271Y-74130192D02*
X136845761Y-74219213D01*
X136845761Y-74219213D02*
X136801250Y-74397255D01*
X136801250Y-74397255D02*
X136801250Y-74530787D01*
X136801250Y-74530787D02*
X136845761Y-74708829D01*
X136845761Y-74708829D02*
X136890271Y-74797850D01*
X136890271Y-74797850D02*
X136979292Y-74886871D01*
X136979292Y-74886871D02*
X137112824Y-74931381D01*
X137112824Y-74931381D02*
X137335376Y-74931381D01*
X136400656Y-74441766D02*
X136089083Y-74441766D01*
X135955551Y-74931381D02*
X136400656Y-74931381D01*
X136400656Y-74931381D02*
X136400656Y-73996661D01*
X136400656Y-73996661D02*
X135955551Y-73996661D01*
X92712401Y-74741766D02*
X92578869Y-74786276D01*
X92578869Y-74786276D02*
X92534359Y-74830787D01*
X92534359Y-74830787D02*
X92489848Y-74919808D01*
X92489848Y-74919808D02*
X92489848Y-75053339D01*
X92489848Y-75053339D02*
X92534359Y-75142360D01*
X92534359Y-75142360D02*
X92578869Y-75186871D01*
X92578869Y-75186871D02*
X92667890Y-75231381D01*
X92667890Y-75231381D02*
X93023974Y-75231381D01*
X93023974Y-75231381D02*
X93023974Y-74296661D01*
X93023974Y-74296661D02*
X92712401Y-74296661D01*
X92712401Y-74296661D02*
X92623380Y-74341171D01*
X92623380Y-74341171D02*
X92578869Y-74385682D01*
X92578869Y-74385682D02*
X92534359Y-74474703D01*
X92534359Y-74474703D02*
X92534359Y-74563724D01*
X92534359Y-74563724D02*
X92578869Y-74652745D01*
X92578869Y-74652745D02*
X92623380Y-74697255D01*
X92623380Y-74697255D02*
X92712401Y-74741766D01*
X92712401Y-74741766D02*
X93023974Y-74741766D01*
X91644149Y-75231381D02*
X92089254Y-75231381D01*
X92089254Y-75231381D02*
X92089254Y-74296661D01*
X91332576Y-75231381D02*
X91332576Y-74296661D01*
X90887471Y-75231381D02*
X90887471Y-74296661D01*
X90887471Y-74296661D02*
X90353345Y-75231381D01*
X90353345Y-75231381D02*
X90353345Y-74296661D01*
X89908241Y-75231381D02*
X89908241Y-74296661D01*
X89374115Y-75231381D02*
X89774710Y-74697255D01*
X89374115Y-74296661D02*
X89908241Y-74830787D01*
X88973521Y-74741766D02*
X88661948Y-74741766D01*
X88528416Y-75231381D02*
X88973521Y-75231381D01*
X88973521Y-75231381D02*
X88973521Y-74296661D01*
X88973521Y-74296661D02*
X88528416Y-74296661D01*
X88127822Y-75231381D02*
X88127822Y-74296661D01*
X88127822Y-74296661D02*
X87593696Y-75231381D01*
X87593696Y-75231381D02*
X87593696Y-74296661D01*
X87193103Y-75186871D02*
X87059571Y-75231381D01*
X87059571Y-75231381D02*
X86837019Y-75231381D01*
X86837019Y-75231381D02*
X86747998Y-75186871D01*
X86747998Y-75186871D02*
X86703487Y-75142360D01*
X86703487Y-75142360D02*
X86658977Y-75053339D01*
X86658977Y-75053339D02*
X86658977Y-74964318D01*
X86658977Y-74964318D02*
X86703487Y-74875297D01*
X86703487Y-74875297D02*
X86747998Y-74830787D01*
X86747998Y-74830787D02*
X86837019Y-74786276D01*
X86837019Y-74786276D02*
X87015061Y-74741766D01*
X87015061Y-74741766D02*
X87104082Y-74697255D01*
X87104082Y-74697255D02*
X87148592Y-74652745D01*
X87148592Y-74652745D02*
X87193103Y-74563724D01*
X87193103Y-74563724D02*
X87193103Y-74474703D01*
X87193103Y-74474703D02*
X87148592Y-74385682D01*
X87148592Y-74385682D02*
X87104082Y-74341171D01*
X87104082Y-74341171D02*
X87015061Y-74296661D01*
X87015061Y-74296661D02*
X86792508Y-74296661D01*
X86792508Y-74296661D02*
X86658977Y-74341171D01*
X86391914Y-74296661D02*
X85857788Y-74296661D01*
X86124851Y-75231381D02*
X86124851Y-74296661D01*
X85590725Y-74964318D02*
X85145620Y-74964318D01*
X85679746Y-75231381D02*
X85368172Y-74296661D01*
X85368172Y-74296661D02*
X85056599Y-75231381D01*
X84210899Y-75231381D02*
X84522473Y-74786276D01*
X84745025Y-75231381D02*
X84745025Y-74296661D01*
X84745025Y-74296661D02*
X84388941Y-74296661D01*
X84388941Y-74296661D02*
X84299920Y-74341171D01*
X84299920Y-74341171D02*
X84255410Y-74385682D01*
X84255410Y-74385682D02*
X84210899Y-74474703D01*
X84210899Y-74474703D02*
X84210899Y-74608234D01*
X84210899Y-74608234D02*
X84255410Y-74697255D01*
X84255410Y-74697255D02*
X84299920Y-74741766D01*
X84299920Y-74741766D02*
X84388941Y-74786276D01*
X84388941Y-74786276D02*
X84745025Y-74786276D01*
D12*
X136154603Y-129003317D02*
X135613084Y-129496860D01*
X135613084Y-129496860D02*
X135719436Y-128771934D01*
X135530511Y-128392383D02*
X135510132Y-128325729D01*
X135510132Y-128325729D02*
X135446237Y-128235935D01*
X135446237Y-128235935D02*
X135228654Y-128120244D01*
X135228654Y-128120244D02*
X135118482Y-128117484D01*
X135118482Y-128117484D02*
X135051827Y-128137863D01*
X135051827Y-128137863D02*
X134962034Y-128201758D01*
X134962034Y-128201758D02*
X134915757Y-128288791D01*
X134915757Y-128288791D02*
X134889859Y-128442480D01*
X134889859Y-128442480D02*
X135134401Y-129242339D01*
X135134401Y-129242339D02*
X134568684Y-128941542D01*
X134223310Y-128646264D02*
X134156655Y-128666643D01*
X134156655Y-128666643D02*
X134177034Y-128733298D01*
X134177034Y-128733298D02*
X134243689Y-128712919D01*
X134243689Y-128712919D02*
X134223310Y-128646264D01*
X134223310Y-128646264D02*
X134177034Y-128733298D01*
X133792603Y-127356682D02*
X134227770Y-127588065D01*
X134227770Y-127588065D02*
X134039904Y-128046370D01*
X134039904Y-128046370D02*
X134019526Y-127979715D01*
X134019526Y-127979715D02*
X133955630Y-127889922D01*
X133955630Y-127889922D02*
X133738047Y-127774231D01*
X133738047Y-127774231D02*
X133627875Y-127771471D01*
X133627875Y-127771471D02*
X133561220Y-127791849D01*
X133561220Y-127791849D02*
X133471427Y-127855745D01*
X133471427Y-127855745D02*
X133355736Y-128073328D01*
X133355736Y-128073328D02*
X133352976Y-128183500D01*
X133352976Y-128183500D02*
X133373355Y-128250155D01*
X133373355Y-128250155D02*
X133437250Y-128339948D01*
X133437250Y-128339948D02*
X133654833Y-128455639D01*
X133654833Y-128455639D02*
X133765005Y-128458399D01*
X133765005Y-128458399D02*
X133831660Y-128438020D01*
D10*
X139370000Y-85930000D02*
X131750000Y-85930000D01*
D11*
X133019003Y-81117640D02*
X133019003Y-80583514D01*
X133019003Y-80850577D02*
X132084283Y-80850577D01*
X132084283Y-80850577D02*
X132217814Y-80761556D01*
X132217814Y-80761556D02*
X132306835Y-80672535D01*
X132306835Y-80672535D02*
X132351346Y-80583514D01*
D13*
X112488400Y-86256800D02*
G75*
G02*
X111770000Y-86256800I-359200J0D01*
G01*
X111770000Y-86256800D02*
G75*
G02*
X112488400Y-86256800I359200J0D01*
G01*
X118377400Y-92505000D02*
X118377400Y-85495000D01*
X118377400Y-85495000D02*
X111722400Y-85495000D01*
X111367400Y-92505000D02*
X118377400Y-92505000D01*
X111367400Y-85850000D02*
X111722400Y-85495000D01*
X111367400Y-85850000D02*
X111367400Y-92505000D01*
D14*
X110895155Y-82380577D02*
X110895155Y-79220577D01*
D15*
X110895155Y-82395577D02*
X110895155Y-82380577D01*
D14*
X118515155Y-79220577D02*
X110895155Y-79220577D01*
X118515155Y-82380577D02*
X118515155Y-79220577D01*
D15*
X118515155Y-82395577D02*
X118515155Y-82380577D01*
D14*
X118515155Y-82380577D02*
G75*
G02*
X110895155Y-82380577I-3810000J-10160000D01*
G01*
D13*
X135190455Y-120127759D02*
X135190455Y-119238759D01*
D16*
X135190455Y-120127759D02*
X135444455Y-120127759D01*
D13*
X135190455Y-122667759D02*
X135190455Y-120127759D01*
X135190455Y-123556759D02*
X135190455Y-122667759D01*
D16*
X135444455Y-122667759D02*
X135190455Y-122667759D01*
X135444455Y-122667759D02*
X135444455Y-120127759D01*
D13*
X137476455Y-118095759D02*
X137476455Y-118349759D01*
X137476455Y-118095759D02*
X139000455Y-118095759D01*
X137476455Y-118349759D02*
X137222455Y-118349759D01*
X137476455Y-124445759D02*
X137222455Y-124445759D01*
X137476455Y-124445759D02*
X137476455Y-124699759D01*
X139000455Y-118349759D02*
X139000455Y-118095759D01*
X139000455Y-118349759D02*
X139254455Y-118349759D01*
X139000455Y-124445759D02*
X139254455Y-124445759D01*
X139000455Y-124699759D02*
X137476455Y-124699759D01*
X139000455Y-124699759D02*
X139000455Y-124445759D01*
D16*
X141032455Y-120127759D02*
X141286455Y-120127759D01*
X141032455Y-122540759D02*
X141032455Y-120127759D01*
X141032455Y-122540759D02*
X141286455Y-122540759D01*
D13*
X141286455Y-119238759D02*
X141286455Y-120127759D01*
X141286455Y-120127759D02*
X141286455Y-122540759D01*
X141286455Y-122540759D02*
X141286455Y-123556759D01*
X138492455Y-121397759D02*
G75*
G02*
X137984455Y-121397759I-254000J0D01*
G01*
X137984455Y-121397759D02*
G75*
G02*
X138492455Y-121397759I254000J0D01*
G01*
X140016455Y-121397759D02*
G75*
G02*
X136460455Y-121397759I-1778000J0D01*
G01*
X136460455Y-121397759D02*
G75*
G02*
X140016455Y-121397759I1778000J0D01*
G01*
X112135000Y-71088000D02*
X117239600Y-71088000D01*
X117239600Y-75812000D02*
X112135000Y-75812000D01*
D17*
X113091000Y-75253400D02*
G75*
G02*
X112803800Y-75253400I-143600J0D01*
G01*
X112803800Y-75253400D02*
G75*
G02*
X113091000Y-75253400I143600J0D01*
G01*
D15*
X131790000Y-81622000D02*
X131790000Y-85178000D01*
X131790000Y-85178000D02*
X132552000Y-85940000D01*
X132552000Y-80860000D02*
X131790000Y-81622000D01*
X132552000Y-85940000D02*
X133822000Y-85940000D01*
X133822000Y-80860000D02*
X132552000Y-80860000D01*
X133822000Y-85940000D02*
X134330000Y-85432000D01*
X134330000Y-81368000D02*
X133822000Y-80860000D01*
X134330000Y-85432000D02*
X134838000Y-85940000D01*
X134838000Y-80860000D02*
X134330000Y-81368000D01*
X134838000Y-85940000D02*
X136362000Y-85940000D01*
X136362000Y-80860000D02*
X134838000Y-80860000D01*
X136362000Y-85940000D02*
X136870000Y-85432000D01*
X136870000Y-81368000D02*
X136362000Y-80860000D01*
X136870000Y-85432000D02*
X137378000Y-85940000D01*
X137378000Y-80860000D02*
X136870000Y-81368000D01*
X137378000Y-85940000D02*
X138648000Y-85940000D01*
X138648000Y-80860000D02*
X137378000Y-80860000D01*
X138648000Y-85940000D02*
X139410000Y-85178000D01*
X139410000Y-81622000D02*
X138648000Y-80860000D01*
X139410000Y-85178000D02*
X139410000Y-81622000D01*
D17*
X108794055Y-104796459D02*
X108794055Y-105796459D01*
X108794055Y-115796459D02*
X108794055Y-108796459D01*
X120794055Y-104796459D02*
X108794055Y-104796459D01*
X120794055Y-104796459D02*
X120794055Y-105796459D01*
X120794055Y-115796459D02*
X108794055Y-115796459D01*
X120794055Y-115796459D02*
X120794055Y-108796459D01*
D15*
X124850000Y-101350000D02*
X125032500Y-101350000D01*
X124850000Y-104150000D02*
X124850000Y-101350000D01*
X124850000Y-104150000D02*
X125032500Y-104150000D01*
X126650000Y-101350000D02*
X126467500Y-101350000D01*
X126650000Y-104150000D02*
X126467500Y-104150000D01*
X126650000Y-104150000D02*
X126650000Y-101350000D01*
D18*
X127414000Y-104775000D02*
G75*
G02*
X127164000Y-104775000I-125000J0D01*
G01*
X127164000Y-104775000D02*
G75*
G02*
X127414000Y-104775000I125000J0D01*
G01*
D15*
X103993000Y-101000000D02*
X104175500Y-101000000D01*
X103993000Y-103800000D02*
X103993000Y-101000000D01*
X103993000Y-103800000D02*
X104175500Y-103800000D01*
X105793000Y-101000000D02*
X105610500Y-101000000D01*
X105793000Y-103800000D02*
X105610500Y-103800000D01*
X105793000Y-103800000D02*
X105793000Y-101000000D01*
D18*
X106557000Y-104425000D02*
G75*
G02*
X106307000Y-104425000I-125000J0D01*
G01*
X106307000Y-104425000D02*
G75*
G02*
X106557000Y-104425000I125000J0D01*
G01*
D13*
X87979855Y-119978959D02*
X87979855Y-119089959D01*
D16*
X87979855Y-119978959D02*
X88233855Y-119978959D01*
D13*
X87979855Y-122518959D02*
X87979855Y-119978959D01*
X87979855Y-123407959D02*
X87979855Y-122518959D01*
D16*
X88233855Y-122518959D02*
X87979855Y-122518959D01*
X88233855Y-122518959D02*
X88233855Y-119978959D01*
D13*
X90265855Y-117946959D02*
X90265855Y-118200959D01*
X90265855Y-117946959D02*
X91789855Y-117946959D01*
X90265855Y-118200959D02*
X90011855Y-118200959D01*
X90265855Y-124296959D02*
X90011855Y-124296959D01*
X90265855Y-124296959D02*
X90265855Y-124550959D01*
X91789855Y-118200959D02*
X91789855Y-117946959D01*
X91789855Y-118200959D02*
X92043855Y-118200959D01*
X91789855Y-124296959D02*
X92043855Y-124296959D01*
X91789855Y-124550959D02*
X90265855Y-124550959D01*
X91789855Y-124550959D02*
X91789855Y-124296959D01*
D16*
X93821855Y-119978959D02*
X94075855Y-119978959D01*
X93821855Y-122391959D02*
X93821855Y-119978959D01*
X93821855Y-122391959D02*
X94075855Y-122391959D01*
D13*
X94075855Y-119089959D02*
X94075855Y-119978959D01*
X94075855Y-119978959D02*
X94075855Y-122391959D01*
X94075855Y-122391959D02*
X94075855Y-123407959D01*
X91281855Y-121248959D02*
G75*
G02*
X90773855Y-121248959I-254000J0D01*
G01*
X90773855Y-121248959D02*
G75*
G02*
X91281855Y-121248959I254000J0D01*
G01*
X92805855Y-121248959D02*
G75*
G02*
X89249855Y-121248959I-1778000J0D01*
G01*
X89249855Y-121248959D02*
G75*
G02*
X92805855Y-121248959I1778000J0D01*
G01*
%LPC*%
D19*
X119915114Y-80321302D03*
X119915114Y-82021302D03*
D20*
X110744800Y-86200000D03*
X110744800Y-87000000D03*
X110744800Y-87800000D03*
X110744800Y-88600000D03*
X110744800Y-89400000D03*
X110744800Y-90200000D03*
X110744800Y-91000000D03*
X110744800Y-91800000D03*
D21*
X112072400Y-93127600D03*
X112872400Y-93127600D03*
X113672400Y-93127600D03*
X114472400Y-93127600D03*
X115272400Y-93127600D03*
X116072400Y-93127600D03*
X116872400Y-93127600D03*
X117672400Y-93127600D03*
D20*
X119000000Y-91800000D03*
X119000000Y-91000000D03*
X119000000Y-90200000D03*
X119000000Y-89400000D03*
X119000000Y-88600000D03*
X119000000Y-87800000D03*
X119000000Y-87000000D03*
X119000000Y-86200000D03*
D21*
X117672400Y-84872400D03*
X116872400Y-84872400D03*
X116072400Y-84872400D03*
X115272400Y-84872400D03*
X114472400Y-84872400D03*
X113672400Y-84872400D03*
X112872400Y-84872400D03*
X112072400Y-84872400D03*
D22*
X122294055Y-98326459D03*
X122294055Y-95786459D03*
X122294055Y-93246459D03*
X122294055Y-90706459D03*
X122294055Y-88166459D03*
X122294055Y-85626459D03*
X122294055Y-83086459D03*
X122294055Y-80546459D03*
X107294055Y-80546459D03*
X107294055Y-83086459D03*
X107294055Y-85626459D03*
X107294055Y-88166459D03*
X107294055Y-90706459D03*
X107294055Y-93246459D03*
X107294055Y-95786459D03*
X107294055Y-98326459D03*
D23*
X114705155Y-78880577D03*
X114705155Y-99880577D03*
D24*
X135977855Y-118146559D03*
X135977855Y-124648959D03*
X140499055Y-118146559D03*
X140499055Y-124648959D03*
D25*
X116796814Y-95801699D03*
X115046814Y-95801699D03*
D19*
X108670118Y-75958318D03*
X108670118Y-74258318D03*
D26*
X109526015Y-82033599D03*
X109526015Y-80283599D03*
X111933055Y-80306459D03*
X111933055Y-82056459D03*
D27*
X111321800Y-75355000D03*
X111321800Y-74085000D03*
X111321800Y-72815000D03*
X111321800Y-71545000D03*
X118052800Y-71545000D03*
X118052800Y-72815000D03*
X118052800Y-74085000D03*
X118052800Y-75355000D03*
D19*
X121055155Y-76031980D03*
X121055155Y-74331980D03*
D28*
X133060000Y-82130000D03*
X133060000Y-84670000D03*
X135600000Y-82130000D03*
X135600000Y-84670000D03*
X138140000Y-82130000D03*
X138140000Y-84670000D03*
D29*
X109794055Y-114796459D03*
X119794055Y-114796459D03*
X109794055Y-112296459D03*
X119794055Y-112296459D03*
X114794055Y-107296459D03*
D23*
X119794055Y-107296459D03*
X117294055Y-107296459D03*
X114794055Y-112296459D03*
X109794055Y-107296459D03*
X112294055Y-107296459D03*
D30*
X125750000Y-100950000D03*
X125750000Y-104550000D03*
D19*
X117594055Y-80331459D03*
X117594055Y-82031459D03*
D30*
X104893000Y-100600000D03*
X104893000Y-104200000D03*
D19*
X111450000Y-101700000D03*
X111450000Y-103400000D03*
D31*
X113100000Y-96750000D03*
X111400000Y-96750000D03*
D24*
X88767255Y-117997759D03*
X88767255Y-124500159D03*
X93288455Y-117997759D03*
X93288455Y-124500159D03*
%LPD*%
M02*
