%TF.GenerationSoftware,KiCad,Pcbnew,9.0.0*%
%TF.CreationDate,2025-04-20T11:40:53+02:00*%
%TF.ProjectId,Blinkenstar,426c696e-6b65-46e7-9374-61722e6b6963,2.6*%
%TF.SameCoordinates,Original*%
%TF.FileFunction,Drillmap*%
%TF.FilePolarity,Positive*%
%FSLAX45Y45*%
G04 Gerber Fmt 4.5, Leading zero omitted, Abs format (unit mm)*
G04 Created by KiCad (PCBNEW 9.0.0) date 2025-04-20 11:40:53*
%MOMM*%
%LPD*%
G01*
G04 APERTURE LIST*
%ADD10C,0.052916*%
%ADD11C,0.200000*%
%ADD12C,0.120000*%
G04 APERTURE END LIST*
D10*
X11512528Y-4744853D02*
X11531228Y-4745531D01*
X11549971Y-4746627D01*
X11568748Y-4748144D01*
X11587554Y-4750085D01*
X11606380Y-4752450D01*
X11625219Y-4755243D01*
X11644063Y-4758465D01*
X11662905Y-4762119D01*
X11681737Y-4766206D01*
X11700553Y-4770729D01*
X11719344Y-4775689D01*
X11738103Y-4781090D01*
X11756823Y-4786932D01*
X11775495Y-4793219D01*
X11775495Y-4793230D01*
X11803647Y-4803695D01*
X11830867Y-4815071D01*
X11857173Y-4827321D01*
X11882581Y-4840403D01*
X11907111Y-4854278D01*
X11930780Y-4868907D01*
X11953605Y-4884250D01*
X11975604Y-4900268D01*
X12017195Y-4934167D01*
X12055696Y-4970289D01*
X12091248Y-5008317D01*
X12123993Y-5047934D01*
X12154072Y-5088822D01*
X12181627Y-5130666D01*
X12206800Y-5173148D01*
X12229732Y-5215952D01*
X12250566Y-5258760D01*
X12269442Y-5301257D01*
X12286504Y-5343124D01*
X12301892Y-5384046D01*
X12302400Y-5385472D01*
X12302898Y-5386901D01*
X12303383Y-5388335D01*
X12303856Y-5389772D01*
X12831927Y-7015616D01*
X12889566Y-7178469D01*
X14953792Y-7178469D01*
X14991558Y-7179535D01*
X15028711Y-7182697D01*
X15065212Y-7187895D01*
X15101024Y-7195074D01*
X15136108Y-7204175D01*
X15170425Y-7215142D01*
X15203937Y-7227916D01*
X15236606Y-7242440D01*
X15268394Y-7258658D01*
X15299260Y-7276511D01*
X15329169Y-7295942D01*
X15358080Y-7316894D01*
X15385955Y-7339309D01*
X15412757Y-7363131D01*
X15438445Y-7388300D01*
X15462983Y-7414761D01*
X15486332Y-7442456D01*
X15508453Y-7471327D01*
X15529308Y-7501316D01*
X15548858Y-7532368D01*
X15567065Y-7564423D01*
X15583890Y-7597425D01*
X15599295Y-7631317D01*
X15613242Y-7666040D01*
X15625693Y-7701538D01*
X15636607Y-7737752D01*
X15645948Y-7774627D01*
X15653677Y-7812104D01*
X15659756Y-7850125D01*
X15664145Y-7888635D01*
X15666806Y-7927574D01*
X15667702Y-7966886D01*
X15667104Y-7996903D01*
X15665339Y-8026342D01*
X15662449Y-8055206D01*
X15658478Y-8083499D01*
X15653468Y-8111224D01*
X15647464Y-8138384D01*
X15640508Y-8164985D01*
X15632643Y-8191028D01*
X15623912Y-8216519D01*
X15614358Y-8241460D01*
X15604025Y-8265855D01*
X15592956Y-8289707D01*
X15581193Y-8313021D01*
X15568780Y-8335800D01*
X15542175Y-8379767D01*
X15513486Y-8421637D01*
X15483059Y-8461439D01*
X15451237Y-8499203D01*
X15418365Y-8534956D01*
X15384789Y-8568729D01*
X15350853Y-8600549D01*
X15316902Y-8630447D01*
X15283281Y-8658451D01*
X15282154Y-8659358D01*
X15281021Y-8660257D01*
X15279881Y-8661146D01*
X15278734Y-8662027D01*
X13918042Y-9696961D01*
X13788840Y-9794681D01*
X14502181Y-12032436D01*
X14502181Y-12032383D01*
X14513008Y-12069876D01*
X14521702Y-12107464D01*
X14528299Y-12145087D01*
X14532839Y-12182688D01*
X14535359Y-12220207D01*
X14535897Y-12257585D01*
X14534491Y-12294764D01*
X14531180Y-12331683D01*
X14526000Y-12368284D01*
X14518991Y-12404509D01*
X14510189Y-12440297D01*
X14499634Y-12475591D01*
X14487362Y-12510330D01*
X14473412Y-12544457D01*
X14457823Y-12577912D01*
X14440631Y-12610635D01*
X14421875Y-12642569D01*
X14401593Y-12673654D01*
X14379822Y-12703831D01*
X14356601Y-12733041D01*
X14331969Y-12761225D01*
X14305961Y-12788324D01*
X14278618Y-12814279D01*
X14249976Y-12839031D01*
X14220074Y-12862521D01*
X14188949Y-12884690D01*
X14156640Y-12905480D01*
X14123185Y-12924830D01*
X14088621Y-12942682D01*
X14052987Y-12958977D01*
X14016320Y-12973656D01*
X13978658Y-12986660D01*
X13978398Y-12986756D01*
X13949146Y-12995349D01*
X13920098Y-13002567D01*
X13891264Y-13008455D01*
X13862654Y-13013058D01*
X13834278Y-13016422D01*
X13806144Y-13018593D01*
X13778263Y-13019616D01*
X13750644Y-13019538D01*
X13723296Y-13018403D01*
X13696230Y-13016257D01*
X13669454Y-13013147D01*
X13642978Y-13009117D01*
X13590965Y-12998482D01*
X13540268Y-12984718D01*
X13490962Y-12968190D01*
X13443125Y-12949263D01*
X13396832Y-12928302D01*
X13352160Y-12905672D01*
X13309186Y-12881739D01*
X13267985Y-12856869D01*
X13228635Y-12831425D01*
X13191211Y-12805774D01*
X13190046Y-12804948D01*
X13188888Y-12804113D01*
X13187736Y-12803269D01*
X13186591Y-12802415D01*
X11609932Y-11617744D01*
X11462810Y-11504087D01*
X9642260Y-12878276D01*
X9642207Y-12878276D01*
X9610288Y-12901041D01*
X9577568Y-12921833D01*
X9544115Y-12940666D01*
X9509998Y-12957556D01*
X9475285Y-12972519D01*
X9440045Y-12985569D01*
X9404348Y-12996723D01*
X9368261Y-13005995D01*
X9331853Y-13013401D01*
X9295194Y-13018955D01*
X9258351Y-13022675D01*
X9221394Y-13024573D01*
X9184391Y-13024667D01*
X9147410Y-13022972D01*
X9110522Y-13019502D01*
X9073794Y-13014273D01*
X9037295Y-13007300D01*
X9001093Y-12998599D01*
X8965259Y-12988186D01*
X8929859Y-12976074D01*
X8894963Y-12962280D01*
X8860640Y-12946820D01*
X8826958Y-12929707D01*
X8793987Y-12910958D01*
X8761794Y-12890588D01*
X8730448Y-12868613D01*
X8700019Y-12845047D01*
X8670574Y-12819906D01*
X8642183Y-12793206D01*
X8614915Y-12764961D01*
X8588837Y-12735187D01*
X8564019Y-12703899D01*
X8546115Y-12679131D01*
X8529595Y-12654093D01*
X8514419Y-12628811D01*
X8500547Y-12603307D01*
X8487937Y-12577607D01*
X8476549Y-12551736D01*
X8466342Y-12525716D01*
X8457275Y-12499574D01*
X8442402Y-12447018D01*
X8431603Y-12394261D01*
X8424553Y-12341500D01*
X8420927Y-12288928D01*
X8420400Y-12236742D01*
X8422646Y-12185137D01*
X8427339Y-12134307D01*
X8434155Y-12084447D01*
X8442769Y-12035753D01*
X8452854Y-11988420D01*
X8464086Y-11942642D01*
X8476139Y-11898615D01*
X8476610Y-11896999D01*
X8477096Y-11895387D01*
X8477597Y-11893779D01*
X8478113Y-11892176D01*
X9103852Y-9979415D01*
X9156914Y-9818990D01*
X7504529Y-8588730D01*
X7504582Y-8588730D01*
X7474589Y-8565080D01*
X7446318Y-8540113D01*
X7419767Y-8513897D01*
X7394936Y-8486503D01*
X7371823Y-8457999D01*
X7350427Y-8428455D01*
X7330747Y-8397940D01*
X7312782Y-8366525D01*
X7296530Y-8334278D01*
X7281990Y-8301268D01*
X7269162Y-8267566D01*
X7258043Y-8233240D01*
X7248634Y-8198360D01*
X7240932Y-8162996D01*
X7234936Y-8127216D01*
X7230646Y-8091091D01*
X7228061Y-8054690D01*
X7227178Y-8018082D01*
X7227997Y-7981336D01*
X7230516Y-7944522D01*
X7234736Y-7907710D01*
X7240653Y-7870969D01*
X7248268Y-7834368D01*
X7257578Y-7797977D01*
X7268584Y-7761864D01*
X7281283Y-7726101D01*
X7295675Y-7690755D01*
X7311758Y-7655897D01*
X7329532Y-7621596D01*
X7348994Y-7587921D01*
X7370144Y-7554942D01*
X7392981Y-7522728D01*
X7411519Y-7498850D01*
X7430664Y-7476165D01*
X7450383Y-7454644D01*
X7470643Y-7434257D01*
X7491411Y-7414973D01*
X7512653Y-7396762D01*
X7556427Y-7363442D01*
X7601699Y-7334056D01*
X7648201Y-7308364D01*
X7695667Y-7286126D01*
X7743832Y-7267103D01*
X7792428Y-7251054D01*
X7841188Y-7237740D01*
X7889847Y-7226921D01*
X7938138Y-7218356D01*
X7985795Y-7211807D01*
X8032550Y-7207032D01*
X8078137Y-7203792D01*
X8122291Y-7201848D01*
X8123802Y-7201805D01*
X8125314Y-7201776D01*
X8126825Y-7201759D01*
X8128337Y-7201755D01*
X9863383Y-7204173D01*
X9864268Y-7204507D01*
X9865151Y-7204845D01*
X10098438Y-7204845D01*
X10795864Y-5207551D01*
X10805791Y-5180950D01*
X10816754Y-5155047D01*
X10828721Y-5129851D01*
X10841662Y-5105371D01*
X10855546Y-5081615D01*
X10870343Y-5058591D01*
X10902553Y-5014775D01*
X10938048Y-4973990D01*
X10976582Y-4936303D01*
X11017911Y-4901782D01*
X11061790Y-4870495D01*
X11107975Y-4842508D01*
X11156221Y-4817890D01*
X11206283Y-4796708D01*
X11257917Y-4779029D01*
X11310878Y-4764920D01*
X11364920Y-4754451D01*
X11419801Y-4747687D01*
X11475274Y-4744696D01*
X11475286Y-4744747D01*
X11493879Y-4744593D01*
X11512528Y-4744853D01*
D11*
D12*
X10919406Y-11169646D02*
X11039406Y-11289646D01*
X11039406Y-11169646D02*
X10919406Y-11289646D01*
X10919406Y-11419646D02*
X11039406Y-11539646D01*
X11039406Y-11419646D02*
X10919406Y-11539646D01*
X11419405Y-10669646D02*
X11539405Y-10789646D01*
X11539405Y-10669646D02*
X11419405Y-10789646D01*
X11919405Y-11169646D02*
X12039405Y-11289646D01*
X12039405Y-11169646D02*
X11919405Y-11289646D01*
X11919405Y-11419646D02*
X12039405Y-11539646D01*
X12039405Y-11419646D02*
X11919405Y-11539646D01*
D11*
X7485309Y-13338797D02*
X7485309Y-13138797D01*
X7485309Y-13138797D02*
X7532928Y-13138797D01*
X7532928Y-13138797D02*
X7561499Y-13148321D01*
X7561499Y-13148321D02*
X7580547Y-13167368D01*
X7580547Y-13167368D02*
X7590071Y-13186416D01*
X7590071Y-13186416D02*
X7599594Y-13224511D01*
X7599594Y-13224511D02*
X7599594Y-13253083D01*
X7599594Y-13253083D02*
X7590071Y-13291178D01*
X7590071Y-13291178D02*
X7580547Y-13310226D01*
X7580547Y-13310226D02*
X7561499Y-13329273D01*
X7561499Y-13329273D02*
X7532928Y-13338797D01*
X7532928Y-13338797D02*
X7485309Y-13338797D01*
X7685309Y-13338797D02*
X7685309Y-13205464D01*
X7685309Y-13243559D02*
X7694832Y-13224511D01*
X7694832Y-13224511D02*
X7704356Y-13214987D01*
X7704356Y-13214987D02*
X7723404Y-13205464D01*
X7723404Y-13205464D02*
X7742452Y-13205464D01*
X7809118Y-13338797D02*
X7809118Y-13205464D01*
X7809118Y-13138797D02*
X7799594Y-13148321D01*
X7799594Y-13148321D02*
X7809118Y-13157845D01*
X7809118Y-13157845D02*
X7818642Y-13148321D01*
X7818642Y-13148321D02*
X7809118Y-13138797D01*
X7809118Y-13138797D02*
X7809118Y-13157845D01*
X7932928Y-13338797D02*
X7913880Y-13329273D01*
X7913880Y-13329273D02*
X7904356Y-13310226D01*
X7904356Y-13310226D02*
X7904356Y-13138797D01*
X8037690Y-13338797D02*
X8018642Y-13329273D01*
X8018642Y-13329273D02*
X8009118Y-13310226D01*
X8009118Y-13310226D02*
X8009118Y-13138797D01*
X8266261Y-13338797D02*
X8266261Y-13138797D01*
X8266261Y-13138797D02*
X8332928Y-13281654D01*
X8332928Y-13281654D02*
X8399594Y-13138797D01*
X8399594Y-13138797D02*
X8399594Y-13338797D01*
X8580547Y-13338797D02*
X8580547Y-13234035D01*
X8580547Y-13234035D02*
X8571023Y-13214987D01*
X8571023Y-13214987D02*
X8551975Y-13205464D01*
X8551975Y-13205464D02*
X8513880Y-13205464D01*
X8513880Y-13205464D02*
X8494833Y-13214987D01*
X8580547Y-13329273D02*
X8561499Y-13338797D01*
X8561499Y-13338797D02*
X8513880Y-13338797D01*
X8513880Y-13338797D02*
X8494833Y-13329273D01*
X8494833Y-13329273D02*
X8485309Y-13310226D01*
X8485309Y-13310226D02*
X8485309Y-13291178D01*
X8485309Y-13291178D02*
X8494833Y-13272130D01*
X8494833Y-13272130D02*
X8513880Y-13262607D01*
X8513880Y-13262607D02*
X8561499Y-13262607D01*
X8561499Y-13262607D02*
X8580547Y-13253083D01*
X8675785Y-13205464D02*
X8675785Y-13405464D01*
X8675785Y-13214987D02*
X8694833Y-13205464D01*
X8694833Y-13205464D02*
X8732928Y-13205464D01*
X8732928Y-13205464D02*
X8751975Y-13214987D01*
X8751975Y-13214987D02*
X8761499Y-13224511D01*
X8761499Y-13224511D02*
X8771023Y-13243559D01*
X8771023Y-13243559D02*
X8771023Y-13300702D01*
X8771023Y-13300702D02*
X8761499Y-13319749D01*
X8761499Y-13319749D02*
X8751975Y-13329273D01*
X8751975Y-13329273D02*
X8732928Y-13338797D01*
X8732928Y-13338797D02*
X8694833Y-13338797D01*
X8694833Y-13338797D02*
X8675785Y-13329273D01*
X8856737Y-13319749D02*
X8866261Y-13329273D01*
X8866261Y-13329273D02*
X8856737Y-13338797D01*
X8856737Y-13338797D02*
X8847214Y-13329273D01*
X8847214Y-13329273D02*
X8856737Y-13319749D01*
X8856737Y-13319749D02*
X8856737Y-13338797D01*
X8856737Y-13214987D02*
X8866261Y-13224511D01*
X8866261Y-13224511D02*
X8856737Y-13234035D01*
X8856737Y-13234035D02*
X8847214Y-13224511D01*
X8847214Y-13224511D02*
X8856737Y-13214987D01*
X8856737Y-13214987D02*
X8856737Y-13234035D01*
D12*
X7104532Y-13607313D02*
X7224532Y-13727313D01*
X7224532Y-13607313D02*
X7104532Y-13727313D01*
D11*
X7590071Y-13758797D02*
X7475785Y-13758797D01*
X7532928Y-13758797D02*
X7532928Y-13558797D01*
X7532928Y-13558797D02*
X7513880Y-13587368D01*
X7513880Y-13587368D02*
X7494832Y-13606416D01*
X7494832Y-13606416D02*
X7475785Y-13615940D01*
X7675785Y-13739749D02*
X7685309Y-13749273D01*
X7685309Y-13749273D02*
X7675785Y-13758797D01*
X7675785Y-13758797D02*
X7666261Y-13749273D01*
X7666261Y-13749273D02*
X7675785Y-13739749D01*
X7675785Y-13739749D02*
X7675785Y-13758797D01*
X7761499Y-13577845D02*
X7771023Y-13568321D01*
X7771023Y-13568321D02*
X7790071Y-13558797D01*
X7790071Y-13558797D02*
X7837690Y-13558797D01*
X7837690Y-13558797D02*
X7856737Y-13568321D01*
X7856737Y-13568321D02*
X7866261Y-13577845D01*
X7866261Y-13577845D02*
X7875785Y-13596892D01*
X7875785Y-13596892D02*
X7875785Y-13615940D01*
X7875785Y-13615940D02*
X7866261Y-13644511D01*
X7866261Y-13644511D02*
X7751975Y-13758797D01*
X7751975Y-13758797D02*
X7875785Y-13758797D01*
X7999594Y-13558797D02*
X8018642Y-13558797D01*
X8018642Y-13558797D02*
X8037690Y-13568321D01*
X8037690Y-13568321D02*
X8047213Y-13577845D01*
X8047213Y-13577845D02*
X8056737Y-13596892D01*
X8056737Y-13596892D02*
X8066261Y-13634987D01*
X8066261Y-13634987D02*
X8066261Y-13682607D01*
X8066261Y-13682607D02*
X8056737Y-13720702D01*
X8056737Y-13720702D02*
X8047213Y-13739749D01*
X8047213Y-13739749D02*
X8037690Y-13749273D01*
X8037690Y-13749273D02*
X8018642Y-13758797D01*
X8018642Y-13758797D02*
X7999594Y-13758797D01*
X7999594Y-13758797D02*
X7980547Y-13749273D01*
X7980547Y-13749273D02*
X7971023Y-13739749D01*
X7971023Y-13739749D02*
X7961499Y-13720702D01*
X7961499Y-13720702D02*
X7951975Y-13682607D01*
X7951975Y-13682607D02*
X7951975Y-13634987D01*
X7951975Y-13634987D02*
X7961499Y-13596892D01*
X7961499Y-13596892D02*
X7971023Y-13577845D01*
X7971023Y-13577845D02*
X7980547Y-13568321D01*
X7980547Y-13568321D02*
X7999594Y-13558797D01*
X8190071Y-13558797D02*
X8209118Y-13558797D01*
X8209118Y-13558797D02*
X8228166Y-13568321D01*
X8228166Y-13568321D02*
X8237690Y-13577845D01*
X8237690Y-13577845D02*
X8247213Y-13596892D01*
X8247213Y-13596892D02*
X8256737Y-13634987D01*
X8256737Y-13634987D02*
X8256737Y-13682607D01*
X8256737Y-13682607D02*
X8247213Y-13720702D01*
X8247213Y-13720702D02*
X8237690Y-13739749D01*
X8237690Y-13739749D02*
X8228166Y-13749273D01*
X8228166Y-13749273D02*
X8209118Y-13758797D01*
X8209118Y-13758797D02*
X8190071Y-13758797D01*
X8190071Y-13758797D02*
X8171023Y-13749273D01*
X8171023Y-13749273D02*
X8161499Y-13739749D01*
X8161499Y-13739749D02*
X8151975Y-13720702D01*
X8151975Y-13720702D02*
X8142452Y-13682607D01*
X8142452Y-13682607D02*
X8142452Y-13634987D01*
X8142452Y-13634987D02*
X8151975Y-13596892D01*
X8151975Y-13596892D02*
X8161499Y-13577845D01*
X8161499Y-13577845D02*
X8171023Y-13568321D01*
X8171023Y-13568321D02*
X8190071Y-13558797D01*
X8342452Y-13758797D02*
X8342452Y-13625464D01*
X8342452Y-13644511D02*
X8351975Y-13634987D01*
X8351975Y-13634987D02*
X8371023Y-13625464D01*
X8371023Y-13625464D02*
X8399595Y-13625464D01*
X8399595Y-13625464D02*
X8418642Y-13634987D01*
X8418642Y-13634987D02*
X8428166Y-13654035D01*
X8428166Y-13654035D02*
X8428166Y-13758797D01*
X8428166Y-13654035D02*
X8437690Y-13634987D01*
X8437690Y-13634987D02*
X8456737Y-13625464D01*
X8456737Y-13625464D02*
X8485309Y-13625464D01*
X8485309Y-13625464D02*
X8504356Y-13634987D01*
X8504356Y-13634987D02*
X8513880Y-13654035D01*
X8513880Y-13654035D02*
X8513880Y-13758797D01*
X8609118Y-13758797D02*
X8609118Y-13625464D01*
X8609118Y-13644511D02*
X8618642Y-13634987D01*
X8618642Y-13634987D02*
X8637690Y-13625464D01*
X8637690Y-13625464D02*
X8666261Y-13625464D01*
X8666261Y-13625464D02*
X8685309Y-13634987D01*
X8685309Y-13634987D02*
X8694833Y-13654035D01*
X8694833Y-13654035D02*
X8694833Y-13758797D01*
X8694833Y-13654035D02*
X8704356Y-13634987D01*
X8704356Y-13634987D02*
X8723404Y-13625464D01*
X8723404Y-13625464D02*
X8751975Y-13625464D01*
X8751975Y-13625464D02*
X8771023Y-13634987D01*
X8771023Y-13634987D02*
X8780547Y-13654035D01*
X8780547Y-13654035D02*
X8780547Y-13758797D01*
X9171023Y-13549273D02*
X8999595Y-13806416D01*
X9428166Y-13558797D02*
X9447214Y-13558797D01*
X9447214Y-13558797D02*
X9466261Y-13568321D01*
X9466261Y-13568321D02*
X9475785Y-13577845D01*
X9475785Y-13577845D02*
X9485309Y-13596892D01*
X9485309Y-13596892D02*
X9494833Y-13634987D01*
X9494833Y-13634987D02*
X9494833Y-13682607D01*
X9494833Y-13682607D02*
X9485309Y-13720702D01*
X9485309Y-13720702D02*
X9475785Y-13739749D01*
X9475785Y-13739749D02*
X9466261Y-13749273D01*
X9466261Y-13749273D02*
X9447214Y-13758797D01*
X9447214Y-13758797D02*
X9428166Y-13758797D01*
X9428166Y-13758797D02*
X9409118Y-13749273D01*
X9409118Y-13749273D02*
X9399595Y-13739749D01*
X9399595Y-13739749D02*
X9390071Y-13720702D01*
X9390071Y-13720702D02*
X9380547Y-13682607D01*
X9380547Y-13682607D02*
X9380547Y-13634987D01*
X9380547Y-13634987D02*
X9390071Y-13596892D01*
X9390071Y-13596892D02*
X9399595Y-13577845D01*
X9399595Y-13577845D02*
X9409118Y-13568321D01*
X9409118Y-13568321D02*
X9428166Y-13558797D01*
X9580547Y-13739749D02*
X9590071Y-13749273D01*
X9590071Y-13749273D02*
X9580547Y-13758797D01*
X9580547Y-13758797D02*
X9571023Y-13749273D01*
X9571023Y-13749273D02*
X9580547Y-13739749D01*
X9580547Y-13739749D02*
X9580547Y-13758797D01*
X9713880Y-13558797D02*
X9732928Y-13558797D01*
X9732928Y-13558797D02*
X9751976Y-13568321D01*
X9751976Y-13568321D02*
X9761499Y-13577845D01*
X9761499Y-13577845D02*
X9771023Y-13596892D01*
X9771023Y-13596892D02*
X9780547Y-13634987D01*
X9780547Y-13634987D02*
X9780547Y-13682607D01*
X9780547Y-13682607D02*
X9771023Y-13720702D01*
X9771023Y-13720702D02*
X9761499Y-13739749D01*
X9761499Y-13739749D02*
X9751976Y-13749273D01*
X9751976Y-13749273D02*
X9732928Y-13758797D01*
X9732928Y-13758797D02*
X9713880Y-13758797D01*
X9713880Y-13758797D02*
X9694833Y-13749273D01*
X9694833Y-13749273D02*
X9685309Y-13739749D01*
X9685309Y-13739749D02*
X9675785Y-13720702D01*
X9675785Y-13720702D02*
X9666261Y-13682607D01*
X9666261Y-13682607D02*
X9666261Y-13634987D01*
X9666261Y-13634987D02*
X9675785Y-13596892D01*
X9675785Y-13596892D02*
X9685309Y-13577845D01*
X9685309Y-13577845D02*
X9694833Y-13568321D01*
X9694833Y-13568321D02*
X9713880Y-13558797D01*
X9951976Y-13625464D02*
X9951976Y-13758797D01*
X9904357Y-13549273D02*
X9856738Y-13692130D01*
X9856738Y-13692130D02*
X9980547Y-13692130D01*
X10037690Y-13558797D02*
X10171023Y-13558797D01*
X10171023Y-13558797D02*
X10085309Y-13758797D01*
X10237690Y-13577845D02*
X10247214Y-13568321D01*
X10247214Y-13568321D02*
X10266261Y-13558797D01*
X10266261Y-13558797D02*
X10313880Y-13558797D01*
X10313880Y-13558797D02*
X10332928Y-13568321D01*
X10332928Y-13568321D02*
X10342452Y-13577845D01*
X10342452Y-13577845D02*
X10351976Y-13596892D01*
X10351976Y-13596892D02*
X10351976Y-13615940D01*
X10351976Y-13615940D02*
X10342452Y-13644511D01*
X10342452Y-13644511D02*
X10228166Y-13758797D01*
X10228166Y-13758797D02*
X10351976Y-13758797D01*
X10428166Y-13558797D02*
X10428166Y-13596892D01*
X10504357Y-13558797D02*
X10504357Y-13596892D01*
X10799595Y-13834987D02*
X10790071Y-13825464D01*
X10790071Y-13825464D02*
X10771023Y-13796892D01*
X10771023Y-13796892D02*
X10761500Y-13777845D01*
X10761500Y-13777845D02*
X10751976Y-13749273D01*
X10751976Y-13749273D02*
X10742452Y-13701654D01*
X10742452Y-13701654D02*
X10742452Y-13663559D01*
X10742452Y-13663559D02*
X10751976Y-13615940D01*
X10751976Y-13615940D02*
X10761500Y-13587368D01*
X10761500Y-13587368D02*
X10771023Y-13568321D01*
X10771023Y-13568321D02*
X10790071Y-13539749D01*
X10790071Y-13539749D02*
X10799595Y-13530226D01*
X10971023Y-13558797D02*
X10875785Y-13558797D01*
X10875785Y-13558797D02*
X10866261Y-13654035D01*
X10866261Y-13654035D02*
X10875785Y-13644511D01*
X10875785Y-13644511D02*
X10894833Y-13634987D01*
X10894833Y-13634987D02*
X10942452Y-13634987D01*
X10942452Y-13634987D02*
X10961500Y-13644511D01*
X10961500Y-13644511D02*
X10971023Y-13654035D01*
X10971023Y-13654035D02*
X10980547Y-13673083D01*
X10980547Y-13673083D02*
X10980547Y-13720702D01*
X10980547Y-13720702D02*
X10971023Y-13739749D01*
X10971023Y-13739749D02*
X10961500Y-13749273D01*
X10961500Y-13749273D02*
X10942452Y-13758797D01*
X10942452Y-13758797D02*
X10894833Y-13758797D01*
X10894833Y-13758797D02*
X10875785Y-13749273D01*
X10875785Y-13749273D02*
X10866261Y-13739749D01*
X11218642Y-13758797D02*
X11218642Y-13558797D01*
X11304357Y-13758797D02*
X11304357Y-13654035D01*
X11304357Y-13654035D02*
X11294833Y-13634987D01*
X11294833Y-13634987D02*
X11275785Y-13625464D01*
X11275785Y-13625464D02*
X11247214Y-13625464D01*
X11247214Y-13625464D02*
X11228166Y-13634987D01*
X11228166Y-13634987D02*
X11218642Y-13644511D01*
X11428166Y-13758797D02*
X11409119Y-13749273D01*
X11409119Y-13749273D02*
X11399595Y-13739749D01*
X11399595Y-13739749D02*
X11390071Y-13720702D01*
X11390071Y-13720702D02*
X11390071Y-13663559D01*
X11390071Y-13663559D02*
X11399595Y-13644511D01*
X11399595Y-13644511D02*
X11409119Y-13634987D01*
X11409119Y-13634987D02*
X11428166Y-13625464D01*
X11428166Y-13625464D02*
X11456738Y-13625464D01*
X11456738Y-13625464D02*
X11475785Y-13634987D01*
X11475785Y-13634987D02*
X11485309Y-13644511D01*
X11485309Y-13644511D02*
X11494833Y-13663559D01*
X11494833Y-13663559D02*
X11494833Y-13720702D01*
X11494833Y-13720702D02*
X11485309Y-13739749D01*
X11485309Y-13739749D02*
X11475785Y-13749273D01*
X11475785Y-13749273D02*
X11456738Y-13758797D01*
X11456738Y-13758797D02*
X11428166Y-13758797D01*
X11609119Y-13758797D02*
X11590071Y-13749273D01*
X11590071Y-13749273D02*
X11580547Y-13730226D01*
X11580547Y-13730226D02*
X11580547Y-13558797D01*
X11761500Y-13749273D02*
X11742452Y-13758797D01*
X11742452Y-13758797D02*
X11704357Y-13758797D01*
X11704357Y-13758797D02*
X11685309Y-13749273D01*
X11685309Y-13749273D02*
X11675785Y-13730226D01*
X11675785Y-13730226D02*
X11675785Y-13654035D01*
X11675785Y-13654035D02*
X11685309Y-13634987D01*
X11685309Y-13634987D02*
X11704357Y-13625464D01*
X11704357Y-13625464D02*
X11742452Y-13625464D01*
X11742452Y-13625464D02*
X11761500Y-13634987D01*
X11761500Y-13634987D02*
X11771023Y-13654035D01*
X11771023Y-13654035D02*
X11771023Y-13673083D01*
X11771023Y-13673083D02*
X11675785Y-13692130D01*
X11847214Y-13749273D02*
X11866261Y-13758797D01*
X11866261Y-13758797D02*
X11904357Y-13758797D01*
X11904357Y-13758797D02*
X11923404Y-13749273D01*
X11923404Y-13749273D02*
X11932928Y-13730226D01*
X11932928Y-13730226D02*
X11932928Y-13720702D01*
X11932928Y-13720702D02*
X11923404Y-13701654D01*
X11923404Y-13701654D02*
X11904357Y-13692130D01*
X11904357Y-13692130D02*
X11875785Y-13692130D01*
X11875785Y-13692130D02*
X11856738Y-13682607D01*
X11856738Y-13682607D02*
X11847214Y-13663559D01*
X11847214Y-13663559D02*
X11847214Y-13654035D01*
X11847214Y-13654035D02*
X11856738Y-13634987D01*
X11856738Y-13634987D02*
X11875785Y-13625464D01*
X11875785Y-13625464D02*
X11904357Y-13625464D01*
X11904357Y-13625464D02*
X11923404Y-13634987D01*
X11999595Y-13834987D02*
X12009119Y-13825464D01*
X12009119Y-13825464D02*
X12028166Y-13796892D01*
X12028166Y-13796892D02*
X12037690Y-13777845D01*
X12037690Y-13777845D02*
X12047214Y-13749273D01*
X12047214Y-13749273D02*
X12056738Y-13701654D01*
X12056738Y-13701654D02*
X12056738Y-13663559D01*
X12056738Y-13663559D02*
X12047214Y-13615940D01*
X12047214Y-13615940D02*
X12037690Y-13587368D01*
X12037690Y-13587368D02*
X12028166Y-13568321D01*
X12028166Y-13568321D02*
X12009119Y-13539749D01*
X12009119Y-13539749D02*
X11999595Y-13530226D01*
X12361500Y-13834987D02*
X12351976Y-13825464D01*
X12351976Y-13825464D02*
X12332928Y-13796892D01*
X12332928Y-13796892D02*
X12323404Y-13777845D01*
X12323404Y-13777845D02*
X12313881Y-13749273D01*
X12313881Y-13749273D02*
X12304357Y-13701654D01*
X12304357Y-13701654D02*
X12304357Y-13663559D01*
X12304357Y-13663559D02*
X12313881Y-13615940D01*
X12313881Y-13615940D02*
X12323404Y-13587368D01*
X12323404Y-13587368D02*
X12332928Y-13568321D01*
X12332928Y-13568321D02*
X12351976Y-13539749D01*
X12351976Y-13539749D02*
X12361500Y-13530226D01*
X12437690Y-13625464D02*
X12437690Y-13758797D01*
X12437690Y-13644511D02*
X12447214Y-13634987D01*
X12447214Y-13634987D02*
X12466261Y-13625464D01*
X12466261Y-13625464D02*
X12494833Y-13625464D01*
X12494833Y-13625464D02*
X12513881Y-13634987D01*
X12513881Y-13634987D02*
X12523404Y-13654035D01*
X12523404Y-13654035D02*
X12523404Y-13758797D01*
X12647214Y-13758797D02*
X12628166Y-13749273D01*
X12628166Y-13749273D02*
X12618642Y-13739749D01*
X12618642Y-13739749D02*
X12609119Y-13720702D01*
X12609119Y-13720702D02*
X12609119Y-13663559D01*
X12609119Y-13663559D02*
X12618642Y-13644511D01*
X12618642Y-13644511D02*
X12628166Y-13634987D01*
X12628166Y-13634987D02*
X12647214Y-13625464D01*
X12647214Y-13625464D02*
X12675785Y-13625464D01*
X12675785Y-13625464D02*
X12694833Y-13634987D01*
X12694833Y-13634987D02*
X12704357Y-13644511D01*
X12704357Y-13644511D02*
X12713881Y-13663559D01*
X12713881Y-13663559D02*
X12713881Y-13720702D01*
X12713881Y-13720702D02*
X12704357Y-13739749D01*
X12704357Y-13739749D02*
X12694833Y-13749273D01*
X12694833Y-13749273D02*
X12675785Y-13758797D01*
X12675785Y-13758797D02*
X12647214Y-13758797D01*
X12771023Y-13625464D02*
X12847214Y-13625464D01*
X12799595Y-13558797D02*
X12799595Y-13730226D01*
X12799595Y-13730226D02*
X12809119Y-13749273D01*
X12809119Y-13749273D02*
X12828166Y-13758797D01*
X12828166Y-13758797D02*
X12847214Y-13758797D01*
X13066262Y-13625464D02*
X13066262Y-13825464D01*
X13066262Y-13634987D02*
X13085309Y-13625464D01*
X13085309Y-13625464D02*
X13123404Y-13625464D01*
X13123404Y-13625464D02*
X13142452Y-13634987D01*
X13142452Y-13634987D02*
X13151976Y-13644511D01*
X13151976Y-13644511D02*
X13161500Y-13663559D01*
X13161500Y-13663559D02*
X13161500Y-13720702D01*
X13161500Y-13720702D02*
X13151976Y-13739749D01*
X13151976Y-13739749D02*
X13142452Y-13749273D01*
X13142452Y-13749273D02*
X13123404Y-13758797D01*
X13123404Y-13758797D02*
X13085309Y-13758797D01*
X13085309Y-13758797D02*
X13066262Y-13749273D01*
X13275785Y-13758797D02*
X13256738Y-13749273D01*
X13256738Y-13749273D02*
X13247214Y-13730226D01*
X13247214Y-13730226D02*
X13247214Y-13558797D01*
X13437690Y-13758797D02*
X13437690Y-13654035D01*
X13437690Y-13654035D02*
X13428166Y-13634987D01*
X13428166Y-13634987D02*
X13409119Y-13625464D01*
X13409119Y-13625464D02*
X13371023Y-13625464D01*
X13371023Y-13625464D02*
X13351976Y-13634987D01*
X13437690Y-13749273D02*
X13418643Y-13758797D01*
X13418643Y-13758797D02*
X13371023Y-13758797D01*
X13371023Y-13758797D02*
X13351976Y-13749273D01*
X13351976Y-13749273D02*
X13342452Y-13730226D01*
X13342452Y-13730226D02*
X13342452Y-13711178D01*
X13342452Y-13711178D02*
X13351976Y-13692130D01*
X13351976Y-13692130D02*
X13371023Y-13682607D01*
X13371023Y-13682607D02*
X13418643Y-13682607D01*
X13418643Y-13682607D02*
X13437690Y-13673083D01*
X13504357Y-13625464D02*
X13580547Y-13625464D01*
X13532928Y-13558797D02*
X13532928Y-13730226D01*
X13532928Y-13730226D02*
X13542452Y-13749273D01*
X13542452Y-13749273D02*
X13561500Y-13758797D01*
X13561500Y-13758797D02*
X13580547Y-13758797D01*
X13723404Y-13749273D02*
X13704357Y-13758797D01*
X13704357Y-13758797D02*
X13666262Y-13758797D01*
X13666262Y-13758797D02*
X13647214Y-13749273D01*
X13647214Y-13749273D02*
X13637690Y-13730226D01*
X13637690Y-13730226D02*
X13637690Y-13654035D01*
X13637690Y-13654035D02*
X13647214Y-13634987D01*
X13647214Y-13634987D02*
X13666262Y-13625464D01*
X13666262Y-13625464D02*
X13704357Y-13625464D01*
X13704357Y-13625464D02*
X13723404Y-13634987D01*
X13723404Y-13634987D02*
X13732928Y-13654035D01*
X13732928Y-13654035D02*
X13732928Y-13673083D01*
X13732928Y-13673083D02*
X13637690Y-13692130D01*
X13904357Y-13758797D02*
X13904357Y-13558797D01*
X13904357Y-13749273D02*
X13885309Y-13758797D01*
X13885309Y-13758797D02*
X13847214Y-13758797D01*
X13847214Y-13758797D02*
X13828166Y-13749273D01*
X13828166Y-13749273D02*
X13818643Y-13739749D01*
X13818643Y-13739749D02*
X13809119Y-13720702D01*
X13809119Y-13720702D02*
X13809119Y-13663559D01*
X13809119Y-13663559D02*
X13818643Y-13644511D01*
X13818643Y-13644511D02*
X13828166Y-13634987D01*
X13828166Y-13634987D02*
X13847214Y-13625464D01*
X13847214Y-13625464D02*
X13885309Y-13625464D01*
X13885309Y-13625464D02*
X13904357Y-13634987D01*
X13980547Y-13834987D02*
X13990071Y-13825464D01*
X13990071Y-13825464D02*
X14009119Y-13796892D01*
X14009119Y-13796892D02*
X14018643Y-13777845D01*
X14018643Y-13777845D02*
X14028166Y-13749273D01*
X14028166Y-13749273D02*
X14037690Y-13701654D01*
X14037690Y-13701654D02*
X14037690Y-13663559D01*
X14037690Y-13663559D02*
X14028166Y-13615940D01*
X14028166Y-13615940D02*
X14018643Y-13587368D01*
X14018643Y-13587368D02*
X14009119Y-13568321D01*
X14009119Y-13568321D02*
X13990071Y-13539749D01*
X13990071Y-13539749D02*
X13980547Y-13530226D01*
M02*
