%TF.GenerationSoftware,KiCad,Pcbnew,9.0.0*%
%TF.CreationDate,2025-03-28T10:35:52+01:00*%
%TF.ProjectId,Blinkenstar,426c696e-6b65-46e7-9374-61722e6b6963,rev?*%
%TF.SameCoordinates,Original*%
%TF.FileFunction,Drillmap*%
%TF.FilePolarity,Positive*%
%FSLAX45Y45*%
G04 Gerber Fmt 4.5, Leading zero omitted, Abs format (unit mm)*
G04 Created by KiCad (PCBNEW 9.0.0) date 2025-03-28 10:35:52*
%MOMM*%
%LPD*%
G01*
G04 APERTURE LIST*
%ADD10C,0.052916*%
%ADD11C,0.200000*%
%ADD12C,0.100000*%
%ADD13C,0.101600*%
%ADD14C,0.130000*%
%ADD15C,0.150000*%
%ADD16C,0.300000*%
G04 APERTURE END LIST*
D10*
X11512528Y-4744853D02*
X11531228Y-4745531D01*
X11549971Y-4746627D01*
X11568748Y-4748144D01*
X11587554Y-4750085D01*
X11606380Y-4752450D01*
X11625219Y-4755243D01*
X11644063Y-4758465D01*
X11662905Y-4762119D01*
X11681737Y-4766206D01*
X11700553Y-4770729D01*
X11719344Y-4775689D01*
X11738103Y-4781090D01*
X11756823Y-4786932D01*
X11775495Y-4793219D01*
X11775495Y-4793230D01*
X11803647Y-4803695D01*
X11830867Y-4815071D01*
X11857173Y-4827321D01*
X11882581Y-4840403D01*
X11907111Y-4854278D01*
X11930780Y-4868907D01*
X11953605Y-4884250D01*
X11975604Y-4900268D01*
X12017195Y-4934167D01*
X12055696Y-4970289D01*
X12091248Y-5008317D01*
X12123993Y-5047934D01*
X12154072Y-5088822D01*
X12181627Y-5130666D01*
X12206800Y-5173148D01*
X12229732Y-5215952D01*
X12250566Y-5258760D01*
X12269442Y-5301257D01*
X12286504Y-5343124D01*
X12301892Y-5384046D01*
X12302400Y-5385472D01*
X12302898Y-5386901D01*
X12303383Y-5388335D01*
X12303856Y-5389772D01*
X12831927Y-7015616D01*
X12889566Y-7178469D01*
X14953792Y-7178469D01*
X14991558Y-7179535D01*
X15028711Y-7182697D01*
X15065212Y-7187895D01*
X15101024Y-7195074D01*
X15136108Y-7204175D01*
X15170425Y-7215142D01*
X15203937Y-7227916D01*
X15236606Y-7242440D01*
X15268394Y-7258658D01*
X15299260Y-7276511D01*
X15329169Y-7295942D01*
X15358080Y-7316894D01*
X15385955Y-7339309D01*
X15412757Y-7363131D01*
X15438445Y-7388300D01*
X15462983Y-7414761D01*
X15486332Y-7442456D01*
X15508453Y-7471327D01*
X15529308Y-7501316D01*
X15548858Y-7532368D01*
X15567065Y-7564423D01*
X15583890Y-7597425D01*
X15599295Y-7631317D01*
X15613242Y-7666040D01*
X15625693Y-7701538D01*
X15636607Y-7737752D01*
X15645948Y-7774627D01*
X15653677Y-7812104D01*
X15659756Y-7850125D01*
X15664145Y-7888635D01*
X15666806Y-7927574D01*
X15667702Y-7966886D01*
X15667104Y-7996903D01*
X15665339Y-8026342D01*
X15662449Y-8055206D01*
X15658478Y-8083499D01*
X15653468Y-8111224D01*
X15647464Y-8138384D01*
X15640508Y-8164985D01*
X15632643Y-8191028D01*
X15623912Y-8216519D01*
X15614358Y-8241460D01*
X15604025Y-8265855D01*
X15592956Y-8289707D01*
X15581193Y-8313021D01*
X15568780Y-8335800D01*
X15542175Y-8379767D01*
X15513486Y-8421637D01*
X15483059Y-8461439D01*
X15451237Y-8499203D01*
X15418365Y-8534956D01*
X15384789Y-8568729D01*
X15350853Y-8600549D01*
X15316902Y-8630447D01*
X15283281Y-8658451D01*
X15282154Y-8659358D01*
X15281021Y-8660257D01*
X15279881Y-8661146D01*
X15278734Y-8662027D01*
X13918042Y-9696961D01*
X13788840Y-9794681D01*
X14502181Y-12032436D01*
X14502181Y-12032383D01*
X14513008Y-12069876D01*
X14521702Y-12107464D01*
X14528299Y-12145087D01*
X14532839Y-12182688D01*
X14535359Y-12220207D01*
X14535897Y-12257585D01*
X14534491Y-12294764D01*
X14531180Y-12331683D01*
X14526000Y-12368284D01*
X14518991Y-12404509D01*
X14510189Y-12440297D01*
X14499634Y-12475591D01*
X14487362Y-12510330D01*
X14473412Y-12544457D01*
X14457823Y-12577912D01*
X14440631Y-12610635D01*
X14421875Y-12642569D01*
X14401593Y-12673654D01*
X14379822Y-12703831D01*
X14356601Y-12733041D01*
X14331969Y-12761225D01*
X14305961Y-12788324D01*
X14278618Y-12814279D01*
X14249976Y-12839031D01*
X14220074Y-12862521D01*
X14188949Y-12884690D01*
X14156640Y-12905480D01*
X14123185Y-12924830D01*
X14088621Y-12942682D01*
X14052987Y-12958977D01*
X14016320Y-12973656D01*
X13978658Y-12986660D01*
X13978398Y-12986756D01*
X13949146Y-12995349D01*
X13920098Y-13002567D01*
X13891264Y-13008455D01*
X13862654Y-13013058D01*
X13834278Y-13016422D01*
X13806144Y-13018593D01*
X13778263Y-13019616D01*
X13750644Y-13019538D01*
X13723296Y-13018403D01*
X13696230Y-13016257D01*
X13669454Y-13013147D01*
X13642978Y-13009117D01*
X13590965Y-12998482D01*
X13540268Y-12984718D01*
X13490962Y-12968190D01*
X13443125Y-12949263D01*
X13396832Y-12928302D01*
X13352160Y-12905672D01*
X13309186Y-12881739D01*
X13267985Y-12856869D01*
X13228635Y-12831425D01*
X13191211Y-12805774D01*
X13190046Y-12804948D01*
X13188888Y-12804113D01*
X13187736Y-12803269D01*
X13186591Y-12802415D01*
X11609932Y-11617744D01*
X11462810Y-11504087D01*
X9642260Y-12878276D01*
X9642207Y-12878276D01*
X9610288Y-12901041D01*
X9577568Y-12921833D01*
X9544115Y-12940666D01*
X9509998Y-12957556D01*
X9475285Y-12972519D01*
X9440045Y-12985569D01*
X9404348Y-12996723D01*
X9368261Y-13005995D01*
X9331853Y-13013401D01*
X9295194Y-13018955D01*
X9258351Y-13022675D01*
X9221394Y-13024573D01*
X9184391Y-13024667D01*
X9147410Y-13022972D01*
X9110522Y-13019502D01*
X9073794Y-13014273D01*
X9037295Y-13007300D01*
X9001093Y-12998599D01*
X8965259Y-12988186D01*
X8929859Y-12976074D01*
X8894963Y-12962280D01*
X8860640Y-12946820D01*
X8826958Y-12929707D01*
X8793987Y-12910958D01*
X8761794Y-12890588D01*
X8730448Y-12868613D01*
X8700019Y-12845047D01*
X8670574Y-12819906D01*
X8642183Y-12793206D01*
X8614915Y-12764961D01*
X8588837Y-12735187D01*
X8564019Y-12703899D01*
X8546115Y-12679131D01*
X8529595Y-12654093D01*
X8514419Y-12628811D01*
X8500547Y-12603307D01*
X8487937Y-12577607D01*
X8476549Y-12551736D01*
X8466342Y-12525716D01*
X8457275Y-12499574D01*
X8442402Y-12447018D01*
X8431603Y-12394261D01*
X8424553Y-12341500D01*
X8420927Y-12288928D01*
X8420400Y-12236742D01*
X8422646Y-12185137D01*
X8427339Y-12134307D01*
X8434155Y-12084447D01*
X8442769Y-12035753D01*
X8452854Y-11988420D01*
X8464086Y-11942642D01*
X8476139Y-11898615D01*
X8476610Y-11896999D01*
X8477096Y-11895387D01*
X8477597Y-11893779D01*
X8478113Y-11892176D01*
X9103852Y-9979415D01*
X9156914Y-9818990D01*
X7504529Y-8588730D01*
X7504582Y-8588730D01*
X7474589Y-8565080D01*
X7446318Y-8540113D01*
X7419767Y-8513897D01*
X7394936Y-8486503D01*
X7371823Y-8457999D01*
X7350427Y-8428455D01*
X7330747Y-8397940D01*
X7312782Y-8366525D01*
X7296530Y-8334278D01*
X7281990Y-8301268D01*
X7269162Y-8267566D01*
X7258043Y-8233240D01*
X7248634Y-8198360D01*
X7240932Y-8162996D01*
X7234936Y-8127216D01*
X7230646Y-8091091D01*
X7228061Y-8054690D01*
X7227178Y-8018082D01*
X7227997Y-7981336D01*
X7230516Y-7944522D01*
X7234736Y-7907710D01*
X7240653Y-7870969D01*
X7248268Y-7834368D01*
X7257578Y-7797977D01*
X7268584Y-7761864D01*
X7281283Y-7726101D01*
X7295675Y-7690755D01*
X7311758Y-7655897D01*
X7329532Y-7621596D01*
X7348994Y-7587921D01*
X7370144Y-7554942D01*
X7392981Y-7522728D01*
X7411519Y-7498850D01*
X7430664Y-7476165D01*
X7450383Y-7454644D01*
X7470643Y-7434257D01*
X7491411Y-7414973D01*
X7512653Y-7396762D01*
X7556427Y-7363442D01*
X7601699Y-7334056D01*
X7648201Y-7308364D01*
X7695667Y-7286126D01*
X7743832Y-7267103D01*
X7792428Y-7251054D01*
X7841188Y-7237740D01*
X7889847Y-7226921D01*
X7938138Y-7218356D01*
X7985795Y-7211807D01*
X8032550Y-7207032D01*
X8078137Y-7203792D01*
X8122291Y-7201848D01*
X8123802Y-7201805D01*
X8125314Y-7201776D01*
X8126825Y-7201759D01*
X8128337Y-7201755D01*
X9863383Y-7204173D01*
X9864268Y-7204507D01*
X9865151Y-7204845D01*
X10098438Y-7204845D01*
X10795864Y-5207551D01*
X10805791Y-5180950D01*
X10816754Y-5155047D01*
X10828721Y-5129851D01*
X10841662Y-5105371D01*
X10855546Y-5081615D01*
X10870343Y-5058591D01*
X10902553Y-5014775D01*
X10938048Y-4973990D01*
X10976582Y-4936303D01*
X11017911Y-4901782D01*
X11061790Y-4870495D01*
X11107975Y-4842508D01*
X11156221Y-4817890D01*
X11206283Y-4796708D01*
X11257917Y-4779029D01*
X11310878Y-4764920D01*
X11364920Y-4754451D01*
X11419801Y-4747687D01*
X11475274Y-4744696D01*
X11475286Y-4744747D01*
X11493879Y-4744593D01*
X11512528Y-4744853D01*
D11*
D12*
X10865000Y-8740000D02*
X10895000Y-8770000D01*
X10895000Y-8740000D02*
X10865000Y-8770000D01*
X10870000Y-8990000D02*
X10900000Y-9020000D01*
X10900000Y-8990000D02*
X10870000Y-9020000D01*
X10885000Y-7810000D02*
X10915000Y-7840000D01*
X10915000Y-7810000D02*
X10885000Y-7840000D01*
X10887500Y-9092500D02*
X10917500Y-9122500D01*
X10917500Y-9092500D02*
X10887500Y-9122500D01*
X10910000Y-9965000D02*
X10940000Y-9995000D01*
X10940000Y-9965000D02*
X10910000Y-9995000D01*
X10910000Y-10120000D02*
X10940000Y-10150000D01*
X10940000Y-10120000D02*
X10910000Y-10150000D01*
X10970000Y-8925000D02*
X11000000Y-8955000D01*
X11000000Y-8925000D02*
X10970000Y-8955000D01*
X10980000Y-9240000D02*
X11010000Y-9270000D01*
X11010000Y-9240000D02*
X10980000Y-9270000D01*
X10995000Y-9375000D02*
X11025000Y-9405000D01*
X11025000Y-9375000D02*
X10995000Y-9405000D01*
X11015000Y-9905000D02*
X11045000Y-9935000D01*
X11045000Y-9905000D02*
X11015000Y-9935000D01*
X11040000Y-10420000D02*
X11070000Y-10450000D01*
X11070000Y-10420000D02*
X11040000Y-10450000D01*
X11055000Y-7640000D02*
X11085000Y-7670000D01*
X11085000Y-7640000D02*
X11055000Y-7670000D01*
X11075000Y-8014911D02*
X11105000Y-8044911D01*
X11105000Y-8014911D02*
X11075000Y-8044911D01*
X11165000Y-9800000D02*
X11195000Y-9830000D01*
X11195000Y-9800000D02*
X11165000Y-9830000D01*
X11240000Y-8930000D02*
X11270000Y-8960000D01*
X11270000Y-8930000D02*
X11240000Y-8960000D01*
X11240000Y-9025000D02*
X11270000Y-9055000D01*
X11270000Y-9025000D02*
X11240000Y-9055000D01*
X11240000Y-9495000D02*
X11270000Y-9525000D01*
X11270000Y-9495000D02*
X11240000Y-9525000D01*
X11280000Y-8235000D02*
X11310000Y-8265000D01*
X11310000Y-8235000D02*
X11280000Y-8265000D01*
X11315000Y-8110000D02*
X11345000Y-8140000D01*
X11345000Y-8110000D02*
X11315000Y-8140000D01*
X11350000Y-8358399D02*
X11380000Y-8388399D01*
X11380000Y-8358399D02*
X11350000Y-8388399D01*
X11355000Y-8674900D02*
X11385000Y-8704900D01*
X11385000Y-8674900D02*
X11355000Y-8704900D01*
X11380000Y-9460000D02*
X11410000Y-9490000D01*
X11410000Y-9460000D02*
X11380000Y-9490000D01*
X11390000Y-8880000D02*
X11420000Y-8910000D01*
X11420000Y-8880000D02*
X11390000Y-8910000D01*
X11430000Y-9225000D02*
X11460000Y-9255000D01*
X11460000Y-9225000D02*
X11430000Y-9255000D01*
X11445000Y-7275000D02*
X11475000Y-7305000D01*
X11475000Y-7275000D02*
X11445000Y-7305000D01*
X11450000Y-8925000D02*
X11480000Y-8955000D01*
X11480000Y-8925000D02*
X11450000Y-8955000D01*
X11455515Y-9700000D02*
X11485515Y-9730000D01*
X11485515Y-9700000D02*
X11455515Y-9730000D01*
X11480000Y-9105000D02*
X11510000Y-9135000D01*
X11510000Y-9105000D02*
X11480000Y-9135000D01*
X11507404Y-8240000D02*
X11537404Y-8270000D01*
X11537404Y-8240000D02*
X11507404Y-8270000D01*
X11507404Y-8420000D02*
X11537404Y-8450000D01*
X11537404Y-8420000D02*
X11507404Y-8450000D01*
X11515000Y-8552500D02*
X11545000Y-8582500D01*
X11545000Y-8552500D02*
X11515000Y-8582500D01*
X11535000Y-8990000D02*
X11565000Y-9020000D01*
X11565000Y-8990000D02*
X11535000Y-9020000D01*
X11592240Y-9220000D02*
X11622240Y-9250000D01*
X11622240Y-9220000D02*
X11592240Y-9250000D01*
X11635000Y-8115546D02*
X11665000Y-8145546D01*
X11665000Y-8115546D02*
X11635000Y-8145546D01*
X11640000Y-8020000D02*
X11670000Y-8050000D01*
X11670000Y-8020000D02*
X11640000Y-8050000D01*
X11648399Y-8358399D02*
X11678399Y-8388399D01*
X11678399Y-8358399D02*
X11648399Y-8388399D01*
X11655000Y-8985000D02*
X11685000Y-9015000D01*
X11685000Y-8985000D02*
X11655000Y-9015000D01*
X11665000Y-9105000D02*
X11695000Y-9135000D01*
X11695000Y-9105000D02*
X11665000Y-9135000D01*
X11675100Y-8855100D02*
X11705100Y-8885100D01*
X11705100Y-8855100D02*
X11675100Y-8885100D01*
X11725000Y-10050000D02*
X11755000Y-10080000D01*
X11755000Y-10050000D02*
X11725000Y-10080000D01*
X11750000Y-9185000D02*
X11780000Y-9215000D01*
X11780000Y-9185000D02*
X11750000Y-9215000D01*
X11780000Y-8980000D02*
X11810000Y-9010000D01*
X11810000Y-8980000D02*
X11780000Y-9010000D01*
X11790000Y-9440000D02*
X11820000Y-9470000D01*
X11820000Y-9440000D02*
X11790000Y-9470000D01*
X11790000Y-9690000D02*
X11820000Y-9720000D01*
X11820000Y-9690000D02*
X11790000Y-9720000D01*
X11860000Y-8115546D02*
X11890000Y-8145546D01*
X11890000Y-8115546D02*
X11860000Y-8145546D01*
X11860000Y-8300000D02*
X11890000Y-8330000D01*
X11890000Y-8300000D02*
X11860000Y-8330000D01*
X11885000Y-9230000D02*
X11915000Y-9260000D01*
X11915000Y-9230000D02*
X11885000Y-9260000D01*
X11975000Y-9120000D02*
X12005000Y-9150000D01*
X12005000Y-9120000D02*
X11975000Y-9150000D01*
X11990000Y-9005000D02*
X12020000Y-9035000D01*
X12020000Y-9005000D02*
X11990000Y-9035000D01*
X11998659Y-7326341D02*
X12028659Y-7356341D01*
X12028659Y-7326341D02*
X11998659Y-7356341D01*
X12010000Y-9395000D02*
X12040000Y-9425000D01*
X12040000Y-9395000D02*
X12010000Y-9425000D01*
X12030000Y-8790000D02*
X12060000Y-8820000D01*
X12060000Y-8790000D02*
X12030000Y-8820000D01*
X12065000Y-9975000D02*
X12095000Y-10005000D01*
X12095000Y-9975000D02*
X12065000Y-10005000D01*
X12070000Y-9817646D02*
X12100000Y-9847646D01*
X12100000Y-9817646D02*
X12070000Y-9847646D01*
X12090000Y-8410000D02*
X12120000Y-8440000D01*
X12120000Y-8410000D02*
X12090000Y-8440000D01*
X12151503Y-8918497D02*
X12181503Y-8948497D01*
X12181503Y-8918497D02*
X12151503Y-8948497D01*
X12285000Y-10120000D02*
X12315000Y-10150000D01*
X12315000Y-10120000D02*
X12285000Y-10150000D01*
X12350000Y-8420000D02*
X12380000Y-8450000D01*
X12380000Y-8420000D02*
X12350000Y-8450000D01*
X12425000Y-8155000D02*
X12455000Y-8185000D01*
X12455000Y-8155000D02*
X12425000Y-8185000D01*
X12585000Y-9355000D02*
X12615000Y-9385000D01*
X12615000Y-9355000D02*
X12585000Y-9385000D01*
X13760000Y-8365000D02*
X13790000Y-8395000D01*
X13790000Y-8365000D02*
X13760000Y-8395000D01*
X10520000Y-9040000D02*
G75*
G02*
X10480000Y-9040000I-20000J0D01*
G01*
X10480000Y-9040000D02*
G75*
G02*
X10520000Y-9040000I20000J0D01*
G01*
X13306000Y-8168000D02*
X13306000Y-8258000D01*
X13261000Y-8213000D02*
X13351000Y-8213000D01*
X13306000Y-8422000D02*
X13306000Y-8512000D01*
X13261000Y-8467000D02*
X13351000Y-8467000D01*
X13560000Y-8168000D02*
X13560000Y-8258000D01*
X13515000Y-8213000D02*
X13605000Y-8213000D01*
X13560000Y-8422000D02*
X13560000Y-8512000D01*
X13515000Y-8467000D02*
X13605000Y-8467000D01*
X13814000Y-8168000D02*
X13814000Y-8258000D01*
X13769000Y-8213000D02*
X13859000Y-8213000D01*
X13814000Y-8422000D02*
X13814000Y-8512000D01*
X13769000Y-8467000D02*
X13859000Y-8467000D01*
X10764761Y-8090002D02*
X10764761Y-8019290D01*
X10694050Y-8019290D01*
X10694050Y-8090002D01*
X10764761Y-8090002D01*
X10764761Y-8344002D02*
X10764761Y-8273290D01*
X10694050Y-8273290D01*
X10694050Y-8344002D01*
X10764761Y-8344002D01*
X10764761Y-8598002D02*
X10764761Y-8527290D01*
X10694050Y-8527290D01*
X10694050Y-8598002D01*
X10764761Y-8598002D01*
X10764761Y-8852002D02*
X10764761Y-8781290D01*
X10694050Y-8781290D01*
X10694050Y-8852002D01*
X10764761Y-8852002D01*
X10764761Y-9106002D02*
X10764761Y-9035290D01*
X10694050Y-9035290D01*
X10694050Y-9106002D01*
X10764761Y-9106002D01*
X10764761Y-9360002D02*
X10764761Y-9289290D01*
X10694050Y-9289290D01*
X10694050Y-9360002D01*
X10764761Y-9360002D01*
X10764761Y-9614002D02*
X10764761Y-9543290D01*
X10694050Y-9543290D01*
X10694050Y-9614002D01*
X10764761Y-9614002D01*
X10764761Y-9868002D02*
X10764761Y-9797290D01*
X10694050Y-9797290D01*
X10694050Y-9868002D01*
X10764761Y-9868002D01*
X12264761Y-8090002D02*
X12264761Y-8019290D01*
X12194050Y-8019290D01*
X12194050Y-8090002D01*
X12264761Y-8090002D01*
X12264761Y-8344002D02*
X12264761Y-8273290D01*
X12194050Y-8273290D01*
X12194050Y-8344002D01*
X12264761Y-8344002D01*
X12264761Y-8598002D02*
X12264761Y-8527290D01*
X12194050Y-8527290D01*
X12194050Y-8598002D01*
X12264761Y-8598002D01*
X12264761Y-8852002D02*
X12264761Y-8781290D01*
X12194050Y-8781290D01*
X12194050Y-8852002D01*
X12264761Y-8852002D01*
X12264761Y-9106002D02*
X12264761Y-9035290D01*
X12194050Y-9035290D01*
X12194050Y-9106002D01*
X12264761Y-9106002D01*
X12264761Y-9360002D02*
X12264761Y-9289290D01*
X12194050Y-9289290D01*
X12194050Y-9360002D01*
X12264761Y-9360002D01*
X12264761Y-9614002D02*
X12264761Y-9543290D01*
X12194050Y-9543290D01*
X12194050Y-9614002D01*
X12264761Y-9614002D01*
X12264761Y-9868002D02*
X12264761Y-9797290D01*
X12194050Y-9797290D01*
X12194050Y-9868002D01*
X12264761Y-9868002D01*
D13*
X8876726Y-11850576D02*
X8927526Y-11799776D01*
X8876726Y-11748976D01*
X8825926Y-11799776D01*
X8876726Y-11850576D01*
X8876726Y-12500816D02*
X8927526Y-12450016D01*
X8876726Y-12399216D01*
X8825926Y-12450016D01*
X8876726Y-12500816D01*
X9328846Y-11850576D02*
X9379646Y-11799776D01*
X9328846Y-11748976D01*
X9278046Y-11799776D01*
X9328846Y-11850576D01*
X9328846Y-12500816D02*
X9379646Y-12450016D01*
X9328846Y-12399216D01*
X9278046Y-12450016D01*
X9328846Y-12500816D01*
X13597785Y-11865456D02*
X13648585Y-11814656D01*
X13597785Y-11763856D01*
X13546985Y-11814656D01*
X13597785Y-11865456D01*
X13597785Y-12515696D02*
X13648585Y-12464896D01*
X13597785Y-12414096D01*
X13546985Y-12464896D01*
X13597785Y-12515696D01*
X14049905Y-11865456D02*
X14100705Y-11814656D01*
X14049905Y-11763856D01*
X13999105Y-11814656D01*
X14049905Y-11865456D01*
X14049905Y-12515696D02*
X14100705Y-12464896D01*
X14049905Y-12414096D01*
X13999105Y-12464896D01*
X14049905Y-12515696D01*
D14*
X10914406Y-10664646D02*
X11044406Y-10794646D01*
X11044406Y-10664646D02*
X10914406Y-10794646D01*
X11044406Y-10729646D02*
G75*
G02*
X10914406Y-10729646I-65000J0D01*
G01*
X10914406Y-10729646D02*
G75*
G02*
X11044406Y-10729646I65000J0D01*
G01*
X11164406Y-10664646D02*
X11294405Y-10794646D01*
X11294405Y-10664646D02*
X11164406Y-10794646D01*
X11294405Y-10729646D02*
G75*
G02*
X11164406Y-10729646I-65000J0D01*
G01*
X11164406Y-10729646D02*
G75*
G02*
X11294405Y-10729646I65000J0D01*
G01*
X11414405Y-11164646D02*
X11544405Y-11294646D01*
X11544405Y-11164646D02*
X11414405Y-11294646D01*
X11544405Y-11229646D02*
G75*
G02*
X11414405Y-11229646I-65000J0D01*
G01*
X11414405Y-11229646D02*
G75*
G02*
X11544405Y-11229646I65000J0D01*
G01*
X11664405Y-10664646D02*
X11794405Y-10794646D01*
X11794405Y-10664646D02*
X11664405Y-10794646D01*
X11794405Y-10729646D02*
G75*
G02*
X11664405Y-10729646I-65000J0D01*
G01*
X11664405Y-10729646D02*
G75*
G02*
X11794405Y-10729646I65000J0D01*
G01*
X11914405Y-10664646D02*
X12044405Y-10794646D01*
X12044405Y-10664646D02*
X11914405Y-10794646D01*
X12044405Y-10729646D02*
G75*
G02*
X11914405Y-10729646I-65000J0D01*
G01*
X11914405Y-10729646D02*
G75*
G02*
X12044405Y-10729646I65000J0D01*
G01*
D15*
X11395515Y-7813058D02*
X11545515Y-7963058D01*
X11545515Y-7813058D02*
X11395515Y-7963058D01*
X11470515Y-7813058D02*
X11470515Y-7963058D01*
X11395515Y-7888058D02*
X11545515Y-7888058D01*
X11395515Y-9913058D02*
X11545515Y-10063058D01*
X11545515Y-9913058D02*
X11395515Y-10063058D01*
X11470515Y-9913058D02*
X11470515Y-10063058D01*
X11395515Y-9988058D02*
X11545515Y-9988058D01*
D16*
X11305000Y-4930000D02*
X11605000Y-5230000D01*
X11605000Y-4930000D02*
X11305000Y-5230000D01*
X11561067Y-5186067D02*
X11561067Y-4973933D01*
X11348933Y-4973933D01*
X11348933Y-5186067D01*
X11561067Y-5186067D01*
D11*
X7485309Y-13338797D02*
X7485309Y-13138797D01*
X7485309Y-13138797D02*
X7532928Y-13138797D01*
X7532928Y-13138797D02*
X7561499Y-13148321D01*
X7561499Y-13148321D02*
X7580547Y-13167368D01*
X7580547Y-13167368D02*
X7590071Y-13186416D01*
X7590071Y-13186416D02*
X7599594Y-13224511D01*
X7599594Y-13224511D02*
X7599594Y-13253083D01*
X7599594Y-13253083D02*
X7590071Y-13291178D01*
X7590071Y-13291178D02*
X7580547Y-13310226D01*
X7580547Y-13310226D02*
X7561499Y-13329273D01*
X7561499Y-13329273D02*
X7532928Y-13338797D01*
X7532928Y-13338797D02*
X7485309Y-13338797D01*
X7685309Y-13338797D02*
X7685309Y-13205464D01*
X7685309Y-13243559D02*
X7694832Y-13224511D01*
X7694832Y-13224511D02*
X7704356Y-13214987D01*
X7704356Y-13214987D02*
X7723404Y-13205464D01*
X7723404Y-13205464D02*
X7742452Y-13205464D01*
X7809118Y-13338797D02*
X7809118Y-13205464D01*
X7809118Y-13138797D02*
X7799594Y-13148321D01*
X7799594Y-13148321D02*
X7809118Y-13157845D01*
X7809118Y-13157845D02*
X7818642Y-13148321D01*
X7818642Y-13148321D02*
X7809118Y-13138797D01*
X7809118Y-13138797D02*
X7809118Y-13157845D01*
X7932928Y-13338797D02*
X7913880Y-13329273D01*
X7913880Y-13329273D02*
X7904356Y-13310226D01*
X7904356Y-13310226D02*
X7904356Y-13138797D01*
X8037690Y-13338797D02*
X8018642Y-13329273D01*
X8018642Y-13329273D02*
X8009118Y-13310226D01*
X8009118Y-13310226D02*
X8009118Y-13138797D01*
X8266261Y-13338797D02*
X8266261Y-13138797D01*
X8266261Y-13138797D02*
X8332928Y-13281654D01*
X8332928Y-13281654D02*
X8399594Y-13138797D01*
X8399594Y-13138797D02*
X8399594Y-13338797D01*
X8580547Y-13338797D02*
X8580547Y-13234035D01*
X8580547Y-13234035D02*
X8571023Y-13214987D01*
X8571023Y-13214987D02*
X8551975Y-13205464D01*
X8551975Y-13205464D02*
X8513880Y-13205464D01*
X8513880Y-13205464D02*
X8494833Y-13214987D01*
X8580547Y-13329273D02*
X8561499Y-13338797D01*
X8561499Y-13338797D02*
X8513880Y-13338797D01*
X8513880Y-13338797D02*
X8494833Y-13329273D01*
X8494833Y-13329273D02*
X8485309Y-13310226D01*
X8485309Y-13310226D02*
X8485309Y-13291178D01*
X8485309Y-13291178D02*
X8494833Y-13272130D01*
X8494833Y-13272130D02*
X8513880Y-13262607D01*
X8513880Y-13262607D02*
X8561499Y-13262607D01*
X8561499Y-13262607D02*
X8580547Y-13253083D01*
X8675785Y-13205464D02*
X8675785Y-13405464D01*
X8675785Y-13214987D02*
X8694833Y-13205464D01*
X8694833Y-13205464D02*
X8732928Y-13205464D01*
X8732928Y-13205464D02*
X8751975Y-13214987D01*
X8751975Y-13214987D02*
X8761499Y-13224511D01*
X8761499Y-13224511D02*
X8771023Y-13243559D01*
X8771023Y-13243559D02*
X8771023Y-13300702D01*
X8771023Y-13300702D02*
X8761499Y-13319749D01*
X8761499Y-13319749D02*
X8751975Y-13329273D01*
X8751975Y-13329273D02*
X8732928Y-13338797D01*
X8732928Y-13338797D02*
X8694833Y-13338797D01*
X8694833Y-13338797D02*
X8675785Y-13329273D01*
X8856737Y-13319749D02*
X8866261Y-13329273D01*
X8866261Y-13329273D02*
X8856737Y-13338797D01*
X8856737Y-13338797D02*
X8847214Y-13329273D01*
X8847214Y-13329273D02*
X8856737Y-13319749D01*
X8856737Y-13319749D02*
X8856737Y-13338797D01*
X8856737Y-13214987D02*
X8866261Y-13224511D01*
X8866261Y-13224511D02*
X8856737Y-13234035D01*
X8856737Y-13234035D02*
X8847214Y-13224511D01*
X8847214Y-13224511D02*
X8856737Y-13214987D01*
X8856737Y-13214987D02*
X8856737Y-13234035D01*
D12*
X7194532Y-13652313D02*
X7224532Y-13682313D01*
X7224532Y-13652313D02*
X7194532Y-13682313D01*
D11*
X7523404Y-13558797D02*
X7542452Y-13558797D01*
X7542452Y-13558797D02*
X7561499Y-13568321D01*
X7561499Y-13568321D02*
X7571023Y-13577845D01*
X7571023Y-13577845D02*
X7580547Y-13596892D01*
X7580547Y-13596892D02*
X7590071Y-13634987D01*
X7590071Y-13634987D02*
X7590071Y-13682607D01*
X7590071Y-13682607D02*
X7580547Y-13720702D01*
X7580547Y-13720702D02*
X7571023Y-13739749D01*
X7571023Y-13739749D02*
X7561499Y-13749273D01*
X7561499Y-13749273D02*
X7542452Y-13758797D01*
X7542452Y-13758797D02*
X7523404Y-13758797D01*
X7523404Y-13758797D02*
X7504356Y-13749273D01*
X7504356Y-13749273D02*
X7494832Y-13739749D01*
X7494832Y-13739749D02*
X7485309Y-13720702D01*
X7485309Y-13720702D02*
X7475785Y-13682607D01*
X7475785Y-13682607D02*
X7475785Y-13634987D01*
X7475785Y-13634987D02*
X7485309Y-13596892D01*
X7485309Y-13596892D02*
X7494832Y-13577845D01*
X7494832Y-13577845D02*
X7504356Y-13568321D01*
X7504356Y-13568321D02*
X7523404Y-13558797D01*
X7675785Y-13739749D02*
X7685309Y-13749273D01*
X7685309Y-13749273D02*
X7675785Y-13758797D01*
X7675785Y-13758797D02*
X7666261Y-13749273D01*
X7666261Y-13749273D02*
X7675785Y-13739749D01*
X7675785Y-13739749D02*
X7675785Y-13758797D01*
X7751975Y-13558797D02*
X7875785Y-13558797D01*
X7875785Y-13558797D02*
X7809118Y-13634987D01*
X7809118Y-13634987D02*
X7837690Y-13634987D01*
X7837690Y-13634987D02*
X7856737Y-13644511D01*
X7856737Y-13644511D02*
X7866261Y-13654035D01*
X7866261Y-13654035D02*
X7875785Y-13673083D01*
X7875785Y-13673083D02*
X7875785Y-13720702D01*
X7875785Y-13720702D02*
X7866261Y-13739749D01*
X7866261Y-13739749D02*
X7856737Y-13749273D01*
X7856737Y-13749273D02*
X7837690Y-13758797D01*
X7837690Y-13758797D02*
X7780547Y-13758797D01*
X7780547Y-13758797D02*
X7761499Y-13749273D01*
X7761499Y-13749273D02*
X7751975Y-13739749D01*
X7999594Y-13558797D02*
X8018642Y-13558797D01*
X8018642Y-13558797D02*
X8037690Y-13568321D01*
X8037690Y-13568321D02*
X8047213Y-13577845D01*
X8047213Y-13577845D02*
X8056737Y-13596892D01*
X8056737Y-13596892D02*
X8066261Y-13634987D01*
X8066261Y-13634987D02*
X8066261Y-13682607D01*
X8066261Y-13682607D02*
X8056737Y-13720702D01*
X8056737Y-13720702D02*
X8047213Y-13739749D01*
X8047213Y-13739749D02*
X8037690Y-13749273D01*
X8037690Y-13749273D02*
X8018642Y-13758797D01*
X8018642Y-13758797D02*
X7999594Y-13758797D01*
X7999594Y-13758797D02*
X7980547Y-13749273D01*
X7980547Y-13749273D02*
X7971023Y-13739749D01*
X7971023Y-13739749D02*
X7961499Y-13720702D01*
X7961499Y-13720702D02*
X7951975Y-13682607D01*
X7951975Y-13682607D02*
X7951975Y-13634987D01*
X7951975Y-13634987D02*
X7961499Y-13596892D01*
X7961499Y-13596892D02*
X7971023Y-13577845D01*
X7971023Y-13577845D02*
X7980547Y-13568321D01*
X7980547Y-13568321D02*
X7999594Y-13558797D01*
X8190071Y-13558797D02*
X8209118Y-13558797D01*
X8209118Y-13558797D02*
X8228166Y-13568321D01*
X8228166Y-13568321D02*
X8237690Y-13577845D01*
X8237690Y-13577845D02*
X8247213Y-13596892D01*
X8247213Y-13596892D02*
X8256737Y-13634987D01*
X8256737Y-13634987D02*
X8256737Y-13682607D01*
X8256737Y-13682607D02*
X8247213Y-13720702D01*
X8247213Y-13720702D02*
X8237690Y-13739749D01*
X8237690Y-13739749D02*
X8228166Y-13749273D01*
X8228166Y-13749273D02*
X8209118Y-13758797D01*
X8209118Y-13758797D02*
X8190071Y-13758797D01*
X8190071Y-13758797D02*
X8171023Y-13749273D01*
X8171023Y-13749273D02*
X8161499Y-13739749D01*
X8161499Y-13739749D02*
X8151975Y-13720702D01*
X8151975Y-13720702D02*
X8142452Y-13682607D01*
X8142452Y-13682607D02*
X8142452Y-13634987D01*
X8142452Y-13634987D02*
X8151975Y-13596892D01*
X8151975Y-13596892D02*
X8161499Y-13577845D01*
X8161499Y-13577845D02*
X8171023Y-13568321D01*
X8171023Y-13568321D02*
X8190071Y-13558797D01*
X8342452Y-13758797D02*
X8342452Y-13625464D01*
X8342452Y-13644511D02*
X8351975Y-13634987D01*
X8351975Y-13634987D02*
X8371023Y-13625464D01*
X8371023Y-13625464D02*
X8399595Y-13625464D01*
X8399595Y-13625464D02*
X8418642Y-13634987D01*
X8418642Y-13634987D02*
X8428166Y-13654035D01*
X8428166Y-13654035D02*
X8428166Y-13758797D01*
X8428166Y-13654035D02*
X8437690Y-13634987D01*
X8437690Y-13634987D02*
X8456737Y-13625464D01*
X8456737Y-13625464D02*
X8485309Y-13625464D01*
X8485309Y-13625464D02*
X8504356Y-13634987D01*
X8504356Y-13634987D02*
X8513880Y-13654035D01*
X8513880Y-13654035D02*
X8513880Y-13758797D01*
X8609118Y-13758797D02*
X8609118Y-13625464D01*
X8609118Y-13644511D02*
X8618642Y-13634987D01*
X8618642Y-13634987D02*
X8637690Y-13625464D01*
X8637690Y-13625464D02*
X8666261Y-13625464D01*
X8666261Y-13625464D02*
X8685309Y-13634987D01*
X8685309Y-13634987D02*
X8694833Y-13654035D01*
X8694833Y-13654035D02*
X8694833Y-13758797D01*
X8694833Y-13654035D02*
X8704356Y-13634987D01*
X8704356Y-13634987D02*
X8723404Y-13625464D01*
X8723404Y-13625464D02*
X8751975Y-13625464D01*
X8751975Y-13625464D02*
X8771023Y-13634987D01*
X8771023Y-13634987D02*
X8780547Y-13654035D01*
X8780547Y-13654035D02*
X8780547Y-13758797D01*
X9171023Y-13549273D02*
X8999595Y-13806416D01*
X9428166Y-13558797D02*
X9447214Y-13558797D01*
X9447214Y-13558797D02*
X9466261Y-13568321D01*
X9466261Y-13568321D02*
X9475785Y-13577845D01*
X9475785Y-13577845D02*
X9485309Y-13596892D01*
X9485309Y-13596892D02*
X9494833Y-13634987D01*
X9494833Y-13634987D02*
X9494833Y-13682607D01*
X9494833Y-13682607D02*
X9485309Y-13720702D01*
X9485309Y-13720702D02*
X9475785Y-13739749D01*
X9475785Y-13739749D02*
X9466261Y-13749273D01*
X9466261Y-13749273D02*
X9447214Y-13758797D01*
X9447214Y-13758797D02*
X9428166Y-13758797D01*
X9428166Y-13758797D02*
X9409118Y-13749273D01*
X9409118Y-13749273D02*
X9399595Y-13739749D01*
X9399595Y-13739749D02*
X9390071Y-13720702D01*
X9390071Y-13720702D02*
X9380547Y-13682607D01*
X9380547Y-13682607D02*
X9380547Y-13634987D01*
X9380547Y-13634987D02*
X9390071Y-13596892D01*
X9390071Y-13596892D02*
X9399595Y-13577845D01*
X9399595Y-13577845D02*
X9409118Y-13568321D01*
X9409118Y-13568321D02*
X9428166Y-13558797D01*
X9580547Y-13739749D02*
X9590071Y-13749273D01*
X9590071Y-13749273D02*
X9580547Y-13758797D01*
X9580547Y-13758797D02*
X9571023Y-13749273D01*
X9571023Y-13749273D02*
X9580547Y-13739749D01*
X9580547Y-13739749D02*
X9580547Y-13758797D01*
X9713880Y-13558797D02*
X9732928Y-13558797D01*
X9732928Y-13558797D02*
X9751976Y-13568321D01*
X9751976Y-13568321D02*
X9761499Y-13577845D01*
X9761499Y-13577845D02*
X9771023Y-13596892D01*
X9771023Y-13596892D02*
X9780547Y-13634987D01*
X9780547Y-13634987D02*
X9780547Y-13682607D01*
X9780547Y-13682607D02*
X9771023Y-13720702D01*
X9771023Y-13720702D02*
X9761499Y-13739749D01*
X9761499Y-13739749D02*
X9751976Y-13749273D01*
X9751976Y-13749273D02*
X9732928Y-13758797D01*
X9732928Y-13758797D02*
X9713880Y-13758797D01*
X9713880Y-13758797D02*
X9694833Y-13749273D01*
X9694833Y-13749273D02*
X9685309Y-13739749D01*
X9685309Y-13739749D02*
X9675785Y-13720702D01*
X9675785Y-13720702D02*
X9666261Y-13682607D01*
X9666261Y-13682607D02*
X9666261Y-13634987D01*
X9666261Y-13634987D02*
X9675785Y-13596892D01*
X9675785Y-13596892D02*
X9685309Y-13577845D01*
X9685309Y-13577845D02*
X9694833Y-13568321D01*
X9694833Y-13568321D02*
X9713880Y-13558797D01*
X9971023Y-13758797D02*
X9856738Y-13758797D01*
X9913880Y-13758797D02*
X9913880Y-13558797D01*
X9913880Y-13558797D02*
X9894833Y-13587368D01*
X9894833Y-13587368D02*
X9875785Y-13606416D01*
X9875785Y-13606416D02*
X9856738Y-13615940D01*
X10161499Y-13758797D02*
X10047214Y-13758797D01*
X10104357Y-13758797D02*
X10104357Y-13558797D01*
X10104357Y-13558797D02*
X10085309Y-13587368D01*
X10085309Y-13587368D02*
X10066261Y-13606416D01*
X10066261Y-13606416D02*
X10047214Y-13615940D01*
X10275785Y-13644511D02*
X10256738Y-13634987D01*
X10256738Y-13634987D02*
X10247214Y-13625464D01*
X10247214Y-13625464D02*
X10237690Y-13606416D01*
X10237690Y-13606416D02*
X10237690Y-13596892D01*
X10237690Y-13596892D02*
X10247214Y-13577845D01*
X10247214Y-13577845D02*
X10256738Y-13568321D01*
X10256738Y-13568321D02*
X10275785Y-13558797D01*
X10275785Y-13558797D02*
X10313880Y-13558797D01*
X10313880Y-13558797D02*
X10332928Y-13568321D01*
X10332928Y-13568321D02*
X10342452Y-13577845D01*
X10342452Y-13577845D02*
X10351976Y-13596892D01*
X10351976Y-13596892D02*
X10351976Y-13606416D01*
X10351976Y-13606416D02*
X10342452Y-13625464D01*
X10342452Y-13625464D02*
X10332928Y-13634987D01*
X10332928Y-13634987D02*
X10313880Y-13644511D01*
X10313880Y-13644511D02*
X10275785Y-13644511D01*
X10275785Y-13644511D02*
X10256738Y-13654035D01*
X10256738Y-13654035D02*
X10247214Y-13663559D01*
X10247214Y-13663559D02*
X10237690Y-13682607D01*
X10237690Y-13682607D02*
X10237690Y-13720702D01*
X10237690Y-13720702D02*
X10247214Y-13739749D01*
X10247214Y-13739749D02*
X10256738Y-13749273D01*
X10256738Y-13749273D02*
X10275785Y-13758797D01*
X10275785Y-13758797D02*
X10313880Y-13758797D01*
X10313880Y-13758797D02*
X10332928Y-13749273D01*
X10332928Y-13749273D02*
X10342452Y-13739749D01*
X10342452Y-13739749D02*
X10351976Y-13720702D01*
X10351976Y-13720702D02*
X10351976Y-13682607D01*
X10351976Y-13682607D02*
X10342452Y-13663559D01*
X10342452Y-13663559D02*
X10332928Y-13654035D01*
X10332928Y-13654035D02*
X10313880Y-13644511D01*
X10428166Y-13558797D02*
X10428166Y-13596892D01*
X10504357Y-13558797D02*
X10504357Y-13596892D01*
X10799595Y-13834987D02*
X10790071Y-13825464D01*
X10790071Y-13825464D02*
X10771023Y-13796892D01*
X10771023Y-13796892D02*
X10761500Y-13777845D01*
X10761500Y-13777845D02*
X10751976Y-13749273D01*
X10751976Y-13749273D02*
X10742452Y-13701654D01*
X10742452Y-13701654D02*
X10742452Y-13663559D01*
X10742452Y-13663559D02*
X10751976Y-13615940D01*
X10751976Y-13615940D02*
X10761500Y-13587368D01*
X10761500Y-13587368D02*
X10771023Y-13568321D01*
X10771023Y-13568321D02*
X10790071Y-13539749D01*
X10790071Y-13539749D02*
X10799595Y-13530226D01*
X10961500Y-13558797D02*
X10923404Y-13558797D01*
X10923404Y-13558797D02*
X10904357Y-13568321D01*
X10904357Y-13568321D02*
X10894833Y-13577845D01*
X10894833Y-13577845D02*
X10875785Y-13606416D01*
X10875785Y-13606416D02*
X10866261Y-13644511D01*
X10866261Y-13644511D02*
X10866261Y-13720702D01*
X10866261Y-13720702D02*
X10875785Y-13739749D01*
X10875785Y-13739749D02*
X10885309Y-13749273D01*
X10885309Y-13749273D02*
X10904357Y-13758797D01*
X10904357Y-13758797D02*
X10942452Y-13758797D01*
X10942452Y-13758797D02*
X10961500Y-13749273D01*
X10961500Y-13749273D02*
X10971023Y-13739749D01*
X10971023Y-13739749D02*
X10980547Y-13720702D01*
X10980547Y-13720702D02*
X10980547Y-13673083D01*
X10980547Y-13673083D02*
X10971023Y-13654035D01*
X10971023Y-13654035D02*
X10961500Y-13644511D01*
X10961500Y-13644511D02*
X10942452Y-13634987D01*
X10942452Y-13634987D02*
X10904357Y-13634987D01*
X10904357Y-13634987D02*
X10885309Y-13644511D01*
X10885309Y-13644511D02*
X10875785Y-13654035D01*
X10875785Y-13654035D02*
X10866261Y-13673083D01*
X11171023Y-13758797D02*
X11056738Y-13758797D01*
X11113880Y-13758797D02*
X11113880Y-13558797D01*
X11113880Y-13558797D02*
X11094833Y-13587368D01*
X11094833Y-13587368D02*
X11075785Y-13606416D01*
X11075785Y-13606416D02*
X11056738Y-13615940D01*
X11409119Y-13758797D02*
X11409119Y-13558797D01*
X11494833Y-13758797D02*
X11494833Y-13654035D01*
X11494833Y-13654035D02*
X11485309Y-13634987D01*
X11485309Y-13634987D02*
X11466261Y-13625464D01*
X11466261Y-13625464D02*
X11437690Y-13625464D01*
X11437690Y-13625464D02*
X11418642Y-13634987D01*
X11418642Y-13634987D02*
X11409119Y-13644511D01*
X11618642Y-13758797D02*
X11599595Y-13749273D01*
X11599595Y-13749273D02*
X11590071Y-13739749D01*
X11590071Y-13739749D02*
X11580547Y-13720702D01*
X11580547Y-13720702D02*
X11580547Y-13663559D01*
X11580547Y-13663559D02*
X11590071Y-13644511D01*
X11590071Y-13644511D02*
X11599595Y-13634987D01*
X11599595Y-13634987D02*
X11618642Y-13625464D01*
X11618642Y-13625464D02*
X11647214Y-13625464D01*
X11647214Y-13625464D02*
X11666261Y-13634987D01*
X11666261Y-13634987D02*
X11675785Y-13644511D01*
X11675785Y-13644511D02*
X11685309Y-13663559D01*
X11685309Y-13663559D02*
X11685309Y-13720702D01*
X11685309Y-13720702D02*
X11675785Y-13739749D01*
X11675785Y-13739749D02*
X11666261Y-13749273D01*
X11666261Y-13749273D02*
X11647214Y-13758797D01*
X11647214Y-13758797D02*
X11618642Y-13758797D01*
X11799595Y-13758797D02*
X11780547Y-13749273D01*
X11780547Y-13749273D02*
X11771023Y-13730226D01*
X11771023Y-13730226D02*
X11771023Y-13558797D01*
X11951976Y-13749273D02*
X11932928Y-13758797D01*
X11932928Y-13758797D02*
X11894833Y-13758797D01*
X11894833Y-13758797D02*
X11875785Y-13749273D01*
X11875785Y-13749273D02*
X11866261Y-13730226D01*
X11866261Y-13730226D02*
X11866261Y-13654035D01*
X11866261Y-13654035D02*
X11875785Y-13634987D01*
X11875785Y-13634987D02*
X11894833Y-13625464D01*
X11894833Y-13625464D02*
X11932928Y-13625464D01*
X11932928Y-13625464D02*
X11951976Y-13634987D01*
X11951976Y-13634987D02*
X11961500Y-13654035D01*
X11961500Y-13654035D02*
X11961500Y-13673083D01*
X11961500Y-13673083D02*
X11866261Y-13692130D01*
X12037690Y-13749273D02*
X12056738Y-13758797D01*
X12056738Y-13758797D02*
X12094833Y-13758797D01*
X12094833Y-13758797D02*
X12113881Y-13749273D01*
X12113881Y-13749273D02*
X12123404Y-13730226D01*
X12123404Y-13730226D02*
X12123404Y-13720702D01*
X12123404Y-13720702D02*
X12113881Y-13701654D01*
X12113881Y-13701654D02*
X12094833Y-13692130D01*
X12094833Y-13692130D02*
X12066261Y-13692130D01*
X12066261Y-13692130D02*
X12047214Y-13682607D01*
X12047214Y-13682607D02*
X12037690Y-13663559D01*
X12037690Y-13663559D02*
X12037690Y-13654035D01*
X12037690Y-13654035D02*
X12047214Y-13634987D01*
X12047214Y-13634987D02*
X12066261Y-13625464D01*
X12066261Y-13625464D02*
X12094833Y-13625464D01*
X12094833Y-13625464D02*
X12113881Y-13634987D01*
X12190071Y-13834987D02*
X12199595Y-13825464D01*
X12199595Y-13825464D02*
X12218642Y-13796892D01*
X12218642Y-13796892D02*
X12228166Y-13777845D01*
X12228166Y-13777845D02*
X12237690Y-13749273D01*
X12237690Y-13749273D02*
X12247214Y-13701654D01*
X12247214Y-13701654D02*
X12247214Y-13663559D01*
X12247214Y-13663559D02*
X12237690Y-13615940D01*
X12237690Y-13615940D02*
X12228166Y-13587368D01*
X12228166Y-13587368D02*
X12218642Y-13568321D01*
X12218642Y-13568321D02*
X12199595Y-13539749D01*
X12199595Y-13539749D02*
X12190071Y-13530226D01*
D12*
X7224532Y-13931313D02*
G75*
G02*
X7184532Y-13931313I-20000J0D01*
G01*
X7184532Y-13931313D02*
G75*
G02*
X7224532Y-13931313I20000J0D01*
G01*
D11*
X7523404Y-13822797D02*
X7542452Y-13822797D01*
X7542452Y-13822797D02*
X7561499Y-13832321D01*
X7561499Y-13832321D02*
X7571023Y-13841845D01*
X7571023Y-13841845D02*
X7580547Y-13860892D01*
X7580547Y-13860892D02*
X7590071Y-13898987D01*
X7590071Y-13898987D02*
X7590071Y-13946607D01*
X7590071Y-13946607D02*
X7580547Y-13984702D01*
X7580547Y-13984702D02*
X7571023Y-14003749D01*
X7571023Y-14003749D02*
X7561499Y-14013273D01*
X7561499Y-14013273D02*
X7542452Y-14022797D01*
X7542452Y-14022797D02*
X7523404Y-14022797D01*
X7523404Y-14022797D02*
X7504356Y-14013273D01*
X7504356Y-14013273D02*
X7494832Y-14003749D01*
X7494832Y-14003749D02*
X7485309Y-13984702D01*
X7485309Y-13984702D02*
X7475785Y-13946607D01*
X7475785Y-13946607D02*
X7475785Y-13898987D01*
X7475785Y-13898987D02*
X7485309Y-13860892D01*
X7485309Y-13860892D02*
X7494832Y-13841845D01*
X7494832Y-13841845D02*
X7504356Y-13832321D01*
X7504356Y-13832321D02*
X7523404Y-13822797D01*
X7675785Y-14003749D02*
X7685309Y-14013273D01*
X7685309Y-14013273D02*
X7675785Y-14022797D01*
X7675785Y-14022797D02*
X7666261Y-14013273D01*
X7666261Y-14013273D02*
X7675785Y-14003749D01*
X7675785Y-14003749D02*
X7675785Y-14022797D01*
X7856737Y-13889464D02*
X7856737Y-14022797D01*
X7809118Y-13813273D02*
X7761499Y-13956130D01*
X7761499Y-13956130D02*
X7885309Y-13956130D01*
X7999594Y-13822797D02*
X8018642Y-13822797D01*
X8018642Y-13822797D02*
X8037690Y-13832321D01*
X8037690Y-13832321D02*
X8047213Y-13841845D01*
X8047213Y-13841845D02*
X8056737Y-13860892D01*
X8056737Y-13860892D02*
X8066261Y-13898987D01*
X8066261Y-13898987D02*
X8066261Y-13946607D01*
X8066261Y-13946607D02*
X8056737Y-13984702D01*
X8056737Y-13984702D02*
X8047213Y-14003749D01*
X8047213Y-14003749D02*
X8037690Y-14013273D01*
X8037690Y-14013273D02*
X8018642Y-14022797D01*
X8018642Y-14022797D02*
X7999594Y-14022797D01*
X7999594Y-14022797D02*
X7980547Y-14013273D01*
X7980547Y-14013273D02*
X7971023Y-14003749D01*
X7971023Y-14003749D02*
X7961499Y-13984702D01*
X7961499Y-13984702D02*
X7951975Y-13946607D01*
X7951975Y-13946607D02*
X7951975Y-13898987D01*
X7951975Y-13898987D02*
X7961499Y-13860892D01*
X7961499Y-13860892D02*
X7971023Y-13841845D01*
X7971023Y-13841845D02*
X7980547Y-13832321D01*
X7980547Y-13832321D02*
X7999594Y-13822797D01*
X8190071Y-13822797D02*
X8209118Y-13822797D01*
X8209118Y-13822797D02*
X8228166Y-13832321D01*
X8228166Y-13832321D02*
X8237690Y-13841845D01*
X8237690Y-13841845D02*
X8247213Y-13860892D01*
X8247213Y-13860892D02*
X8256737Y-13898987D01*
X8256737Y-13898987D02*
X8256737Y-13946607D01*
X8256737Y-13946607D02*
X8247213Y-13984702D01*
X8247213Y-13984702D02*
X8237690Y-14003749D01*
X8237690Y-14003749D02*
X8228166Y-14013273D01*
X8228166Y-14013273D02*
X8209118Y-14022797D01*
X8209118Y-14022797D02*
X8190071Y-14022797D01*
X8190071Y-14022797D02*
X8171023Y-14013273D01*
X8171023Y-14013273D02*
X8161499Y-14003749D01*
X8161499Y-14003749D02*
X8151975Y-13984702D01*
X8151975Y-13984702D02*
X8142452Y-13946607D01*
X8142452Y-13946607D02*
X8142452Y-13898987D01*
X8142452Y-13898987D02*
X8151975Y-13860892D01*
X8151975Y-13860892D02*
X8161499Y-13841845D01*
X8161499Y-13841845D02*
X8171023Y-13832321D01*
X8171023Y-13832321D02*
X8190071Y-13822797D01*
X8342452Y-14022797D02*
X8342452Y-13889464D01*
X8342452Y-13908511D02*
X8351975Y-13898987D01*
X8351975Y-13898987D02*
X8371023Y-13889464D01*
X8371023Y-13889464D02*
X8399595Y-13889464D01*
X8399595Y-13889464D02*
X8418642Y-13898987D01*
X8418642Y-13898987D02*
X8428166Y-13918035D01*
X8428166Y-13918035D02*
X8428166Y-14022797D01*
X8428166Y-13918035D02*
X8437690Y-13898987D01*
X8437690Y-13898987D02*
X8456737Y-13889464D01*
X8456737Y-13889464D02*
X8485309Y-13889464D01*
X8485309Y-13889464D02*
X8504356Y-13898987D01*
X8504356Y-13898987D02*
X8513880Y-13918035D01*
X8513880Y-13918035D02*
X8513880Y-14022797D01*
X8609118Y-14022797D02*
X8609118Y-13889464D01*
X8609118Y-13908511D02*
X8618642Y-13898987D01*
X8618642Y-13898987D02*
X8637690Y-13889464D01*
X8637690Y-13889464D02*
X8666261Y-13889464D01*
X8666261Y-13889464D02*
X8685309Y-13898987D01*
X8685309Y-13898987D02*
X8694833Y-13918035D01*
X8694833Y-13918035D02*
X8694833Y-14022797D01*
X8694833Y-13918035D02*
X8704356Y-13898987D01*
X8704356Y-13898987D02*
X8723404Y-13889464D01*
X8723404Y-13889464D02*
X8751975Y-13889464D01*
X8751975Y-13889464D02*
X8771023Y-13898987D01*
X8771023Y-13898987D02*
X8780547Y-13918035D01*
X8780547Y-13918035D02*
X8780547Y-14022797D01*
X9171023Y-13813273D02*
X8999595Y-14070416D01*
X9428166Y-13822797D02*
X9447214Y-13822797D01*
X9447214Y-13822797D02*
X9466261Y-13832321D01*
X9466261Y-13832321D02*
X9475785Y-13841845D01*
X9475785Y-13841845D02*
X9485309Y-13860892D01*
X9485309Y-13860892D02*
X9494833Y-13898987D01*
X9494833Y-13898987D02*
X9494833Y-13946607D01*
X9494833Y-13946607D02*
X9485309Y-13984702D01*
X9485309Y-13984702D02*
X9475785Y-14003749D01*
X9475785Y-14003749D02*
X9466261Y-14013273D01*
X9466261Y-14013273D02*
X9447214Y-14022797D01*
X9447214Y-14022797D02*
X9428166Y-14022797D01*
X9428166Y-14022797D02*
X9409118Y-14013273D01*
X9409118Y-14013273D02*
X9399595Y-14003749D01*
X9399595Y-14003749D02*
X9390071Y-13984702D01*
X9390071Y-13984702D02*
X9380547Y-13946607D01*
X9380547Y-13946607D02*
X9380547Y-13898987D01*
X9380547Y-13898987D02*
X9390071Y-13860892D01*
X9390071Y-13860892D02*
X9399595Y-13841845D01*
X9399595Y-13841845D02*
X9409118Y-13832321D01*
X9409118Y-13832321D02*
X9428166Y-13822797D01*
X9580547Y-14003749D02*
X9590071Y-14013273D01*
X9590071Y-14013273D02*
X9580547Y-14022797D01*
X9580547Y-14022797D02*
X9571023Y-14013273D01*
X9571023Y-14013273D02*
X9580547Y-14003749D01*
X9580547Y-14003749D02*
X9580547Y-14022797D01*
X9713880Y-13822797D02*
X9732928Y-13822797D01*
X9732928Y-13822797D02*
X9751976Y-13832321D01*
X9751976Y-13832321D02*
X9761499Y-13841845D01*
X9761499Y-13841845D02*
X9771023Y-13860892D01*
X9771023Y-13860892D02*
X9780547Y-13898987D01*
X9780547Y-13898987D02*
X9780547Y-13946607D01*
X9780547Y-13946607D02*
X9771023Y-13984702D01*
X9771023Y-13984702D02*
X9761499Y-14003749D01*
X9761499Y-14003749D02*
X9751976Y-14013273D01*
X9751976Y-14013273D02*
X9732928Y-14022797D01*
X9732928Y-14022797D02*
X9713880Y-14022797D01*
X9713880Y-14022797D02*
X9694833Y-14013273D01*
X9694833Y-14013273D02*
X9685309Y-14003749D01*
X9685309Y-14003749D02*
X9675785Y-13984702D01*
X9675785Y-13984702D02*
X9666261Y-13946607D01*
X9666261Y-13946607D02*
X9666261Y-13898987D01*
X9666261Y-13898987D02*
X9675785Y-13860892D01*
X9675785Y-13860892D02*
X9685309Y-13841845D01*
X9685309Y-13841845D02*
X9694833Y-13832321D01*
X9694833Y-13832321D02*
X9713880Y-13822797D01*
X9971023Y-14022797D02*
X9856738Y-14022797D01*
X9913880Y-14022797D02*
X9913880Y-13822797D01*
X9913880Y-13822797D02*
X9894833Y-13851368D01*
X9894833Y-13851368D02*
X9875785Y-13870416D01*
X9875785Y-13870416D02*
X9856738Y-13879940D01*
X10151976Y-13822797D02*
X10056738Y-13822797D01*
X10056738Y-13822797D02*
X10047214Y-13918035D01*
X10047214Y-13918035D02*
X10056738Y-13908511D01*
X10056738Y-13908511D02*
X10075785Y-13898987D01*
X10075785Y-13898987D02*
X10123404Y-13898987D01*
X10123404Y-13898987D02*
X10142452Y-13908511D01*
X10142452Y-13908511D02*
X10151976Y-13918035D01*
X10151976Y-13918035D02*
X10161499Y-13937083D01*
X10161499Y-13937083D02*
X10161499Y-13984702D01*
X10161499Y-13984702D02*
X10151976Y-14003749D01*
X10151976Y-14003749D02*
X10142452Y-14013273D01*
X10142452Y-14013273D02*
X10123404Y-14022797D01*
X10123404Y-14022797D02*
X10075785Y-14022797D01*
X10075785Y-14022797D02*
X10056738Y-14013273D01*
X10056738Y-14013273D02*
X10047214Y-14003749D01*
X10228166Y-13822797D02*
X10361499Y-13822797D01*
X10361499Y-13822797D02*
X10275785Y-14022797D01*
X10428166Y-13822797D02*
X10428166Y-13860892D01*
X10504357Y-13822797D02*
X10504357Y-13860892D01*
X10799595Y-14098987D02*
X10790071Y-14089464D01*
X10790071Y-14089464D02*
X10771023Y-14060892D01*
X10771023Y-14060892D02*
X10761500Y-14041845D01*
X10761500Y-14041845D02*
X10751976Y-14013273D01*
X10751976Y-14013273D02*
X10742452Y-13965654D01*
X10742452Y-13965654D02*
X10742452Y-13927559D01*
X10742452Y-13927559D02*
X10751976Y-13879940D01*
X10751976Y-13879940D02*
X10761500Y-13851368D01*
X10761500Y-13851368D02*
X10771023Y-13832321D01*
X10771023Y-13832321D02*
X10790071Y-13803749D01*
X10790071Y-13803749D02*
X10799595Y-13794226D01*
X10980547Y-14022797D02*
X10866261Y-14022797D01*
X10923404Y-14022797D02*
X10923404Y-13822797D01*
X10923404Y-13822797D02*
X10904357Y-13851368D01*
X10904357Y-13851368D02*
X10885309Y-13870416D01*
X10885309Y-13870416D02*
X10866261Y-13879940D01*
X11218642Y-14022797D02*
X11218642Y-13822797D01*
X11304357Y-14022797D02*
X11304357Y-13918035D01*
X11304357Y-13918035D02*
X11294833Y-13898987D01*
X11294833Y-13898987D02*
X11275785Y-13889464D01*
X11275785Y-13889464D02*
X11247214Y-13889464D01*
X11247214Y-13889464D02*
X11228166Y-13898987D01*
X11228166Y-13898987D02*
X11218642Y-13908511D01*
X11428166Y-14022797D02*
X11409119Y-14013273D01*
X11409119Y-14013273D02*
X11399595Y-14003749D01*
X11399595Y-14003749D02*
X11390071Y-13984702D01*
X11390071Y-13984702D02*
X11390071Y-13927559D01*
X11390071Y-13927559D02*
X11399595Y-13908511D01*
X11399595Y-13908511D02*
X11409119Y-13898987D01*
X11409119Y-13898987D02*
X11428166Y-13889464D01*
X11428166Y-13889464D02*
X11456738Y-13889464D01*
X11456738Y-13889464D02*
X11475785Y-13898987D01*
X11475785Y-13898987D02*
X11485309Y-13908511D01*
X11485309Y-13908511D02*
X11494833Y-13927559D01*
X11494833Y-13927559D02*
X11494833Y-13984702D01*
X11494833Y-13984702D02*
X11485309Y-14003749D01*
X11485309Y-14003749D02*
X11475785Y-14013273D01*
X11475785Y-14013273D02*
X11456738Y-14022797D01*
X11456738Y-14022797D02*
X11428166Y-14022797D01*
X11609119Y-14022797D02*
X11590071Y-14013273D01*
X11590071Y-14013273D02*
X11580547Y-13994226D01*
X11580547Y-13994226D02*
X11580547Y-13822797D01*
X11761500Y-14013273D02*
X11742452Y-14022797D01*
X11742452Y-14022797D02*
X11704357Y-14022797D01*
X11704357Y-14022797D02*
X11685309Y-14013273D01*
X11685309Y-14013273D02*
X11675785Y-13994226D01*
X11675785Y-13994226D02*
X11675785Y-13918035D01*
X11675785Y-13918035D02*
X11685309Y-13898987D01*
X11685309Y-13898987D02*
X11704357Y-13889464D01*
X11704357Y-13889464D02*
X11742452Y-13889464D01*
X11742452Y-13889464D02*
X11761500Y-13898987D01*
X11761500Y-13898987D02*
X11771023Y-13918035D01*
X11771023Y-13918035D02*
X11771023Y-13937083D01*
X11771023Y-13937083D02*
X11675785Y-13956130D01*
X11837690Y-14098987D02*
X11847214Y-14089464D01*
X11847214Y-14089464D02*
X11866261Y-14060892D01*
X11866261Y-14060892D02*
X11875785Y-14041845D01*
X11875785Y-14041845D02*
X11885309Y-14013273D01*
X11885309Y-14013273D02*
X11894833Y-13965654D01*
X11894833Y-13965654D02*
X11894833Y-13927559D01*
X11894833Y-13927559D02*
X11885309Y-13879940D01*
X11885309Y-13879940D02*
X11875785Y-13851368D01*
X11875785Y-13851368D02*
X11866261Y-13832321D01*
X11866261Y-13832321D02*
X11847214Y-13803749D01*
X11847214Y-13803749D02*
X11837690Y-13794226D01*
D12*
X7179532Y-14150313D02*
X7179532Y-14240313D01*
X7134532Y-14195313D02*
X7224532Y-14195313D01*
D11*
X7523404Y-14086797D02*
X7542452Y-14086797D01*
X7542452Y-14086797D02*
X7561499Y-14096321D01*
X7561499Y-14096321D02*
X7571023Y-14105845D01*
X7571023Y-14105845D02*
X7580547Y-14124892D01*
X7580547Y-14124892D02*
X7590071Y-14162987D01*
X7590071Y-14162987D02*
X7590071Y-14210607D01*
X7590071Y-14210607D02*
X7580547Y-14248702D01*
X7580547Y-14248702D02*
X7571023Y-14267749D01*
X7571023Y-14267749D02*
X7561499Y-14277273D01*
X7561499Y-14277273D02*
X7542452Y-14286797D01*
X7542452Y-14286797D02*
X7523404Y-14286797D01*
X7523404Y-14286797D02*
X7504356Y-14277273D01*
X7504356Y-14277273D02*
X7494832Y-14267749D01*
X7494832Y-14267749D02*
X7485309Y-14248702D01*
X7485309Y-14248702D02*
X7475785Y-14210607D01*
X7475785Y-14210607D02*
X7475785Y-14162987D01*
X7475785Y-14162987D02*
X7485309Y-14124892D01*
X7485309Y-14124892D02*
X7494832Y-14105845D01*
X7494832Y-14105845D02*
X7504356Y-14096321D01*
X7504356Y-14096321D02*
X7523404Y-14086797D01*
X7675785Y-14267749D02*
X7685309Y-14277273D01*
X7685309Y-14277273D02*
X7675785Y-14286797D01*
X7675785Y-14286797D02*
X7666261Y-14277273D01*
X7666261Y-14277273D02*
X7675785Y-14267749D01*
X7675785Y-14267749D02*
X7675785Y-14286797D01*
X7780547Y-14286797D02*
X7818642Y-14286797D01*
X7818642Y-14286797D02*
X7837690Y-14277273D01*
X7837690Y-14277273D02*
X7847213Y-14267749D01*
X7847213Y-14267749D02*
X7866261Y-14239178D01*
X7866261Y-14239178D02*
X7875785Y-14201083D01*
X7875785Y-14201083D02*
X7875785Y-14124892D01*
X7875785Y-14124892D02*
X7866261Y-14105845D01*
X7866261Y-14105845D02*
X7856737Y-14096321D01*
X7856737Y-14096321D02*
X7837690Y-14086797D01*
X7837690Y-14086797D02*
X7799594Y-14086797D01*
X7799594Y-14086797D02*
X7780547Y-14096321D01*
X7780547Y-14096321D02*
X7771023Y-14105845D01*
X7771023Y-14105845D02*
X7761499Y-14124892D01*
X7761499Y-14124892D02*
X7761499Y-14172511D01*
X7761499Y-14172511D02*
X7771023Y-14191559D01*
X7771023Y-14191559D02*
X7780547Y-14201083D01*
X7780547Y-14201083D02*
X7799594Y-14210607D01*
X7799594Y-14210607D02*
X7837690Y-14210607D01*
X7837690Y-14210607D02*
X7856737Y-14201083D01*
X7856737Y-14201083D02*
X7866261Y-14191559D01*
X7866261Y-14191559D02*
X7875785Y-14172511D01*
X7999594Y-14086797D02*
X8018642Y-14086797D01*
X8018642Y-14086797D02*
X8037690Y-14096321D01*
X8037690Y-14096321D02*
X8047213Y-14105845D01*
X8047213Y-14105845D02*
X8056737Y-14124892D01*
X8056737Y-14124892D02*
X8066261Y-14162987D01*
X8066261Y-14162987D02*
X8066261Y-14210607D01*
X8066261Y-14210607D02*
X8056737Y-14248702D01*
X8056737Y-14248702D02*
X8047213Y-14267749D01*
X8047213Y-14267749D02*
X8037690Y-14277273D01*
X8037690Y-14277273D02*
X8018642Y-14286797D01*
X8018642Y-14286797D02*
X7999594Y-14286797D01*
X7999594Y-14286797D02*
X7980547Y-14277273D01*
X7980547Y-14277273D02*
X7971023Y-14267749D01*
X7971023Y-14267749D02*
X7961499Y-14248702D01*
X7961499Y-14248702D02*
X7951975Y-14210607D01*
X7951975Y-14210607D02*
X7951975Y-14162987D01*
X7951975Y-14162987D02*
X7961499Y-14124892D01*
X7961499Y-14124892D02*
X7971023Y-14105845D01*
X7971023Y-14105845D02*
X7980547Y-14096321D01*
X7980547Y-14096321D02*
X7999594Y-14086797D01*
X8190071Y-14086797D02*
X8209118Y-14086797D01*
X8209118Y-14086797D02*
X8228166Y-14096321D01*
X8228166Y-14096321D02*
X8237690Y-14105845D01*
X8237690Y-14105845D02*
X8247213Y-14124892D01*
X8247213Y-14124892D02*
X8256737Y-14162987D01*
X8256737Y-14162987D02*
X8256737Y-14210607D01*
X8256737Y-14210607D02*
X8247213Y-14248702D01*
X8247213Y-14248702D02*
X8237690Y-14267749D01*
X8237690Y-14267749D02*
X8228166Y-14277273D01*
X8228166Y-14277273D02*
X8209118Y-14286797D01*
X8209118Y-14286797D02*
X8190071Y-14286797D01*
X8190071Y-14286797D02*
X8171023Y-14277273D01*
X8171023Y-14277273D02*
X8161499Y-14267749D01*
X8161499Y-14267749D02*
X8151975Y-14248702D01*
X8151975Y-14248702D02*
X8142452Y-14210607D01*
X8142452Y-14210607D02*
X8142452Y-14162987D01*
X8142452Y-14162987D02*
X8151975Y-14124892D01*
X8151975Y-14124892D02*
X8161499Y-14105845D01*
X8161499Y-14105845D02*
X8171023Y-14096321D01*
X8171023Y-14096321D02*
X8190071Y-14086797D01*
X8342452Y-14286797D02*
X8342452Y-14153464D01*
X8342452Y-14172511D02*
X8351975Y-14162987D01*
X8351975Y-14162987D02*
X8371023Y-14153464D01*
X8371023Y-14153464D02*
X8399595Y-14153464D01*
X8399595Y-14153464D02*
X8418642Y-14162987D01*
X8418642Y-14162987D02*
X8428166Y-14182035D01*
X8428166Y-14182035D02*
X8428166Y-14286797D01*
X8428166Y-14182035D02*
X8437690Y-14162987D01*
X8437690Y-14162987D02*
X8456737Y-14153464D01*
X8456737Y-14153464D02*
X8485309Y-14153464D01*
X8485309Y-14153464D02*
X8504356Y-14162987D01*
X8504356Y-14162987D02*
X8513880Y-14182035D01*
X8513880Y-14182035D02*
X8513880Y-14286797D01*
X8609118Y-14286797D02*
X8609118Y-14153464D01*
X8609118Y-14172511D02*
X8618642Y-14162987D01*
X8618642Y-14162987D02*
X8637690Y-14153464D01*
X8637690Y-14153464D02*
X8666261Y-14153464D01*
X8666261Y-14153464D02*
X8685309Y-14162987D01*
X8685309Y-14162987D02*
X8694833Y-14182035D01*
X8694833Y-14182035D02*
X8694833Y-14286797D01*
X8694833Y-14182035D02*
X8704356Y-14162987D01*
X8704356Y-14162987D02*
X8723404Y-14153464D01*
X8723404Y-14153464D02*
X8751975Y-14153464D01*
X8751975Y-14153464D02*
X8771023Y-14162987D01*
X8771023Y-14162987D02*
X8780547Y-14182035D01*
X8780547Y-14182035D02*
X8780547Y-14286797D01*
X9171023Y-14077273D02*
X8999595Y-14334416D01*
X9428166Y-14086797D02*
X9447214Y-14086797D01*
X9447214Y-14086797D02*
X9466261Y-14096321D01*
X9466261Y-14096321D02*
X9475785Y-14105845D01*
X9475785Y-14105845D02*
X9485309Y-14124892D01*
X9485309Y-14124892D02*
X9494833Y-14162987D01*
X9494833Y-14162987D02*
X9494833Y-14210607D01*
X9494833Y-14210607D02*
X9485309Y-14248702D01*
X9485309Y-14248702D02*
X9475785Y-14267749D01*
X9475785Y-14267749D02*
X9466261Y-14277273D01*
X9466261Y-14277273D02*
X9447214Y-14286797D01*
X9447214Y-14286797D02*
X9428166Y-14286797D01*
X9428166Y-14286797D02*
X9409118Y-14277273D01*
X9409118Y-14277273D02*
X9399595Y-14267749D01*
X9399595Y-14267749D02*
X9390071Y-14248702D01*
X9390071Y-14248702D02*
X9380547Y-14210607D01*
X9380547Y-14210607D02*
X9380547Y-14162987D01*
X9380547Y-14162987D02*
X9390071Y-14124892D01*
X9390071Y-14124892D02*
X9399595Y-14105845D01*
X9399595Y-14105845D02*
X9409118Y-14096321D01*
X9409118Y-14096321D02*
X9428166Y-14086797D01*
X9580547Y-14267749D02*
X9590071Y-14277273D01*
X9590071Y-14277273D02*
X9580547Y-14286797D01*
X9580547Y-14286797D02*
X9571023Y-14277273D01*
X9571023Y-14277273D02*
X9580547Y-14267749D01*
X9580547Y-14267749D02*
X9580547Y-14286797D01*
X9713880Y-14086797D02*
X9732928Y-14086797D01*
X9732928Y-14086797D02*
X9751976Y-14096321D01*
X9751976Y-14096321D02*
X9761499Y-14105845D01*
X9761499Y-14105845D02*
X9771023Y-14124892D01*
X9771023Y-14124892D02*
X9780547Y-14162987D01*
X9780547Y-14162987D02*
X9780547Y-14210607D01*
X9780547Y-14210607D02*
X9771023Y-14248702D01*
X9771023Y-14248702D02*
X9761499Y-14267749D01*
X9761499Y-14267749D02*
X9751976Y-14277273D01*
X9751976Y-14277273D02*
X9732928Y-14286797D01*
X9732928Y-14286797D02*
X9713880Y-14286797D01*
X9713880Y-14286797D02*
X9694833Y-14277273D01*
X9694833Y-14277273D02*
X9685309Y-14267749D01*
X9685309Y-14267749D02*
X9675785Y-14248702D01*
X9675785Y-14248702D02*
X9666261Y-14210607D01*
X9666261Y-14210607D02*
X9666261Y-14162987D01*
X9666261Y-14162987D02*
X9675785Y-14124892D01*
X9675785Y-14124892D02*
X9685309Y-14105845D01*
X9685309Y-14105845D02*
X9694833Y-14096321D01*
X9694833Y-14096321D02*
X9713880Y-14086797D01*
X9847214Y-14086797D02*
X9971023Y-14086797D01*
X9971023Y-14086797D02*
X9904357Y-14162987D01*
X9904357Y-14162987D02*
X9932928Y-14162987D01*
X9932928Y-14162987D02*
X9951976Y-14172511D01*
X9951976Y-14172511D02*
X9961499Y-14182035D01*
X9961499Y-14182035D02*
X9971023Y-14201083D01*
X9971023Y-14201083D02*
X9971023Y-14248702D01*
X9971023Y-14248702D02*
X9961499Y-14267749D01*
X9961499Y-14267749D02*
X9951976Y-14277273D01*
X9951976Y-14277273D02*
X9932928Y-14286797D01*
X9932928Y-14286797D02*
X9875785Y-14286797D01*
X9875785Y-14286797D02*
X9856738Y-14277273D01*
X9856738Y-14277273D02*
X9847214Y-14267749D01*
X10151976Y-14086797D02*
X10056738Y-14086797D01*
X10056738Y-14086797D02*
X10047214Y-14182035D01*
X10047214Y-14182035D02*
X10056738Y-14172511D01*
X10056738Y-14172511D02*
X10075785Y-14162987D01*
X10075785Y-14162987D02*
X10123404Y-14162987D01*
X10123404Y-14162987D02*
X10142452Y-14172511D01*
X10142452Y-14172511D02*
X10151976Y-14182035D01*
X10151976Y-14182035D02*
X10161499Y-14201083D01*
X10161499Y-14201083D02*
X10161499Y-14248702D01*
X10161499Y-14248702D02*
X10151976Y-14267749D01*
X10151976Y-14267749D02*
X10142452Y-14277273D01*
X10142452Y-14277273D02*
X10123404Y-14286797D01*
X10123404Y-14286797D02*
X10075785Y-14286797D01*
X10075785Y-14286797D02*
X10056738Y-14277273D01*
X10056738Y-14277273D02*
X10047214Y-14267749D01*
X10332928Y-14153464D02*
X10332928Y-14286797D01*
X10285309Y-14077273D02*
X10237690Y-14220130D01*
X10237690Y-14220130D02*
X10361499Y-14220130D01*
X10428166Y-14086797D02*
X10428166Y-14124892D01*
X10504357Y-14086797D02*
X10504357Y-14124892D01*
X10799595Y-14362987D02*
X10790071Y-14353464D01*
X10790071Y-14353464D02*
X10771023Y-14324892D01*
X10771023Y-14324892D02*
X10761500Y-14305845D01*
X10761500Y-14305845D02*
X10751976Y-14277273D01*
X10751976Y-14277273D02*
X10742452Y-14229654D01*
X10742452Y-14229654D02*
X10742452Y-14191559D01*
X10742452Y-14191559D02*
X10751976Y-14143940D01*
X10751976Y-14143940D02*
X10761500Y-14115368D01*
X10761500Y-14115368D02*
X10771023Y-14096321D01*
X10771023Y-14096321D02*
X10790071Y-14067749D01*
X10790071Y-14067749D02*
X10799595Y-14058226D01*
X10961500Y-14086797D02*
X10923404Y-14086797D01*
X10923404Y-14086797D02*
X10904357Y-14096321D01*
X10904357Y-14096321D02*
X10894833Y-14105845D01*
X10894833Y-14105845D02*
X10875785Y-14134416D01*
X10875785Y-14134416D02*
X10866261Y-14172511D01*
X10866261Y-14172511D02*
X10866261Y-14248702D01*
X10866261Y-14248702D02*
X10875785Y-14267749D01*
X10875785Y-14267749D02*
X10885309Y-14277273D01*
X10885309Y-14277273D02*
X10904357Y-14286797D01*
X10904357Y-14286797D02*
X10942452Y-14286797D01*
X10942452Y-14286797D02*
X10961500Y-14277273D01*
X10961500Y-14277273D02*
X10971023Y-14267749D01*
X10971023Y-14267749D02*
X10980547Y-14248702D01*
X10980547Y-14248702D02*
X10980547Y-14201083D01*
X10980547Y-14201083D02*
X10971023Y-14182035D01*
X10971023Y-14182035D02*
X10961500Y-14172511D01*
X10961500Y-14172511D02*
X10942452Y-14162987D01*
X10942452Y-14162987D02*
X10904357Y-14162987D01*
X10904357Y-14162987D02*
X10885309Y-14172511D01*
X10885309Y-14172511D02*
X10875785Y-14182035D01*
X10875785Y-14182035D02*
X10866261Y-14201083D01*
X11218642Y-14286797D02*
X11218642Y-14086797D01*
X11304357Y-14286797D02*
X11304357Y-14182035D01*
X11304357Y-14182035D02*
X11294833Y-14162987D01*
X11294833Y-14162987D02*
X11275785Y-14153464D01*
X11275785Y-14153464D02*
X11247214Y-14153464D01*
X11247214Y-14153464D02*
X11228166Y-14162987D01*
X11228166Y-14162987D02*
X11218642Y-14172511D01*
X11428166Y-14286797D02*
X11409119Y-14277273D01*
X11409119Y-14277273D02*
X11399595Y-14267749D01*
X11399595Y-14267749D02*
X11390071Y-14248702D01*
X11390071Y-14248702D02*
X11390071Y-14191559D01*
X11390071Y-14191559D02*
X11399595Y-14172511D01*
X11399595Y-14172511D02*
X11409119Y-14162987D01*
X11409119Y-14162987D02*
X11428166Y-14153464D01*
X11428166Y-14153464D02*
X11456738Y-14153464D01*
X11456738Y-14153464D02*
X11475785Y-14162987D01*
X11475785Y-14162987D02*
X11485309Y-14172511D01*
X11485309Y-14172511D02*
X11494833Y-14191559D01*
X11494833Y-14191559D02*
X11494833Y-14248702D01*
X11494833Y-14248702D02*
X11485309Y-14267749D01*
X11485309Y-14267749D02*
X11475785Y-14277273D01*
X11475785Y-14277273D02*
X11456738Y-14286797D01*
X11456738Y-14286797D02*
X11428166Y-14286797D01*
X11609119Y-14286797D02*
X11590071Y-14277273D01*
X11590071Y-14277273D02*
X11580547Y-14258226D01*
X11580547Y-14258226D02*
X11580547Y-14086797D01*
X11761500Y-14277273D02*
X11742452Y-14286797D01*
X11742452Y-14286797D02*
X11704357Y-14286797D01*
X11704357Y-14286797D02*
X11685309Y-14277273D01*
X11685309Y-14277273D02*
X11675785Y-14258226D01*
X11675785Y-14258226D02*
X11675785Y-14182035D01*
X11675785Y-14182035D02*
X11685309Y-14162987D01*
X11685309Y-14162987D02*
X11704357Y-14153464D01*
X11704357Y-14153464D02*
X11742452Y-14153464D01*
X11742452Y-14153464D02*
X11761500Y-14162987D01*
X11761500Y-14162987D02*
X11771023Y-14182035D01*
X11771023Y-14182035D02*
X11771023Y-14201083D01*
X11771023Y-14201083D02*
X11675785Y-14220130D01*
X11847214Y-14277273D02*
X11866261Y-14286797D01*
X11866261Y-14286797D02*
X11904357Y-14286797D01*
X11904357Y-14286797D02*
X11923404Y-14277273D01*
X11923404Y-14277273D02*
X11932928Y-14258226D01*
X11932928Y-14258226D02*
X11932928Y-14248702D01*
X11932928Y-14248702D02*
X11923404Y-14229654D01*
X11923404Y-14229654D02*
X11904357Y-14220130D01*
X11904357Y-14220130D02*
X11875785Y-14220130D01*
X11875785Y-14220130D02*
X11856738Y-14210607D01*
X11856738Y-14210607D02*
X11847214Y-14191559D01*
X11847214Y-14191559D02*
X11847214Y-14182035D01*
X11847214Y-14182035D02*
X11856738Y-14162987D01*
X11856738Y-14162987D02*
X11875785Y-14153464D01*
X11875785Y-14153464D02*
X11904357Y-14153464D01*
X11904357Y-14153464D02*
X11923404Y-14162987D01*
X11999595Y-14362987D02*
X12009119Y-14353464D01*
X12009119Y-14353464D02*
X12028166Y-14324892D01*
X12028166Y-14324892D02*
X12037690Y-14305845D01*
X12037690Y-14305845D02*
X12047214Y-14277273D01*
X12047214Y-14277273D02*
X12056738Y-14229654D01*
X12056738Y-14229654D02*
X12056738Y-14191559D01*
X12056738Y-14191559D02*
X12047214Y-14143940D01*
X12047214Y-14143940D02*
X12037690Y-14115368D01*
X12037690Y-14115368D02*
X12028166Y-14096321D01*
X12028166Y-14096321D02*
X12009119Y-14067749D01*
X12009119Y-14067749D02*
X11999595Y-14058226D01*
D12*
X7209888Y-14494669D02*
X7209888Y-14423958D01*
X7139176Y-14423958D01*
X7139176Y-14494669D01*
X7209888Y-14494669D01*
D11*
X7590071Y-14550797D02*
X7475785Y-14550797D01*
X7532928Y-14550797D02*
X7532928Y-14350797D01*
X7532928Y-14350797D02*
X7513880Y-14379368D01*
X7513880Y-14379368D02*
X7494832Y-14398416D01*
X7494832Y-14398416D02*
X7475785Y-14407940D01*
X7675785Y-14531749D02*
X7685309Y-14541273D01*
X7685309Y-14541273D02*
X7675785Y-14550797D01*
X7675785Y-14550797D02*
X7666261Y-14541273D01*
X7666261Y-14541273D02*
X7675785Y-14531749D01*
X7675785Y-14531749D02*
X7675785Y-14550797D01*
X7809118Y-14350797D02*
X7828166Y-14350797D01*
X7828166Y-14350797D02*
X7847213Y-14360321D01*
X7847213Y-14360321D02*
X7856737Y-14369845D01*
X7856737Y-14369845D02*
X7866261Y-14388892D01*
X7866261Y-14388892D02*
X7875785Y-14426987D01*
X7875785Y-14426987D02*
X7875785Y-14474607D01*
X7875785Y-14474607D02*
X7866261Y-14512702D01*
X7866261Y-14512702D02*
X7856737Y-14531749D01*
X7856737Y-14531749D02*
X7847213Y-14541273D01*
X7847213Y-14541273D02*
X7828166Y-14550797D01*
X7828166Y-14550797D02*
X7809118Y-14550797D01*
X7809118Y-14550797D02*
X7790071Y-14541273D01*
X7790071Y-14541273D02*
X7780547Y-14531749D01*
X7780547Y-14531749D02*
X7771023Y-14512702D01*
X7771023Y-14512702D02*
X7761499Y-14474607D01*
X7761499Y-14474607D02*
X7761499Y-14426987D01*
X7761499Y-14426987D02*
X7771023Y-14388892D01*
X7771023Y-14388892D02*
X7780547Y-14369845D01*
X7780547Y-14369845D02*
X7790071Y-14360321D01*
X7790071Y-14360321D02*
X7809118Y-14350797D01*
X7999594Y-14350797D02*
X8018642Y-14350797D01*
X8018642Y-14350797D02*
X8037690Y-14360321D01*
X8037690Y-14360321D02*
X8047213Y-14369845D01*
X8047213Y-14369845D02*
X8056737Y-14388892D01*
X8056737Y-14388892D02*
X8066261Y-14426987D01*
X8066261Y-14426987D02*
X8066261Y-14474607D01*
X8066261Y-14474607D02*
X8056737Y-14512702D01*
X8056737Y-14512702D02*
X8047213Y-14531749D01*
X8047213Y-14531749D02*
X8037690Y-14541273D01*
X8037690Y-14541273D02*
X8018642Y-14550797D01*
X8018642Y-14550797D02*
X7999594Y-14550797D01*
X7999594Y-14550797D02*
X7980547Y-14541273D01*
X7980547Y-14541273D02*
X7971023Y-14531749D01*
X7971023Y-14531749D02*
X7961499Y-14512702D01*
X7961499Y-14512702D02*
X7951975Y-14474607D01*
X7951975Y-14474607D02*
X7951975Y-14426987D01*
X7951975Y-14426987D02*
X7961499Y-14388892D01*
X7961499Y-14388892D02*
X7971023Y-14369845D01*
X7971023Y-14369845D02*
X7980547Y-14360321D01*
X7980547Y-14360321D02*
X7999594Y-14350797D01*
X8190071Y-14350797D02*
X8209118Y-14350797D01*
X8209118Y-14350797D02*
X8228166Y-14360321D01*
X8228166Y-14360321D02*
X8237690Y-14369845D01*
X8237690Y-14369845D02*
X8247213Y-14388892D01*
X8247213Y-14388892D02*
X8256737Y-14426987D01*
X8256737Y-14426987D02*
X8256737Y-14474607D01*
X8256737Y-14474607D02*
X8247213Y-14512702D01*
X8247213Y-14512702D02*
X8237690Y-14531749D01*
X8237690Y-14531749D02*
X8228166Y-14541273D01*
X8228166Y-14541273D02*
X8209118Y-14550797D01*
X8209118Y-14550797D02*
X8190071Y-14550797D01*
X8190071Y-14550797D02*
X8171023Y-14541273D01*
X8171023Y-14541273D02*
X8161499Y-14531749D01*
X8161499Y-14531749D02*
X8151975Y-14512702D01*
X8151975Y-14512702D02*
X8142452Y-14474607D01*
X8142452Y-14474607D02*
X8142452Y-14426987D01*
X8142452Y-14426987D02*
X8151975Y-14388892D01*
X8151975Y-14388892D02*
X8161499Y-14369845D01*
X8161499Y-14369845D02*
X8171023Y-14360321D01*
X8171023Y-14360321D02*
X8190071Y-14350797D01*
X8342452Y-14550797D02*
X8342452Y-14417464D01*
X8342452Y-14436511D02*
X8351975Y-14426987D01*
X8351975Y-14426987D02*
X8371023Y-14417464D01*
X8371023Y-14417464D02*
X8399595Y-14417464D01*
X8399595Y-14417464D02*
X8418642Y-14426987D01*
X8418642Y-14426987D02*
X8428166Y-14446035D01*
X8428166Y-14446035D02*
X8428166Y-14550797D01*
X8428166Y-14446035D02*
X8437690Y-14426987D01*
X8437690Y-14426987D02*
X8456737Y-14417464D01*
X8456737Y-14417464D02*
X8485309Y-14417464D01*
X8485309Y-14417464D02*
X8504356Y-14426987D01*
X8504356Y-14426987D02*
X8513880Y-14446035D01*
X8513880Y-14446035D02*
X8513880Y-14550797D01*
X8609118Y-14550797D02*
X8609118Y-14417464D01*
X8609118Y-14436511D02*
X8618642Y-14426987D01*
X8618642Y-14426987D02*
X8637690Y-14417464D01*
X8637690Y-14417464D02*
X8666261Y-14417464D01*
X8666261Y-14417464D02*
X8685309Y-14426987D01*
X8685309Y-14426987D02*
X8694833Y-14446035D01*
X8694833Y-14446035D02*
X8694833Y-14550797D01*
X8694833Y-14446035D02*
X8704356Y-14426987D01*
X8704356Y-14426987D02*
X8723404Y-14417464D01*
X8723404Y-14417464D02*
X8751975Y-14417464D01*
X8751975Y-14417464D02*
X8771023Y-14426987D01*
X8771023Y-14426987D02*
X8780547Y-14446035D01*
X8780547Y-14446035D02*
X8780547Y-14550797D01*
X9171023Y-14341273D02*
X8999595Y-14598416D01*
X9428166Y-14350797D02*
X9447214Y-14350797D01*
X9447214Y-14350797D02*
X9466261Y-14360321D01*
X9466261Y-14360321D02*
X9475785Y-14369845D01*
X9475785Y-14369845D02*
X9485309Y-14388892D01*
X9485309Y-14388892D02*
X9494833Y-14426987D01*
X9494833Y-14426987D02*
X9494833Y-14474607D01*
X9494833Y-14474607D02*
X9485309Y-14512702D01*
X9485309Y-14512702D02*
X9475785Y-14531749D01*
X9475785Y-14531749D02*
X9466261Y-14541273D01*
X9466261Y-14541273D02*
X9447214Y-14550797D01*
X9447214Y-14550797D02*
X9428166Y-14550797D01*
X9428166Y-14550797D02*
X9409118Y-14541273D01*
X9409118Y-14541273D02*
X9399595Y-14531749D01*
X9399595Y-14531749D02*
X9390071Y-14512702D01*
X9390071Y-14512702D02*
X9380547Y-14474607D01*
X9380547Y-14474607D02*
X9380547Y-14426987D01*
X9380547Y-14426987D02*
X9390071Y-14388892D01*
X9390071Y-14388892D02*
X9399595Y-14369845D01*
X9399595Y-14369845D02*
X9409118Y-14360321D01*
X9409118Y-14360321D02*
X9428166Y-14350797D01*
X9580547Y-14531749D02*
X9590071Y-14541273D01*
X9590071Y-14541273D02*
X9580547Y-14550797D01*
X9580547Y-14550797D02*
X9571023Y-14541273D01*
X9571023Y-14541273D02*
X9580547Y-14531749D01*
X9580547Y-14531749D02*
X9580547Y-14550797D01*
X9713880Y-14350797D02*
X9732928Y-14350797D01*
X9732928Y-14350797D02*
X9751976Y-14360321D01*
X9751976Y-14360321D02*
X9761499Y-14369845D01*
X9761499Y-14369845D02*
X9771023Y-14388892D01*
X9771023Y-14388892D02*
X9780547Y-14426987D01*
X9780547Y-14426987D02*
X9780547Y-14474607D01*
X9780547Y-14474607D02*
X9771023Y-14512702D01*
X9771023Y-14512702D02*
X9761499Y-14531749D01*
X9761499Y-14531749D02*
X9751976Y-14541273D01*
X9751976Y-14541273D02*
X9732928Y-14550797D01*
X9732928Y-14550797D02*
X9713880Y-14550797D01*
X9713880Y-14550797D02*
X9694833Y-14541273D01*
X9694833Y-14541273D02*
X9685309Y-14531749D01*
X9685309Y-14531749D02*
X9675785Y-14512702D01*
X9675785Y-14512702D02*
X9666261Y-14474607D01*
X9666261Y-14474607D02*
X9666261Y-14426987D01*
X9666261Y-14426987D02*
X9675785Y-14388892D01*
X9675785Y-14388892D02*
X9685309Y-14369845D01*
X9685309Y-14369845D02*
X9694833Y-14360321D01*
X9694833Y-14360321D02*
X9713880Y-14350797D01*
X9847214Y-14350797D02*
X9971023Y-14350797D01*
X9971023Y-14350797D02*
X9904357Y-14426987D01*
X9904357Y-14426987D02*
X9932928Y-14426987D01*
X9932928Y-14426987D02*
X9951976Y-14436511D01*
X9951976Y-14436511D02*
X9961499Y-14446035D01*
X9961499Y-14446035D02*
X9971023Y-14465083D01*
X9971023Y-14465083D02*
X9971023Y-14512702D01*
X9971023Y-14512702D02*
X9961499Y-14531749D01*
X9961499Y-14531749D02*
X9951976Y-14541273D01*
X9951976Y-14541273D02*
X9932928Y-14550797D01*
X9932928Y-14550797D02*
X9875785Y-14550797D01*
X9875785Y-14550797D02*
X9856738Y-14541273D01*
X9856738Y-14541273D02*
X9847214Y-14531749D01*
X10066261Y-14550797D02*
X10104357Y-14550797D01*
X10104357Y-14550797D02*
X10123404Y-14541273D01*
X10123404Y-14541273D02*
X10132928Y-14531749D01*
X10132928Y-14531749D02*
X10151976Y-14503178D01*
X10151976Y-14503178D02*
X10161499Y-14465083D01*
X10161499Y-14465083D02*
X10161499Y-14388892D01*
X10161499Y-14388892D02*
X10151976Y-14369845D01*
X10151976Y-14369845D02*
X10142452Y-14360321D01*
X10142452Y-14360321D02*
X10123404Y-14350797D01*
X10123404Y-14350797D02*
X10085309Y-14350797D01*
X10085309Y-14350797D02*
X10066261Y-14360321D01*
X10066261Y-14360321D02*
X10056738Y-14369845D01*
X10056738Y-14369845D02*
X10047214Y-14388892D01*
X10047214Y-14388892D02*
X10047214Y-14436511D01*
X10047214Y-14436511D02*
X10056738Y-14455559D01*
X10056738Y-14455559D02*
X10066261Y-14465083D01*
X10066261Y-14465083D02*
X10085309Y-14474607D01*
X10085309Y-14474607D02*
X10123404Y-14474607D01*
X10123404Y-14474607D02*
X10142452Y-14465083D01*
X10142452Y-14465083D02*
X10151976Y-14455559D01*
X10151976Y-14455559D02*
X10161499Y-14436511D01*
X10332928Y-14417464D02*
X10332928Y-14550797D01*
X10285309Y-14341273D02*
X10237690Y-14484130D01*
X10237690Y-14484130D02*
X10361499Y-14484130D01*
X10428166Y-14350797D02*
X10428166Y-14388892D01*
X10504357Y-14350797D02*
X10504357Y-14388892D01*
X10799595Y-14626987D02*
X10790071Y-14617464D01*
X10790071Y-14617464D02*
X10771023Y-14588892D01*
X10771023Y-14588892D02*
X10761500Y-14569845D01*
X10761500Y-14569845D02*
X10751976Y-14541273D01*
X10751976Y-14541273D02*
X10742452Y-14493654D01*
X10742452Y-14493654D02*
X10742452Y-14455559D01*
X10742452Y-14455559D02*
X10751976Y-14407940D01*
X10751976Y-14407940D02*
X10761500Y-14379368D01*
X10761500Y-14379368D02*
X10771023Y-14360321D01*
X10771023Y-14360321D02*
X10790071Y-14331749D01*
X10790071Y-14331749D02*
X10799595Y-14322226D01*
X10980547Y-14550797D02*
X10866261Y-14550797D01*
X10923404Y-14550797D02*
X10923404Y-14350797D01*
X10923404Y-14350797D02*
X10904357Y-14379368D01*
X10904357Y-14379368D02*
X10885309Y-14398416D01*
X10885309Y-14398416D02*
X10866261Y-14407940D01*
X11151976Y-14350797D02*
X11113880Y-14350797D01*
X11113880Y-14350797D02*
X11094833Y-14360321D01*
X11094833Y-14360321D02*
X11085309Y-14369845D01*
X11085309Y-14369845D02*
X11066261Y-14398416D01*
X11066261Y-14398416D02*
X11056738Y-14436511D01*
X11056738Y-14436511D02*
X11056738Y-14512702D01*
X11056738Y-14512702D02*
X11066261Y-14531749D01*
X11066261Y-14531749D02*
X11075785Y-14541273D01*
X11075785Y-14541273D02*
X11094833Y-14550797D01*
X11094833Y-14550797D02*
X11132928Y-14550797D01*
X11132928Y-14550797D02*
X11151976Y-14541273D01*
X11151976Y-14541273D02*
X11161500Y-14531749D01*
X11161500Y-14531749D02*
X11171023Y-14512702D01*
X11171023Y-14512702D02*
X11171023Y-14465083D01*
X11171023Y-14465083D02*
X11161500Y-14446035D01*
X11161500Y-14446035D02*
X11151976Y-14436511D01*
X11151976Y-14436511D02*
X11132928Y-14426987D01*
X11132928Y-14426987D02*
X11094833Y-14426987D01*
X11094833Y-14426987D02*
X11075785Y-14436511D01*
X11075785Y-14436511D02*
X11066261Y-14446035D01*
X11066261Y-14446035D02*
X11056738Y-14465083D01*
X11409119Y-14550797D02*
X11409119Y-14350797D01*
X11494833Y-14550797D02*
X11494833Y-14446035D01*
X11494833Y-14446035D02*
X11485309Y-14426987D01*
X11485309Y-14426987D02*
X11466261Y-14417464D01*
X11466261Y-14417464D02*
X11437690Y-14417464D01*
X11437690Y-14417464D02*
X11418642Y-14426987D01*
X11418642Y-14426987D02*
X11409119Y-14436511D01*
X11618642Y-14550797D02*
X11599595Y-14541273D01*
X11599595Y-14541273D02*
X11590071Y-14531749D01*
X11590071Y-14531749D02*
X11580547Y-14512702D01*
X11580547Y-14512702D02*
X11580547Y-14455559D01*
X11580547Y-14455559D02*
X11590071Y-14436511D01*
X11590071Y-14436511D02*
X11599595Y-14426987D01*
X11599595Y-14426987D02*
X11618642Y-14417464D01*
X11618642Y-14417464D02*
X11647214Y-14417464D01*
X11647214Y-14417464D02*
X11666261Y-14426987D01*
X11666261Y-14426987D02*
X11675785Y-14436511D01*
X11675785Y-14436511D02*
X11685309Y-14455559D01*
X11685309Y-14455559D02*
X11685309Y-14512702D01*
X11685309Y-14512702D02*
X11675785Y-14531749D01*
X11675785Y-14531749D02*
X11666261Y-14541273D01*
X11666261Y-14541273D02*
X11647214Y-14550797D01*
X11647214Y-14550797D02*
X11618642Y-14550797D01*
X11799595Y-14550797D02*
X11780547Y-14541273D01*
X11780547Y-14541273D02*
X11771023Y-14522226D01*
X11771023Y-14522226D02*
X11771023Y-14350797D01*
X11951976Y-14541273D02*
X11932928Y-14550797D01*
X11932928Y-14550797D02*
X11894833Y-14550797D01*
X11894833Y-14550797D02*
X11875785Y-14541273D01*
X11875785Y-14541273D02*
X11866261Y-14522226D01*
X11866261Y-14522226D02*
X11866261Y-14446035D01*
X11866261Y-14446035D02*
X11875785Y-14426987D01*
X11875785Y-14426987D02*
X11894833Y-14417464D01*
X11894833Y-14417464D02*
X11932928Y-14417464D01*
X11932928Y-14417464D02*
X11951976Y-14426987D01*
X11951976Y-14426987D02*
X11961500Y-14446035D01*
X11961500Y-14446035D02*
X11961500Y-14465083D01*
X11961500Y-14465083D02*
X11866261Y-14484130D01*
X12037690Y-14541273D02*
X12056738Y-14550797D01*
X12056738Y-14550797D02*
X12094833Y-14550797D01*
X12094833Y-14550797D02*
X12113881Y-14541273D01*
X12113881Y-14541273D02*
X12123404Y-14522226D01*
X12123404Y-14522226D02*
X12123404Y-14512702D01*
X12123404Y-14512702D02*
X12113881Y-14493654D01*
X12113881Y-14493654D02*
X12094833Y-14484130D01*
X12094833Y-14484130D02*
X12066261Y-14484130D01*
X12066261Y-14484130D02*
X12047214Y-14474607D01*
X12047214Y-14474607D02*
X12037690Y-14455559D01*
X12037690Y-14455559D02*
X12037690Y-14446035D01*
X12037690Y-14446035D02*
X12047214Y-14426987D01*
X12047214Y-14426987D02*
X12066261Y-14417464D01*
X12066261Y-14417464D02*
X12094833Y-14417464D01*
X12094833Y-14417464D02*
X12113881Y-14426987D01*
X12190071Y-14626987D02*
X12199595Y-14617464D01*
X12199595Y-14617464D02*
X12218642Y-14588892D01*
X12218642Y-14588892D02*
X12228166Y-14569845D01*
X12228166Y-14569845D02*
X12237690Y-14541273D01*
X12237690Y-14541273D02*
X12247214Y-14493654D01*
X12247214Y-14493654D02*
X12247214Y-14455559D01*
X12247214Y-14455559D02*
X12237690Y-14407940D01*
X12237690Y-14407940D02*
X12228166Y-14379368D01*
X12228166Y-14379368D02*
X12218642Y-14360321D01*
X12218642Y-14360321D02*
X12199595Y-14331749D01*
X12199595Y-14331749D02*
X12190071Y-14322226D01*
D13*
X7173732Y-14774113D02*
X7224532Y-14723313D01*
X7173732Y-14672513D01*
X7122932Y-14723313D01*
X7173732Y-14774113D01*
D11*
X7590071Y-14814797D02*
X7475785Y-14814797D01*
X7532928Y-14814797D02*
X7532928Y-14614797D01*
X7532928Y-14614797D02*
X7513880Y-14643368D01*
X7513880Y-14643368D02*
X7494832Y-14662416D01*
X7494832Y-14662416D02*
X7475785Y-14671940D01*
X7675785Y-14795749D02*
X7685309Y-14805273D01*
X7685309Y-14805273D02*
X7675785Y-14814797D01*
X7675785Y-14814797D02*
X7666261Y-14805273D01*
X7666261Y-14805273D02*
X7675785Y-14795749D01*
X7675785Y-14795749D02*
X7675785Y-14814797D01*
X7809118Y-14614797D02*
X7828166Y-14614797D01*
X7828166Y-14614797D02*
X7847213Y-14624321D01*
X7847213Y-14624321D02*
X7856737Y-14633845D01*
X7856737Y-14633845D02*
X7866261Y-14652892D01*
X7866261Y-14652892D02*
X7875785Y-14690987D01*
X7875785Y-14690987D02*
X7875785Y-14738607D01*
X7875785Y-14738607D02*
X7866261Y-14776702D01*
X7866261Y-14776702D02*
X7856737Y-14795749D01*
X7856737Y-14795749D02*
X7847213Y-14805273D01*
X7847213Y-14805273D02*
X7828166Y-14814797D01*
X7828166Y-14814797D02*
X7809118Y-14814797D01*
X7809118Y-14814797D02*
X7790071Y-14805273D01*
X7790071Y-14805273D02*
X7780547Y-14795749D01*
X7780547Y-14795749D02*
X7771023Y-14776702D01*
X7771023Y-14776702D02*
X7761499Y-14738607D01*
X7761499Y-14738607D02*
X7761499Y-14690987D01*
X7761499Y-14690987D02*
X7771023Y-14652892D01*
X7771023Y-14652892D02*
X7780547Y-14633845D01*
X7780547Y-14633845D02*
X7790071Y-14624321D01*
X7790071Y-14624321D02*
X7809118Y-14614797D01*
X8066261Y-14814797D02*
X7951975Y-14814797D01*
X8009118Y-14814797D02*
X8009118Y-14614797D01*
X8009118Y-14614797D02*
X7990071Y-14643368D01*
X7990071Y-14643368D02*
X7971023Y-14662416D01*
X7971023Y-14662416D02*
X7951975Y-14671940D01*
X8237690Y-14614797D02*
X8199594Y-14614797D01*
X8199594Y-14614797D02*
X8180547Y-14624321D01*
X8180547Y-14624321D02*
X8171023Y-14633845D01*
X8171023Y-14633845D02*
X8151975Y-14662416D01*
X8151975Y-14662416D02*
X8142452Y-14700511D01*
X8142452Y-14700511D02*
X8142452Y-14776702D01*
X8142452Y-14776702D02*
X8151975Y-14795749D01*
X8151975Y-14795749D02*
X8161499Y-14805273D01*
X8161499Y-14805273D02*
X8180547Y-14814797D01*
X8180547Y-14814797D02*
X8218642Y-14814797D01*
X8218642Y-14814797D02*
X8237690Y-14805273D01*
X8237690Y-14805273D02*
X8247213Y-14795749D01*
X8247213Y-14795749D02*
X8256737Y-14776702D01*
X8256737Y-14776702D02*
X8256737Y-14729083D01*
X8256737Y-14729083D02*
X8247213Y-14710035D01*
X8247213Y-14710035D02*
X8237690Y-14700511D01*
X8237690Y-14700511D02*
X8218642Y-14690987D01*
X8218642Y-14690987D02*
X8180547Y-14690987D01*
X8180547Y-14690987D02*
X8161499Y-14700511D01*
X8161499Y-14700511D02*
X8151975Y-14710035D01*
X8151975Y-14710035D02*
X8142452Y-14729083D01*
X8342452Y-14814797D02*
X8342452Y-14681464D01*
X8342452Y-14700511D02*
X8351975Y-14690987D01*
X8351975Y-14690987D02*
X8371023Y-14681464D01*
X8371023Y-14681464D02*
X8399595Y-14681464D01*
X8399595Y-14681464D02*
X8418642Y-14690987D01*
X8418642Y-14690987D02*
X8428166Y-14710035D01*
X8428166Y-14710035D02*
X8428166Y-14814797D01*
X8428166Y-14710035D02*
X8437690Y-14690987D01*
X8437690Y-14690987D02*
X8456737Y-14681464D01*
X8456737Y-14681464D02*
X8485309Y-14681464D01*
X8485309Y-14681464D02*
X8504356Y-14690987D01*
X8504356Y-14690987D02*
X8513880Y-14710035D01*
X8513880Y-14710035D02*
X8513880Y-14814797D01*
X8609118Y-14814797D02*
X8609118Y-14681464D01*
X8609118Y-14700511D02*
X8618642Y-14690987D01*
X8618642Y-14690987D02*
X8637690Y-14681464D01*
X8637690Y-14681464D02*
X8666261Y-14681464D01*
X8666261Y-14681464D02*
X8685309Y-14690987D01*
X8685309Y-14690987D02*
X8694833Y-14710035D01*
X8694833Y-14710035D02*
X8694833Y-14814797D01*
X8694833Y-14710035D02*
X8704356Y-14690987D01*
X8704356Y-14690987D02*
X8723404Y-14681464D01*
X8723404Y-14681464D02*
X8751975Y-14681464D01*
X8751975Y-14681464D02*
X8771023Y-14690987D01*
X8771023Y-14690987D02*
X8780547Y-14710035D01*
X8780547Y-14710035D02*
X8780547Y-14814797D01*
X9171023Y-14605273D02*
X8999595Y-14862416D01*
X9428166Y-14614797D02*
X9447214Y-14614797D01*
X9447214Y-14614797D02*
X9466261Y-14624321D01*
X9466261Y-14624321D02*
X9475785Y-14633845D01*
X9475785Y-14633845D02*
X9485309Y-14652892D01*
X9485309Y-14652892D02*
X9494833Y-14690987D01*
X9494833Y-14690987D02*
X9494833Y-14738607D01*
X9494833Y-14738607D02*
X9485309Y-14776702D01*
X9485309Y-14776702D02*
X9475785Y-14795749D01*
X9475785Y-14795749D02*
X9466261Y-14805273D01*
X9466261Y-14805273D02*
X9447214Y-14814797D01*
X9447214Y-14814797D02*
X9428166Y-14814797D01*
X9428166Y-14814797D02*
X9409118Y-14805273D01*
X9409118Y-14805273D02*
X9399595Y-14795749D01*
X9399595Y-14795749D02*
X9390071Y-14776702D01*
X9390071Y-14776702D02*
X9380547Y-14738607D01*
X9380547Y-14738607D02*
X9380547Y-14690987D01*
X9380547Y-14690987D02*
X9390071Y-14652892D01*
X9390071Y-14652892D02*
X9399595Y-14633845D01*
X9399595Y-14633845D02*
X9409118Y-14624321D01*
X9409118Y-14624321D02*
X9428166Y-14614797D01*
X9580547Y-14795749D02*
X9590071Y-14805273D01*
X9590071Y-14805273D02*
X9580547Y-14814797D01*
X9580547Y-14814797D02*
X9571023Y-14805273D01*
X9571023Y-14805273D02*
X9580547Y-14795749D01*
X9580547Y-14795749D02*
X9580547Y-14814797D01*
X9713880Y-14614797D02*
X9732928Y-14614797D01*
X9732928Y-14614797D02*
X9751976Y-14624321D01*
X9751976Y-14624321D02*
X9761499Y-14633845D01*
X9761499Y-14633845D02*
X9771023Y-14652892D01*
X9771023Y-14652892D02*
X9780547Y-14690987D01*
X9780547Y-14690987D02*
X9780547Y-14738607D01*
X9780547Y-14738607D02*
X9771023Y-14776702D01*
X9771023Y-14776702D02*
X9761499Y-14795749D01*
X9761499Y-14795749D02*
X9751976Y-14805273D01*
X9751976Y-14805273D02*
X9732928Y-14814797D01*
X9732928Y-14814797D02*
X9713880Y-14814797D01*
X9713880Y-14814797D02*
X9694833Y-14805273D01*
X9694833Y-14805273D02*
X9685309Y-14795749D01*
X9685309Y-14795749D02*
X9675785Y-14776702D01*
X9675785Y-14776702D02*
X9666261Y-14738607D01*
X9666261Y-14738607D02*
X9666261Y-14690987D01*
X9666261Y-14690987D02*
X9675785Y-14652892D01*
X9675785Y-14652892D02*
X9685309Y-14633845D01*
X9685309Y-14633845D02*
X9694833Y-14624321D01*
X9694833Y-14624321D02*
X9713880Y-14614797D01*
X9951976Y-14681464D02*
X9951976Y-14814797D01*
X9904357Y-14605273D02*
X9856738Y-14748130D01*
X9856738Y-14748130D02*
X9980547Y-14748130D01*
X10094833Y-14614797D02*
X10113880Y-14614797D01*
X10113880Y-14614797D02*
X10132928Y-14624321D01*
X10132928Y-14624321D02*
X10142452Y-14633845D01*
X10142452Y-14633845D02*
X10151976Y-14652892D01*
X10151976Y-14652892D02*
X10161499Y-14690987D01*
X10161499Y-14690987D02*
X10161499Y-14738607D01*
X10161499Y-14738607D02*
X10151976Y-14776702D01*
X10151976Y-14776702D02*
X10142452Y-14795749D01*
X10142452Y-14795749D02*
X10132928Y-14805273D01*
X10132928Y-14805273D02*
X10113880Y-14814797D01*
X10113880Y-14814797D02*
X10094833Y-14814797D01*
X10094833Y-14814797D02*
X10075785Y-14805273D01*
X10075785Y-14805273D02*
X10066261Y-14795749D01*
X10066261Y-14795749D02*
X10056738Y-14776702D01*
X10056738Y-14776702D02*
X10047214Y-14738607D01*
X10047214Y-14738607D02*
X10047214Y-14690987D01*
X10047214Y-14690987D02*
X10056738Y-14652892D01*
X10056738Y-14652892D02*
X10066261Y-14633845D01*
X10066261Y-14633845D02*
X10075785Y-14624321D01*
X10075785Y-14624321D02*
X10094833Y-14614797D01*
X10285309Y-14614797D02*
X10304357Y-14614797D01*
X10304357Y-14614797D02*
X10323404Y-14624321D01*
X10323404Y-14624321D02*
X10332928Y-14633845D01*
X10332928Y-14633845D02*
X10342452Y-14652892D01*
X10342452Y-14652892D02*
X10351976Y-14690987D01*
X10351976Y-14690987D02*
X10351976Y-14738607D01*
X10351976Y-14738607D02*
X10342452Y-14776702D01*
X10342452Y-14776702D02*
X10332928Y-14795749D01*
X10332928Y-14795749D02*
X10323404Y-14805273D01*
X10323404Y-14805273D02*
X10304357Y-14814797D01*
X10304357Y-14814797D02*
X10285309Y-14814797D01*
X10285309Y-14814797D02*
X10266261Y-14805273D01*
X10266261Y-14805273D02*
X10256738Y-14795749D01*
X10256738Y-14795749D02*
X10247214Y-14776702D01*
X10247214Y-14776702D02*
X10237690Y-14738607D01*
X10237690Y-14738607D02*
X10237690Y-14690987D01*
X10237690Y-14690987D02*
X10247214Y-14652892D01*
X10247214Y-14652892D02*
X10256738Y-14633845D01*
X10256738Y-14633845D02*
X10266261Y-14624321D01*
X10266261Y-14624321D02*
X10285309Y-14614797D01*
X10428166Y-14614797D02*
X10428166Y-14652892D01*
X10504357Y-14614797D02*
X10504357Y-14652892D01*
X10799595Y-14890987D02*
X10790071Y-14881464D01*
X10790071Y-14881464D02*
X10771023Y-14852892D01*
X10771023Y-14852892D02*
X10761500Y-14833845D01*
X10761500Y-14833845D02*
X10751976Y-14805273D01*
X10751976Y-14805273D02*
X10742452Y-14757654D01*
X10742452Y-14757654D02*
X10742452Y-14719559D01*
X10742452Y-14719559D02*
X10751976Y-14671940D01*
X10751976Y-14671940D02*
X10761500Y-14643368D01*
X10761500Y-14643368D02*
X10771023Y-14624321D01*
X10771023Y-14624321D02*
X10790071Y-14595749D01*
X10790071Y-14595749D02*
X10799595Y-14586226D01*
X10904357Y-14700511D02*
X10885309Y-14690987D01*
X10885309Y-14690987D02*
X10875785Y-14681464D01*
X10875785Y-14681464D02*
X10866261Y-14662416D01*
X10866261Y-14662416D02*
X10866261Y-14652892D01*
X10866261Y-14652892D02*
X10875785Y-14633845D01*
X10875785Y-14633845D02*
X10885309Y-14624321D01*
X10885309Y-14624321D02*
X10904357Y-14614797D01*
X10904357Y-14614797D02*
X10942452Y-14614797D01*
X10942452Y-14614797D02*
X10961500Y-14624321D01*
X10961500Y-14624321D02*
X10971023Y-14633845D01*
X10971023Y-14633845D02*
X10980547Y-14652892D01*
X10980547Y-14652892D02*
X10980547Y-14662416D01*
X10980547Y-14662416D02*
X10971023Y-14681464D01*
X10971023Y-14681464D02*
X10961500Y-14690987D01*
X10961500Y-14690987D02*
X10942452Y-14700511D01*
X10942452Y-14700511D02*
X10904357Y-14700511D01*
X10904357Y-14700511D02*
X10885309Y-14710035D01*
X10885309Y-14710035D02*
X10875785Y-14719559D01*
X10875785Y-14719559D02*
X10866261Y-14738607D01*
X10866261Y-14738607D02*
X10866261Y-14776702D01*
X10866261Y-14776702D02*
X10875785Y-14795749D01*
X10875785Y-14795749D02*
X10885309Y-14805273D01*
X10885309Y-14805273D02*
X10904357Y-14814797D01*
X10904357Y-14814797D02*
X10942452Y-14814797D01*
X10942452Y-14814797D02*
X10961500Y-14805273D01*
X10961500Y-14805273D02*
X10971023Y-14795749D01*
X10971023Y-14795749D02*
X10980547Y-14776702D01*
X10980547Y-14776702D02*
X10980547Y-14738607D01*
X10980547Y-14738607D02*
X10971023Y-14719559D01*
X10971023Y-14719559D02*
X10961500Y-14710035D01*
X10961500Y-14710035D02*
X10942452Y-14700511D01*
X11218642Y-14814797D02*
X11218642Y-14614797D01*
X11304357Y-14814797D02*
X11304357Y-14710035D01*
X11304357Y-14710035D02*
X11294833Y-14690987D01*
X11294833Y-14690987D02*
X11275785Y-14681464D01*
X11275785Y-14681464D02*
X11247214Y-14681464D01*
X11247214Y-14681464D02*
X11228166Y-14690987D01*
X11228166Y-14690987D02*
X11218642Y-14700511D01*
X11428166Y-14814797D02*
X11409119Y-14805273D01*
X11409119Y-14805273D02*
X11399595Y-14795749D01*
X11399595Y-14795749D02*
X11390071Y-14776702D01*
X11390071Y-14776702D02*
X11390071Y-14719559D01*
X11390071Y-14719559D02*
X11399595Y-14700511D01*
X11399595Y-14700511D02*
X11409119Y-14690987D01*
X11409119Y-14690987D02*
X11428166Y-14681464D01*
X11428166Y-14681464D02*
X11456738Y-14681464D01*
X11456738Y-14681464D02*
X11475785Y-14690987D01*
X11475785Y-14690987D02*
X11485309Y-14700511D01*
X11485309Y-14700511D02*
X11494833Y-14719559D01*
X11494833Y-14719559D02*
X11494833Y-14776702D01*
X11494833Y-14776702D02*
X11485309Y-14795749D01*
X11485309Y-14795749D02*
X11475785Y-14805273D01*
X11475785Y-14805273D02*
X11456738Y-14814797D01*
X11456738Y-14814797D02*
X11428166Y-14814797D01*
X11609119Y-14814797D02*
X11590071Y-14805273D01*
X11590071Y-14805273D02*
X11580547Y-14786226D01*
X11580547Y-14786226D02*
X11580547Y-14614797D01*
X11761500Y-14805273D02*
X11742452Y-14814797D01*
X11742452Y-14814797D02*
X11704357Y-14814797D01*
X11704357Y-14814797D02*
X11685309Y-14805273D01*
X11685309Y-14805273D02*
X11675785Y-14786226D01*
X11675785Y-14786226D02*
X11675785Y-14710035D01*
X11675785Y-14710035D02*
X11685309Y-14690987D01*
X11685309Y-14690987D02*
X11704357Y-14681464D01*
X11704357Y-14681464D02*
X11742452Y-14681464D01*
X11742452Y-14681464D02*
X11761500Y-14690987D01*
X11761500Y-14690987D02*
X11771023Y-14710035D01*
X11771023Y-14710035D02*
X11771023Y-14729083D01*
X11771023Y-14729083D02*
X11675785Y-14748130D01*
X11847214Y-14805273D02*
X11866261Y-14814797D01*
X11866261Y-14814797D02*
X11904357Y-14814797D01*
X11904357Y-14814797D02*
X11923404Y-14805273D01*
X11923404Y-14805273D02*
X11932928Y-14786226D01*
X11932928Y-14786226D02*
X11932928Y-14776702D01*
X11932928Y-14776702D02*
X11923404Y-14757654D01*
X11923404Y-14757654D02*
X11904357Y-14748130D01*
X11904357Y-14748130D02*
X11875785Y-14748130D01*
X11875785Y-14748130D02*
X11856738Y-14738607D01*
X11856738Y-14738607D02*
X11847214Y-14719559D01*
X11847214Y-14719559D02*
X11847214Y-14710035D01*
X11847214Y-14710035D02*
X11856738Y-14690987D01*
X11856738Y-14690987D02*
X11875785Y-14681464D01*
X11875785Y-14681464D02*
X11904357Y-14681464D01*
X11904357Y-14681464D02*
X11923404Y-14690987D01*
X11999595Y-14890987D02*
X12009119Y-14881464D01*
X12009119Y-14881464D02*
X12028166Y-14852892D01*
X12028166Y-14852892D02*
X12037690Y-14833845D01*
X12037690Y-14833845D02*
X12047214Y-14805273D01*
X12047214Y-14805273D02*
X12056738Y-14757654D01*
X12056738Y-14757654D02*
X12056738Y-14719559D01*
X12056738Y-14719559D02*
X12047214Y-14671940D01*
X12047214Y-14671940D02*
X12037690Y-14643368D01*
X12037690Y-14643368D02*
X12028166Y-14624321D01*
X12028166Y-14624321D02*
X12009119Y-14595749D01*
X12009119Y-14595749D02*
X11999595Y-14586226D01*
D14*
X7094532Y-14922313D02*
X7224532Y-15052313D01*
X7224532Y-14922313D02*
X7094532Y-15052313D01*
X7224532Y-14987313D02*
G75*
G02*
X7094532Y-14987313I-65000J0D01*
G01*
X7094532Y-14987313D02*
G75*
G02*
X7224532Y-14987313I65000J0D01*
G01*
D11*
X7590071Y-15078797D02*
X7475785Y-15078797D01*
X7532928Y-15078797D02*
X7532928Y-14878797D01*
X7532928Y-14878797D02*
X7513880Y-14907368D01*
X7513880Y-14907368D02*
X7494832Y-14926416D01*
X7494832Y-14926416D02*
X7475785Y-14935940D01*
X7675785Y-15059749D02*
X7685309Y-15069273D01*
X7685309Y-15069273D02*
X7675785Y-15078797D01*
X7675785Y-15078797D02*
X7666261Y-15069273D01*
X7666261Y-15069273D02*
X7675785Y-15059749D01*
X7675785Y-15059749D02*
X7675785Y-15078797D01*
X7751975Y-14878797D02*
X7875785Y-14878797D01*
X7875785Y-14878797D02*
X7809118Y-14954987D01*
X7809118Y-14954987D02*
X7837690Y-14954987D01*
X7837690Y-14954987D02*
X7856737Y-14964511D01*
X7856737Y-14964511D02*
X7866261Y-14974035D01*
X7866261Y-14974035D02*
X7875785Y-14993083D01*
X7875785Y-14993083D02*
X7875785Y-15040702D01*
X7875785Y-15040702D02*
X7866261Y-15059749D01*
X7866261Y-15059749D02*
X7856737Y-15069273D01*
X7856737Y-15069273D02*
X7837690Y-15078797D01*
X7837690Y-15078797D02*
X7780547Y-15078797D01*
X7780547Y-15078797D02*
X7761499Y-15069273D01*
X7761499Y-15069273D02*
X7751975Y-15059749D01*
X7999594Y-14878797D02*
X8018642Y-14878797D01*
X8018642Y-14878797D02*
X8037690Y-14888321D01*
X8037690Y-14888321D02*
X8047213Y-14897845D01*
X8047213Y-14897845D02*
X8056737Y-14916892D01*
X8056737Y-14916892D02*
X8066261Y-14954987D01*
X8066261Y-14954987D02*
X8066261Y-15002607D01*
X8066261Y-15002607D02*
X8056737Y-15040702D01*
X8056737Y-15040702D02*
X8047213Y-15059749D01*
X8047213Y-15059749D02*
X8037690Y-15069273D01*
X8037690Y-15069273D02*
X8018642Y-15078797D01*
X8018642Y-15078797D02*
X7999594Y-15078797D01*
X7999594Y-15078797D02*
X7980547Y-15069273D01*
X7980547Y-15069273D02*
X7971023Y-15059749D01*
X7971023Y-15059749D02*
X7961499Y-15040702D01*
X7961499Y-15040702D02*
X7951975Y-15002607D01*
X7951975Y-15002607D02*
X7951975Y-14954987D01*
X7951975Y-14954987D02*
X7961499Y-14916892D01*
X7961499Y-14916892D02*
X7971023Y-14897845D01*
X7971023Y-14897845D02*
X7980547Y-14888321D01*
X7980547Y-14888321D02*
X7999594Y-14878797D01*
X8190071Y-14878797D02*
X8209118Y-14878797D01*
X8209118Y-14878797D02*
X8228166Y-14888321D01*
X8228166Y-14888321D02*
X8237690Y-14897845D01*
X8237690Y-14897845D02*
X8247213Y-14916892D01*
X8247213Y-14916892D02*
X8256737Y-14954987D01*
X8256737Y-14954987D02*
X8256737Y-15002607D01*
X8256737Y-15002607D02*
X8247213Y-15040702D01*
X8247213Y-15040702D02*
X8237690Y-15059749D01*
X8237690Y-15059749D02*
X8228166Y-15069273D01*
X8228166Y-15069273D02*
X8209118Y-15078797D01*
X8209118Y-15078797D02*
X8190071Y-15078797D01*
X8190071Y-15078797D02*
X8171023Y-15069273D01*
X8171023Y-15069273D02*
X8161499Y-15059749D01*
X8161499Y-15059749D02*
X8151975Y-15040702D01*
X8151975Y-15040702D02*
X8142452Y-15002607D01*
X8142452Y-15002607D02*
X8142452Y-14954987D01*
X8142452Y-14954987D02*
X8151975Y-14916892D01*
X8151975Y-14916892D02*
X8161499Y-14897845D01*
X8161499Y-14897845D02*
X8171023Y-14888321D01*
X8171023Y-14888321D02*
X8190071Y-14878797D01*
X8342452Y-15078797D02*
X8342452Y-14945464D01*
X8342452Y-14964511D02*
X8351975Y-14954987D01*
X8351975Y-14954987D02*
X8371023Y-14945464D01*
X8371023Y-14945464D02*
X8399595Y-14945464D01*
X8399595Y-14945464D02*
X8418642Y-14954987D01*
X8418642Y-14954987D02*
X8428166Y-14974035D01*
X8428166Y-14974035D02*
X8428166Y-15078797D01*
X8428166Y-14974035D02*
X8437690Y-14954987D01*
X8437690Y-14954987D02*
X8456737Y-14945464D01*
X8456737Y-14945464D02*
X8485309Y-14945464D01*
X8485309Y-14945464D02*
X8504356Y-14954987D01*
X8504356Y-14954987D02*
X8513880Y-14974035D01*
X8513880Y-14974035D02*
X8513880Y-15078797D01*
X8609118Y-15078797D02*
X8609118Y-14945464D01*
X8609118Y-14964511D02*
X8618642Y-14954987D01*
X8618642Y-14954987D02*
X8637690Y-14945464D01*
X8637690Y-14945464D02*
X8666261Y-14945464D01*
X8666261Y-14945464D02*
X8685309Y-14954987D01*
X8685309Y-14954987D02*
X8694833Y-14974035D01*
X8694833Y-14974035D02*
X8694833Y-15078797D01*
X8694833Y-14974035D02*
X8704356Y-14954987D01*
X8704356Y-14954987D02*
X8723404Y-14945464D01*
X8723404Y-14945464D02*
X8751975Y-14945464D01*
X8751975Y-14945464D02*
X8771023Y-14954987D01*
X8771023Y-14954987D02*
X8780547Y-14974035D01*
X8780547Y-14974035D02*
X8780547Y-15078797D01*
X9171023Y-14869273D02*
X8999595Y-15126416D01*
X9428166Y-14878797D02*
X9447214Y-14878797D01*
X9447214Y-14878797D02*
X9466261Y-14888321D01*
X9466261Y-14888321D02*
X9475785Y-14897845D01*
X9475785Y-14897845D02*
X9485309Y-14916892D01*
X9485309Y-14916892D02*
X9494833Y-14954987D01*
X9494833Y-14954987D02*
X9494833Y-15002607D01*
X9494833Y-15002607D02*
X9485309Y-15040702D01*
X9485309Y-15040702D02*
X9475785Y-15059749D01*
X9475785Y-15059749D02*
X9466261Y-15069273D01*
X9466261Y-15069273D02*
X9447214Y-15078797D01*
X9447214Y-15078797D02*
X9428166Y-15078797D01*
X9428166Y-15078797D02*
X9409118Y-15069273D01*
X9409118Y-15069273D02*
X9399595Y-15059749D01*
X9399595Y-15059749D02*
X9390071Y-15040702D01*
X9390071Y-15040702D02*
X9380547Y-15002607D01*
X9380547Y-15002607D02*
X9380547Y-14954987D01*
X9380547Y-14954987D02*
X9390071Y-14916892D01*
X9390071Y-14916892D02*
X9399595Y-14897845D01*
X9399595Y-14897845D02*
X9409118Y-14888321D01*
X9409118Y-14888321D02*
X9428166Y-14878797D01*
X9580547Y-15059749D02*
X9590071Y-15069273D01*
X9590071Y-15069273D02*
X9580547Y-15078797D01*
X9580547Y-15078797D02*
X9571023Y-15069273D01*
X9571023Y-15069273D02*
X9580547Y-15059749D01*
X9580547Y-15059749D02*
X9580547Y-15078797D01*
X9713880Y-14878797D02*
X9732928Y-14878797D01*
X9732928Y-14878797D02*
X9751976Y-14888321D01*
X9751976Y-14888321D02*
X9761499Y-14897845D01*
X9761499Y-14897845D02*
X9771023Y-14916892D01*
X9771023Y-14916892D02*
X9780547Y-14954987D01*
X9780547Y-14954987D02*
X9780547Y-15002607D01*
X9780547Y-15002607D02*
X9771023Y-15040702D01*
X9771023Y-15040702D02*
X9761499Y-15059749D01*
X9761499Y-15059749D02*
X9751976Y-15069273D01*
X9751976Y-15069273D02*
X9732928Y-15078797D01*
X9732928Y-15078797D02*
X9713880Y-15078797D01*
X9713880Y-15078797D02*
X9694833Y-15069273D01*
X9694833Y-15069273D02*
X9685309Y-15059749D01*
X9685309Y-15059749D02*
X9675785Y-15040702D01*
X9675785Y-15040702D02*
X9666261Y-15002607D01*
X9666261Y-15002607D02*
X9666261Y-14954987D01*
X9666261Y-14954987D02*
X9675785Y-14916892D01*
X9675785Y-14916892D02*
X9685309Y-14897845D01*
X9685309Y-14897845D02*
X9694833Y-14888321D01*
X9694833Y-14888321D02*
X9713880Y-14878797D01*
X9961499Y-14878797D02*
X9866261Y-14878797D01*
X9866261Y-14878797D02*
X9856738Y-14974035D01*
X9856738Y-14974035D02*
X9866261Y-14964511D01*
X9866261Y-14964511D02*
X9885309Y-14954987D01*
X9885309Y-14954987D02*
X9932928Y-14954987D01*
X9932928Y-14954987D02*
X9951976Y-14964511D01*
X9951976Y-14964511D02*
X9961499Y-14974035D01*
X9961499Y-14974035D02*
X9971023Y-14993083D01*
X9971023Y-14993083D02*
X9971023Y-15040702D01*
X9971023Y-15040702D02*
X9961499Y-15059749D01*
X9961499Y-15059749D02*
X9951976Y-15069273D01*
X9951976Y-15069273D02*
X9932928Y-15078797D01*
X9932928Y-15078797D02*
X9885309Y-15078797D01*
X9885309Y-15078797D02*
X9866261Y-15069273D01*
X9866261Y-15069273D02*
X9856738Y-15059749D01*
X10161499Y-15078797D02*
X10047214Y-15078797D01*
X10104357Y-15078797D02*
X10104357Y-14878797D01*
X10104357Y-14878797D02*
X10085309Y-14907368D01*
X10085309Y-14907368D02*
X10066261Y-14926416D01*
X10066261Y-14926416D02*
X10047214Y-14935940D01*
X10237690Y-14897845D02*
X10247214Y-14888321D01*
X10247214Y-14888321D02*
X10266261Y-14878797D01*
X10266261Y-14878797D02*
X10313880Y-14878797D01*
X10313880Y-14878797D02*
X10332928Y-14888321D01*
X10332928Y-14888321D02*
X10342452Y-14897845D01*
X10342452Y-14897845D02*
X10351976Y-14916892D01*
X10351976Y-14916892D02*
X10351976Y-14935940D01*
X10351976Y-14935940D02*
X10342452Y-14964511D01*
X10342452Y-14964511D02*
X10228166Y-15078797D01*
X10228166Y-15078797D02*
X10351976Y-15078797D01*
X10428166Y-14878797D02*
X10428166Y-14916892D01*
X10504357Y-14878797D02*
X10504357Y-14916892D01*
X10799595Y-15154987D02*
X10790071Y-15145464D01*
X10790071Y-15145464D02*
X10771023Y-15116892D01*
X10771023Y-15116892D02*
X10761500Y-15097845D01*
X10761500Y-15097845D02*
X10751976Y-15069273D01*
X10751976Y-15069273D02*
X10742452Y-15021654D01*
X10742452Y-15021654D02*
X10742452Y-14983559D01*
X10742452Y-14983559D02*
X10751976Y-14935940D01*
X10751976Y-14935940D02*
X10761500Y-14907368D01*
X10761500Y-14907368D02*
X10771023Y-14888321D01*
X10771023Y-14888321D02*
X10790071Y-14859749D01*
X10790071Y-14859749D02*
X10799595Y-14850226D01*
X10971023Y-14878797D02*
X10875785Y-14878797D01*
X10875785Y-14878797D02*
X10866261Y-14974035D01*
X10866261Y-14974035D02*
X10875785Y-14964511D01*
X10875785Y-14964511D02*
X10894833Y-14954987D01*
X10894833Y-14954987D02*
X10942452Y-14954987D01*
X10942452Y-14954987D02*
X10961500Y-14964511D01*
X10961500Y-14964511D02*
X10971023Y-14974035D01*
X10971023Y-14974035D02*
X10980547Y-14993083D01*
X10980547Y-14993083D02*
X10980547Y-15040702D01*
X10980547Y-15040702D02*
X10971023Y-15059749D01*
X10971023Y-15059749D02*
X10961500Y-15069273D01*
X10961500Y-15069273D02*
X10942452Y-15078797D01*
X10942452Y-15078797D02*
X10894833Y-15078797D01*
X10894833Y-15078797D02*
X10875785Y-15069273D01*
X10875785Y-15069273D02*
X10866261Y-15059749D01*
X11218642Y-15078797D02*
X11218642Y-14878797D01*
X11304357Y-15078797D02*
X11304357Y-14974035D01*
X11304357Y-14974035D02*
X11294833Y-14954987D01*
X11294833Y-14954987D02*
X11275785Y-14945464D01*
X11275785Y-14945464D02*
X11247214Y-14945464D01*
X11247214Y-14945464D02*
X11228166Y-14954987D01*
X11228166Y-14954987D02*
X11218642Y-14964511D01*
X11428166Y-15078797D02*
X11409119Y-15069273D01*
X11409119Y-15069273D02*
X11399595Y-15059749D01*
X11399595Y-15059749D02*
X11390071Y-15040702D01*
X11390071Y-15040702D02*
X11390071Y-14983559D01*
X11390071Y-14983559D02*
X11399595Y-14964511D01*
X11399595Y-14964511D02*
X11409119Y-14954987D01*
X11409119Y-14954987D02*
X11428166Y-14945464D01*
X11428166Y-14945464D02*
X11456738Y-14945464D01*
X11456738Y-14945464D02*
X11475785Y-14954987D01*
X11475785Y-14954987D02*
X11485309Y-14964511D01*
X11485309Y-14964511D02*
X11494833Y-14983559D01*
X11494833Y-14983559D02*
X11494833Y-15040702D01*
X11494833Y-15040702D02*
X11485309Y-15059749D01*
X11485309Y-15059749D02*
X11475785Y-15069273D01*
X11475785Y-15069273D02*
X11456738Y-15078797D01*
X11456738Y-15078797D02*
X11428166Y-15078797D01*
X11609119Y-15078797D02*
X11590071Y-15069273D01*
X11590071Y-15069273D02*
X11580547Y-15050226D01*
X11580547Y-15050226D02*
X11580547Y-14878797D01*
X11761500Y-15069273D02*
X11742452Y-15078797D01*
X11742452Y-15078797D02*
X11704357Y-15078797D01*
X11704357Y-15078797D02*
X11685309Y-15069273D01*
X11685309Y-15069273D02*
X11675785Y-15050226D01*
X11675785Y-15050226D02*
X11675785Y-14974035D01*
X11675785Y-14974035D02*
X11685309Y-14954987D01*
X11685309Y-14954987D02*
X11704357Y-14945464D01*
X11704357Y-14945464D02*
X11742452Y-14945464D01*
X11742452Y-14945464D02*
X11761500Y-14954987D01*
X11761500Y-14954987D02*
X11771023Y-14974035D01*
X11771023Y-14974035D02*
X11771023Y-14993083D01*
X11771023Y-14993083D02*
X11675785Y-15012130D01*
X11847214Y-15069273D02*
X11866261Y-15078797D01*
X11866261Y-15078797D02*
X11904357Y-15078797D01*
X11904357Y-15078797D02*
X11923404Y-15069273D01*
X11923404Y-15069273D02*
X11932928Y-15050226D01*
X11932928Y-15050226D02*
X11932928Y-15040702D01*
X11932928Y-15040702D02*
X11923404Y-15021654D01*
X11923404Y-15021654D02*
X11904357Y-15012130D01*
X11904357Y-15012130D02*
X11875785Y-15012130D01*
X11875785Y-15012130D02*
X11856738Y-15002607D01*
X11856738Y-15002607D02*
X11847214Y-14983559D01*
X11847214Y-14983559D02*
X11847214Y-14974035D01*
X11847214Y-14974035D02*
X11856738Y-14954987D01*
X11856738Y-14954987D02*
X11875785Y-14945464D01*
X11875785Y-14945464D02*
X11904357Y-14945464D01*
X11904357Y-14945464D02*
X11923404Y-14954987D01*
X11999595Y-15154987D02*
X12009119Y-15145464D01*
X12009119Y-15145464D02*
X12028166Y-15116892D01*
X12028166Y-15116892D02*
X12037690Y-15097845D01*
X12037690Y-15097845D02*
X12047214Y-15069273D01*
X12047214Y-15069273D02*
X12056738Y-15021654D01*
X12056738Y-15021654D02*
X12056738Y-14983559D01*
X12056738Y-14983559D02*
X12047214Y-14935940D01*
X12047214Y-14935940D02*
X12037690Y-14907368D01*
X12037690Y-14907368D02*
X12028166Y-14888321D01*
X12028166Y-14888321D02*
X12009119Y-14859749D01*
X12009119Y-14859749D02*
X11999595Y-14850226D01*
D15*
X7074532Y-15176313D02*
X7224532Y-15326313D01*
X7224532Y-15176313D02*
X7074532Y-15326313D01*
X7149532Y-15176313D02*
X7149532Y-15326313D01*
X7074532Y-15251313D02*
X7224532Y-15251313D01*
D11*
X7590071Y-15342797D02*
X7475785Y-15342797D01*
X7532928Y-15342797D02*
X7532928Y-15142797D01*
X7532928Y-15142797D02*
X7513880Y-15171368D01*
X7513880Y-15171368D02*
X7494832Y-15190416D01*
X7494832Y-15190416D02*
X7475785Y-15199940D01*
X7675785Y-15323749D02*
X7685309Y-15333273D01*
X7685309Y-15333273D02*
X7675785Y-15342797D01*
X7675785Y-15342797D02*
X7666261Y-15333273D01*
X7666261Y-15333273D02*
X7675785Y-15323749D01*
X7675785Y-15323749D02*
X7675785Y-15342797D01*
X7866261Y-15142797D02*
X7771023Y-15142797D01*
X7771023Y-15142797D02*
X7761499Y-15238035D01*
X7761499Y-15238035D02*
X7771023Y-15228511D01*
X7771023Y-15228511D02*
X7790071Y-15218987D01*
X7790071Y-15218987D02*
X7837690Y-15218987D01*
X7837690Y-15218987D02*
X7856737Y-15228511D01*
X7856737Y-15228511D02*
X7866261Y-15238035D01*
X7866261Y-15238035D02*
X7875785Y-15257083D01*
X7875785Y-15257083D02*
X7875785Y-15304702D01*
X7875785Y-15304702D02*
X7866261Y-15323749D01*
X7866261Y-15323749D02*
X7856737Y-15333273D01*
X7856737Y-15333273D02*
X7837690Y-15342797D01*
X7837690Y-15342797D02*
X7790071Y-15342797D01*
X7790071Y-15342797D02*
X7771023Y-15333273D01*
X7771023Y-15333273D02*
X7761499Y-15323749D01*
X7999594Y-15142797D02*
X8018642Y-15142797D01*
X8018642Y-15142797D02*
X8037690Y-15152321D01*
X8037690Y-15152321D02*
X8047213Y-15161845D01*
X8047213Y-15161845D02*
X8056737Y-15180892D01*
X8056737Y-15180892D02*
X8066261Y-15218987D01*
X8066261Y-15218987D02*
X8066261Y-15266607D01*
X8066261Y-15266607D02*
X8056737Y-15304702D01*
X8056737Y-15304702D02*
X8047213Y-15323749D01*
X8047213Y-15323749D02*
X8037690Y-15333273D01*
X8037690Y-15333273D02*
X8018642Y-15342797D01*
X8018642Y-15342797D02*
X7999594Y-15342797D01*
X7999594Y-15342797D02*
X7980547Y-15333273D01*
X7980547Y-15333273D02*
X7971023Y-15323749D01*
X7971023Y-15323749D02*
X7961499Y-15304702D01*
X7961499Y-15304702D02*
X7951975Y-15266607D01*
X7951975Y-15266607D02*
X7951975Y-15218987D01*
X7951975Y-15218987D02*
X7961499Y-15180892D01*
X7961499Y-15180892D02*
X7971023Y-15161845D01*
X7971023Y-15161845D02*
X7980547Y-15152321D01*
X7980547Y-15152321D02*
X7999594Y-15142797D01*
X8190071Y-15142797D02*
X8209118Y-15142797D01*
X8209118Y-15142797D02*
X8228166Y-15152321D01*
X8228166Y-15152321D02*
X8237690Y-15161845D01*
X8237690Y-15161845D02*
X8247213Y-15180892D01*
X8247213Y-15180892D02*
X8256737Y-15218987D01*
X8256737Y-15218987D02*
X8256737Y-15266607D01*
X8256737Y-15266607D02*
X8247213Y-15304702D01*
X8247213Y-15304702D02*
X8237690Y-15323749D01*
X8237690Y-15323749D02*
X8228166Y-15333273D01*
X8228166Y-15333273D02*
X8209118Y-15342797D01*
X8209118Y-15342797D02*
X8190071Y-15342797D01*
X8190071Y-15342797D02*
X8171023Y-15333273D01*
X8171023Y-15333273D02*
X8161499Y-15323749D01*
X8161499Y-15323749D02*
X8151975Y-15304702D01*
X8151975Y-15304702D02*
X8142452Y-15266607D01*
X8142452Y-15266607D02*
X8142452Y-15218987D01*
X8142452Y-15218987D02*
X8151975Y-15180892D01*
X8151975Y-15180892D02*
X8161499Y-15161845D01*
X8161499Y-15161845D02*
X8171023Y-15152321D01*
X8171023Y-15152321D02*
X8190071Y-15142797D01*
X8342452Y-15342797D02*
X8342452Y-15209464D01*
X8342452Y-15228511D02*
X8351975Y-15218987D01*
X8351975Y-15218987D02*
X8371023Y-15209464D01*
X8371023Y-15209464D02*
X8399595Y-15209464D01*
X8399595Y-15209464D02*
X8418642Y-15218987D01*
X8418642Y-15218987D02*
X8428166Y-15238035D01*
X8428166Y-15238035D02*
X8428166Y-15342797D01*
X8428166Y-15238035D02*
X8437690Y-15218987D01*
X8437690Y-15218987D02*
X8456737Y-15209464D01*
X8456737Y-15209464D02*
X8485309Y-15209464D01*
X8485309Y-15209464D02*
X8504356Y-15218987D01*
X8504356Y-15218987D02*
X8513880Y-15238035D01*
X8513880Y-15238035D02*
X8513880Y-15342797D01*
X8609118Y-15342797D02*
X8609118Y-15209464D01*
X8609118Y-15228511D02*
X8618642Y-15218987D01*
X8618642Y-15218987D02*
X8637690Y-15209464D01*
X8637690Y-15209464D02*
X8666261Y-15209464D01*
X8666261Y-15209464D02*
X8685309Y-15218987D01*
X8685309Y-15218987D02*
X8694833Y-15238035D01*
X8694833Y-15238035D02*
X8694833Y-15342797D01*
X8694833Y-15238035D02*
X8704356Y-15218987D01*
X8704356Y-15218987D02*
X8723404Y-15209464D01*
X8723404Y-15209464D02*
X8751975Y-15209464D01*
X8751975Y-15209464D02*
X8771023Y-15218987D01*
X8771023Y-15218987D02*
X8780547Y-15238035D01*
X8780547Y-15238035D02*
X8780547Y-15342797D01*
X9171023Y-15133273D02*
X8999595Y-15390416D01*
X9428166Y-15142797D02*
X9447214Y-15142797D01*
X9447214Y-15142797D02*
X9466261Y-15152321D01*
X9466261Y-15152321D02*
X9475785Y-15161845D01*
X9475785Y-15161845D02*
X9485309Y-15180892D01*
X9485309Y-15180892D02*
X9494833Y-15218987D01*
X9494833Y-15218987D02*
X9494833Y-15266607D01*
X9494833Y-15266607D02*
X9485309Y-15304702D01*
X9485309Y-15304702D02*
X9475785Y-15323749D01*
X9475785Y-15323749D02*
X9466261Y-15333273D01*
X9466261Y-15333273D02*
X9447214Y-15342797D01*
X9447214Y-15342797D02*
X9428166Y-15342797D01*
X9428166Y-15342797D02*
X9409118Y-15333273D01*
X9409118Y-15333273D02*
X9399595Y-15323749D01*
X9399595Y-15323749D02*
X9390071Y-15304702D01*
X9390071Y-15304702D02*
X9380547Y-15266607D01*
X9380547Y-15266607D02*
X9380547Y-15218987D01*
X9380547Y-15218987D02*
X9390071Y-15180892D01*
X9390071Y-15180892D02*
X9399595Y-15161845D01*
X9399595Y-15161845D02*
X9409118Y-15152321D01*
X9409118Y-15152321D02*
X9428166Y-15142797D01*
X9580547Y-15323749D02*
X9590071Y-15333273D01*
X9590071Y-15333273D02*
X9580547Y-15342797D01*
X9580547Y-15342797D02*
X9571023Y-15333273D01*
X9571023Y-15333273D02*
X9580547Y-15323749D01*
X9580547Y-15323749D02*
X9580547Y-15342797D01*
X9713880Y-15142797D02*
X9732928Y-15142797D01*
X9732928Y-15142797D02*
X9751976Y-15152321D01*
X9751976Y-15152321D02*
X9761499Y-15161845D01*
X9761499Y-15161845D02*
X9771023Y-15180892D01*
X9771023Y-15180892D02*
X9780547Y-15218987D01*
X9780547Y-15218987D02*
X9780547Y-15266607D01*
X9780547Y-15266607D02*
X9771023Y-15304702D01*
X9771023Y-15304702D02*
X9761499Y-15323749D01*
X9761499Y-15323749D02*
X9751976Y-15333273D01*
X9751976Y-15333273D02*
X9732928Y-15342797D01*
X9732928Y-15342797D02*
X9713880Y-15342797D01*
X9713880Y-15342797D02*
X9694833Y-15333273D01*
X9694833Y-15333273D02*
X9685309Y-15323749D01*
X9685309Y-15323749D02*
X9675785Y-15304702D01*
X9675785Y-15304702D02*
X9666261Y-15266607D01*
X9666261Y-15266607D02*
X9666261Y-15218987D01*
X9666261Y-15218987D02*
X9675785Y-15180892D01*
X9675785Y-15180892D02*
X9685309Y-15161845D01*
X9685309Y-15161845D02*
X9694833Y-15152321D01*
X9694833Y-15152321D02*
X9713880Y-15142797D01*
X9961499Y-15142797D02*
X9866261Y-15142797D01*
X9866261Y-15142797D02*
X9856738Y-15238035D01*
X9856738Y-15238035D02*
X9866261Y-15228511D01*
X9866261Y-15228511D02*
X9885309Y-15218987D01*
X9885309Y-15218987D02*
X9932928Y-15218987D01*
X9932928Y-15218987D02*
X9951976Y-15228511D01*
X9951976Y-15228511D02*
X9961499Y-15238035D01*
X9961499Y-15238035D02*
X9971023Y-15257083D01*
X9971023Y-15257083D02*
X9971023Y-15304702D01*
X9971023Y-15304702D02*
X9961499Y-15323749D01*
X9961499Y-15323749D02*
X9951976Y-15333273D01*
X9951976Y-15333273D02*
X9932928Y-15342797D01*
X9932928Y-15342797D02*
X9885309Y-15342797D01*
X9885309Y-15342797D02*
X9866261Y-15333273D01*
X9866261Y-15333273D02*
X9856738Y-15323749D01*
X10066261Y-15342797D02*
X10104357Y-15342797D01*
X10104357Y-15342797D02*
X10123404Y-15333273D01*
X10123404Y-15333273D02*
X10132928Y-15323749D01*
X10132928Y-15323749D02*
X10151976Y-15295178D01*
X10151976Y-15295178D02*
X10161499Y-15257083D01*
X10161499Y-15257083D02*
X10161499Y-15180892D01*
X10161499Y-15180892D02*
X10151976Y-15161845D01*
X10151976Y-15161845D02*
X10142452Y-15152321D01*
X10142452Y-15152321D02*
X10123404Y-15142797D01*
X10123404Y-15142797D02*
X10085309Y-15142797D01*
X10085309Y-15142797D02*
X10066261Y-15152321D01*
X10066261Y-15152321D02*
X10056738Y-15161845D01*
X10056738Y-15161845D02*
X10047214Y-15180892D01*
X10047214Y-15180892D02*
X10047214Y-15228511D01*
X10047214Y-15228511D02*
X10056738Y-15247559D01*
X10056738Y-15247559D02*
X10066261Y-15257083D01*
X10066261Y-15257083D02*
X10085309Y-15266607D01*
X10085309Y-15266607D02*
X10123404Y-15266607D01*
X10123404Y-15266607D02*
X10142452Y-15257083D01*
X10142452Y-15257083D02*
X10151976Y-15247559D01*
X10151976Y-15247559D02*
X10161499Y-15228511D01*
X10351976Y-15342797D02*
X10237690Y-15342797D01*
X10294833Y-15342797D02*
X10294833Y-15142797D01*
X10294833Y-15142797D02*
X10275785Y-15171368D01*
X10275785Y-15171368D02*
X10256738Y-15190416D01*
X10256738Y-15190416D02*
X10237690Y-15199940D01*
X10428166Y-15142797D02*
X10428166Y-15180892D01*
X10504357Y-15142797D02*
X10504357Y-15180892D01*
X10799595Y-15418987D02*
X10790071Y-15409464D01*
X10790071Y-15409464D02*
X10771023Y-15380892D01*
X10771023Y-15380892D02*
X10761500Y-15361845D01*
X10761500Y-15361845D02*
X10751976Y-15333273D01*
X10751976Y-15333273D02*
X10742452Y-15285654D01*
X10742452Y-15285654D02*
X10742452Y-15247559D01*
X10742452Y-15247559D02*
X10751976Y-15199940D01*
X10751976Y-15199940D02*
X10761500Y-15171368D01*
X10761500Y-15171368D02*
X10771023Y-15152321D01*
X10771023Y-15152321D02*
X10790071Y-15123749D01*
X10790071Y-15123749D02*
X10799595Y-15114226D01*
X10866261Y-15161845D02*
X10875785Y-15152321D01*
X10875785Y-15152321D02*
X10894833Y-15142797D01*
X10894833Y-15142797D02*
X10942452Y-15142797D01*
X10942452Y-15142797D02*
X10961500Y-15152321D01*
X10961500Y-15152321D02*
X10971023Y-15161845D01*
X10971023Y-15161845D02*
X10980547Y-15180892D01*
X10980547Y-15180892D02*
X10980547Y-15199940D01*
X10980547Y-15199940D02*
X10971023Y-15228511D01*
X10971023Y-15228511D02*
X10856738Y-15342797D01*
X10856738Y-15342797D02*
X10980547Y-15342797D01*
X11218642Y-15342797D02*
X11218642Y-15142797D01*
X11304357Y-15342797D02*
X11304357Y-15238035D01*
X11304357Y-15238035D02*
X11294833Y-15218987D01*
X11294833Y-15218987D02*
X11275785Y-15209464D01*
X11275785Y-15209464D02*
X11247214Y-15209464D01*
X11247214Y-15209464D02*
X11228166Y-15218987D01*
X11228166Y-15218987D02*
X11218642Y-15228511D01*
X11428166Y-15342797D02*
X11409119Y-15333273D01*
X11409119Y-15333273D02*
X11399595Y-15323749D01*
X11399595Y-15323749D02*
X11390071Y-15304702D01*
X11390071Y-15304702D02*
X11390071Y-15247559D01*
X11390071Y-15247559D02*
X11399595Y-15228511D01*
X11399595Y-15228511D02*
X11409119Y-15218987D01*
X11409119Y-15218987D02*
X11428166Y-15209464D01*
X11428166Y-15209464D02*
X11456738Y-15209464D01*
X11456738Y-15209464D02*
X11475785Y-15218987D01*
X11475785Y-15218987D02*
X11485309Y-15228511D01*
X11485309Y-15228511D02*
X11494833Y-15247559D01*
X11494833Y-15247559D02*
X11494833Y-15304702D01*
X11494833Y-15304702D02*
X11485309Y-15323749D01*
X11485309Y-15323749D02*
X11475785Y-15333273D01*
X11475785Y-15333273D02*
X11456738Y-15342797D01*
X11456738Y-15342797D02*
X11428166Y-15342797D01*
X11609119Y-15342797D02*
X11590071Y-15333273D01*
X11590071Y-15333273D02*
X11580547Y-15314226D01*
X11580547Y-15314226D02*
X11580547Y-15142797D01*
X11761500Y-15333273D02*
X11742452Y-15342797D01*
X11742452Y-15342797D02*
X11704357Y-15342797D01*
X11704357Y-15342797D02*
X11685309Y-15333273D01*
X11685309Y-15333273D02*
X11675785Y-15314226D01*
X11675785Y-15314226D02*
X11675785Y-15238035D01*
X11675785Y-15238035D02*
X11685309Y-15218987D01*
X11685309Y-15218987D02*
X11704357Y-15209464D01*
X11704357Y-15209464D02*
X11742452Y-15209464D01*
X11742452Y-15209464D02*
X11761500Y-15218987D01*
X11761500Y-15218987D02*
X11771023Y-15238035D01*
X11771023Y-15238035D02*
X11771023Y-15257083D01*
X11771023Y-15257083D02*
X11675785Y-15276130D01*
X11847214Y-15333273D02*
X11866261Y-15342797D01*
X11866261Y-15342797D02*
X11904357Y-15342797D01*
X11904357Y-15342797D02*
X11923404Y-15333273D01*
X11923404Y-15333273D02*
X11932928Y-15314226D01*
X11932928Y-15314226D02*
X11932928Y-15304702D01*
X11932928Y-15304702D02*
X11923404Y-15285654D01*
X11923404Y-15285654D02*
X11904357Y-15276130D01*
X11904357Y-15276130D02*
X11875785Y-15276130D01*
X11875785Y-15276130D02*
X11856738Y-15266607D01*
X11856738Y-15266607D02*
X11847214Y-15247559D01*
X11847214Y-15247559D02*
X11847214Y-15238035D01*
X11847214Y-15238035D02*
X11856738Y-15218987D01*
X11856738Y-15218987D02*
X11875785Y-15209464D01*
X11875785Y-15209464D02*
X11904357Y-15209464D01*
X11904357Y-15209464D02*
X11923404Y-15218987D01*
X11999595Y-15418987D02*
X12009119Y-15409464D01*
X12009119Y-15409464D02*
X12028166Y-15380892D01*
X12028166Y-15380892D02*
X12037690Y-15361845D01*
X12037690Y-15361845D02*
X12047214Y-15333273D01*
X12047214Y-15333273D02*
X12056738Y-15285654D01*
X12056738Y-15285654D02*
X12056738Y-15247559D01*
X12056738Y-15247559D02*
X12047214Y-15199940D01*
X12047214Y-15199940D02*
X12037690Y-15171368D01*
X12037690Y-15171368D02*
X12028166Y-15152321D01*
X12028166Y-15152321D02*
X12009119Y-15123749D01*
X12009119Y-15123749D02*
X11999595Y-15114226D01*
X7024532Y-15421313D02*
X7224532Y-15621313D01*
X7224532Y-15421313D02*
X7024532Y-15621313D01*
X7195243Y-15592025D02*
X7195243Y-15450602D01*
X7053820Y-15450602D01*
X7053820Y-15592025D01*
X7195243Y-15592025D01*
X7466261Y-15412797D02*
X7590071Y-15412797D01*
X7590071Y-15412797D02*
X7523404Y-15488987D01*
X7523404Y-15488987D02*
X7551975Y-15488987D01*
X7551975Y-15488987D02*
X7571023Y-15498511D01*
X7571023Y-15498511D02*
X7580547Y-15508035D01*
X7580547Y-15508035D02*
X7590071Y-15527083D01*
X7590071Y-15527083D02*
X7590071Y-15574702D01*
X7590071Y-15574702D02*
X7580547Y-15593749D01*
X7580547Y-15593749D02*
X7571023Y-15603273D01*
X7571023Y-15603273D02*
X7551975Y-15612797D01*
X7551975Y-15612797D02*
X7494832Y-15612797D01*
X7494832Y-15612797D02*
X7475785Y-15603273D01*
X7475785Y-15603273D02*
X7466261Y-15593749D01*
X7675785Y-15593749D02*
X7685309Y-15603273D01*
X7685309Y-15603273D02*
X7675785Y-15612797D01*
X7675785Y-15612797D02*
X7666261Y-15603273D01*
X7666261Y-15603273D02*
X7675785Y-15593749D01*
X7675785Y-15593749D02*
X7675785Y-15612797D01*
X7809118Y-15412797D02*
X7828166Y-15412797D01*
X7828166Y-15412797D02*
X7847213Y-15422321D01*
X7847213Y-15422321D02*
X7856737Y-15431845D01*
X7856737Y-15431845D02*
X7866261Y-15450892D01*
X7866261Y-15450892D02*
X7875785Y-15488987D01*
X7875785Y-15488987D02*
X7875785Y-15536607D01*
X7875785Y-15536607D02*
X7866261Y-15574702D01*
X7866261Y-15574702D02*
X7856737Y-15593749D01*
X7856737Y-15593749D02*
X7847213Y-15603273D01*
X7847213Y-15603273D02*
X7828166Y-15612797D01*
X7828166Y-15612797D02*
X7809118Y-15612797D01*
X7809118Y-15612797D02*
X7790071Y-15603273D01*
X7790071Y-15603273D02*
X7780547Y-15593749D01*
X7780547Y-15593749D02*
X7771023Y-15574702D01*
X7771023Y-15574702D02*
X7761499Y-15536607D01*
X7761499Y-15536607D02*
X7761499Y-15488987D01*
X7761499Y-15488987D02*
X7771023Y-15450892D01*
X7771023Y-15450892D02*
X7780547Y-15431845D01*
X7780547Y-15431845D02*
X7790071Y-15422321D01*
X7790071Y-15422321D02*
X7809118Y-15412797D01*
X7999594Y-15412797D02*
X8018642Y-15412797D01*
X8018642Y-15412797D02*
X8037690Y-15422321D01*
X8037690Y-15422321D02*
X8047213Y-15431845D01*
X8047213Y-15431845D02*
X8056737Y-15450892D01*
X8056737Y-15450892D02*
X8066261Y-15488987D01*
X8066261Y-15488987D02*
X8066261Y-15536607D01*
X8066261Y-15536607D02*
X8056737Y-15574702D01*
X8056737Y-15574702D02*
X8047213Y-15593749D01*
X8047213Y-15593749D02*
X8037690Y-15603273D01*
X8037690Y-15603273D02*
X8018642Y-15612797D01*
X8018642Y-15612797D02*
X7999594Y-15612797D01*
X7999594Y-15612797D02*
X7980547Y-15603273D01*
X7980547Y-15603273D02*
X7971023Y-15593749D01*
X7971023Y-15593749D02*
X7961499Y-15574702D01*
X7961499Y-15574702D02*
X7951975Y-15536607D01*
X7951975Y-15536607D02*
X7951975Y-15488987D01*
X7951975Y-15488987D02*
X7961499Y-15450892D01*
X7961499Y-15450892D02*
X7971023Y-15431845D01*
X7971023Y-15431845D02*
X7980547Y-15422321D01*
X7980547Y-15422321D02*
X7999594Y-15412797D01*
X8190071Y-15412797D02*
X8209118Y-15412797D01*
X8209118Y-15412797D02*
X8228166Y-15422321D01*
X8228166Y-15422321D02*
X8237690Y-15431845D01*
X8237690Y-15431845D02*
X8247213Y-15450892D01*
X8247213Y-15450892D02*
X8256737Y-15488987D01*
X8256737Y-15488987D02*
X8256737Y-15536607D01*
X8256737Y-15536607D02*
X8247213Y-15574702D01*
X8247213Y-15574702D02*
X8237690Y-15593749D01*
X8237690Y-15593749D02*
X8228166Y-15603273D01*
X8228166Y-15603273D02*
X8209118Y-15612797D01*
X8209118Y-15612797D02*
X8190071Y-15612797D01*
X8190071Y-15612797D02*
X8171023Y-15603273D01*
X8171023Y-15603273D02*
X8161499Y-15593749D01*
X8161499Y-15593749D02*
X8151975Y-15574702D01*
X8151975Y-15574702D02*
X8142452Y-15536607D01*
X8142452Y-15536607D02*
X8142452Y-15488987D01*
X8142452Y-15488987D02*
X8151975Y-15450892D01*
X8151975Y-15450892D02*
X8161499Y-15431845D01*
X8161499Y-15431845D02*
X8171023Y-15422321D01*
X8171023Y-15422321D02*
X8190071Y-15412797D01*
X8342452Y-15612797D02*
X8342452Y-15479464D01*
X8342452Y-15498511D02*
X8351975Y-15488987D01*
X8351975Y-15488987D02*
X8371023Y-15479464D01*
X8371023Y-15479464D02*
X8399595Y-15479464D01*
X8399595Y-15479464D02*
X8418642Y-15488987D01*
X8418642Y-15488987D02*
X8428166Y-15508035D01*
X8428166Y-15508035D02*
X8428166Y-15612797D01*
X8428166Y-15508035D02*
X8437690Y-15488987D01*
X8437690Y-15488987D02*
X8456737Y-15479464D01*
X8456737Y-15479464D02*
X8485309Y-15479464D01*
X8485309Y-15479464D02*
X8504356Y-15488987D01*
X8504356Y-15488987D02*
X8513880Y-15508035D01*
X8513880Y-15508035D02*
X8513880Y-15612797D01*
X8609118Y-15612797D02*
X8609118Y-15479464D01*
X8609118Y-15498511D02*
X8618642Y-15488987D01*
X8618642Y-15488987D02*
X8637690Y-15479464D01*
X8637690Y-15479464D02*
X8666261Y-15479464D01*
X8666261Y-15479464D02*
X8685309Y-15488987D01*
X8685309Y-15488987D02*
X8694833Y-15508035D01*
X8694833Y-15508035D02*
X8694833Y-15612797D01*
X8694833Y-15508035D02*
X8704356Y-15488987D01*
X8704356Y-15488987D02*
X8723404Y-15479464D01*
X8723404Y-15479464D02*
X8751975Y-15479464D01*
X8751975Y-15479464D02*
X8771023Y-15488987D01*
X8771023Y-15488987D02*
X8780547Y-15508035D01*
X8780547Y-15508035D02*
X8780547Y-15612797D01*
X9171023Y-15403273D02*
X8999595Y-15660416D01*
X9428166Y-15412797D02*
X9447214Y-15412797D01*
X9447214Y-15412797D02*
X9466261Y-15422321D01*
X9466261Y-15422321D02*
X9475785Y-15431845D01*
X9475785Y-15431845D02*
X9485309Y-15450892D01*
X9485309Y-15450892D02*
X9494833Y-15488987D01*
X9494833Y-15488987D02*
X9494833Y-15536607D01*
X9494833Y-15536607D02*
X9485309Y-15574702D01*
X9485309Y-15574702D02*
X9475785Y-15593749D01*
X9475785Y-15593749D02*
X9466261Y-15603273D01*
X9466261Y-15603273D02*
X9447214Y-15612797D01*
X9447214Y-15612797D02*
X9428166Y-15612797D01*
X9428166Y-15612797D02*
X9409118Y-15603273D01*
X9409118Y-15603273D02*
X9399595Y-15593749D01*
X9399595Y-15593749D02*
X9390071Y-15574702D01*
X9390071Y-15574702D02*
X9380547Y-15536607D01*
X9380547Y-15536607D02*
X9380547Y-15488987D01*
X9380547Y-15488987D02*
X9390071Y-15450892D01*
X9390071Y-15450892D02*
X9399595Y-15431845D01*
X9399595Y-15431845D02*
X9409118Y-15422321D01*
X9409118Y-15422321D02*
X9428166Y-15412797D01*
X9580547Y-15593749D02*
X9590071Y-15603273D01*
X9590071Y-15603273D02*
X9580547Y-15612797D01*
X9580547Y-15612797D02*
X9571023Y-15603273D01*
X9571023Y-15603273D02*
X9580547Y-15593749D01*
X9580547Y-15593749D02*
X9580547Y-15612797D01*
X9780547Y-15612797D02*
X9666261Y-15612797D01*
X9723404Y-15612797D02*
X9723404Y-15412797D01*
X9723404Y-15412797D02*
X9704357Y-15441368D01*
X9704357Y-15441368D02*
X9685309Y-15460416D01*
X9685309Y-15460416D02*
X9666261Y-15469940D01*
X9971023Y-15612797D02*
X9856738Y-15612797D01*
X9913880Y-15612797D02*
X9913880Y-15412797D01*
X9913880Y-15412797D02*
X9894833Y-15441368D01*
X9894833Y-15441368D02*
X9875785Y-15460416D01*
X9875785Y-15460416D02*
X9856738Y-15469940D01*
X10085309Y-15498511D02*
X10066261Y-15488987D01*
X10066261Y-15488987D02*
X10056738Y-15479464D01*
X10056738Y-15479464D02*
X10047214Y-15460416D01*
X10047214Y-15460416D02*
X10047214Y-15450892D01*
X10047214Y-15450892D02*
X10056738Y-15431845D01*
X10056738Y-15431845D02*
X10066261Y-15422321D01*
X10066261Y-15422321D02*
X10085309Y-15412797D01*
X10085309Y-15412797D02*
X10123404Y-15412797D01*
X10123404Y-15412797D02*
X10142452Y-15422321D01*
X10142452Y-15422321D02*
X10151976Y-15431845D01*
X10151976Y-15431845D02*
X10161499Y-15450892D01*
X10161499Y-15450892D02*
X10161499Y-15460416D01*
X10161499Y-15460416D02*
X10151976Y-15479464D01*
X10151976Y-15479464D02*
X10142452Y-15488987D01*
X10142452Y-15488987D02*
X10123404Y-15498511D01*
X10123404Y-15498511D02*
X10085309Y-15498511D01*
X10085309Y-15498511D02*
X10066261Y-15508035D01*
X10066261Y-15508035D02*
X10056738Y-15517559D01*
X10056738Y-15517559D02*
X10047214Y-15536607D01*
X10047214Y-15536607D02*
X10047214Y-15574702D01*
X10047214Y-15574702D02*
X10056738Y-15593749D01*
X10056738Y-15593749D02*
X10066261Y-15603273D01*
X10066261Y-15603273D02*
X10085309Y-15612797D01*
X10085309Y-15612797D02*
X10123404Y-15612797D01*
X10123404Y-15612797D02*
X10142452Y-15603273D01*
X10142452Y-15603273D02*
X10151976Y-15593749D01*
X10151976Y-15593749D02*
X10161499Y-15574702D01*
X10161499Y-15574702D02*
X10161499Y-15536607D01*
X10161499Y-15536607D02*
X10151976Y-15517559D01*
X10151976Y-15517559D02*
X10142452Y-15508035D01*
X10142452Y-15508035D02*
X10123404Y-15498511D01*
X10351976Y-15612797D02*
X10237690Y-15612797D01*
X10294833Y-15612797D02*
X10294833Y-15412797D01*
X10294833Y-15412797D02*
X10275785Y-15441368D01*
X10275785Y-15441368D02*
X10256738Y-15460416D01*
X10256738Y-15460416D02*
X10237690Y-15469940D01*
X10428166Y-15412797D02*
X10428166Y-15450892D01*
X10504357Y-15412797D02*
X10504357Y-15450892D01*
X10799595Y-15688987D02*
X10790071Y-15679464D01*
X10790071Y-15679464D02*
X10771023Y-15650892D01*
X10771023Y-15650892D02*
X10761500Y-15631845D01*
X10761500Y-15631845D02*
X10751976Y-15603273D01*
X10751976Y-15603273D02*
X10742452Y-15555654D01*
X10742452Y-15555654D02*
X10742452Y-15517559D01*
X10742452Y-15517559D02*
X10751976Y-15469940D01*
X10751976Y-15469940D02*
X10761500Y-15441368D01*
X10761500Y-15441368D02*
X10771023Y-15422321D01*
X10771023Y-15422321D02*
X10790071Y-15393749D01*
X10790071Y-15393749D02*
X10799595Y-15384226D01*
X10980547Y-15612797D02*
X10866261Y-15612797D01*
X10923404Y-15612797D02*
X10923404Y-15412797D01*
X10923404Y-15412797D02*
X10904357Y-15441368D01*
X10904357Y-15441368D02*
X10885309Y-15460416D01*
X10885309Y-15460416D02*
X10866261Y-15469940D01*
X11218642Y-15612797D02*
X11218642Y-15412797D01*
X11304357Y-15612797D02*
X11304357Y-15508035D01*
X11304357Y-15508035D02*
X11294833Y-15488987D01*
X11294833Y-15488987D02*
X11275785Y-15479464D01*
X11275785Y-15479464D02*
X11247214Y-15479464D01*
X11247214Y-15479464D02*
X11228166Y-15488987D01*
X11228166Y-15488987D02*
X11218642Y-15498511D01*
X11428166Y-15612797D02*
X11409119Y-15603273D01*
X11409119Y-15603273D02*
X11399595Y-15593749D01*
X11399595Y-15593749D02*
X11390071Y-15574702D01*
X11390071Y-15574702D02*
X11390071Y-15517559D01*
X11390071Y-15517559D02*
X11399595Y-15498511D01*
X11399595Y-15498511D02*
X11409119Y-15488987D01*
X11409119Y-15488987D02*
X11428166Y-15479464D01*
X11428166Y-15479464D02*
X11456738Y-15479464D01*
X11456738Y-15479464D02*
X11475785Y-15488987D01*
X11475785Y-15488987D02*
X11485309Y-15498511D01*
X11485309Y-15498511D02*
X11494833Y-15517559D01*
X11494833Y-15517559D02*
X11494833Y-15574702D01*
X11494833Y-15574702D02*
X11485309Y-15593749D01*
X11485309Y-15593749D02*
X11475785Y-15603273D01*
X11475785Y-15603273D02*
X11456738Y-15612797D01*
X11456738Y-15612797D02*
X11428166Y-15612797D01*
X11609119Y-15612797D02*
X11590071Y-15603273D01*
X11590071Y-15603273D02*
X11580547Y-15584226D01*
X11580547Y-15584226D02*
X11580547Y-15412797D01*
X11761500Y-15603273D02*
X11742452Y-15612797D01*
X11742452Y-15612797D02*
X11704357Y-15612797D01*
X11704357Y-15612797D02*
X11685309Y-15603273D01*
X11685309Y-15603273D02*
X11675785Y-15584226D01*
X11675785Y-15584226D02*
X11675785Y-15508035D01*
X11675785Y-15508035D02*
X11685309Y-15488987D01*
X11685309Y-15488987D02*
X11704357Y-15479464D01*
X11704357Y-15479464D02*
X11742452Y-15479464D01*
X11742452Y-15479464D02*
X11761500Y-15488987D01*
X11761500Y-15488987D02*
X11771023Y-15508035D01*
X11771023Y-15508035D02*
X11771023Y-15527083D01*
X11771023Y-15527083D02*
X11675785Y-15546130D01*
X11837690Y-15688987D02*
X11847214Y-15679464D01*
X11847214Y-15679464D02*
X11866261Y-15650892D01*
X11866261Y-15650892D02*
X11875785Y-15631845D01*
X11875785Y-15631845D02*
X11885309Y-15603273D01*
X11885309Y-15603273D02*
X11894833Y-15555654D01*
X11894833Y-15555654D02*
X11894833Y-15517559D01*
X11894833Y-15517559D02*
X11885309Y-15469940D01*
X11885309Y-15469940D02*
X11875785Y-15441368D01*
X11875785Y-15441368D02*
X11866261Y-15422321D01*
X11866261Y-15422321D02*
X11847214Y-15393749D01*
X11847214Y-15393749D02*
X11837690Y-15384226D01*
M02*
