G04 #@! TF.GenerationSoftware,KiCad,Pcbnew,9.0.0*
G04 #@! TF.CreationDate,2025-04-20T11:40:54+02:00*
G04 #@! TF.ProjectId,Blinkenstar,426c696e-6b65-46e7-9374-61722e6b6963,2.6*
G04 #@! TF.SameCoordinates,Original*
G04 #@! TF.FileFunction,Soldermask,Bot*
G04 #@! TF.FilePolarity,Negative*
%FSLAX46Y46*%
G04 Gerber Fmt 4.6, Leading zero omitted, Abs format (unit mm)*
G04 Created by KiCad (PCBNEW 9.0.0) date 2025-04-20 11:40:54*
%MOMM*%
%LPD*%
G01*
G04 APERTURE LIST*
%ADD10C,1.778000*%
%ADD11C,2.184400*%
%ADD12R,0.300000X1.422400*%
%ADD13R,1.422400X0.300000*%
%ADD14R,1.422400X0.350000*%
%ADD15O,1.524000X3.048000*%
%ADD16R,1.050000X1.080000*%
%ADD17R,1.100000X1.000000*%
%ADD18R,1.080000X1.050000*%
%ADD19R,2.209800X0.609600*%
%ADD20R,1.625600X1.625600*%
%ADD21C,1.625600*%
%ADD22C,1.200000*%
%ADD23R,1.800000X1.500000*%
%ADD24R,1.000000X1.100000*%
G04 APERTURE END LIST*
D10*
X122294055Y-98326459D03*
X122294055Y-95786459D03*
X122294055Y-93246459D03*
X122294055Y-90706459D03*
X122294055Y-88166459D03*
X122294055Y-85626459D03*
X122294055Y-83086459D03*
X122294055Y-80546459D03*
X107294055Y-80546459D03*
X107294055Y-83086459D03*
X107294055Y-85626459D03*
X107294055Y-88166459D03*
X107294055Y-90706459D03*
X107294055Y-93246459D03*
X107294055Y-95786459D03*
X107294055Y-98326459D03*
D11*
X114705155Y-78880577D03*
X114705155Y-99880577D03*
D12*
X112072400Y-84711200D03*
X112872400Y-84711200D03*
X113672400Y-84711200D03*
X114472400Y-84711200D03*
X115272400Y-84711200D03*
X116072400Y-84711200D03*
X116872400Y-84711200D03*
X117672400Y-84711200D03*
D13*
X119161200Y-86200000D03*
X119161200Y-87000000D03*
X119161200Y-87800000D03*
X119161200Y-88600000D03*
X119161200Y-89400000D03*
X119161200Y-90200000D03*
X119161200Y-91000000D03*
D14*
X119161200Y-91825000D03*
D12*
X117672400Y-93288800D03*
X116872400Y-93288800D03*
X116072400Y-93288800D03*
X115272400Y-93288800D03*
X114472400Y-93288800D03*
X113672400Y-93288800D03*
X112872400Y-93288800D03*
X112072400Y-93288800D03*
D13*
X110583600Y-91800000D03*
X110583600Y-91000000D03*
X110583600Y-90200000D03*
X110583600Y-89400000D03*
X110583600Y-88600000D03*
X110583600Y-87800000D03*
X110583600Y-87000000D03*
X110583600Y-86200000D03*
D15*
X135977855Y-118146559D03*
X135977855Y-124648959D03*
X140499055Y-118146559D03*
X140499055Y-124648959D03*
D16*
X116796814Y-95801699D03*
X115046814Y-95801699D03*
D17*
X108670118Y-75958318D03*
X108670118Y-74258318D03*
D18*
X109526015Y-82033599D03*
X109526015Y-80283599D03*
D17*
X119915114Y-82021302D03*
X119915114Y-80321302D03*
D18*
X111933055Y-80306459D03*
X111933055Y-82056459D03*
D19*
X111321800Y-75355000D03*
X111321800Y-74085000D03*
X111321800Y-72815000D03*
X111321800Y-71545000D03*
X118052800Y-71545000D03*
X118052800Y-72815000D03*
X118052800Y-74085000D03*
X118052800Y-75355000D03*
D17*
X121055155Y-76031980D03*
X121055155Y-74331980D03*
D20*
X135950000Y-81800000D03*
D21*
X133410000Y-81800000D03*
X135950000Y-84340000D03*
X133410000Y-84340000D03*
X135950000Y-86880000D03*
X133410000Y-86880000D03*
D22*
X109794055Y-114796459D03*
X119794055Y-114796459D03*
X109794055Y-112296459D03*
X119794055Y-112296459D03*
X114794055Y-107296459D03*
D11*
X119794055Y-107296459D03*
X117294055Y-107296459D03*
X114794055Y-112296459D03*
X109794055Y-107296459D03*
X112294055Y-107296459D03*
D23*
X125750000Y-100950000D03*
X125750000Y-104550000D03*
D17*
X117594055Y-80331459D03*
X117594055Y-82031459D03*
D23*
X104893000Y-100600000D03*
X104893000Y-104200000D03*
D17*
X111450000Y-101700000D03*
X111450000Y-103400000D03*
D24*
X113100000Y-96750000D03*
X111400000Y-96750000D03*
D15*
X88767255Y-117997759D03*
X88767255Y-124500159D03*
X93288455Y-117997759D03*
X93288455Y-124500159D03*
M02*
