G04 #@! TF.GenerationSoftware,KiCad,Pcbnew,9.0.0*
G04 #@! TF.CreationDate,2025-03-28T10:35:15+01:00*
G04 #@! TF.ProjectId,Blinkenstar,426c696e-6b65-46e7-9374-61722e6b6963,rev?*
G04 #@! TF.SameCoordinates,Original*
G04 #@! TF.FileFunction,Profile,NP*
%FSLAX46Y46*%
G04 Gerber Fmt 4.6, Leading zero omitted, Abs format (unit mm)*
G04 Created by KiCad (PCBNEW 9.0.0) date 2025-03-28 10:35:15*
%MOMM*%
%LPD*%
G01*
G04 APERTURE LIST*
G04 #@! TA.AperFunction,Profile*
%ADD10C,0.052916*%
G04 #@! TD*
G04 APERTURE END LIST*
D10*
X115125282Y-47448534D02*
X115312281Y-47455309D01*
X115499707Y-47466272D01*
X115687485Y-47481444D01*
X115875541Y-47500847D01*
X116063800Y-47524502D01*
X116252188Y-47552429D01*
X116440629Y-47584650D01*
X116629050Y-47621185D01*
X116817375Y-47662057D01*
X117005529Y-47707285D01*
X117193439Y-47756892D01*
X117381030Y-47810898D01*
X117568226Y-47869323D01*
X117754953Y-47932191D01*
X117754953Y-47932296D01*
X118036473Y-48036945D01*
X118308671Y-48150714D01*
X118571726Y-48273207D01*
X118825814Y-48404028D01*
X119071112Y-48542782D01*
X119307797Y-48689072D01*
X119536047Y-48842502D01*
X119756038Y-49002676D01*
X120171955Y-49341672D01*
X120556963Y-49702893D01*
X120912482Y-50083171D01*
X121239927Y-50479336D01*
X121540717Y-50888222D01*
X121816267Y-51306659D01*
X122067996Y-51731481D01*
X122297320Y-52159518D01*
X122505658Y-52587603D01*
X122694425Y-53012568D01*
X122865039Y-53431244D01*
X123018918Y-53840464D01*
X123024005Y-53854717D01*
X123028976Y-53869011D01*
X123033828Y-53883346D01*
X123038559Y-53897721D01*
X128319271Y-70156159D01*
X128895663Y-71784690D01*
X149537924Y-71784690D01*
X149915579Y-71795355D01*
X150287106Y-71826968D01*
X150652121Y-71878955D01*
X151010240Y-71950742D01*
X151361078Y-72041754D01*
X151704252Y-72151418D01*
X152039375Y-72279160D01*
X152366065Y-72424405D01*
X152683936Y-72586580D01*
X152992605Y-72765111D01*
X153291687Y-72959422D01*
X153580797Y-73168942D01*
X153859551Y-73393094D01*
X154127566Y-73631306D01*
X154384455Y-73883003D01*
X154629835Y-74147612D01*
X154863322Y-74424557D01*
X155084531Y-74713266D01*
X155293078Y-75013164D01*
X155488578Y-75323677D01*
X155670647Y-75644231D01*
X155838901Y-75974252D01*
X155992955Y-76313166D01*
X156132424Y-76660399D01*
X156256926Y-77015377D01*
X156366074Y-77377525D01*
X156459484Y-77746271D01*
X156536773Y-78121039D01*
X156597556Y-78501255D01*
X156641448Y-78886347D01*
X156668065Y-79275739D01*
X156677023Y-79668858D01*
X156671042Y-79969032D01*
X156653387Y-80263420D01*
X156624488Y-80552060D01*
X156584777Y-80834986D01*
X156534684Y-81112236D01*
X156474641Y-81383844D01*
X156405078Y-81649849D01*
X156326427Y-81910285D01*
X156239118Y-82165190D01*
X156143583Y-82414598D01*
X156040252Y-82658548D01*
X155929557Y-82897074D01*
X155811928Y-83130213D01*
X155687796Y-83358001D01*
X155421750Y-83797670D01*
X155134864Y-84216371D01*
X154830588Y-84614393D01*
X154512369Y-84992026D01*
X154183655Y-85349561D01*
X153847894Y-85687286D01*
X153508535Y-86005493D01*
X153169023Y-86304470D01*
X152832809Y-86584507D01*
X152821543Y-86593582D01*
X152810211Y-86602568D01*
X152798810Y-86611464D01*
X152787338Y-86620267D01*
X139180417Y-96969608D01*
X137888400Y-97946812D01*
X145021811Y-120324357D01*
X145021811Y-120323832D01*
X145130082Y-120698758D01*
X145217016Y-121074636D01*
X145282992Y-121450874D01*
X145328390Y-121826884D01*
X145353590Y-122202074D01*
X145358972Y-122575855D01*
X145344914Y-122947637D01*
X145311798Y-123316829D01*
X145260002Y-123682843D01*
X145189907Y-124045087D01*
X145101891Y-124402972D01*
X144996336Y-124755907D01*
X144873620Y-125103303D01*
X144734124Y-125444570D01*
X144578226Y-125779117D01*
X144406308Y-126106354D01*
X144218747Y-126425693D01*
X144015926Y-126736541D01*
X143798222Y-127038310D01*
X143566015Y-127330410D01*
X143319686Y-127612250D01*
X143059615Y-127883240D01*
X142786180Y-128142791D01*
X142499762Y-128390312D01*
X142200740Y-128625213D01*
X141889494Y-128846904D01*
X141566404Y-129054796D01*
X141231849Y-129248297D01*
X140886210Y-129426819D01*
X140529866Y-129589771D01*
X140163196Y-129736563D01*
X139786581Y-129866605D01*
X139783981Y-129867557D01*
X139491456Y-129953494D01*
X139200977Y-130025672D01*
X138912641Y-130084548D01*
X138626543Y-130130578D01*
X138342778Y-130164220D01*
X138061442Y-130185929D01*
X137782630Y-130196163D01*
X137506439Y-130195377D01*
X137232962Y-130184028D01*
X136962297Y-130162574D01*
X136694538Y-130131470D01*
X136429781Y-130091172D01*
X135909654Y-129984824D01*
X135402681Y-129847182D01*
X134909625Y-129681899D01*
X134431251Y-129492626D01*
X133968323Y-129283016D01*
X133521604Y-129056722D01*
X133091859Y-128817395D01*
X132679852Y-128568688D01*
X132286346Y-128314253D01*
X131912106Y-128057743D01*
X131900458Y-128049484D01*
X131888878Y-128041132D01*
X131877363Y-128032689D01*
X131865915Y-128024155D01*
X116099325Y-116177439D01*
X114628097Y-115040867D01*
X96422604Y-128782761D01*
X96422067Y-128782761D01*
X96102882Y-129010411D01*
X95775680Y-129218326D01*
X95441149Y-129406658D01*
X95099976Y-129575561D01*
X94752848Y-129725189D01*
X94400453Y-129855694D01*
X94043477Y-129967229D01*
X93682607Y-130059949D01*
X93318531Y-130134006D01*
X92951936Y-130189554D01*
X92583508Y-130226746D01*
X92213936Y-130245735D01*
X91843905Y-130246675D01*
X91474104Y-130229718D01*
X91105219Y-130195018D01*
X90737938Y-130142729D01*
X90372947Y-130073004D01*
X90010933Y-129985995D01*
X89652585Y-129881857D01*
X89298589Y-129760742D01*
X88949631Y-129622804D01*
X88606400Y-129468196D01*
X88269582Y-129297071D01*
X87939865Y-129109583D01*
X87617935Y-128905885D01*
X87304479Y-128686130D01*
X87000186Y-128450472D01*
X86705741Y-128199064D01*
X86421833Y-127932058D01*
X86149147Y-127649609D01*
X85888372Y-127351870D01*
X85640194Y-127038993D01*
X85461150Y-126791311D01*
X85295952Y-126540933D01*
X85144193Y-126288106D01*
X85005467Y-126033071D01*
X84879366Y-125776074D01*
X84765485Y-125517357D01*
X84663416Y-125257165D01*
X84572754Y-124995742D01*
X84424021Y-124470176D01*
X84316032Y-123942611D01*
X84245534Y-123414997D01*
X84209274Y-122889285D01*
X84203999Y-122367425D01*
X84226456Y-121851370D01*
X84273391Y-121343068D01*
X84341552Y-120844472D01*
X84427685Y-120357532D01*
X84528537Y-119884198D01*
X84640855Y-119426423D01*
X84761386Y-118986155D01*
X84766097Y-118969990D01*
X84770958Y-118953870D01*
X84775967Y-118937794D01*
X84781125Y-118921763D01*
X91038522Y-99794151D01*
X91569137Y-98189902D01*
X75045291Y-85887296D01*
X75045816Y-85887296D01*
X74745889Y-85650800D01*
X74463180Y-85401126D01*
X74197675Y-85138970D01*
X73949364Y-84865025D01*
X73718234Y-84579987D01*
X73504275Y-84284548D01*
X73307474Y-83979404D01*
X73127819Y-83665249D01*
X72965299Y-83342776D01*
X72819903Y-83012681D01*
X72691619Y-82675658D01*
X72580435Y-82332400D01*
X72486339Y-81983602D01*
X72409319Y-81629959D01*
X72349365Y-81272165D01*
X72306465Y-80910914D01*
X72280606Y-80546900D01*
X72271777Y-80180817D01*
X72279967Y-79813361D01*
X72305164Y-79445224D01*
X72347356Y-79077102D01*
X72406531Y-78709689D01*
X72482678Y-78343679D01*
X72575785Y-77979766D01*
X72685841Y-77618644D01*
X72812834Y-77261008D01*
X72956752Y-76907553D01*
X73117583Y-76558972D01*
X73295317Y-76215959D01*
X73489941Y-75879210D01*
X73701443Y-75549418D01*
X73929812Y-75227277D01*
X74115188Y-74988498D01*
X74306639Y-74761654D01*
X74503833Y-74546444D01*
X74706435Y-74342569D01*
X74914114Y-74149729D01*
X75126535Y-73967624D01*
X75564274Y-73634420D01*
X76016986Y-73340558D01*
X76482008Y-73083638D01*
X76956673Y-72861262D01*
X77438318Y-72671030D01*
X77924276Y-72510543D01*
X78411883Y-72377402D01*
X78898473Y-72269209D01*
X79381383Y-72183563D01*
X79857946Y-72118067D01*
X80325498Y-72070320D01*
X80781374Y-72037924D01*
X81222909Y-72018479D01*
X81238022Y-72018050D01*
X81253138Y-72017757D01*
X81268254Y-72017593D01*
X81283371Y-72017551D01*
X98633834Y-72041734D01*
X98642682Y-72045071D01*
X98651510Y-72048454D01*
X100984384Y-72048454D01*
X107958639Y-52075512D01*
X108057912Y-51809497D01*
X108167536Y-51550469D01*
X108287205Y-51298512D01*
X108416615Y-51053711D01*
X108555458Y-50816150D01*
X108703429Y-50585913D01*
X109025533Y-50147750D01*
X109380479Y-49739897D01*
X109765820Y-49363029D01*
X110179111Y-49017820D01*
X110617904Y-48704945D01*
X111079753Y-48425080D01*
X111562212Y-48178898D01*
X112062833Y-47967075D01*
X112579170Y-47790285D01*
X113108776Y-47649204D01*
X113649204Y-47544506D01*
X114198009Y-47476866D01*
X114752743Y-47446958D01*
X114752865Y-47447465D01*
X114938786Y-47445926D01*
X115125282Y-47448534D01*
M02*
