G04 #@! TF.GenerationSoftware,KiCad,Pcbnew,9.0.0*
G04 #@! TF.CreationDate,2025-03-28T10:35:15+01:00*
G04 #@! TF.ProjectId,Blinkenstar,426c696e-6b65-46e7-9374-61722e6b6963,rev?*
G04 #@! TF.SameCoordinates,Original*
G04 #@! TF.FileFunction,Paste,Bot*
G04 #@! TF.FilePolarity,Positive*
%FSLAX46Y46*%
G04 Gerber Fmt 4.6, Leading zero omitted, Abs format (unit mm)*
G04 Created by KiCad (PCBNEW 9.0.0) date 2025-03-28 10:35:15*
%MOMM*%
%LPD*%
G01*
G04 APERTURE LIST*
%ADD10R,1.100000X1.000000*%
%ADD11R,1.100000X0.300000*%
%ADD12R,0.300000X1.100000*%
%ADD13R,1.050000X1.080000*%
%ADD14R,1.080000X1.050000*%
%ADD15R,2.209800X0.609600*%
%ADD16R,1.800000X1.500000*%
%ADD17R,1.000000X1.100000*%
G04 APERTURE END LIST*
D10*
X119915114Y-80321302D03*
X119915114Y-82021302D03*
D11*
X110744800Y-86200000D03*
X110744800Y-87000000D03*
X110744800Y-87800000D03*
X110744800Y-88600000D03*
X110744800Y-89400000D03*
X110744800Y-90200000D03*
X110744800Y-91000000D03*
X110744800Y-91800000D03*
D12*
X112072400Y-93127600D03*
X112872400Y-93127600D03*
X113672400Y-93127600D03*
X114472400Y-93127600D03*
X115272400Y-93127600D03*
X116072400Y-93127600D03*
X116872400Y-93127600D03*
X117672400Y-93127600D03*
D11*
X119000000Y-91800000D03*
X119000000Y-91000000D03*
X119000000Y-90200000D03*
X119000000Y-89400000D03*
X119000000Y-88600000D03*
X119000000Y-87800000D03*
X119000000Y-87000000D03*
X119000000Y-86200000D03*
D12*
X117672400Y-84872400D03*
X116872400Y-84872400D03*
X116072400Y-84872400D03*
X115272400Y-84872400D03*
X114472400Y-84872400D03*
X113672400Y-84872400D03*
X112872400Y-84872400D03*
X112072400Y-84872400D03*
D13*
X116796814Y-95801699D03*
X115046814Y-95801699D03*
D10*
X108670118Y-75958318D03*
X108670118Y-74258318D03*
D14*
X109526015Y-82033599D03*
X109526015Y-80283599D03*
X111933055Y-80306459D03*
X111933055Y-82056459D03*
D15*
X111321800Y-75355000D03*
X111321800Y-74085000D03*
X111321800Y-72815000D03*
X111321800Y-71545000D03*
X118052800Y-71545000D03*
X118052800Y-72815000D03*
X118052800Y-74085000D03*
X118052800Y-75355000D03*
D10*
X121055155Y-76031980D03*
X121055155Y-74331980D03*
D16*
X125750000Y-100950000D03*
X125750000Y-104550000D03*
D10*
X117594055Y-80331459D03*
X117594055Y-82031459D03*
D16*
X104893000Y-100600000D03*
X104893000Y-104200000D03*
D10*
X111450000Y-101700000D03*
X111450000Y-103400000D03*
D17*
X113100000Y-96750000D03*
X111400000Y-96750000D03*
M02*
