G04 #@! TF.GenerationSoftware,KiCad,Pcbnew,9.0.0*
G04 #@! TF.CreationDate,2025-03-28T10:35:15+01:00*
G04 #@! TF.ProjectId,Blinkenstar,426c696e-6b65-46e7-9374-61722e6b6963,rev?*
G04 #@! TF.SameCoordinates,Original*
G04 #@! TF.FileFunction,Soldermask,Top*
G04 #@! TF.FilePolarity,Negative*
%FSLAX46Y46*%
G04 Gerber Fmt 4.6, Leading zero omitted, Abs format (unit mm)*
G04 Created by KiCad (PCBNEW 9.0.0) date 2025-03-28 10:35:15*
%MOMM*%
%LPD*%
G01*
G04 APERTURE LIST*
G04 Aperture macros list*
%AMRoundRect*
0 Rectangle with rounded corners*
0 $1 Rounding radius*
0 $2 $3 $4 $5 $6 $7 $8 $9 X,Y pos of 4 corners*
0 Add a 4 corners polygon primitive as box body*
4,1,4,$2,$3,$4,$5,$6,$7,$8,$9,$2,$3,0*
0 Add four circle primitives for the rounded corners*
1,1,$1+$1,$2,$3*
1,1,$1+$1,$4,$5*
1,1,$1+$1,$6,$7*
1,1,$1+$1,$8,$9*
0 Add four rect primitives between the rounded corners*
20,1,$1+$1,$2,$3,$4,$5,0*
20,1,$1+$1,$4,$5,$6,$7,0*
20,1,$1+$1,$6,$7,$8,$9,0*
20,1,$1+$1,$8,$9,$2,$3,0*%
G04 Aperture macros list end*
%ADD10C,0.182880*%
%ADD11C,1.879600*%
%ADD12C,2.286000*%
%ADD13RoundRect,0.050800X1.092200X1.500000X-1.092200X1.500000X-1.092200X-1.500000X1.092200X-1.500000X0*%
%ADD14RoundRect,0.050800X-1.092200X-1.500000X1.092200X-1.500000X1.092200X1.500000X-1.092200X1.500000X0*%
%ADD15O,1.625600X3.149600*%
%ADD16C,1.727200*%
%ADD17C,1.200000*%
G04 APERTURE END LIST*
D10*
X123294486Y-108023260D02*
X123294486Y-107291740D01*
X123642829Y-108023260D02*
X123642829Y-107291740D01*
X123642829Y-107291740D02*
X124060840Y-108023260D01*
X124060840Y-108023260D02*
X124060840Y-107291740D01*
X125210372Y-107640083D02*
X124966532Y-107640083D01*
X124966532Y-108023260D02*
X124966532Y-107291740D01*
X124966532Y-107291740D02*
X125314875Y-107291740D01*
X125558715Y-107814254D02*
X125907058Y-107814254D01*
X125489046Y-108023260D02*
X125732886Y-107291740D01*
X125732886Y-107291740D02*
X125976726Y-108023260D01*
X126220566Y-108023260D02*
X126220566Y-107291740D01*
X126986920Y-108023260D02*
X126743080Y-107674917D01*
X126568909Y-108023260D02*
X126568909Y-107291740D01*
X126568909Y-107291740D02*
X126847583Y-107291740D01*
X126847583Y-107291740D02*
X126917252Y-107326574D01*
X126917252Y-107326574D02*
X126952086Y-107361408D01*
X126952086Y-107361408D02*
X126986920Y-107431077D01*
X126986920Y-107431077D02*
X126986920Y-107535580D01*
X126986920Y-107535580D02*
X126952086Y-107605248D01*
X126952086Y-107605248D02*
X126917252Y-107640083D01*
X126917252Y-107640083D02*
X126847583Y-107674917D01*
X126847583Y-107674917D02*
X126568909Y-107674917D01*
X127439766Y-107674917D02*
X127439766Y-108023260D01*
X127195926Y-107291740D02*
X127439766Y-107674917D01*
X127439766Y-107674917D02*
X127683606Y-107291740D01*
X127927446Y-108023260D02*
X127927446Y-107291740D01*
X127927446Y-107291740D02*
X128101617Y-107291740D01*
X128101617Y-107291740D02*
X128206120Y-107326574D01*
X128206120Y-107326574D02*
X128275789Y-107396243D01*
X128275789Y-107396243D02*
X128310623Y-107465911D01*
X128310623Y-107465911D02*
X128345457Y-107605248D01*
X128345457Y-107605248D02*
X128345457Y-107709751D01*
X128345457Y-107709751D02*
X128310623Y-107849088D01*
X128310623Y-107849088D02*
X128275789Y-107918757D01*
X128275789Y-107918757D02*
X128206120Y-107988426D01*
X128206120Y-107988426D02*
X128101617Y-108023260D01*
X128101617Y-108023260D02*
X127927446Y-108023260D01*
X128658966Y-107291740D02*
X128658966Y-107883923D01*
X128658966Y-107883923D02*
X128693800Y-107953591D01*
X128693800Y-107953591D02*
X128728635Y-107988426D01*
X128728635Y-107988426D02*
X128798303Y-108023260D01*
X128798303Y-108023260D02*
X128937640Y-108023260D01*
X128937640Y-108023260D02*
X129007309Y-107988426D01*
X129007309Y-107988426D02*
X129042143Y-107953591D01*
X129042143Y-107953591D02*
X129076977Y-107883923D01*
X129076977Y-107883923D02*
X129076977Y-107291740D01*
X129390486Y-107988426D02*
X129494989Y-108023260D01*
X129494989Y-108023260D02*
X129669160Y-108023260D01*
X129669160Y-108023260D02*
X129738829Y-107988426D01*
X129738829Y-107988426D02*
X129773663Y-107953591D01*
X129773663Y-107953591D02*
X129808497Y-107883923D01*
X129808497Y-107883923D02*
X129808497Y-107814254D01*
X129808497Y-107814254D02*
X129773663Y-107744586D01*
X129773663Y-107744586D02*
X129738829Y-107709751D01*
X129738829Y-107709751D02*
X129669160Y-107674917D01*
X129669160Y-107674917D02*
X129529823Y-107640083D01*
X129529823Y-107640083D02*
X129460154Y-107605248D01*
X129460154Y-107605248D02*
X129425320Y-107570414D01*
X129425320Y-107570414D02*
X129390486Y-107500746D01*
X129390486Y-107500746D02*
X129390486Y-107431077D01*
X129390486Y-107431077D02*
X129425320Y-107361408D01*
X129425320Y-107361408D02*
X129460154Y-107326574D01*
X129460154Y-107326574D02*
X129529823Y-107291740D01*
X129529823Y-107291740D02*
X129703994Y-107291740D01*
X129703994Y-107291740D02*
X129808497Y-107326574D01*
X130017503Y-107291740D02*
X130435515Y-107291740D01*
X130226509Y-108023260D02*
X130226509Y-107291740D01*
X123224817Y-108469446D02*
X123398989Y-109200966D01*
X123398989Y-109200966D02*
X123538326Y-108678452D01*
X123538326Y-108678452D02*
X123677663Y-109200966D01*
X123677663Y-109200966D02*
X123851835Y-108469446D01*
X124130509Y-108817789D02*
X124374349Y-108817789D01*
X124478852Y-109200966D02*
X124130509Y-109200966D01*
X124130509Y-109200966D02*
X124130509Y-108469446D01*
X124130509Y-108469446D02*
X124478852Y-108469446D01*
X125245206Y-108469446D02*
X125663218Y-108469446D01*
X125454212Y-109200966D02*
X125454212Y-108469446D01*
X126325069Y-109200966D02*
X126081229Y-108852623D01*
X125907058Y-109200966D02*
X125907058Y-108469446D01*
X125907058Y-108469446D02*
X126185732Y-108469446D01*
X126185732Y-108469446D02*
X126255401Y-108504280D01*
X126255401Y-108504280D02*
X126290235Y-108539114D01*
X126290235Y-108539114D02*
X126325069Y-108608783D01*
X126325069Y-108608783D02*
X126325069Y-108713286D01*
X126325069Y-108713286D02*
X126290235Y-108782954D01*
X126290235Y-108782954D02*
X126255401Y-108817789D01*
X126255401Y-108817789D02*
X126185732Y-108852623D01*
X126185732Y-108852623D02*
X125907058Y-108852623D01*
X126638578Y-108469446D02*
X126638578Y-109061629D01*
X126638578Y-109061629D02*
X126673412Y-109131297D01*
X126673412Y-109131297D02*
X126708247Y-109166132D01*
X126708247Y-109166132D02*
X126777915Y-109200966D01*
X126777915Y-109200966D02*
X126917252Y-109200966D01*
X126917252Y-109200966D02*
X126986921Y-109166132D01*
X126986921Y-109166132D02*
X127021755Y-109131297D01*
X127021755Y-109131297D02*
X127056589Y-109061629D01*
X127056589Y-109061629D02*
X127056589Y-108469446D01*
X127370098Y-109166132D02*
X127474601Y-109200966D01*
X127474601Y-109200966D02*
X127648772Y-109200966D01*
X127648772Y-109200966D02*
X127718441Y-109166132D01*
X127718441Y-109166132D02*
X127753275Y-109131297D01*
X127753275Y-109131297D02*
X127788109Y-109061629D01*
X127788109Y-109061629D02*
X127788109Y-108991960D01*
X127788109Y-108991960D02*
X127753275Y-108922292D01*
X127753275Y-108922292D02*
X127718441Y-108887457D01*
X127718441Y-108887457D02*
X127648772Y-108852623D01*
X127648772Y-108852623D02*
X127509435Y-108817789D01*
X127509435Y-108817789D02*
X127439766Y-108782954D01*
X127439766Y-108782954D02*
X127404932Y-108748120D01*
X127404932Y-108748120D02*
X127370098Y-108678452D01*
X127370098Y-108678452D02*
X127370098Y-108608783D01*
X127370098Y-108608783D02*
X127404932Y-108539114D01*
X127404932Y-108539114D02*
X127439766Y-108504280D01*
X127439766Y-108504280D02*
X127509435Y-108469446D01*
X127509435Y-108469446D02*
X127683606Y-108469446D01*
X127683606Y-108469446D02*
X127788109Y-108504280D01*
X127997115Y-108469446D02*
X128415127Y-108469446D01*
X128206121Y-109200966D02*
X128206121Y-108469446D01*
X128658967Y-109131297D02*
X128693801Y-109166132D01*
X128693801Y-109166132D02*
X128658967Y-109200966D01*
X128658967Y-109200966D02*
X128624133Y-109166132D01*
X128624133Y-109166132D02*
X128658967Y-109131297D01*
X128658967Y-109131297D02*
X128658967Y-109200966D01*
X129007310Y-109131297D02*
X129042144Y-109166132D01*
X129042144Y-109166132D02*
X129007310Y-109200966D01*
X129007310Y-109200966D02*
X128972476Y-109166132D01*
X128972476Y-109166132D02*
X129007310Y-109131297D01*
X129007310Y-109131297D02*
X129007310Y-109200966D01*
D11*
X122294055Y-98326459D03*
X122294055Y-95786459D03*
X122294055Y-93246459D03*
X122294055Y-90706459D03*
X122294055Y-88166459D03*
X122294055Y-85626459D03*
X122294055Y-83086459D03*
X122294055Y-80546459D03*
X107294055Y-80546459D03*
X107294055Y-83086459D03*
X107294055Y-85626459D03*
X107294055Y-88166459D03*
X107294055Y-90706459D03*
X107294055Y-93246459D03*
X107294055Y-95786459D03*
X107294055Y-98326459D03*
D12*
X114705155Y-78880577D03*
X114705155Y-99880577D03*
D13*
X114705155Y-77880577D03*
D14*
X114705155Y-100880577D03*
D15*
X135977855Y-118146559D03*
X135977855Y-124648959D03*
X140499055Y-118146559D03*
X140499055Y-124648959D03*
D16*
X133060000Y-82130000D03*
X133060000Y-84670000D03*
X135600000Y-82130000D03*
X135600000Y-84670000D03*
X138140000Y-82130000D03*
X138140000Y-84670000D03*
D17*
X109794055Y-114796459D03*
X119794055Y-114796459D03*
X109794055Y-112296459D03*
X119794055Y-112296459D03*
X114794055Y-107296459D03*
D12*
X119794055Y-107296459D03*
X117294055Y-107296459D03*
X114794055Y-112296459D03*
X109794055Y-107296459D03*
X112294055Y-107296459D03*
D15*
X88767255Y-117997759D03*
X88767255Y-124500159D03*
X93288455Y-117997759D03*
X93288455Y-124500159D03*
M02*
