G04 #@! TF.GenerationSoftware,KiCad,Pcbnew,9.0.0*
G04 #@! TF.CreationDate,2025-04-20T11:40:54+02:00*
G04 #@! TF.ProjectId,Blinkenstar,426c696e-6b65-46e7-9374-61722e6b6963,2.6*
G04 #@! TF.SameCoordinates,Original*
G04 #@! TF.FileFunction,Legend,Bot*
G04 #@! TF.FilePolarity,Positive*
%FSLAX46Y46*%
G04 Gerber Fmt 4.6, Leading zero omitted, Abs format (unit mm)*
G04 Created by KiCad (PCBNEW 9.0.0) date 2025-04-20 11:40:54*
%MOMM*%
%LPD*%
G01*
G04 APERTURE LIST*
%ADD10C,0.406400*%
%ADD11C,0.200000*%
%ADD12C,0.081280*%
%ADD13C,0.115000*%
%ADD14C,0.127000*%
%ADD15C,0.152400*%
%ADD16C,0.050800*%
%ADD17C,0.203200*%
%ADD18C,0.250000*%
%ADD19C,1.778000*%
%ADD20C,2.184400*%
%ADD21R,0.300000X1.422400*%
%ADD22R,1.422400X0.300000*%
%ADD23R,1.422400X0.350000*%
%ADD24O,1.524000X3.048000*%
%ADD25R,1.050000X1.080000*%
%ADD26R,1.100000X1.000000*%
%ADD27R,1.080000X1.050000*%
%ADD28R,2.209800X0.609600*%
%ADD29R,1.625600X1.625600*%
%ADD30C,1.625600*%
%ADD31C,1.200000*%
%ADD32R,1.800000X1.500000*%
%ADD33R,1.000000X1.100000*%
G04 APERTURE END LIST*
D10*
X137225000Y-80525000D02*
X137225000Y-82430000D01*
X132145000Y-80525000D02*
X137225000Y-80525000D01*
X138495000Y-86240000D02*
X137225000Y-86240000D01*
X137225000Y-86240000D02*
X137225000Y-88145000D01*
X132145000Y-80525000D02*
X132145000Y-88145000D01*
X138495000Y-82430000D02*
X138495000Y-86240000D01*
X132145000Y-88145000D02*
X137225000Y-88145000D01*
X137225000Y-82430000D02*
X138495000Y-82430000D01*
D11*
X136360149Y-90643790D02*
X136360149Y-89043790D01*
X135103006Y-90491409D02*
X135160149Y-90567600D01*
X135160149Y-90567600D02*
X135331577Y-90643790D01*
X135331577Y-90643790D02*
X135445863Y-90643790D01*
X135445863Y-90643790D02*
X135617292Y-90567600D01*
X135617292Y-90567600D02*
X135731577Y-90415219D01*
X135731577Y-90415219D02*
X135788720Y-90262838D01*
X135788720Y-90262838D02*
X135845863Y-89958076D01*
X135845863Y-89958076D02*
X135845863Y-89729504D01*
X135845863Y-89729504D02*
X135788720Y-89424742D01*
X135788720Y-89424742D02*
X135731577Y-89272361D01*
X135731577Y-89272361D02*
X135617292Y-89119980D01*
X135617292Y-89119980D02*
X135445863Y-89043790D01*
X135445863Y-89043790D02*
X135331577Y-89043790D01*
X135331577Y-89043790D02*
X135160149Y-89119980D01*
X135160149Y-89119980D02*
X135103006Y-89196171D01*
X134645863Y-90567600D02*
X134474435Y-90643790D01*
X134474435Y-90643790D02*
X134188720Y-90643790D01*
X134188720Y-90643790D02*
X134074435Y-90567600D01*
X134074435Y-90567600D02*
X134017292Y-90491409D01*
X134017292Y-90491409D02*
X133960149Y-90339028D01*
X133960149Y-90339028D02*
X133960149Y-90186647D01*
X133960149Y-90186647D02*
X134017292Y-90034266D01*
X134017292Y-90034266D02*
X134074435Y-89958076D01*
X134074435Y-89958076D02*
X134188720Y-89881885D01*
X134188720Y-89881885D02*
X134417292Y-89805695D01*
X134417292Y-89805695D02*
X134531577Y-89729504D01*
X134531577Y-89729504D02*
X134588720Y-89653314D01*
X134588720Y-89653314D02*
X134645863Y-89500933D01*
X134645863Y-89500933D02*
X134645863Y-89348552D01*
X134645863Y-89348552D02*
X134588720Y-89196171D01*
X134588720Y-89196171D02*
X134531577Y-89119980D01*
X134531577Y-89119980D02*
X134417292Y-89043790D01*
X134417292Y-89043790D02*
X134131577Y-89043790D01*
X134131577Y-89043790D02*
X133960149Y-89119980D01*
X133445863Y-90643790D02*
X133445863Y-89043790D01*
X133445863Y-89043790D02*
X132988720Y-89043790D01*
X132988720Y-89043790D02*
X132874435Y-89119980D01*
X132874435Y-89119980D02*
X132817292Y-89196171D01*
X132817292Y-89196171D02*
X132760149Y-89348552D01*
X132760149Y-89348552D02*
X132760149Y-89577123D01*
X132760149Y-89577123D02*
X132817292Y-89729504D01*
X132817292Y-89729504D02*
X132874435Y-89805695D01*
X132874435Y-89805695D02*
X132988720Y-89881885D01*
X132988720Y-89881885D02*
X133445863Y-89881885D01*
D12*
X94818485Y-75186871D02*
X94684953Y-75231381D01*
X94684953Y-75231381D02*
X94462401Y-75231381D01*
X94462401Y-75231381D02*
X94373380Y-75186871D01*
X94373380Y-75186871D02*
X94328869Y-75142360D01*
X94328869Y-75142360D02*
X94284359Y-75053339D01*
X94284359Y-75053339D02*
X94284359Y-74964318D01*
X94284359Y-74964318D02*
X94328869Y-74875297D01*
X94328869Y-74875297D02*
X94373380Y-74830787D01*
X94373380Y-74830787D02*
X94462401Y-74786276D01*
X94462401Y-74786276D02*
X94640443Y-74741766D01*
X94640443Y-74741766D02*
X94729464Y-74697255D01*
X94729464Y-74697255D02*
X94773974Y-74652745D01*
X94773974Y-74652745D02*
X94818485Y-74563724D01*
X94818485Y-74563724D02*
X94818485Y-74474703D01*
X94818485Y-74474703D02*
X94773974Y-74385682D01*
X94773974Y-74385682D02*
X94729464Y-74341171D01*
X94729464Y-74341171D02*
X94640443Y-74296661D01*
X94640443Y-74296661D02*
X94417890Y-74296661D01*
X94417890Y-74296661D02*
X94284359Y-74341171D01*
X94017296Y-74296661D02*
X93483170Y-74296661D01*
X93750233Y-75231381D02*
X93750233Y-74296661D01*
X93171596Y-74741766D02*
X92860023Y-74741766D01*
X92726491Y-75231381D02*
X93171596Y-75231381D01*
X93171596Y-75231381D02*
X93171596Y-74296661D01*
X93171596Y-74296661D02*
X92726491Y-74296661D01*
X91791771Y-75231381D02*
X92103345Y-74786276D01*
X92325897Y-75231381D02*
X92325897Y-74296661D01*
X92325897Y-74296661D02*
X91969813Y-74296661D01*
X91969813Y-74296661D02*
X91880792Y-74341171D01*
X91880792Y-74341171D02*
X91836282Y-74385682D01*
X91836282Y-74385682D02*
X91791771Y-74474703D01*
X91791771Y-74474703D02*
X91791771Y-74608234D01*
X91791771Y-74608234D02*
X91836282Y-74697255D01*
X91836282Y-74697255D02*
X91880792Y-74741766D01*
X91880792Y-74741766D02*
X91969813Y-74786276D01*
X91969813Y-74786276D02*
X92325897Y-74786276D01*
X91391177Y-75231381D02*
X91391177Y-74296661D01*
X91391177Y-74296661D02*
X90857051Y-75231381D01*
X90857051Y-75231381D02*
X90857051Y-74296661D01*
X90411947Y-74741766D02*
X90100374Y-74741766D01*
X89966842Y-75231381D02*
X90411947Y-75231381D01*
X90411947Y-75231381D02*
X90411947Y-74296661D01*
X90411947Y-74296661D02*
X89966842Y-74296661D01*
X89566248Y-75231381D02*
X89566248Y-74296661D01*
X89566248Y-74296661D02*
X89032122Y-75231381D01*
X89032122Y-75231381D02*
X89032122Y-74296661D01*
X88141913Y-75231381D02*
X88587018Y-75231381D01*
X88587018Y-75231381D02*
X88587018Y-74296661D01*
X87874851Y-74964318D02*
X87429746Y-74964318D01*
X87963872Y-75231381D02*
X87652298Y-74296661D01*
X87652298Y-74296661D02*
X87340725Y-75231381D01*
X86717578Y-74741766D02*
X86584046Y-74786276D01*
X86584046Y-74786276D02*
X86539536Y-74830787D01*
X86539536Y-74830787D02*
X86495025Y-74919808D01*
X86495025Y-74919808D02*
X86495025Y-75053339D01*
X86495025Y-75053339D02*
X86539536Y-75142360D01*
X86539536Y-75142360D02*
X86584046Y-75186871D01*
X86584046Y-75186871D02*
X86673067Y-75231381D01*
X86673067Y-75231381D02*
X87029151Y-75231381D01*
X87029151Y-75231381D02*
X87029151Y-74296661D01*
X87029151Y-74296661D02*
X86717578Y-74296661D01*
X86717578Y-74296661D02*
X86628557Y-74341171D01*
X86628557Y-74341171D02*
X86584046Y-74385682D01*
X86584046Y-74385682D02*
X86539536Y-74474703D01*
X86539536Y-74474703D02*
X86539536Y-74563724D01*
X86539536Y-74563724D02*
X86584046Y-74652745D01*
X86584046Y-74652745D02*
X86628557Y-74697255D01*
X86628557Y-74697255D02*
X86717578Y-74741766D01*
X86717578Y-74741766D02*
X87029151Y-74741766D01*
X85916389Y-74296661D02*
X85738347Y-74296661D01*
X85738347Y-74296661D02*
X85649326Y-74341171D01*
X85649326Y-74341171D02*
X85560305Y-74430192D01*
X85560305Y-74430192D02*
X85515795Y-74608234D01*
X85515795Y-74608234D02*
X85515795Y-74919808D01*
X85515795Y-74919808D02*
X85560305Y-75097850D01*
X85560305Y-75097850D02*
X85649326Y-75186871D01*
X85649326Y-75186871D02*
X85738347Y-75231381D01*
X85738347Y-75231381D02*
X85916389Y-75231381D01*
X85916389Y-75231381D02*
X86005410Y-75186871D01*
X86005410Y-75186871D02*
X86094431Y-75097850D01*
X86094431Y-75097850D02*
X86138942Y-74919808D01*
X86138942Y-74919808D02*
X86138942Y-74608234D01*
X86138942Y-74608234D02*
X86094431Y-74430192D01*
X86094431Y-74430192D02*
X86005410Y-74341171D01*
X86005410Y-74341171D02*
X85916389Y-74296661D01*
X84581075Y-75231381D02*
X84892649Y-74786276D01*
X85115201Y-75231381D02*
X85115201Y-74296661D01*
X85115201Y-74296661D02*
X84759117Y-74296661D01*
X84759117Y-74296661D02*
X84670096Y-74341171D01*
X84670096Y-74341171D02*
X84625586Y-74385682D01*
X84625586Y-74385682D02*
X84581075Y-74474703D01*
X84581075Y-74474703D02*
X84581075Y-74608234D01*
X84581075Y-74608234D02*
X84625586Y-74697255D01*
X84625586Y-74697255D02*
X84670096Y-74741766D01*
X84670096Y-74741766D02*
X84759117Y-74786276D01*
X84759117Y-74786276D02*
X85115201Y-74786276D01*
X84180481Y-75142360D02*
X84135971Y-75186871D01*
X84135971Y-75186871D02*
X84180481Y-75231381D01*
X84180481Y-75231381D02*
X84224992Y-75186871D01*
X84224992Y-75186871D02*
X84180481Y-75142360D01*
X84180481Y-75142360D02*
X84180481Y-75231381D01*
X83735376Y-75231381D02*
X83735376Y-74296661D01*
X83735376Y-74296661D02*
X83512824Y-74296661D01*
X83512824Y-74296661D02*
X83379292Y-74341171D01*
X83379292Y-74341171D02*
X83290271Y-74430192D01*
X83290271Y-74430192D02*
X83245761Y-74519213D01*
X83245761Y-74519213D02*
X83201250Y-74697255D01*
X83201250Y-74697255D02*
X83201250Y-74830787D01*
X83201250Y-74830787D02*
X83245761Y-75008829D01*
X83245761Y-75008829D02*
X83290271Y-75097850D01*
X83290271Y-75097850D02*
X83379292Y-75186871D01*
X83379292Y-75186871D02*
X83512824Y-75231381D01*
X83512824Y-75231381D02*
X83735376Y-75231381D01*
X82800656Y-74741766D02*
X82489083Y-74741766D01*
X82355551Y-75231381D02*
X82800656Y-75231381D01*
X82800656Y-75231381D02*
X82800656Y-74296661D01*
X82800656Y-74296661D02*
X82355551Y-74296661D01*
X144212401Y-74641766D02*
X144078869Y-74686276D01*
X144078869Y-74686276D02*
X144034359Y-74730787D01*
X144034359Y-74730787D02*
X143989848Y-74819808D01*
X143989848Y-74819808D02*
X143989848Y-74953339D01*
X143989848Y-74953339D02*
X144034359Y-75042360D01*
X144034359Y-75042360D02*
X144078869Y-75086871D01*
X144078869Y-75086871D02*
X144167890Y-75131381D01*
X144167890Y-75131381D02*
X144523974Y-75131381D01*
X144523974Y-75131381D02*
X144523974Y-74196661D01*
X144523974Y-74196661D02*
X144212401Y-74196661D01*
X144212401Y-74196661D02*
X144123380Y-74241171D01*
X144123380Y-74241171D02*
X144078869Y-74285682D01*
X144078869Y-74285682D02*
X144034359Y-74374703D01*
X144034359Y-74374703D02*
X144034359Y-74463724D01*
X144034359Y-74463724D02*
X144078869Y-74552745D01*
X144078869Y-74552745D02*
X144123380Y-74597255D01*
X144123380Y-74597255D02*
X144212401Y-74641766D01*
X144212401Y-74641766D02*
X144523974Y-74641766D01*
X143144149Y-75131381D02*
X143589254Y-75131381D01*
X143589254Y-75131381D02*
X143589254Y-74196661D01*
X142832576Y-75131381D02*
X142832576Y-74196661D01*
X142387471Y-75131381D02*
X142387471Y-74196661D01*
X142387471Y-74196661D02*
X141853345Y-75131381D01*
X141853345Y-75131381D02*
X141853345Y-74196661D01*
X141408241Y-75131381D02*
X141408241Y-74196661D01*
X140874115Y-75131381D02*
X141274710Y-74597255D01*
X140874115Y-74196661D02*
X141408241Y-74730787D01*
X140473521Y-74641766D02*
X140161948Y-74641766D01*
X140028416Y-75131381D02*
X140473521Y-75131381D01*
X140473521Y-75131381D02*
X140473521Y-74196661D01*
X140473521Y-74196661D02*
X140028416Y-74196661D01*
X139627822Y-75131381D02*
X139627822Y-74196661D01*
X139627822Y-74196661D02*
X139093696Y-75131381D01*
X139093696Y-75131381D02*
X139093696Y-74196661D01*
X138693103Y-75086871D02*
X138559571Y-75131381D01*
X138559571Y-75131381D02*
X138337019Y-75131381D01*
X138337019Y-75131381D02*
X138247998Y-75086871D01*
X138247998Y-75086871D02*
X138203487Y-75042360D01*
X138203487Y-75042360D02*
X138158977Y-74953339D01*
X138158977Y-74953339D02*
X138158977Y-74864318D01*
X138158977Y-74864318D02*
X138203487Y-74775297D01*
X138203487Y-74775297D02*
X138247998Y-74730787D01*
X138247998Y-74730787D02*
X138337019Y-74686276D01*
X138337019Y-74686276D02*
X138515061Y-74641766D01*
X138515061Y-74641766D02*
X138604082Y-74597255D01*
X138604082Y-74597255D02*
X138648592Y-74552745D01*
X138648592Y-74552745D02*
X138693103Y-74463724D01*
X138693103Y-74463724D02*
X138693103Y-74374703D01*
X138693103Y-74374703D02*
X138648592Y-74285682D01*
X138648592Y-74285682D02*
X138604082Y-74241171D01*
X138604082Y-74241171D02*
X138515061Y-74196661D01*
X138515061Y-74196661D02*
X138292508Y-74196661D01*
X138292508Y-74196661D02*
X138158977Y-74241171D01*
X137891914Y-74196661D02*
X137357788Y-74196661D01*
X137624851Y-75131381D02*
X137624851Y-74196661D01*
X137090725Y-74864318D02*
X136645620Y-74864318D01*
X137179746Y-75131381D02*
X136868172Y-74196661D01*
X136868172Y-74196661D02*
X136556599Y-75131381D01*
X135710899Y-75131381D02*
X136022473Y-74686276D01*
X136245025Y-75131381D02*
X136245025Y-74196661D01*
X136245025Y-74196661D02*
X135888941Y-74196661D01*
X135888941Y-74196661D02*
X135799920Y-74241171D01*
X135799920Y-74241171D02*
X135755410Y-74285682D01*
X135755410Y-74285682D02*
X135710899Y-74374703D01*
X135710899Y-74374703D02*
X135710899Y-74508234D01*
X135710899Y-74508234D02*
X135755410Y-74597255D01*
X135755410Y-74597255D02*
X135799920Y-74641766D01*
X135799920Y-74641766D02*
X135888941Y-74686276D01*
X135888941Y-74686276D02*
X136245025Y-74686276D01*
D11*
X143288721Y-82591970D02*
X143288721Y-80991970D01*
X143288721Y-80991970D02*
X142888721Y-82134827D01*
X142888721Y-82134827D02*
X142488721Y-80991970D01*
X142488721Y-80991970D02*
X142488721Y-82591970D01*
X141917292Y-82591970D02*
X141917292Y-80991970D01*
X141403006Y-82515780D02*
X141231578Y-82591970D01*
X141231578Y-82591970D02*
X140945863Y-82591970D01*
X140945863Y-82591970D02*
X140831578Y-82515780D01*
X140831578Y-82515780D02*
X140774435Y-82439589D01*
X140774435Y-82439589D02*
X140717292Y-82287208D01*
X140717292Y-82287208D02*
X140717292Y-82134827D01*
X140717292Y-82134827D02*
X140774435Y-81982446D01*
X140774435Y-81982446D02*
X140831578Y-81906256D01*
X140831578Y-81906256D02*
X140945863Y-81830065D01*
X140945863Y-81830065D02*
X141174435Y-81753875D01*
X141174435Y-81753875D02*
X141288720Y-81677684D01*
X141288720Y-81677684D02*
X141345863Y-81601494D01*
X141345863Y-81601494D02*
X141403006Y-81449113D01*
X141403006Y-81449113D02*
X141403006Y-81296732D01*
X141403006Y-81296732D02*
X141345863Y-81144351D01*
X141345863Y-81144351D02*
X141288720Y-81068160D01*
X141288720Y-81068160D02*
X141174435Y-80991970D01*
X141174435Y-80991970D02*
X140888720Y-80991970D01*
X140888720Y-80991970D02*
X140717292Y-81068160D01*
X139974435Y-80991970D02*
X139745863Y-80991970D01*
X139745863Y-80991970D02*
X139631578Y-81068160D01*
X139631578Y-81068160D02*
X139517292Y-81220541D01*
X139517292Y-81220541D02*
X139460149Y-81525303D01*
X139460149Y-81525303D02*
X139460149Y-82058637D01*
X139460149Y-82058637D02*
X139517292Y-82363399D01*
X139517292Y-82363399D02*
X139631578Y-82515780D01*
X139631578Y-82515780D02*
X139745863Y-82591970D01*
X139745863Y-82591970D02*
X139974435Y-82591970D01*
X139974435Y-82591970D02*
X140088721Y-82515780D01*
X140088721Y-82515780D02*
X140203006Y-82363399D01*
X140203006Y-82363399D02*
X140260149Y-82058637D01*
X140260149Y-82058637D02*
X140260149Y-81525303D01*
X140260149Y-81525303D02*
X140203006Y-81220541D01*
X140203006Y-81220541D02*
X140088721Y-81068160D01*
X140088721Y-81068160D02*
X139974435Y-80991970D01*
X142545863Y-85091690D02*
X142374435Y-85167880D01*
X142374435Y-85167880D02*
X142088720Y-85167880D01*
X142088720Y-85167880D02*
X141974435Y-85091690D01*
X141974435Y-85091690D02*
X141917292Y-85015499D01*
X141917292Y-85015499D02*
X141860149Y-84863118D01*
X141860149Y-84863118D02*
X141860149Y-84710737D01*
X141860149Y-84710737D02*
X141917292Y-84558356D01*
X141917292Y-84558356D02*
X141974435Y-84482166D01*
X141974435Y-84482166D02*
X142088720Y-84405975D01*
X142088720Y-84405975D02*
X142317292Y-84329785D01*
X142317292Y-84329785D02*
X142431577Y-84253594D01*
X142431577Y-84253594D02*
X142488720Y-84177404D01*
X142488720Y-84177404D02*
X142545863Y-84025023D01*
X142545863Y-84025023D02*
X142545863Y-83872642D01*
X142545863Y-83872642D02*
X142488720Y-83720261D01*
X142488720Y-83720261D02*
X142431577Y-83644070D01*
X142431577Y-83644070D02*
X142317292Y-83567880D01*
X142317292Y-83567880D02*
X142031577Y-83567880D01*
X142031577Y-83567880D02*
X141860149Y-83644070D01*
X140660149Y-85015499D02*
X140717292Y-85091690D01*
X140717292Y-85091690D02*
X140888720Y-85167880D01*
X140888720Y-85167880D02*
X141003006Y-85167880D01*
X141003006Y-85167880D02*
X141174435Y-85091690D01*
X141174435Y-85091690D02*
X141288720Y-84939309D01*
X141288720Y-84939309D02*
X141345863Y-84786928D01*
X141345863Y-84786928D02*
X141403006Y-84482166D01*
X141403006Y-84482166D02*
X141403006Y-84253594D01*
X141403006Y-84253594D02*
X141345863Y-83948832D01*
X141345863Y-83948832D02*
X141288720Y-83796451D01*
X141288720Y-83796451D02*
X141174435Y-83644070D01*
X141174435Y-83644070D02*
X141003006Y-83567880D01*
X141003006Y-83567880D02*
X140888720Y-83567880D01*
X140888720Y-83567880D02*
X140717292Y-83644070D01*
X140717292Y-83644070D02*
X140660149Y-83720261D01*
X140145863Y-85167880D02*
X140145863Y-83567880D01*
X139460149Y-85167880D02*
X139974435Y-84253594D01*
X139460149Y-83567880D02*
X140145863Y-84482166D01*
X143174434Y-87743790D02*
X143574434Y-86981885D01*
X143860148Y-87743790D02*
X143860148Y-86143790D01*
X143860148Y-86143790D02*
X143403005Y-86143790D01*
X143403005Y-86143790D02*
X143288720Y-86219980D01*
X143288720Y-86219980D02*
X143231577Y-86296171D01*
X143231577Y-86296171D02*
X143174434Y-86448552D01*
X143174434Y-86448552D02*
X143174434Y-86677123D01*
X143174434Y-86677123D02*
X143231577Y-86829504D01*
X143231577Y-86829504D02*
X143288720Y-86905695D01*
X143288720Y-86905695D02*
X143403005Y-86981885D01*
X143403005Y-86981885D02*
X143860148Y-86981885D01*
X142203005Y-87667600D02*
X142317291Y-87743790D01*
X142317291Y-87743790D02*
X142545863Y-87743790D01*
X142545863Y-87743790D02*
X142660148Y-87667600D01*
X142660148Y-87667600D02*
X142717291Y-87515219D01*
X142717291Y-87515219D02*
X142717291Y-86905695D01*
X142717291Y-86905695D02*
X142660148Y-86753314D01*
X142660148Y-86753314D02*
X142545863Y-86677123D01*
X142545863Y-86677123D02*
X142317291Y-86677123D01*
X142317291Y-86677123D02*
X142203005Y-86753314D01*
X142203005Y-86753314D02*
X142145863Y-86905695D01*
X142145863Y-86905695D02*
X142145863Y-87058076D01*
X142145863Y-87058076D02*
X142717291Y-87210457D01*
X141688720Y-87667600D02*
X141574434Y-87743790D01*
X141574434Y-87743790D02*
X141345863Y-87743790D01*
X141345863Y-87743790D02*
X141231577Y-87667600D01*
X141231577Y-87667600D02*
X141174434Y-87515219D01*
X141174434Y-87515219D02*
X141174434Y-87439028D01*
X141174434Y-87439028D02*
X141231577Y-87286647D01*
X141231577Y-87286647D02*
X141345863Y-87210457D01*
X141345863Y-87210457D02*
X141517292Y-87210457D01*
X141517292Y-87210457D02*
X141631577Y-87134266D01*
X141631577Y-87134266D02*
X141688720Y-86981885D01*
X141688720Y-86981885D02*
X141688720Y-86905695D01*
X141688720Y-86905695D02*
X141631577Y-86753314D01*
X141631577Y-86753314D02*
X141517292Y-86677123D01*
X141517292Y-86677123D02*
X141345863Y-86677123D01*
X141345863Y-86677123D02*
X141231577Y-86753314D01*
X140203005Y-87667600D02*
X140317291Y-87743790D01*
X140317291Y-87743790D02*
X140545863Y-87743790D01*
X140545863Y-87743790D02*
X140660148Y-87667600D01*
X140660148Y-87667600D02*
X140717291Y-87515219D01*
X140717291Y-87515219D02*
X140717291Y-86905695D01*
X140717291Y-86905695D02*
X140660148Y-86753314D01*
X140660148Y-86753314D02*
X140545863Y-86677123D01*
X140545863Y-86677123D02*
X140317291Y-86677123D01*
X140317291Y-86677123D02*
X140203005Y-86753314D01*
X140203005Y-86753314D02*
X140145863Y-86905695D01*
X140145863Y-86905695D02*
X140145863Y-87058076D01*
X140145863Y-87058076D02*
X140717291Y-87210457D01*
X139803006Y-86677123D02*
X139345863Y-86677123D01*
X139631577Y-86143790D02*
X139631577Y-87515219D01*
X139631577Y-87515219D02*
X139574434Y-87667600D01*
X139574434Y-87667600D02*
X139460149Y-87743790D01*
X139460149Y-87743790D02*
X139345863Y-87743790D01*
X131232707Y-81932446D02*
X130318422Y-81932446D01*
X130775564Y-82541970D02*
X130775564Y-81322922D01*
X129918422Y-80941970D02*
X129518422Y-82541970D01*
X129518422Y-82541970D02*
X129118422Y-80941970D01*
X128032708Y-82389589D02*
X128089851Y-82465780D01*
X128089851Y-82465780D02*
X128261279Y-82541970D01*
X128261279Y-82541970D02*
X128375565Y-82541970D01*
X128375565Y-82541970D02*
X128546994Y-82465780D01*
X128546994Y-82465780D02*
X128661279Y-82313399D01*
X128661279Y-82313399D02*
X128718422Y-82161018D01*
X128718422Y-82161018D02*
X128775565Y-81856256D01*
X128775565Y-81856256D02*
X128775565Y-81627684D01*
X128775565Y-81627684D02*
X128718422Y-81322922D01*
X128718422Y-81322922D02*
X128661279Y-81170541D01*
X128661279Y-81170541D02*
X128546994Y-81018160D01*
X128546994Y-81018160D02*
X128375565Y-80941970D01*
X128375565Y-80941970D02*
X128261279Y-80941970D01*
X128261279Y-80941970D02*
X128089851Y-81018160D01*
X128089851Y-81018160D02*
X128032708Y-81094351D01*
X126832708Y-82389589D02*
X126889851Y-82465780D01*
X126889851Y-82465780D02*
X127061279Y-82541970D01*
X127061279Y-82541970D02*
X127175565Y-82541970D01*
X127175565Y-82541970D02*
X127346994Y-82465780D01*
X127346994Y-82465780D02*
X127461279Y-82313399D01*
X127461279Y-82313399D02*
X127518422Y-82161018D01*
X127518422Y-82161018D02*
X127575565Y-81856256D01*
X127575565Y-81856256D02*
X127575565Y-81627684D01*
X127575565Y-81627684D02*
X127518422Y-81322922D01*
X127518422Y-81322922D02*
X127461279Y-81170541D01*
X127461279Y-81170541D02*
X127346994Y-81018160D01*
X127346994Y-81018160D02*
X127175565Y-80941970D01*
X127175565Y-80941970D02*
X127061279Y-80941970D01*
X127061279Y-80941970D02*
X126889851Y-81018160D01*
X126889851Y-81018160D02*
X126832708Y-81094351D01*
X131232707Y-85117880D02*
X131232707Y-83517880D01*
X131232707Y-83517880D02*
X130832707Y-84660737D01*
X130832707Y-84660737D02*
X130432707Y-83517880D01*
X130432707Y-83517880D02*
X130432707Y-85117880D01*
X129632707Y-83517880D02*
X129404135Y-83517880D01*
X129404135Y-83517880D02*
X129289850Y-83594070D01*
X129289850Y-83594070D02*
X129175564Y-83746451D01*
X129175564Y-83746451D02*
X129118421Y-84051213D01*
X129118421Y-84051213D02*
X129118421Y-84584547D01*
X129118421Y-84584547D02*
X129175564Y-84889309D01*
X129175564Y-84889309D02*
X129289850Y-85041690D01*
X129289850Y-85041690D02*
X129404135Y-85117880D01*
X129404135Y-85117880D02*
X129632707Y-85117880D01*
X129632707Y-85117880D02*
X129746993Y-85041690D01*
X129746993Y-85041690D02*
X129861278Y-84889309D01*
X129861278Y-84889309D02*
X129918421Y-84584547D01*
X129918421Y-84584547D02*
X129918421Y-84051213D01*
X129918421Y-84051213D02*
X129861278Y-83746451D01*
X129861278Y-83746451D02*
X129746993Y-83594070D01*
X129746993Y-83594070D02*
X129632707Y-83517880D01*
X128661278Y-85041690D02*
X128489850Y-85117880D01*
X128489850Y-85117880D02*
X128204135Y-85117880D01*
X128204135Y-85117880D02*
X128089850Y-85041690D01*
X128089850Y-85041690D02*
X128032707Y-84965499D01*
X128032707Y-84965499D02*
X127975564Y-84813118D01*
X127975564Y-84813118D02*
X127975564Y-84660737D01*
X127975564Y-84660737D02*
X128032707Y-84508356D01*
X128032707Y-84508356D02*
X128089850Y-84432166D01*
X128089850Y-84432166D02*
X128204135Y-84355975D01*
X128204135Y-84355975D02*
X128432707Y-84279785D01*
X128432707Y-84279785D02*
X128546992Y-84203594D01*
X128546992Y-84203594D02*
X128604135Y-84127404D01*
X128604135Y-84127404D02*
X128661278Y-83975023D01*
X128661278Y-83975023D02*
X128661278Y-83822642D01*
X128661278Y-83822642D02*
X128604135Y-83670261D01*
X128604135Y-83670261D02*
X128546992Y-83594070D01*
X128546992Y-83594070D02*
X128432707Y-83517880D01*
X128432707Y-83517880D02*
X128146992Y-83517880D01*
X128146992Y-83517880D02*
X127975564Y-83594070D01*
X127461278Y-85117880D02*
X127461278Y-83517880D01*
X130604136Y-86169980D02*
X130718422Y-86093790D01*
X130718422Y-86093790D02*
X130889850Y-86093790D01*
X130889850Y-86093790D02*
X131061279Y-86169980D01*
X131061279Y-86169980D02*
X131175564Y-86322361D01*
X131175564Y-86322361D02*
X131232707Y-86474742D01*
X131232707Y-86474742D02*
X131289850Y-86779504D01*
X131289850Y-86779504D02*
X131289850Y-87008076D01*
X131289850Y-87008076D02*
X131232707Y-87312838D01*
X131232707Y-87312838D02*
X131175564Y-87465219D01*
X131175564Y-87465219D02*
X131061279Y-87617600D01*
X131061279Y-87617600D02*
X130889850Y-87693790D01*
X130889850Y-87693790D02*
X130775564Y-87693790D01*
X130775564Y-87693790D02*
X130604136Y-87617600D01*
X130604136Y-87617600D02*
X130546993Y-87541409D01*
X130546993Y-87541409D02*
X130546993Y-87008076D01*
X130546993Y-87008076D02*
X130775564Y-87008076D01*
X130032707Y-87693790D02*
X130032707Y-86093790D01*
X130032707Y-86093790D02*
X129346993Y-87693790D01*
X129346993Y-87693790D02*
X129346993Y-86093790D01*
X128775564Y-87693790D02*
X128775564Y-86093790D01*
X128775564Y-86093790D02*
X128489850Y-86093790D01*
X128489850Y-86093790D02*
X128318421Y-86169980D01*
X128318421Y-86169980D02*
X128204136Y-86322361D01*
X128204136Y-86322361D02*
X128146993Y-86474742D01*
X128146993Y-86474742D02*
X128089850Y-86779504D01*
X128089850Y-86779504D02*
X128089850Y-87008076D01*
X128089850Y-87008076D02*
X128146993Y-87312838D01*
X128146993Y-87312838D02*
X128204136Y-87465219D01*
X128204136Y-87465219D02*
X128318421Y-87617600D01*
X128318421Y-87617600D02*
X128489850Y-87693790D01*
X128489850Y-87693790D02*
X128775564Y-87693790D01*
D13*
X136154603Y-129003317D02*
X135613084Y-129496860D01*
X135613084Y-129496860D02*
X135719436Y-128771934D01*
X135530511Y-128392383D02*
X135510132Y-128325729D01*
X135510132Y-128325729D02*
X135446237Y-128235935D01*
X135446237Y-128235935D02*
X135228654Y-128120244D01*
X135228654Y-128120244D02*
X135118482Y-128117484D01*
X135118482Y-128117484D02*
X135051827Y-128137863D01*
X135051827Y-128137863D02*
X134962034Y-128201758D01*
X134962034Y-128201758D02*
X134915757Y-128288791D01*
X134915757Y-128288791D02*
X134889859Y-128442480D01*
X134889859Y-128442480D02*
X135134401Y-129242339D01*
X135134401Y-129242339D02*
X134568684Y-128941542D01*
X134223310Y-128646264D02*
X134156655Y-128666643D01*
X134156655Y-128666643D02*
X134177034Y-128733298D01*
X134177034Y-128733298D02*
X134243689Y-128712919D01*
X134243689Y-128712919D02*
X134223310Y-128646264D01*
X134223310Y-128646264D02*
X134177034Y-128733298D01*
X133836119Y-127379821D02*
X134010186Y-127472374D01*
X134010186Y-127472374D02*
X134074081Y-127562167D01*
X134074081Y-127562167D02*
X134094460Y-127628822D01*
X134094460Y-127628822D02*
X134112079Y-127805648D01*
X134112079Y-127805648D02*
X134063042Y-128002853D01*
X134063042Y-128002853D02*
X133877936Y-128350987D01*
X133877936Y-128350987D02*
X133788143Y-128414882D01*
X133788143Y-128414882D02*
X133721488Y-128435261D01*
X133721488Y-128435261D02*
X133611317Y-128432501D01*
X133611317Y-128432501D02*
X133437250Y-128339948D01*
X133437250Y-128339948D02*
X133373355Y-128250155D01*
X133373355Y-128250155D02*
X133352976Y-128183500D01*
X133352976Y-128183500D02*
X133355736Y-128073328D01*
X133355736Y-128073328D02*
X133471427Y-127855745D01*
X133471427Y-127855745D02*
X133561220Y-127791849D01*
X133561220Y-127791849D02*
X133627875Y-127771471D01*
X133627875Y-127771471D02*
X133738047Y-127774231D01*
X133738047Y-127774231D02*
X133912114Y-127866784D01*
X133912114Y-127866784D02*
X133976009Y-127956577D01*
X133976009Y-127956577D02*
X133996387Y-128023232D01*
X133996387Y-128023232D02*
X133993628Y-128133403D01*
D11*
X110895155Y-82380577D02*
X110895155Y-79220577D01*
D14*
X110895155Y-82395577D02*
X110895155Y-82380577D01*
D11*
X118515155Y-79220577D02*
X110895155Y-79220577D01*
X118515155Y-82380577D02*
X118515155Y-79220577D01*
D14*
X118515155Y-82395577D02*
X118515155Y-82380577D01*
D11*
X118515155Y-82380577D02*
G75*
G02*
X110895155Y-82380577I-3810000J-10160000D01*
G01*
D15*
X111367400Y-85850000D02*
X111367400Y-92505000D01*
X111367400Y-85850000D02*
X111722400Y-85495000D01*
X111367400Y-92505000D02*
X118377400Y-92505000D01*
X118377400Y-85495000D02*
X111722400Y-85495000D01*
X118377400Y-92505000D02*
X118377400Y-85495000D01*
X112488400Y-86256800D02*
G75*
G02*
X111770000Y-86256800I-359200J0D01*
G01*
X111770000Y-86256800D02*
G75*
G02*
X112488400Y-86256800I359200J0D01*
G01*
X135190455Y-120127759D02*
X135190455Y-119238759D01*
D16*
X135190455Y-120127759D02*
X135444455Y-120127759D01*
D15*
X135190455Y-122667759D02*
X135190455Y-120127759D01*
X135190455Y-123556759D02*
X135190455Y-122667759D01*
D16*
X135444455Y-122667759D02*
X135190455Y-122667759D01*
X135444455Y-122667759D02*
X135444455Y-120127759D01*
D15*
X137476455Y-118095759D02*
X137476455Y-118349759D01*
X137476455Y-118095759D02*
X139000455Y-118095759D01*
X137476455Y-118349759D02*
X137222455Y-118349759D01*
X137476455Y-124445759D02*
X137222455Y-124445759D01*
X137476455Y-124445759D02*
X137476455Y-124699759D01*
X139000455Y-118349759D02*
X139000455Y-118095759D01*
X139000455Y-118349759D02*
X139254455Y-118349759D01*
X139000455Y-124445759D02*
X139254455Y-124445759D01*
X139000455Y-124699759D02*
X137476455Y-124699759D01*
X139000455Y-124699759D02*
X139000455Y-124445759D01*
D16*
X141032455Y-120127759D02*
X141286455Y-120127759D01*
X141032455Y-122540759D02*
X141032455Y-120127759D01*
X141032455Y-122540759D02*
X141286455Y-122540759D01*
D15*
X141286455Y-119238759D02*
X141286455Y-120127759D01*
X141286455Y-120127759D02*
X141286455Y-122540759D01*
X141286455Y-122540759D02*
X141286455Y-123556759D01*
X138492455Y-121397759D02*
G75*
G02*
X137984455Y-121397759I-254000J0D01*
G01*
X137984455Y-121397759D02*
G75*
G02*
X138492455Y-121397759I254000J0D01*
G01*
X140016455Y-121397759D02*
G75*
G02*
X136460455Y-121397759I-1778000J0D01*
G01*
X136460455Y-121397759D02*
G75*
G02*
X140016455Y-121397759I1778000J0D01*
G01*
X112135000Y-71088000D02*
X117239600Y-71088000D01*
X117239600Y-75812000D02*
X112135000Y-75812000D01*
D17*
X113091000Y-75253400D02*
G75*
G02*
X112803800Y-75253400I-143600J0D01*
G01*
X112803800Y-75253400D02*
G75*
G02*
X113091000Y-75253400I143600J0D01*
G01*
X108794055Y-104796459D02*
X108794055Y-105796459D01*
X108794055Y-115796459D02*
X108794055Y-108796459D01*
X120794055Y-104796459D02*
X108794055Y-104796459D01*
X120794055Y-104796459D02*
X120794055Y-105796459D01*
X120794055Y-115796459D02*
X108794055Y-115796459D01*
X120794055Y-115796459D02*
X120794055Y-108796459D01*
D14*
X124850000Y-101350000D02*
X125032500Y-101350000D01*
X124850000Y-104150000D02*
X124850000Y-101350000D01*
X124850000Y-104150000D02*
X125032500Y-104150000D01*
X126650000Y-101350000D02*
X126467500Y-101350000D01*
X126650000Y-104150000D02*
X126467500Y-104150000D01*
X126650000Y-104150000D02*
X126650000Y-101350000D01*
D18*
X127414000Y-104775000D02*
G75*
G02*
X127164000Y-104775000I-125000J0D01*
G01*
X127164000Y-104775000D02*
G75*
G02*
X127414000Y-104775000I125000J0D01*
G01*
D14*
X103993000Y-101000000D02*
X104175500Y-101000000D01*
X103993000Y-103800000D02*
X103993000Y-101000000D01*
X103993000Y-103800000D02*
X104175500Y-103800000D01*
X105793000Y-101000000D02*
X105610500Y-101000000D01*
X105793000Y-103800000D02*
X105610500Y-103800000D01*
X105793000Y-103800000D02*
X105793000Y-101000000D01*
D18*
X106557000Y-104425000D02*
G75*
G02*
X106307000Y-104425000I-125000J0D01*
G01*
X106307000Y-104425000D02*
G75*
G02*
X106557000Y-104425000I125000J0D01*
G01*
D15*
X87979855Y-119978959D02*
X87979855Y-119089959D01*
D16*
X87979855Y-119978959D02*
X88233855Y-119978959D01*
D15*
X87979855Y-122518959D02*
X87979855Y-119978959D01*
X87979855Y-123407959D02*
X87979855Y-122518959D01*
D16*
X88233855Y-122518959D02*
X87979855Y-122518959D01*
X88233855Y-122518959D02*
X88233855Y-119978959D01*
D15*
X90265855Y-117946959D02*
X90265855Y-118200959D01*
X90265855Y-117946959D02*
X91789855Y-117946959D01*
X90265855Y-118200959D02*
X90011855Y-118200959D01*
X90265855Y-124296959D02*
X90011855Y-124296959D01*
X90265855Y-124296959D02*
X90265855Y-124550959D01*
X91789855Y-118200959D02*
X91789855Y-117946959D01*
X91789855Y-118200959D02*
X92043855Y-118200959D01*
X91789855Y-124296959D02*
X92043855Y-124296959D01*
X91789855Y-124550959D02*
X90265855Y-124550959D01*
X91789855Y-124550959D02*
X91789855Y-124296959D01*
D16*
X93821855Y-119978959D02*
X94075855Y-119978959D01*
X93821855Y-122391959D02*
X93821855Y-119978959D01*
X93821855Y-122391959D02*
X94075855Y-122391959D01*
D15*
X94075855Y-119089959D02*
X94075855Y-119978959D01*
X94075855Y-119978959D02*
X94075855Y-122391959D01*
X94075855Y-122391959D02*
X94075855Y-123407959D01*
X91281855Y-121248959D02*
G75*
G02*
X90773855Y-121248959I-254000J0D01*
G01*
X90773855Y-121248959D02*
G75*
G02*
X91281855Y-121248959I254000J0D01*
G01*
X92805855Y-121248959D02*
G75*
G02*
X89249855Y-121248959I-1778000J0D01*
G01*
X89249855Y-121248959D02*
G75*
G02*
X92805855Y-121248959I1778000J0D01*
G01*
%LPC*%
D19*
X122294055Y-98326459D03*
X122294055Y-95786459D03*
X122294055Y-93246459D03*
X122294055Y-90706459D03*
X122294055Y-88166459D03*
X122294055Y-85626459D03*
X122294055Y-83086459D03*
X122294055Y-80546459D03*
X107294055Y-80546459D03*
X107294055Y-83086459D03*
X107294055Y-85626459D03*
X107294055Y-88166459D03*
X107294055Y-90706459D03*
X107294055Y-93246459D03*
X107294055Y-95786459D03*
X107294055Y-98326459D03*
D20*
X114705155Y-78880577D03*
X114705155Y-99880577D03*
D21*
X112072400Y-84711200D03*
X112872400Y-84711200D03*
X113672400Y-84711200D03*
X114472400Y-84711200D03*
X115272400Y-84711200D03*
X116072400Y-84711200D03*
X116872400Y-84711200D03*
X117672400Y-84711200D03*
D22*
X119161200Y-86200000D03*
X119161200Y-87000000D03*
X119161200Y-87800000D03*
X119161200Y-88600000D03*
X119161200Y-89400000D03*
X119161200Y-90200000D03*
X119161200Y-91000000D03*
D23*
X119161200Y-91825000D03*
D21*
X117672400Y-93288800D03*
X116872400Y-93288800D03*
X116072400Y-93288800D03*
X115272400Y-93288800D03*
X114472400Y-93288800D03*
X113672400Y-93288800D03*
X112872400Y-93288800D03*
X112072400Y-93288800D03*
D22*
X110583600Y-91800000D03*
X110583600Y-91000000D03*
X110583600Y-90200000D03*
X110583600Y-89400000D03*
X110583600Y-88600000D03*
X110583600Y-87800000D03*
X110583600Y-87000000D03*
X110583600Y-86200000D03*
D24*
X135977855Y-118146559D03*
X135977855Y-124648959D03*
X140499055Y-118146559D03*
X140499055Y-124648959D03*
D25*
X116796814Y-95801699D03*
X115046814Y-95801699D03*
D26*
X108670118Y-75958318D03*
X108670118Y-74258318D03*
D27*
X109526015Y-82033599D03*
X109526015Y-80283599D03*
D26*
X119915114Y-82021302D03*
X119915114Y-80321302D03*
D27*
X111933055Y-80306459D03*
X111933055Y-82056459D03*
D28*
X111321800Y-75355000D03*
X111321800Y-74085000D03*
X111321800Y-72815000D03*
X111321800Y-71545000D03*
X118052800Y-71545000D03*
X118052800Y-72815000D03*
X118052800Y-74085000D03*
X118052800Y-75355000D03*
D26*
X121055155Y-76031980D03*
X121055155Y-74331980D03*
D29*
X135950000Y-81800000D03*
D30*
X133410000Y-81800000D03*
X135950000Y-84340000D03*
X133410000Y-84340000D03*
X135950000Y-86880000D03*
X133410000Y-86880000D03*
D31*
X109794055Y-114796459D03*
X119794055Y-114796459D03*
X109794055Y-112296459D03*
X119794055Y-112296459D03*
X114794055Y-107296459D03*
D20*
X119794055Y-107296459D03*
X117294055Y-107296459D03*
X114794055Y-112296459D03*
X109794055Y-107296459D03*
X112294055Y-107296459D03*
D32*
X125750000Y-100950000D03*
X125750000Y-104550000D03*
D26*
X117594055Y-80331459D03*
X117594055Y-82031459D03*
D32*
X104893000Y-100600000D03*
X104893000Y-104200000D03*
D26*
X111450000Y-101700000D03*
X111450000Y-103400000D03*
D33*
X113100000Y-96750000D03*
X111400000Y-96750000D03*
D24*
X88767255Y-117997759D03*
X88767255Y-124500159D03*
X93288455Y-117997759D03*
X93288455Y-124500159D03*
%LPD*%
M02*
