<?xml version="1.0" encoding="UTF-8" standalone="no"?>
<svg
   version="1.1"
   width="297.0022mm"
   height="210.0072mm"
   viewBox="0.0000 0.0000 297.0022 210.0072"
   id="svg123"
   sodipodi:docname="Blinkenstar-F_Silkscreen.svg"
   inkscape:version="1.4 (e7c3feb1, 2024-10-09)"
   xmlns:inkscape="http://www.inkscape.org/namespaces/inkscape"
   xmlns:sodipodi="http://sodipodi.sourceforge.net/DTD/sodipodi-0.dtd"
   xmlns="http://www.w3.org/2000/svg"
   xmlns:svg="http://www.w3.org/2000/svg">
  <defs
     id="defs123" />
  <sodipodi:namedview
     id="namedview123"
     pagecolor="#505050"
     bordercolor="#eeeeee"
     borderopacity="1"
     inkscape:showpageshadow="0"
     inkscape:pageopacity="0"
     inkscape:pagecheckerboard="0"
     inkscape:deskcolor="#505050"
     inkscape:document-units="mm"
     inkscape:zoom="11.313709"
     inkscape:cx="501.07354"
     inkscape:cy="335.12442"
     inkscape:window-width="3008"
     inkscape:window-height="1692"
     inkscape:window-x="1728"
     inkscape:window-y="0"
     inkscape:window-maximized="0"
     inkscape:current-layer="svg123" />
  <title
     id="title1">SVG Image created as Blinkenstar-F_Silkscreen.svg date 2025/05/31 22:13:57 </title>
  <desc
     id="desc1">Image generated by PCBNEW </desc>
  <path
     id="path18"
     style="fill:#000000;fill-opacity:1;fill-rule:evenodd;stroke:none;stroke-width:0.4064;stroke-linecap:round;stroke-linejoin:round;stroke-opacity:1"
     d="M 114.91908 49.210433 L 114.77387 49.211466 L 114.34237 49.234721 L 113.91863 49.285881 L 113.50367 49.364429 L 113.09956 49.470365 L 112.70837 49.602657 L 112.33061 49.760787 L 111.96836 49.943722 L 111.62316 50.151461 L 111.29708 50.382971 L 110.99064 50.637736 L 110.70642 50.914722 L 110.44545 51.213928 L 110.20981 51.534322 L 110.00052 51.87487 L 109.81965 52.236088 L 109.74007 52.423674 L 109.66824 52.616427 L 97.592493 87.198812 L 103.62778 91.973714 L 114.77542 60.322416 L 114.8054 60.240251 L 114.83537 60.16687 L 114.86534 60.101758 L 114.89428 60.044914 L 114.9227 59.995304 L 114.95112 59.95293 L 114.97851 59.917273 L 115.00538 59.887817 L 115.03174 59.864046 L 115.05758 59.846476 L 115.08238 59.833557 L 115.10667 59.825289 L 115.12992 59.821672 L 115.15266 59.821672 L 115.17437 59.825289 L 115.19504 59.832524 L 115.21467 59.841825 L 115.23379 59.853711 L 115.26842 59.88265 L 115.29839 59.915723 L 115.32371 59.950346 L 115.34386 59.982385 L 115.35885 60.009774 L 115.37125 60.035095 L 119.02168 70.791545 L 126.5685 70.659253 L 121.2882 54.400814 L 121.15023 54.032878 L 121.00192 53.665458 L 120.84172 53.300106 L 120.6686 52.938371 L 120.48102 52.58232 L 120.27793 52.234021 L 120.05882 51.89554 L 119.82111 51.568429 L 119.56479 51.254753 L 119.28833 50.95658 L 118.99067 50.67546 L 118.67028 50.41346 L 118.50129 50.29047 L 118.32611 50.172648 L 118.14473 50.06051 L 117.95714 49.954574 L 117.76284 49.854838 L 117.5613 49.761304 L 117.35356 49.674487 L 117.1391 49.594906 L 116.99079 49.544779 L 116.84196 49.498787 L 116.69365 49.455896 L 116.54482 49.416622 L 116.396 49.380448 L 116.24717 49.348409 L 116.09834 49.31947 L 115.95003 49.294149 L 115.80172 49.272445 L 115.65341 49.253841 L 115.50561 49.238338 L 115.35833 49.226453 L 115.21157 49.217668 L 115.06533 49.2125 L 114.91908 49.210433 z M 112.89285 73.549516 L 110.37724 80.817806 L 131.96662 80.879301 L 131.96714 85.268697 L 132.37332 86.53787 L 132.37228 80.879818 L 131.96714 80.877751 L 131.96714 80.548055 A 0.2032 0.2032 0 0 1 131.96662 80.547021 A 0.2032 0.2032 0 0 1 131.96714 80.545988 L 131.96714 80.545471 C 131.96718 80.433306 132.05807 80.342427 132.17023 80.342383 C 132.17548 80.342385 132.18057 80.343539 132.18573 80.343933 L 137.25002 80.343933 A 0.2032 0.2032 0 0 1 137.39368 80.403361 A 0.2032 0.2032 0 0 1 137.45311 80.547021 L 137.45311 80.894287 L 137.04693 80.893254 L 137.04693 80.75011 L 132.37332 80.75011 L 132.37332 80.880334 L 137.0459 80.89377 L 137.04693 82.453365 C 137.04694 82.468718 137.04887 82.483429 137.0521 82.497807 A 0.2032 0.2032 0 0 0 137.0521 82.498324 A 0.2032 0.2032 0 0 0 137.05262 82.499357 C 137.05945 82.528607 137.07239 82.555547 137.09034 82.578422 A 0.2032 0.2032 0 0 0 137.09189 82.580489 C 137.10112 82.591961 137.11142 82.602268 137.1229 82.611495 A 0.2032 0.2032 0 0 0 137.12341 82.612012 A 0.2032 0.2032 0 0 0 137.12496 82.613045 C 137.13516 82.621028 137.14641 82.627773 137.15804 82.633716 A 0.2032 0.2032 0 0 0 137.16475 82.637333 C 137.17739 82.643203 137.19118 82.6481 137.20506 82.651286 L 137.20558 82.651286 C 137.21993 82.654504 137.23471 82.656448 137.25002 82.656453 L 138.31662 82.656453 L 138.31662 86.059863 L 137.25002 86.05883 C 137.13785 86.058869 137.04697 86.149753 137.04693 86.261918 L 137.04797 87.121814 L 137.45311 86.803487 L 137.45311 86.465007 L 137.88719 86.465007 L 137.45311 86.804004 L 137.45311 88.167745 A 0.2032 0.2032 0 0 1 137.25002 88.37135 L 135.45271 88.37135 L 135.96689 87.964657 L 137.04693 87.964657 L 137.04693 87.121297 L 135.96844 87.963623 L 132.82445 87.963623 L 132.3728 86.543038 L 132.3728 87.96569 L 132.82238 87.96569 L 132.95416 88.372384 L 132.16661 88.372384 C 132.13097 88.37237 132.09909 88.360688 132.06997 88.344478 A 0.2032 0.2032 0 0 1 132.06636 88.341895 C 132.03638 88.32433 132.0122 88.300002 131.99453 88.270064 A 0.2032 0.2032 0 0 1 131.99401 88.269031 C 131.97647 88.238928 131.96353 88.206063 131.96352 88.168778 C 131.96352 88.163283 131.96619 88.158661 131.96662 88.153276 L 131.96662 85.26508 L 131.40438 83.496195 L 123.66015 83.13446 L 134.43882 117.35356 L 134.46621 117.44296 L 134.48843 117.52409 L 134.50549 117.59799 L 134.51789 117.66517 L 134.52616 117.72511 L 134.53029 117.77886 L 134.53081 117.8264 L 134.52771 117.86826 L 134.5215 117.90443 L 134.51272 117.93544 L 134.50083 117.96179 L 134.48688 117.9835 L 134.47086 118.00107 L 134.45278 118.01502 L 134.43365 118.02484 L 134.41247 118.03207 L 134.39128 118.03569 L 134.36906 118.03672 L 134.32358 118.03311 L 134.27914 118.02277 L 134.2378 118.0083 L 134.20163 117.99331 L 134.17269 117.97885 L 134.14737 117.96438 L 123.33252 109.90285 L 117.18199 114.65708 L 132.94847 126.50391 L 133.2854 126.73542 L 133.6306 126.95969 L 133.98459 127.17518 L 134.3458 127.37931 L 134.71529 127.56947 L 135.09201 127.74311 L 135.47597 127.89814 L 135.86716 128.0325 L 136.26455 128.14308 L 136.66918 128.22835 L 137.07949 128.28519 L 137.28723 128.30276 L 137.49652 128.31155 L 137.70684 128.31258 L 137.91871 128.30535 L 138.13214 128.28933 L 138.34659 128.26401 L 138.5626 128.22938 L 138.78016 128.18546 L 138.99875 128.13068 L 139.21838 128.06608 L 139.51345 127.9648 L 139.79974 127.85059 L 140.07775 127.72399 L 140.34647 127.58601 L 140.60692 127.43667 L 140.85755 127.27647 L 141.09836 127.10594 L 141.32987 126.92559 L 141.55105 126.73593 L 141.76189 126.53698 L 141.96188 126.32976 L 142.15153 126.11478 L 142.32981 125.89154 L 142.49673 125.66158 L 142.65176 125.4249 L 142.79542 125.18202 L 142.92668 124.93294 L 143.04553 124.67921 L 143.15199 124.4198 L 143.245 124.15676 L 143.32562 123.88908 L 143.39228 123.61829 L 143.44551 123.34441 L 143.48478 123.06794 L 143.5101 122.78889 L 143.52044 122.5088 L 143.51682 122.22716 L 143.4977 121.94449 L 143.46359 121.66182 L 143.41399 121.37915 L 143.34887 121.09752 L 143.26774 120.8164 L 132.95468 88.372384 L 135.4491 88.37135 L 138.06082 95.455672 L 151.66774 85.106433 L 151.96954 84.855286 L 152.26771 84.59432 L 152.5602 84.323018 L 152.84493 84.040348 L 153.11882 83.746309 L 153.38082 83.440385 L 153.62783 83.121541 L 153.85831 82.789779 L 154.06967 82.44458 L 154.16785 82.266813 L 154.26035 82.085429 L 154.34665 81.900427 L 154.42727 81.711808 L 154.50116 81.519572 L 154.56886 81.323201 L 154.62932 81.123214 L 154.68255 80.919092 L 154.72854 80.710836 L 154.76678 80.498446 L 154.79727 80.282438 L 154.81897 80.06178 L 154.83241 79.836987 L 154.83706 79.608061 L 154.83034 79.296452 L 154.80967 78.98846 L 154.77608 78.685636 L 154.72906 78.386947 L 154.67015 78.093941 L 154.59832 77.80662 L 154.5146 77.524984 L 154.41951 77.249548 L 154.31306 76.981348 L 154.19576 76.720382 L 154.06812 76.46665 L 153.92962 76.220671 L 153.78183 75.982959 L 153.6237 75.754549 L 153.45678 75.534408 L 153.28108 75.324084 L 153.0966 75.12358 L 152.90385 74.932894 L 152.70282 74.75306 L 152.49457 74.584078 L 152.27908 74.426465 L 152.05635 74.280737 L 151.82743 74.146895 L 151.59178 74.025456 L 151.35045 73.916935 L 151.10396 73.821851 L 150.85177 73.740202 L 150.59443 73.672506 L 150.33294 73.619279 L 150.06681 73.580522 L 149.79706 73.557267 L 149.52369 73.549516 L 112.89285 73.549516 z M 81.266874 73.782576 L 80.868966 73.79963 L 80.468473 73.827018 L 80.066431 73.866292 L 79.664388 73.919002 L 79.263896 73.987215 L 78.865987 74.072481 L 78.473246 74.176351 L 78.085673 74.301408 L 77.705851 74.449202 L 77.334814 74.620768 L 76.974113 74.818172 L 76.625814 75.043481 L 76.290434 75.298246 L 75.97004 75.584017 L 75.816044 75.739563 L 75.666182 75.902861 L 75.520972 76.07546 L 75.379895 76.256844 L 75.199544 76.511092 L 75.032629 76.770508 L 74.879667 77.034058 L 74.739624 77.301742 L 74.613534 77.573043 L 74.500362 77.847445 L 74.401143 78.12443 L 74.314844 78.402966 L 74.241463 78.683053 L 74.182035 78.964689 L 74.135527 79.246326 L 74.101937 79.527445 L 74.081783 79.808565 L 74.074548 80.088652 L 74.080233 80.367187 L 74.098836 80.64314 L 74.130359 80.917025 L 74.174801 81.187809 L 74.231645 81.45446 L 74.301925 81.717493 L 74.384607 81.975358 L 74.480208 82.228573 L 74.588212 82.475586 L 74.709135 82.716915 L 74.841943 82.951526 L 74.987671 83.178385 L 75.145801 83.39801 L 75.316333 83.609367 L 75.499268 83.811938 L 75.694604 84.005208 L 75.902344 84.189176 L 76.121969 84.362292 L 106.19145 106.75886 L 112.59726 102.46661 L 85.112118 81.877173 L 85.040804 81.822396 L 84.977759 81.770719 L 84.923499 81.722144 L 84.875956 81.676668 L 84.836165 81.633777 L 84.803092 81.593469 L 84.776221 81.556262 L 84.75555 81.521122 L 84.740564 81.488566 L 84.730745 81.458594 L 84.725578 81.430688 L 84.724544 81.405367 L 84.727645 81.381596 L 84.73488 81.360409 L 84.744698 81.340771 L 84.757617 81.323201 L 84.772603 81.307182 L 84.789657 81.292712 L 84.807743 81.28031 L 84.827897 81.268941 L 84.869238 81.250854 L 84.910063 81.237419 L 84.947786 81.228117 L 84.978276 81.222949 L 85.006698 81.218815 L 96.529508 81.08394 L 98.617236 73.806864 L 81.266874 73.782576 z M 132.17023 80.547538 L 137.25002 80.547538 L 132.17023 80.547538 z M 137.45518 80.894804 L 143.92972 80.913407 L 144.01757 80.914441 L 144.09663 80.918575 L 144.16794 80.924776 L 144.23151 80.933044 L 144.28783 80.943896 L 144.33693 80.956299 L 144.37982 80.970251 L 144.41702 80.986271 L 144.44751 81.003324 L 144.47335 81.021411 L 144.49351 81.040531 L 144.50953 81.060685 L 144.52089 81.081356 L 144.52761 81.10306 L 144.53175 81.124764 L 144.53226 81.146468 L 144.5302 81.168172 L 144.52555 81.189876 L 144.51004 81.232251 L 144.48885 81.271525 L 144.46457 81.306665 L 144.4408 81.336637 L 144.42064 81.359375 L 144.40049 81.379529 L 138.7259 85.810266 L 138.7228 82.453365 C 138.72279 82.438013 138.72086 82.422268 138.71763 82.40789 A 0.2032 0.2032 0 0 0 138.71711 82.406856 C 138.71406 82.393776 138.70964 82.381623 138.7042 82.369649 A 0.2032 0.2032 0 0 0 138.69644 82.35518 C 138.69215 82.347479 138.68771 82.340003 138.68249 82.332959 A 0.2032 0.2032 0 0 0 138.67061 82.31849 C 138.66554 82.312821 138.66026 82.307539 138.65459 82.30247 A 0.2032 0.2032 0 0 0 138.6396 82.290068 C 138.63258 82.284903 138.62505 82.280357 138.61738 82.276115 A 0.2032 0.2032 0 0 0 138.60394 82.26888 C 138.59156 82.263201 138.57824 82.258041 138.56467 82.254928 A 0.2032 0.2032 0 0 0 138.56415 82.254928 C 138.54981 82.251709 138.53502 82.249765 138.51971 82.24976 L 137.45363 82.24976 L 137.45518 80.894804 z M 138.7228 85.815951 L 138.7228 86.261918 A 0.2032 0.2032 0 0 1 138.66492 86.401961 A 0.2032 0.2032 0 0 1 138.65975 86.407129 A 0.2032 0.2032 0 0 1 138.51971 86.465007 L 137.88822 86.465007 L 138.41016 86.059863 L 138.40912 86.059863 L 138.7228 85.815951 z M 124.66888 96.016361 L 95.694934 117.74889 L 95.61897 117.8047 L 95.54869 117.85327 L 95.483577 117.8941 L 95.42415 117.92872 L 95.369373 117.95714 L 95.319763 117.97936 L 95.274288 117.9959 L 95.233464 118.00727 L 95.196773 118.01399 L 95.164217 118.01605 L 95.135278 118.01399 L 95.109957 118.0083 L 95.087736 117.999 L 95.068616 117.98711 L 95.052596 117.97213 L 95.038643 117.95507 L 95.027791 117.93595 L 95.019006 117.9158 L 95.012288 117.8941 L 95.007638 117.87187 L 95.00247 117.8264 L 95.001953 117.78247 L 95.005054 117.74372 L 95.008671 117.71168 L 95.013839 117.68274 L 99.192912 104.40448 L 92.759713 100.30085 L 86.502214 119.42889 L 86.393176 119.82628 L 86.292924 120.22884 L 86.204557 120.63605 L 86.129626 121.04687 L 86.070199 121.46029 L 86.028857 121.87525 L 86.00767 122.29021 L 86.00922 122.70465 L 86.034542 123.11755 L 86.086735 123.52786 L 86.167867 123.93455 L 86.280522 124.3366 L 86.425732 124.73295 L 86.511515 124.92881 L 86.6066 125.1226 L 86.710986 125.31483 L 86.824674 125.505 L 86.948698 125.69259 L 87.083057 125.8781 L 87.276843 126.12253 L 87.479932 126.35508 L 87.691288 126.57574 L 87.91143 126.78348 L 88.139323 126.97881 L 88.373934 127.16226 L 88.615263 127.3328 L 88.86331 127.49041 L 89.116524 127.63562 L 89.374906 127.76843 L 89.637939 127.8878 L 89.905107 127.99425 L 90.175891 128.08779 L 90.449259 128.16789 L 90.725728 128.23507 L 91.003748 128.28881 L 91.283834 128.32912 L 91.564437 128.35599 L 91.845557 128.36891 L 92.126676 128.36839 L 92.407279 128.35444 L 92.686849 128.32602 L 92.964868 128.28416 L 93.24082 128.22835 L 93.513672 128.15807 L 93.78394 128.07384 L 94.050073 127.97513 L 94.31259 127.86196 L 94.569938 127.73432 L 94.822119 127.59221 L 95.068616 127.43563 L 95.308911 127.26458 L 126.88011 103.4588 L 124.66888 96.016361 z " />
</svg>
