<?xml version="1.0" encoding="UTF-8" standalone="no"?>
<svg
   width="100%"
   height="100%"
   viewBox="0 0 4817 2296"
   version="1.1"
   xml:space="preserve"
   style="fill-rule:evenodd;clip-rule:evenodd;stroke-linejoin:round;stroke-miterlimit:1.41421;"
   id="svg22"
   sodipodi:docname="edge_cut.svg"
   inkscape:version="1.4 (e7c3feb1, 2024-10-09)"
   xmlns:inkscape="http://www.inkscape.org/namespaces/inkscape"
   xmlns:sodipodi="http://sodipodi.sourceforge.net/DTD/sodipodi-0.dtd"
   xmlns="http://www.w3.org/2000/svg"
   xmlns:svg="http://www.w3.org/2000/svg"><defs
     id="defs22" /><sodipodi:namedview
     id="namedview22"
     pagecolor="#505050"
     bordercolor="#eeeeee"
     borderopacity="1"
     inkscape:showpageshadow="0"
     inkscape:pageopacity="0"
     inkscape:pagecheckerboard="0"
     inkscape:deskcolor="#505050"
     inkscape:zoom="0.51246763"
     inkscape:cx="2396.2489"
     inkscape:cy="1102.5087"
     inkscape:window-width="2128"
     inkscape:window-height="1119"
     inkscape:window-x="2289"
     inkscape:window-y="182"
     inkscape:window-maximized="0"
     inkscape:current-layer="g22" /><g
     id="g22"
     style="fill:#ffffff"><path
       id="path24"
       style="clip-rule:nonzero;fill:none;fill-rule:nonzero;stroke-linejoin:miter;vector-effect:non-scaling-stroke;-inkscape-stroke:hairline;stroke-width:1;stroke-dasharray:none;stroke:#fdfdfd;stroke-opacity:1"
       d="m 2413.7603,365.5625 c -56.1269,1.09011 -109.4456,33.14826 -128.3926,87.46875 l -131.7969,377.44141 h -44.0859 c -0.1111,-0.0429 -0.2224,-0.0852 -0.334,-0.12696 l -327.8828,-0.45703 c -0.3809,-4.5e-4 -0.7619,0.005 -1.1426,0.0176 -43.6888,1.38764 -101.0898,11.28384 -137.8223,60.63867 -47.7327,64.11763 -41.1037,155.15218 21.0899,201.44918 h -0.01 l 312.2617,232.4903 -10.0273,30.3164 -118.25,361.4668 c -0.1318,0.4033 -0.2562,0.8089 -0.3731,1.2168 -12.4526,43.4257 -20.9063,102.541 16.6074,152.1797 48.7106,64.5834 140.2662,80.8411 203.752,32.9531 h 0.01 l 344.041,-259.6895 27.8027,21.4785 297.9512,223.875 c 0.2877,0.2162 0.5787,0.4278 0.873,0.6348 36.722,25.8348 89.5942,52.9413 148.7598,34.2012 l 0.049,-0.018 c 76.8931,-24.4853 122.9343,-104.8956 98.9336,-180.3359 v 0.01 l -134.8047,-422.8828 24.4161,-18.4668 257.1386,-195.5781 c 0.29,-0.2207 0.5765,-0.446 0.8594,-0.6758 33.6043,-27.2795 72.6465,-69.5964 72.6465,-130.68943 0,-79.57986 -58.1946,-148.99219 -134.9121,-148.99219 h -390.0899 l -10.8925,-30.77539 -99.793,-307.24609 c -0.1177,-0.3627 -0.2414,-0.72343 -0.3711,-1.08203 -14.7133,-40.6612 -41.7778,-91.50165 -99.4766,-111.65039 v -0.002 c -18.7938,-6.56073 -38.0253,-9.52348 -56.7324,-9.16015 z" /></g></svg>
