<?xml version="1.0" encoding="UTF-8" standalone="no"?>
<svg
   width="100%"
   height="100%"
   viewBox="0 0 4817 2296"
   version="1.1"
   xml:space="preserve"
   style="fill-rule:evenodd;clip-rule:evenodd;stroke-linejoin:round;stroke-miterlimit:1.41421;"
   id="svg22"
   sodipodi:docname="silk.svg"
   inkscape:version="1.4 (e7c3feb1, 2024-10-09)"
   xmlns:inkscape="http://www.inkscape.org/namespaces/inkscape"
   xmlns:sodipodi="http://sodipodi.sourceforge.net/DTD/sodipodi-0.dtd"
   xmlns="http://www.w3.org/2000/svg"
   xmlns:svg="http://www.w3.org/2000/svg"><defs
     id="defs22" /><sodipodi:namedview
     id="namedview22"
     pagecolor="#505050"
     bordercolor="#eeeeee"
     borderopacity="1"
     inkscape:showpageshadow="0"
     inkscape:pageopacity="0"
     inkscape:pagecheckerboard="0"
     inkscape:deskcolor="#505050"
     inkscape:zoom="0.51246763"
     inkscape:cx="2435.2758"
     inkscape:cy="1102.5087"
     inkscape:window-width="2128"
     inkscape:window-height="1119"
     inkscape:window-x="2289"
     inkscape:window-y="182"
     inkscape:window-maximized="0"
     inkscape:current-layer="g22" /><g
     id="g22"
     style="fill:#ffffff"><path
       style="clip-rule:nonzero;fill-rule:nonzero;stroke-linejoin:miter"
       d="m 2414.5133,400.0552 c -43.826,0.8512 -82.7861,25.05964 -96.4864,64.33789 l -228.2011,653.53121 114.0468,90.2266 210.6661,-598.12887 c 6.142,-17.463 11.2597,-5.4297 11.2597,-5.4297 l 68.9863,203.2656 142.6211,-2.498 -99.7929,-307.24614 c -13.387,-36.996 -34.3912,-75.44735 -78.4082,-90.81835 -14.9345,-5.2135 -30.0828,-7.52397 -44.6914,-7.24024 z m -35.5391,459.92383 -47.5469,137.3594 634.0703,1.8008 c 18.512,0 8.8965,8.81047 8.8965,8.81047 l -169.166,132.0879 49.3574,133.916 257.1387,-195.5781 c 30.55,-24.8 59.8906,-57.2873 59.8906,-103.90427 0,-63.225 -44.9581,-114.4922 -100.4121,-114.4922 z m -597.6699,4.4102 c -39.859,1.266 -83.3632,9.2949 -111.2422,46.7539 -37.746,50.7 -31.5014,119.29467 14.0156,153.17767 l 568.2422,423.2422 121.0547,-81.1172 -519.4043,-389.0918 c -15.221,-11.337 -1.9844,-12.4375 -1.9844,-12.4375 l 217.7461,-2.5527 39.4551,-137.51757 z m 801.1269,176.71477 203.6914,646.6621 c 6.045,18.775 -5.5039,11.5508 -5.5039,11.5508 l -204.3711,-152.3477 -116.2343,89.8477 297.9511,223.875 c 33.534,23.592 74.0533,43.6023 118.4903,29.5273 60.242,-19.183 94.5004,-80.5039 76.5254,-137.0039 l -224.1954,-705.2617 z m 19.0703,243.4629 -547.5332,410.6914 c -15.909,12.037 -12.871,-1.2637 -12.871,-1.2637 l 78.9667,-250.9277 -121.5703,-77.5429 -118.25,361.4667 c -11.396,39.741 -17.1174,84.7169 10.9746,121.8789 38.087,50.517 107.6903,62.2263 155.4493,26.1973 l 596.6211,-449.8672 z"
       id="path23" /></g></svg>
